<svg width="438" height="240" viewBox="0 0 438 240" fill="none" xmlns="http://www.w3.org/2000/svg">
<path d="M282.602 32.5056C282.602 32.5056 404.352 28.6068 386.836 91.5201C377.134 126.368 300.397 173.093 227.745 200.447C156.527 227.261 88.3176 234.577 88.3176 234.577C88.3176 234.577 160.177 231.575 240.051 208.317C305.844 189.159 372.545 153.231 409.855 119.441C411.284 118.147 412.397 116.627 413.569 115.255C442.416 81.4814 431.517 62.0361 424.5 54.2061C410.172 38.2172 356.191 21.0836 282.602 32.5056Z" fill="#F9F9F9"/>
<path d="M199.604 40.5208C197.961 40.5208 196.332 40.5967 194.713 40.5967C199.714 38.693 204.715 36.6514 209.702 34.7712C280.92 7.95768 349.127 0.714111 349.127 0.714111C349.127 0.714111 277.267 3.71698 197.394 26.9756C131.602 46.1317 64.8991 82.0596 27.5899 115.85C26.1611 117.144 25.0466 118.667 23.8752 120.038C-4.96973 153.809 5.92793 173.251 12.9436 181.08C27.2711 197.071 81.2557 214.199 154.846 202.777C154.846 202.777 33.0923 206.666 50.6104 143.753C57.2744 119.814 95.5787 90.25 142.457 65.2309C129.24 79.2659 121.133 98.1889 121.133 118.987C121.133 162.291 156.265 197.405 199.604 197.405C242.944 197.405 278.077 162.267 278.077 118.963C278.076 75.6581 242.944 40.5208 199.604 40.5208ZM194.96 149.107C167.206 149.107 144.71 126.63 144.71 98.8972C144.71 71.1648 167.206 48.6873 194.96 48.6873C222.715 48.6873 245.211 71.1653 245.211 98.8972C245.211 126.629 222.715 149.107 194.96 149.107Z" fill="#F9F9F9"/>
</svg>
