<svg width="391" height="340" viewBox="0 0 391 340" fill="none" xmlns="http://www.w3.org/2000/svg">
<g clip-path="url(#clip0)">
<path d="M190.72 137.969L55.7583 181.766C48.9879 183.963 41.6922 180.242 39.4951 173.472L12.2705 89.5774C10.0734 82.8069 13.7941 75.5112 20.5645 73.3141L155.526 29.5175C162.296 27.3207 169.591 31.0415 171.788 37.8119L199.013 121.706C201.21 128.477 197.489 135.772 190.72 137.969ZM47.7911 176.316C49.6697 177.41 51.9896 177.733 54.2153 177.011L189.177 133.214C191.387 132.497 193.066 130.892 193.95 128.923L119.432 104.288L110.672 116.391C110.036 117.271 108.906 117.639 107.874 117.303L93.6125 112.664L47.7911 176.316ZM122.506 100.038L194.417 123.81C194.372 123.623 194.318 123.436 194.257 123.249L167.033 39.3552C166.971 39.166 166.902 38.9801 166.829 38.798L122.506 100.038ZM16.9323 87.7218C16.9609 87.8261 16.9927 87.9304 17.0263 88.034L44.251 171.928C44.3059 172.098 44.3659 172.263 44.4308 172.424L88.6203 111.04L16.9323 87.7218ZM17.245 82.5655L107.687 111.985L163.446 34.9417C161.575 33.8678 159.276 33.5573 157.069 34.2737L22.1079 78.07C19.8213 78.812 18.1033 80.5029 17.245 82.5655Z" fill="#F9F9F9"/>
</g>
<g clip-path="url(#clip1)">
<path d="M377.582 123.954L291.545 151.874C287.229 153.275 282.578 150.903 281.178 146.587L263.822 93.1048C262.422 88.7887 264.794 84.1377 269.11 82.7371L355.147 54.8171C359.462 53.4167 364.113 55.7886 365.514 60.1047L382.869 113.587C384.27 117.903 381.898 122.554 377.582 123.954ZM286.466 148.4C287.664 149.098 289.143 149.303 290.562 148.843L376.599 120.923C378.008 120.466 379.078 119.443 379.641 118.188L332.137 102.482L326.552 110.199C326.147 110.759 325.426 110.994 324.768 110.779L315.677 107.822L286.466 148.4ZM334.097 99.7734L379.939 114.928C379.911 114.809 379.876 114.689 379.837 114.57L362.482 61.0886C362.443 60.9679 362.399 60.8494 362.352 60.7333L334.097 99.7734ZM266.794 91.9219C266.812 91.9883 266.833 92.0548 266.854 92.1209L284.21 145.603C284.245 145.711 284.283 145.816 284.324 145.919L312.495 106.787L266.794 91.9219ZM266.993 88.6348L324.649 107.389L360.195 58.275C359.003 57.5904 357.537 57.3924 356.13 57.8491L270.094 85.7689C268.636 86.2419 267.541 87.3198 266.993 88.6348Z" fill="#F9F9F9"/>
</g>
<g clip-path="url(#clip2)">
<path d="M315.582 292.954L229.545 320.874C225.229 322.275 220.578 319.903 219.178 315.587L201.822 262.105C200.422 257.789 202.794 253.138 207.11 251.737L293.147 223.817C297.462 222.417 302.113 224.789 303.514 229.105L320.869 282.587C322.27 286.903 319.898 291.554 315.582 292.954ZM224.466 317.4C225.664 318.098 227.143 318.303 228.562 317.843L314.599 289.923C316.008 289.466 317.078 288.443 317.641 287.188L270.137 271.482L264.552 279.199C264.147 279.759 263.426 279.994 262.768 279.779L253.677 276.822L224.466 317.4ZM272.097 268.773L317.939 283.928C317.911 283.809 317.876 283.689 317.837 283.57L300.482 230.089C300.443 229.968 300.399 229.849 300.352 229.733L272.097 268.773ZM204.794 260.922C204.812 260.988 204.833 261.055 204.854 261.121L222.21 314.603C222.245 314.711 222.283 314.816 222.324 314.919L250.495 275.787L204.794 260.922ZM204.993 257.635L262.649 276.389L298.195 227.275C297.003 226.59 295.537 226.392 294.13 226.849L208.094 254.769C206.636 255.242 205.541 256.32 204.993 257.635Z" fill="#F9F9F9"/>
</g>
<defs>
<clipPath id="clip0">
<rect width="167.707" height="167.707" fill="white" transform="translate(0 51.7655) rotate(-17.9789)"/>
</clipPath>
<clipPath id="clip1">
<rect width="106.912" height="106.912" fill="white" transform="translate(256 69) rotate(-17.9789)"/>
</clipPath>
<clipPath id="clip2">
<rect width="106.912" height="106.912" fill="white" transform="translate(194 238) rotate(-17.9789)"/>
</clipPath>
</defs>
</svg>
