<svg width="688" height="474" viewBox="0 0 688 474" fill="none" xmlns="http://www.w3.org/2000/svg">
<path d="M557.461 64.1985C557.461 64.1985 797.626 56.4985 763.074 180.752C743.935 249.577 592.564 341.858 449.252 395.882C308.766 448.84 174.216 463.289 174.216 463.289C174.216 463.289 315.965 457.36 473.525 411.426C603.309 373.589 734.884 302.632 808.481 235.896C811.301 233.34 813.497 230.338 815.807 227.629C872.711 160.926 851.211 122.521 837.369 107.057C809.108 75.4791 702.624 41.6401 557.461 64.1985Z" fill="#F3F3F3"/>
<path d="M393.74 80.0286C390.498 80.0286 387.286 80.1785 384.091 80.1785C393.957 76.4186 403.822 72.3866 413.659 68.6731C554.143 15.7164 688.689 1.41034 688.689 1.41034C688.689 1.41034 546.937 7.34101 389.38 53.2767C259.598 91.1101 128.02 162.068 54.4235 228.803C51.6052 231.359 49.4068 234.367 47.0959 237.075C-9.80359 303.773 11.6932 342.171 25.5323 357.633C53.7948 389.216 160.285 423.043 305.448 400.485C305.448 400.485 65.2776 408.166 99.834 283.913C112.979 236.633 188.539 178.244 281.011 128.831C254.938 156.55 238.946 193.923 238.946 234.999C238.946 320.525 308.248 389.875 393.74 389.875C479.232 389.875 548.535 320.478 548.535 234.951C548.533 149.425 479.231 80.0286 393.74 80.0286ZM384.579 294.487C329.83 294.487 285.454 250.094 285.454 195.322C285.454 140.551 329.83 96.1574 384.579 96.1574C439.327 96.1574 483.703 140.551 483.703 195.322C483.703 250.093 439.327 294.487 384.579 294.487Z" fill="#F3F3F3"/>
</svg>
