<svg width="1919" height="639" viewBox="0 0 1919 639" fill="none" xmlns="http://www.w3.org/2000/svg">
<g clip-path="url(#clip0)">
<path d="M1919 608.356L1916.77 607.437V606.978L1887.99 593.067C1849.9 569.614 1821.2 533.619 1806.84 491.291L1721.43 241.938C1715.46 223.995 1704.76 207.993 1690.44 195.623C1676.12 183.253 1658.73 174.974 1640.09 171.66V157.945H1603.56V171.069C1584.83 173.912 1567.23 181.754 1552.6 193.767C1537.97 205.779 1526.86 221.516 1520.44 239.313L1458.09 407.495C1453.27 420.832 1445.42 432.872 1435.16 442.674C1424.9 452.475 1412.51 459.773 1398.96 463.994C1397.64 461.041 1396.33 458.088 1395.28 455.004L1309.86 205.651C1303.06 185.066 1290.63 166.787 1273.99 152.875C1257.34 138.963 1237.13 129.969 1215.64 126.908V110.372H1179.38V127.367C1158.07 130.606 1138.08 139.679 1121.62 153.579C1105.16 167.479 1092.88 185.662 1086.14 206.11L1044.68 326.39C1038.39 345.581 1026.65 362.532 1010.9 375.184C995.137 387.835 976.038 395.641 955.919 397.653V382.298H919.388V395.421C903.348 391.771 888.402 384.38 875.772 373.853C863.141 363.326 853.186 349.962 846.72 334.855L810.977 254.209C803.571 237.169 792.193 222.144 777.792 210.387C763.391 198.63 746.385 190.482 728.191 186.621V172.185H691.66V184.456C674.32 185.953 657.535 191.309 642.538 200.132C627.542 208.955 614.714 221.02 604.997 235.442C595.957 248.881 583.905 260.03 569.796 268.004C555.688 275.977 539.912 280.556 523.722 281.375V265.495H487.257V277.569C470.811 272.959 455.751 264.385 443.4 252.6C431.05 240.814 421.788 226.18 416.428 209.982L376.546 93.2449C360.778 47.3115 328.189 17.914 289.489 13.78V0H253.024V17.6516C218.858 28.9381 192.117 61.0259 182.064 104.991C181.013 108.731 73.8506 481.776 42.7072 545.952L5.51909 622.53L4.33643 623.383C3.32413 623.834 2.44263 624.534 1.77399 625.417C1.0623 626.337 0.608171 627.429 0.458091 628.582C0.30801 629.735 0.467366 630.908 0.919848 631.979V632.307L0 633.816L5.97901 636.507V637.228H6.63605L10.3811 639.066L12.3522 634.997L34.9542 626.204C82.3517 607.872 121.259 572.638 144.153 527.316L207.82 401.393C213.627 389.981 221.846 379.964 231.908 372.033C241.97 364.103 253.635 358.448 266.099 355.459V362.612H302.236V353.885C322.244 357.294 340.26 368.033 352.762 384.004C354.076 385.71 355.39 387.482 356.638 389.253L461.304 541.818C476.394 564.031 499.398 579.66 525.627 585.52V596.479H562.159V587.489C580.219 585.316 597.416 578.536 612.093 567.803L691.988 509.468C728.353 482.811 772.308 468.485 817.416 468.587H928.127C931.675 468.587 935.223 468.587 938.771 467.996C965.543 480.534 996.104 482.365 1024.19 473.115L1119.65 443.389C1128.88 441.765 1138.21 440.8 1147.58 440.502C1148.17 444.572 1150.13 448.319 1153.15 451.125C1156.16 453.932 1160.03 455.632 1164.14 455.945C1168.25 456.258 1172.34 455.166 1175.74 452.848C1179.14 450.53 1181.65 447.125 1182.86 443.192C1236.74 453.691 1269.98 491.554 1298.04 523.641C1305.07 531.713 1311.7 539.259 1318.4 546.083C1337.84 566.185 1363.13 579.643 1390.68 584.536C1391.98 587.818 1394.22 590.649 1397.11 592.683C1400 594.718 1403.42 595.868 1406.95 595.993C1410.48 596.119 1413.97 595.214 1417 593.389C1420.03 591.564 1422.46 588.898 1423.99 585.717C1429.64 585.135 1435.24 584.148 1440.74 582.764C1462.05 577.687 1481.51 566.753 1496.92 551.202C1500.2 547.723 1503.23 544.017 1505.99 540.112L1507.43 538.078C1528.17 536.085 1548.01 528.636 1564.92 516.489L1589.56 498.903C1602.19 489.92 1616.63 483.806 1631.88 480.989V488.207H1668.41V480.792C1684.58 483.357 1699.94 489.623 1713.28 499.1C1756.21 530.547 1800.83 559.638 1846.92 586.242L1869.59 597.135C1880.92 605.538 1892.89 613.042 1905.4 619.577C1906.32 620.049 1907.35 620.295 1908.39 620.295C1909.43 620.295 1910.45 620.049 1911.38 619.577L1914.07 620.692L1919 608.356ZM1470.44 412.089L1532.73 243.841C1538.07 228.475 1547.48 214.838 1559.95 204.373C1572.41 193.908 1587.48 187.003 1603.56 184.39V194.43H1640.09V184.849C1656.01 187.947 1670.8 195.265 1682.92 206.037C1695.03 216.808 1704.02 230.637 1708.95 246.072L1794.36 495.425C1796.53 501.987 1799.09 508.09 1801.92 514.258C1775 482.376 1750.83 448.286 1729.64 412.351C1712.49 382.298 1695.02 364.187 1676.42 357.297C1675.53 353.196 1673.25 349.529 1669.96 346.919C1666.66 344.309 1662.57 342.917 1658.37 342.979C1654.17 343.041 1650.12 344.553 1646.9 347.258C1643.69 349.964 1641.52 353.696 1640.75 357.822C1623.27 364.384 1605.59 380.788 1587.53 407.036C1585.75 409.595 1524.91 492.735 1499.94 526.857C1487.76 527.207 1475.6 525.476 1464 521.739C1439.58 514.044 1418.81 497.71 1405.59 475.805C1420.49 470.713 1434.05 462.344 1445.28 451.315C1456.5 440.287 1465.1 426.882 1470.44 412.089ZM53.4169 551.202C85.0202 485.582 189.094 123.495 193.562 107.812C202.301 69.622 224.574 41.4057 252.695 30.3161V36.4843H289.226V25.7227C322.735 29.7911 350.988 56.0388 365.048 97.1165L404.865 213.656C411.134 232.165 421.929 248.82 436.27 262.111C450.611 275.402 468.045 284.91 486.994 289.775V301.848H523.525V293.318C541.632 292.365 559.274 287.243 575.071 278.353C590.869 269.463 604.394 257.045 614.59 242.069C623.225 229.231 634.593 218.456 647.882 210.516C661.171 202.575 676.053 197.665 691.463 196.136V208.669H727.994V198.958C743.84 202.743 758.588 210.156 771.074 220.61C783.56 231.064 793.441 244.274 799.939 259.196L835.682 339.842C843.082 357.045 854.543 372.202 869.086 384.018C883.629 395.834 900.82 403.957 919.191 407.692V418.782H955.722V409.595C978.371 407.636 999.944 399.071 1017.76 384.966C1035.57 370.861 1048.84 351.838 1055.92 330.262L1097.25 209.982C1103 191.752 1113.74 175.489 1128.25 163.026C1142.76 150.562 1160.47 142.394 1179.38 139.441V146.856H1215.91V139.31C1235 142.121 1252.91 150.24 1267.59 162.737C1282.28 175.235 1293.15 191.606 1298.96 209.982L1384.37 459.335C1385.29 462.091 1386.54 464.715 1387.66 467.406L1385.69 467.799C1369.36 470.568 1352.58 468.905 1337.12 462.983C1321.65 457.061 1308.06 447.098 1297.77 434.137L1247.38 371.47C1231.64 351.885 1209.45 338.515 1184.76 333.739V317.991H1148.23V332.886C1131.23 335.566 1115.14 342.321 1101.32 352.572L983.515 437.483C971.07 446.587 956.55 452.451 941.267 454.544C939.69 453.691 938.179 452.904 936.668 451.985L809.532 376.326C792.709 366.517 773.89 360.619 754.472 359.068C753.036 355.682 750.604 352.811 747.499 350.833C744.394 348.856 740.762 347.866 737.081 347.994C733.401 348.122 729.846 349.362 726.886 351.55C723.927 353.738 721.701 356.772 720.504 360.25C695.144 363.791 671.563 375.279 653.158 393.059L598.295 448.507C573.131 476.855 545.733 494.441 520.24 498.378C519.181 494.899 517.097 491.818 514.261 489.538C511.425 487.257 507.967 485.883 504.337 485.592C500.707 485.302 497.074 486.11 493.911 487.91C490.747 489.711 488.199 492.421 486.6 495.688C462.092 487.026 440.607 463.469 423.13 425.409L355.85 277.241C340.541 243.513 317.807 222.121 292.446 217.068C291.314 212.894 288.73 209.26 285.156 206.818C281.583 204.376 277.255 203.286 272.949 203.744C268.643 204.203 264.643 206.179 261.665 209.319C258.687 212.459 256.928 216.556 256.703 220.874C237.353 230.196 221.708 245.752 212.288 265.036C211.302 266.873 209.528 271.598 204.666 284.328C136.926 463.141 76.2817 573.053 23.916 611.702L53.4169 551.202ZM817.613 455.397C769.729 455.262 723.058 470.439 684.433 498.706L604.471 557.173C592.051 566.288 577.555 572.174 562.29 574.299V560.06H525.627V572.134C503.706 566.558 484.588 553.16 471.882 534.469L367.939 381.904C366.538 379.848 365.07 377.836 363.537 375.867C348.364 356.717 326.432 344.087 302.236 340.564V325.931H266.033V341.745C251.075 344.873 237.015 351.329 224.9 360.634C212.785 369.938 202.927 381.852 196.059 395.487L132.392 521.41C114.73 556.173 86.8845 584.739 52.5627 603.303C126.808 526.922 192.708 353.031 216.821 288.725C220.106 279.932 222.997 272.385 223.392 271.073C231.332 254.747 244.389 241.454 260.58 233.211C262.495 235.487 264.944 237.255 267.708 238.358C270.472 239.461 273.466 239.865 276.425 239.534C279.383 239.203 282.214 238.147 284.665 236.46C287.116 234.773 289.112 232.507 290.475 229.864C311.171 234.523 329.897 253.159 343.432 282.36L411.238 430.987C430.949 474.099 456.179 500.347 485.548 509.271C486.646 512.704 488.745 515.732 491.576 517.967C494.407 520.203 497.842 521.544 501.44 521.818C505.038 522.093 508.637 521.289 511.775 519.51C514.914 517.731 517.449 515.057 519.057 511.83C557.822 507.105 590.411 476.921 607.757 457.432L662.356 402.246C678.311 386.729 698.699 376.548 720.701 373.111C722.131 376.499 724.557 379.375 727.658 381.357C730.759 383.34 734.389 384.337 738.069 384.216C741.749 384.095 745.306 382.862 748.27 380.681C751.234 378.499 753.465 375.47 754.67 371.995C771.595 373.612 787.963 378.897 802.633 387.482L916.628 455.332H817.416L817.613 455.397ZM1437.72 570.034C1433.57 571.054 1429.35 571.821 1425.11 572.331C1424.01 568.717 1421.8 565.536 1418.81 563.235C1415.81 560.934 1412.16 559.627 1408.38 559.496C1404.6 559.366 1400.88 560.42 1397.72 562.509C1394.57 564.599 1392.16 567.62 1390.81 571.15C1366.78 566.468 1344.76 554.535 1327.73 536.962C1321.16 530.4 1314.59 522.92 1308.02 514.98C1279.31 482.17 1242.32 440.108 1181.94 429.675C1180.56 426.83 1178.45 424.397 1175.84 422.616C1173.22 420.835 1170.19 419.769 1167.03 419.523C1163.88 419.278 1160.71 419.861 1157.85 421.216C1154.99 422.571 1152.54 424.65 1150.73 427.247C1139.42 427.419 1128.15 428.516 1117.02 430.528H1116.24L1020.37 460.385C1001.88 466.315 982.106 467.064 963.212 462.55C973.314 459.092 982.838 454.137 991.465 447.851L1108.94 362.087C1120.62 353.578 1134.11 347.895 1148.36 345.485V353.688H1184.9V346.535C1205.65 351.165 1224.2 362.741 1237.46 379.345L1287.85 442.011C1299.57 456.819 1315.06 468.199 1332.71 474.954C1350.35 481.709 1369.49 483.59 1388.12 480.398C1390.09 480.398 1392.06 479.677 1393.96 479.283C1408.48 505.097 1432.27 524.445 1460.52 533.419C1470.46 536.607 1480.78 538.482 1491.2 538.996C1490.22 540.243 1489.17 541.49 1488.05 542.605C1474.17 556.266 1456.74 565.768 1437.72 570.034ZM1720.25 489.454C1704.89 478.541 1687.13 471.454 1668.47 468.784V451.788H1631.94V469.243C1614.2 472.199 1597.37 479.156 1582.73 489.585L1558.09 507.171C1545.92 515.898 1532.04 521.958 1517.35 524.954C1542.52 490.569 1596.2 417.01 1597.91 414.779C1613.54 392.075 1628.59 377.639 1642.85 371.274C1644.5 373.901 1646.8 376.059 1649.53 377.542C1652.26 379.026 1655.33 379.784 1658.43 379.744C1661.54 379.705 1664.58 378.869 1667.27 377.317C1669.96 375.764 1672.21 373.548 1673.79 370.88C1688.51 377.442 1703.3 393.519 1717.82 419.044C1747.93 470.685 1784.46 518.31 1826.56 560.782C1789.37 538.078 1753.76 513.339 1720.18 489.454H1720.25Z" fill="#F7F7F7"/>
</g>
<defs>
<clipPath id="clip0">
<rect width="1919" height="639" fill="white"/>
</clipPath>
</defs>
</svg>
