<svg width="415" height="70" viewBox="0 0 415 70" fill="none" xmlns="http://www.w3.org/2000/svg">
<path d="M207.97 15.8475C316.89 15.8475 406.198 9.32156 414.684 1.02685L381.665 55.9408C381.665 55.9408 297.48 69.6197 204.456 69.6197C117.111 69.6197 34.4958 55.9408 34.4958 55.9408L0.942749 0.673096C7.20965 9.13665 97.5028 15.8475 207.97 15.8475Z" fill="#176ED7"/>
<path d="M414.684 1.6731L381.861 57.0474C381.861 57.0474 368.962 59.1745 347.697 61.7552L372.869 10.2481C396.358 7.8348 411.444 4.88637 414.684 1.6731Z" fill="#4A8EE0"/>
<path d="M77.1566 45.552C77.3811 45.8195 77.7515 45.9795 78.2671 46.0308C78.5249 46.0566 78.7782 46.0389 79.0274 45.9776C79.2763 45.9164 79.5521 45.802 79.8549 45.6339C80.1685 46.1498 80.3257 46.4076 80.6401 46.9231C80.3056 47.1484 79.9121 47.3265 79.4609 47.4581C79.0091 47.5897 78.4863 47.6262 77.8929 47.5668C77.3939 47.5169 76.9529 47.402 76.5714 47.2215C76.19 47.0411 75.8743 46.8069 75.6259 46.519C75.3772 46.2314 75.1993 45.8931 75.0918 45.5037C74.9842 45.1143 74.9547 44.6812 75.0035 44.204C75.0539 43.7104 75.2007 43.2292 75.4437 42.7593C75.6865 42.2896 76.0078 41.8799 76.4065 41.5289C76.8054 41.1779 77.2663 40.9083 77.7907 40.7201C78.3152 40.5321 78.8863 40.4682 79.5022 40.5292C79.9467 40.5732 80.337 40.6811 80.6748 40.8519C81.0125 41.0227 81.2901 41.2384 81.5066 41.5002C81.7234 41.7623 81.8779 42.0614 81.9704 42.3968C82.063 42.7322 82.0911 43.092 82.0544 43.4755C82.0305 43.7225 81.9758 43.9752 81.8905 44.2333C81.805 44.4916 81.6933 44.747 81.556 44.9999C79.6653 44.816 78.7205 44.7228 76.8303 44.5319C76.8226 44.9438 76.9318 45.2843 77.1566 45.552ZM80.1163 43.6345C80.1734 43.494 80.2088 43.3468 80.2238 43.1932C80.2514 42.9124 80.1876 42.665 80.0314 42.4521C79.8753 42.2391 79.5953 42.1121 79.1929 42.0724C78.7473 42.0281 78.3428 42.1229 77.9774 42.3573C77.612 42.5918 77.3255 42.918 77.1192 43.3358C78.3181 43.4567 78.9171 43.5166 80.1163 43.6345Z" fill="black"/>
<path d="M84.4691 41.1421C85.2494 41.2162 85.6398 41.2527 86.4204 41.326C86.3166 41.6023 86.2656 41.7409 86.1618 42.0175C86.4306 41.821 86.7184 41.6515 87.0253 41.5094C87.3322 41.3674 87.6778 41.3129 88.063 41.3483C88.5335 41.3918 88.911 41.5379 89.1948 41.7858C89.4783 42.0334 89.7747 42.7471 89.7747 42.7471C89.8348 42.7632 90.4896 42.1475 90.921 41.956C91.3523 41.7643 91.8295 41.691 92.3518 41.7374C92.9686 41.7922 93.4391 42.0124 93.7635 42.3972C94.0878 42.782 94.2227 43.2855 94.1685 43.9075C94.1516 44.1035 94.1095 44.3135 94.0427 44.5351C93.9756 44.7569 93.9021 44.9763 93.8227 45.1924C93.2978 46.6307 93.0348 47.3496 92.5077 48.7876C91.7225 48.7183 91.3301 48.6826 90.5452 48.6123C91.0881 47.1417 91.3593 46.407 91.9001 44.9362C91.9342 44.8447 91.9645 44.7413 91.9921 44.6277C92.0195 44.5141 92.0375 44.4145 92.045 44.3291C92.0952 43.7651 91.8148 43.4563 91.2061 43.4018C90.8204 43.3672 90.4966 43.4649 90.2339 43.6956C89.971 43.9257 89.7645 44.241 89.6159 44.6411C89.0592 46.146 88.7805 46.8982 88.2212 48.4028C87.436 48.3308 87.0438 48.2943 86.2592 48.221C86.8072 46.7524 87.0806 46.0179 87.6262 44.5487C87.6606 44.4572 87.6917 44.3543 87.7199 44.2407C87.7478 44.1271 87.7655 44.028 87.7733 43.9427C87.825 43.379 87.5463 43.0686 86.9382 43.0119C86.5524 42.9759 86.2278 43.0729 85.9641 43.3022C85.7004 43.5315 85.4933 43.846 85.3433 44.2456C84.7811 45.7488 84.4999 46.5002 83.9355 48.0027C83.1506 47.928 82.7581 47.8899 81.9738 47.8141C82.9757 45.1454 83.4744 43.8116 84.4691 41.1421Z" fill="black"/>
<path d="M95.5497 49.0457C95.3117 48.9351 95.1118 48.7887 94.9501 48.6072C94.7881 48.4257 94.6665 48.2197 94.5869 47.9896C94.5072 47.7595 94.479 47.5076 94.5026 47.2345C94.5364 46.8424 94.644 46.5 94.8254 46.2065C95.0065 45.9127 95.239 45.6716 95.5236 45.4812C95.808 45.2911 96.1356 45.1579 96.5049 45.0822C96.8743 45.0064 97.2695 44.9866 97.6901 45.0217C98.0678 45.0537 98.4109 45.1096 98.7196 45.1912C99.0279 45.2731 99.3243 45.3735 99.6084 45.4911C99.6218 45.4562 99.628 45.4388 99.6414 45.4039C99.665 45.3284 99.6894 45.2511 99.7135 45.1713C99.7374 45.0916 99.7532 45.0005 99.7618 44.8982C99.7814 44.6595 99.7028 44.4573 99.5266 44.2924C99.3503 44.1278 99.0177 44.0249 98.5287 43.9841C98.1944 43.9562 97.8637 43.9648 97.5361 44.0099C97.2083 44.0553 96.9157 44.1184 96.6584 44.1998C96.587 43.5754 96.5516 43.2634 96.4805 42.6388C96.8529 42.5246 97.2566 42.4408 97.6925 42.3874C98.1284 42.334 98.5893 42.327 99.0775 42.3678C100.011 42.4457 100.695 42.6865 101.128 43.091C101.56 43.4954 101.75 44.0349 101.695 44.7084C101.681 44.8875 101.651 45.0609 101.607 45.2291C101.563 45.3974 101.513 45.5658 101.457 45.7328C100.927 47.2146 100.661 47.9544 100.129 49.4357C99.3694 49.3734 98.9893 49.3417 98.2298 49.2783C98.3387 48.9681 98.3935 48.8132 98.5027 48.5028C98.2022 48.7783 97.8727 48.9802 97.5154 49.1091C97.1576 49.2377 96.7721 49.2853 96.3584 49.2501C96.0564 49.2251 95.7876 49.1564 95.5497 49.0457ZM97.9058 47.9316C98.0965 47.8747 98.2754 47.7885 98.4406 47.6735C98.6062 47.5586 98.7519 47.4225 98.8777 47.2654C99.0032 47.1083 99.0992 46.9383 99.1666 46.7549C99.1931 46.6848 99.2065 46.6501 99.2334 46.5806C99.0668 46.4979 98.8736 46.4238 98.6545 46.3582C98.435 46.2927 98.2049 46.2497 97.9645 46.2296C97.5522 46.195 97.2069 46.2629 96.9287 46.4326C96.6503 46.6023 96.4972 46.8523 96.4687 47.185C96.4508 47.3983 96.5167 47.5812 96.6688 47.7313C96.8204 47.8816 97.0347 47.9678 97.3105 47.9912C97.5168 48.0081 97.7145 47.9885 97.9058 47.9316Z" fill="black"/>
<path d="M104.301 42.8702C105.082 42.9319 105.473 42.9634 106.254 43.0238C105.301 45.7102 104.822 47.0527 103.862 49.7372C103.076 49.6752 102.684 49.6435 101.898 49.5801C102.863 46.8974 103.344 45.555 104.301 42.8702ZM105.125 40.4373C105.946 40.5017 106.357 40.5347 107.177 40.5981C106.934 41.2748 106.813 41.6118 106.569 42.2883C105.747 42.2246 105.336 42.1927 104.515 42.1274C104.76 41.4512 104.881 41.1132 105.125 40.4373Z" fill="black"/>
<path d="M109.037 40.7393C109.817 40.7983 110.206 40.8273 110.987 40.8851C109.918 43.9388 108.844 46.9902 107.764 50.04C106.978 49.9801 106.585 49.9498 105.8 49.8888C106.885 46.8412 107.963 43.7906 109.037 40.7393Z" fill="black"/>
<path d="M115.83 43.731C116.611 43.7857 117.002 43.8129 117.783 43.8663C117.596 44.4093 117.503 44.6805 117.316 45.2235C117.703 44.7355 118.114 44.3709 118.548 44.1303C118.981 43.8896 119.48 43.8102 120.042 43.8902C119.767 44.6902 119.629 45.0892 119.353 45.8886C119.312 45.8856 119.291 45.8851 119.25 45.8824C118.597 45.8387 118.018 45.996 117.511 46.3559C117.003 46.7157 116.597 47.335 116.294 48.2147C115.964 49.1698 115.799 49.6473 115.467 50.6022C114.681 50.5474 114.288 50.5195 113.502 50.4633C114.437 47.7708 114.903 46.4249 115.83 43.731Z" fill="black"/>
<path d="M121.877 49.2524C122.11 49.512 122.486 49.6587 123.002 49.6917C123.261 49.7084 123.513 49.6815 123.76 49.6112C124.006 49.5411 124.278 49.4165 124.574 49.2376C124.905 49.7419 125.071 49.9943 125.403 50.4984C125.077 50.7355 124.691 50.9283 124.245 51.0757C123.798 51.2234 123.278 51.2782 122.683 51.2398C122.183 51.2079 121.739 51.1082 121.351 50.9415C120.964 50.775 120.641 50.5518 120.383 50.2731C120.125 49.9946 119.935 49.6627 119.814 49.2773C119.693 48.892 119.648 48.4608 119.68 47.9825C119.713 47.4873 119.842 47.0007 120.068 46.5222C120.294 46.0442 120.6 45.6226 120.986 45.2579C121.372 44.8932 121.822 44.6073 122.339 44.4008C122.856 44.1943 123.424 44.1102 124.041 44.1491C124.487 44.1773 124.881 44.2716 125.223 44.43C125.566 44.5887 125.852 44.795 126.077 45.049C126.303 45.303 126.467 45.5957 126.572 45.9276C126.677 46.2595 126.717 46.6181 126.693 47.0026C126.678 47.2505 126.632 47.5048 126.556 47.7658C126.479 48.0271 126.377 48.2862 126.25 48.544C124.355 48.4274 123.408 48.3678 121.514 48.2443C121.522 48.6565 121.643 48.9927 121.877 49.2524ZM124.764 47.2311C124.816 47.0888 124.847 46.9398 124.856 46.7861C124.874 46.5045 124.801 46.2598 124.638 46.0528C124.474 45.8455 124.19 45.7289 123.787 45.7032C123.341 45.675 122.939 45.7845 122.583 46.0316C122.226 46.2789 121.953 46.614 121.761 47.0391C122.963 47.117 123.563 47.1556 124.764 47.2311Z" fill="black"/>
<path d="M129.022 44.584C129.804 44.6304 130.195 44.6541 130.977 44.6992C130.878 44.9919 130.828 45.1377 130.729 45.4304C131.045 45.1745 131.359 44.9779 131.673 44.8418C131.986 44.7056 132.335 44.6482 132.721 44.6699C133.098 44.6911 133.444 44.7763 133.758 44.9266C134.072 45.077 134.343 45.2857 134.569 45.5507C134.796 45.816 134.965 46.1356 135.078 46.5102C135.191 46.8848 135.236 47.3035 135.211 47.7648C135.178 48.3717 135.04 48.9254 134.797 49.4265C134.554 49.9273 134.243 50.3538 133.865 50.7058C133.487 51.0579 133.064 51.3232 132.595 51.5026C132.127 51.6819 131.647 51.758 131.155 51.7298C130.612 51.6986 130.176 51.5692 129.847 51.3428C129.518 51.1164 129.253 50.8248 129.049 50.4671C128.652 51.6712 128.453 52.2733 128.053 53.4769C127.266 53.4296 126.871 53.4057 126.084 53.3576C127.067 50.4338 128.047 47.51 129.022 44.584ZM131.771 49.9263C132.023 49.821 132.25 49.6652 132.451 49.459C132.653 49.2528 132.82 49.0079 132.952 48.7248C133.084 48.4418 133.161 48.1257 133.18 47.7766C133.205 47.3252 133.094 46.9664 132.846 46.7006C132.598 46.4347 132.255 46.2894 131.817 46.2645C131.542 46.2486 131.277 46.2951 131.021 46.4041C130.765 46.5131 130.534 46.6716 130.328 46.8776C130.122 47.0835 129.953 47.3273 129.82 47.6101C129.687 47.8929 129.61 48.1961 129.591 48.5194C129.566 48.9536 129.683 49.3124 129.943 49.597C130.203 49.8814 130.553 50.0366 130.992 50.0616C131.259 50.0764 131.519 50.0312 131.771 49.9263Z" fill="black"/>
<path d="M138.58 42.6216C139.36 42.6619 139.751 42.682 140.531 42.7212C139.536 45.7995 138.534 48.8756 137.527 51.9501C136.74 51.909 136.347 51.8877 135.56 51.845C136.574 48.7727 137.579 45.698 138.58 42.6216Z" fill="black"/>
<path d="M141.668 45.2723C142.45 45.3109 142.841 45.33 143.623 45.3673C142.751 48.0806 142.313 49.4365 141.433 52.1487C140.647 52.1097 140.254 52.0901 139.467 52.0504C140.351 49.3393 140.791 47.9842 141.668 45.2723ZM142.42 42.8157C143.241 42.8557 143.653 42.8748 144.474 42.9134C144.252 43.5969 144.14 43.9387 143.917 44.6221C143.094 44.5829 142.682 44.5628 141.86 44.5225C142.084 43.8399 142.196 43.4988 142.42 42.8157Z" fill="black"/>
<path d="M146.223 50.5958C146.462 50.8506 146.84 50.99 147.356 51.0131C147.615 51.0246 147.866 50.9932 148.112 50.918C148.356 50.8434 148.626 50.7137 148.919 50.5295C149.259 51.0274 149.429 51.2757 149.771 51.7736C149.45 52.0169 149.068 52.2167 148.625 52.373C148.182 52.5293 147.662 52.5943 147.067 52.5677C146.567 52.5454 146.121 52.4541 145.731 52.2948C145.34 52.1356 145.014 51.9191 144.75 51.6452C144.487 51.3716 144.29 51.0443 144.162 50.6611C144.033 50.2781 143.98 49.8471 144.002 49.3683C144.026 48.8726 144.146 48.3836 144.362 47.901C144.579 47.4187 144.876 46.9913 145.255 46.6191C145.634 46.2469 146.079 45.9528 146.592 45.7361C147.105 45.5194 147.67 45.4254 148.288 45.4526C148.733 45.4722 149.129 45.5584 149.475 45.7101C149.821 45.8621 150.11 46.0619 150.34 46.3111C150.57 46.5608 150.741 46.8508 150.852 47.1806C150.962 47.5103 151.01 47.8688 150.994 48.2536C150.984 48.5018 150.943 48.7566 150.871 49.019C150.8 49.2819 150.703 49.5431 150.58 49.8033C148.684 49.7236 147.736 49.682 145.841 49.5953C145.856 50.0069 145.984 50.341 146.223 50.5958ZM149.07 48.5189C149.119 48.3755 149.147 48.2263 149.154 48.0724C149.166 47.7902 149.089 47.5474 148.921 47.3433C148.754 47.1392 148.468 47.0278 148.064 47.01C147.618 46.9904 147.219 47.1075 146.867 47.3616C146.515 47.6156 146.248 47.9572 146.065 48.3855C147.267 48.4405 147.868 48.4666 149.07 48.5189Z" fill="black"/>
<path d="M153.178 52.7494C152.895 52.6869 152.62 52.5985 152.352 52.4852C152.084 52.3719 151.83 52.2322 151.586 52.0679C151.342 51.9038 151.122 51.7107 150.923 51.4883C151.398 51.0404 151.635 50.8162 152.109 50.368C152.455 50.7421 152.812 51.0002 153.177 51.1433C153.542 51.2864 153.88 51.364 154.19 51.3761C154.449 51.3863 154.654 51.3436 154.804 51.2467C154.954 51.1497 155.033 51.0023 155.041 50.8052C155.046 50.6768 154.977 50.5611 154.834 50.4569C154.692 50.353 154.501 50.2418 154.265 50.1333C153.998 50.01 153.74 49.883 153.504 49.7496C153.268 49.6161 153.06 49.4687 152.882 49.3076C152.703 49.1459 152.564 48.9633 152.465 48.7579C152.365 48.5527 152.322 48.3126 152.333 48.0387C152.347 47.6969 152.423 47.381 152.564 47.0913C152.705 46.8015 152.899 46.5545 153.143 46.3501C153.388 46.1458 153.683 45.9895 154.031 45.8789C154.379 45.7688 154.768 45.721 155.197 45.7376C155.481 45.7486 155.751 45.787 156.011 45.8525C156.271 45.9181 156.517 46.0021 156.749 46.1047C156.982 46.2073 157.192 46.3203 157.381 46.4428C157.57 46.5652 157.734 46.6936 157.876 46.8271C157.436 47.3043 157.216 47.543 156.775 48.0196C156.45 47.7422 156.144 47.5419 155.856 47.4197C155.568 47.2975 155.281 47.2312 154.998 47.2202C154.757 47.2108 154.569 47.2551 154.432 47.3523C154.295 47.4495 154.223 47.5881 154.215 47.7677C154.21 47.9047 154.285 48.0301 154.44 48.1429C154.595 48.2562 154.82 48.3806 155.104 48.5213C155.322 48.6295 155.544 48.7482 155.768 48.8677C155.992 48.9875 156.191 49.1279 156.366 49.2885C156.541 49.4491 156.681 49.6322 156.785 49.8371C156.89 50.042 156.937 50.278 156.928 50.5428C156.914 50.919 156.83 51.2542 156.676 51.548C156.523 51.842 156.317 52.0894 156.06 52.2891C155.801 52.4895 155.495 52.6388 155.141 52.7362C154.788 52.834 154.404 52.8748 153.99 52.8585C153.731 52.8482 153.461 52.812 153.178 52.7494Z" fill="black"/>
<path d="M156.822 54.0845C157.359 54.0614 157.761 53.9446 158.028 53.736C158.295 53.5273 158.469 53.2394 158.551 52.8745C158.23 52.8629 158.07 52.857 157.749 52.8455C158.001 52.0326 158.127 51.6266 158.378 50.8137C159.216 50.8435 159.635 50.858 160.472 50.8865C160.263 51.5729 160.157 51.9166 159.947 52.603C159.693 53.4419 159.319 54.0373 158.822 54.3877C158.325 54.7381 157.692 54.9082 156.922 54.8971C156.882 54.5719 156.862 54.4097 156.822 54.0845Z" fill="black"/>
<path d="M167.677 46.2843C168.46 46.3065 168.851 46.3181 169.634 46.3393C169.544 46.6349 169.498 46.7815 169.407 47.0772C169.715 46.8116 170.024 46.6059 170.332 46.4601C170.641 46.3143 170.989 46.2464 171.375 46.2563C171.753 46.266 172.101 46.3404 172.419 46.4808C172.737 46.6212 173.015 46.8213 173.249 47.0794C173.483 47.3377 173.663 47.6524 173.787 48.0235C173.912 48.3946 173.969 48.8117 173.958 49.2733C173.943 49.881 173.822 50.4382 173.595 50.9463C173.367 51.4543 173.07 51.8902 172.703 52.2535C172.336 52.6171 171.922 52.8956 171.459 53.0889C170.996 53.2828 170.519 53.3738 170.027 53.3607C169.484 53.3462 169.044 53.2304 168.709 53.014C168.374 52.7975 168.099 52.5134 167.885 52.1622C167.524 53.3778 167.344 53.9863 166.982 55.2017C166.194 55.1789 165.799 55.1674 165.011 55.1432C165.904 52.1915 166.792 49.2384 167.677 46.2843ZM170.587 51.54C170.835 51.4272 171.058 51.2642 171.253 51.0518C171.448 50.8394 171.606 50.5891 171.73 50.302C171.853 50.015 171.92 49.6965 171.929 49.3469C171.94 48.8949 171.818 48.5407 171.562 48.2827C171.306 48.0246 170.959 47.889 170.521 47.8775C170.246 47.8702 169.982 47.9252 169.729 48.0418C169.477 48.1589 169.251 48.3237 169.052 48.5356C168.852 48.7475 168.69 48.9975 168.566 49.284C168.442 49.5706 168.375 49.8754 168.366 50.1992C168.354 50.634 168.483 50.9898 168.751 51.2664C169.019 51.5424 169.373 51.6861 169.813 51.6976C170.08 51.7049 170.338 51.6528 170.587 51.54Z" fill="black"/>
<path d="M177.063 44.0271C177.844 44.0437 178.235 44.0518 179.016 44.0668C178.652 45.341 178.469 45.9777 178.103 47.2516C178.356 47.0357 178.639 46.8461 178.951 46.6826C179.264 46.5188 179.613 46.4406 179.999 46.4479C180.617 46.4594 181.107 46.6461 181.47 47.0075C181.833 47.3687 182.009 47.8615 181.999 48.4858C181.995 48.6826 181.968 48.8948 181.917 49.1206C181.866 49.3467 181.807 49.5701 181.744 49.7914C181.321 51.263 181.109 51.9987 180.683 53.4698C179.896 53.4555 179.504 53.4477 178.717 53.4322C179.155 51.9273 179.373 51.1754 179.809 49.67C179.837 49.576 179.861 49.471 179.881 49.3553C179.9 49.2398 179.91 49.1397 179.912 49.054C179.917 48.7798 179.838 48.568 179.672 48.4192C179.508 48.2702 179.274 48.192 178.974 48.1864C178.587 48.1788 178.266 48.2992 178.012 48.5473C177.757 48.7951 177.57 49.1238 177.45 49.5334C177 51.0734 176.774 51.8433 176.321 53.383C175.534 53.3661 175.14 53.3575 174.353 53.3393C175.263 50.2372 176.165 47.1327 177.063 44.0271Z" fill="black"/>
<path d="M184.937 53.4563C184.529 53.2922 184.183 53.0666 183.899 52.7796C183.614 52.4928 183.397 52.1528 183.248 51.761C183.1 51.3692 183.03 50.9428 183.037 50.4807C183.046 49.9672 183.156 49.4729 183.371 48.997C183.585 48.5215 183.875 48.1018 184.241 47.7392C184.608 47.3767 185.035 47.0886 185.523 46.8729C186.011 46.6576 186.535 46.5537 187.093 46.5609C187.608 46.5676 188.067 46.6519 188.473 46.8149C188.879 46.9782 189.224 47.203 189.509 47.4887C189.794 47.7741 190.011 48.1125 190.162 48.5032C190.312 48.8942 190.385 49.3209 190.38 49.783C190.375 50.2962 190.264 50.7914 190.049 51.268C189.832 51.7449 189.541 52.166 189.175 52.5296C188.808 52.8934 188.379 53.1834 187.889 53.3996C187.399 53.616 186.877 53.7208 186.325 53.7132C185.807 53.7068 185.344 53.6206 184.937 53.4563ZM187.262 51.8507C187.51 51.7076 187.721 51.5266 187.896 51.3088C188.071 51.0913 188.207 50.851 188.305 50.5848C188.403 50.319 188.453 50.0607 188.456 49.8107C188.462 49.3024 188.329 48.9108 188.058 48.6361C187.786 48.3617 187.427 48.2215 186.98 48.2156C186.679 48.2116 186.405 48.2808 186.158 48.424C185.911 48.5668 185.7 48.7473 185.525 48.9645C185.35 49.1821 185.214 49.4248 185.115 49.6949C185.017 49.9648 184.965 50.221 184.962 50.4619C184.954 50.9702 185.086 51.362 185.358 51.6372C185.63 51.9122 185.99 52.0532 186.438 52.0591C186.74 52.0634 187.015 51.9938 187.262 51.8507Z" fill="black"/>
<path d="M192.755 46.7512C193.538 46.7579 193.93 46.7612 194.712 46.7668C194.633 47.0515 194.593 47.1927 194.514 47.4773C194.764 47.2585 195.044 47.0654 195.354 46.8976C195.664 46.7297 196.014 46.6473 196.4 46.6495C197.018 46.6532 197.51 46.8323 197.878 47.1889C198.245 47.5453 198.428 48.0367 198.425 48.6613C198.424 48.8581 198.399 49.07 198.351 49.2964C198.303 49.523 198.248 49.7472 198.187 49.9693C197.784 51.4463 197.581 52.1845 197.175 53.6611C196.388 53.6571 195.995 53.655 195.208 53.6496C195.627 52.1391 195.836 51.3842 196.253 49.8735C196.279 49.7792 196.301 49.6745 196.319 49.5585C196.337 49.4427 196.346 49.342 196.347 49.2564C196.348 48.9822 196.266 48.7706 196.099 48.624C195.933 48.4771 195.698 48.4027 195.398 48.4006C195.011 48.3979 194.692 48.5225 194.441 48.7741C194.189 49.0254 194.007 49.3563 193.892 49.7671C193.462 51.3131 193.246 52.0862 192.813 53.6319C192.026 53.6251 191.633 53.6214 190.846 53.6136C191.613 50.8689 191.995 49.4967 192.755 46.7512Z" fill="black"/>
<path d="M201.708 51.8983C201.957 52.1424 202.341 52.2654 202.859 52.2657C203.117 52.2659 203.367 52.2235 203.609 52.1379C203.849 52.0525 204.112 51.9104 204.397 51.7133C204.759 52.1956 204.94 52.4367 205.303 52.919C204.993 53.1763 204.62 53.3933 204.185 53.5686C203.749 53.744 203.233 53.8318 202.638 53.8315C202.137 53.831 201.688 53.7595 201.291 53.6178C200.894 53.476 200.559 53.2737 200.283 53.0116C200.008 52.7498 199.797 52.4308 199.652 52.0541C199.507 51.6773 199.435 51.2498 199.436 50.7705C199.438 50.2742 199.537 49.7801 199.732 49.2882C199.927 48.7967 200.206 48.3563 200.567 47.9678C200.929 47.5795 201.36 47.2664 201.863 47.0274C202.365 46.7884 202.926 46.6697 203.543 46.6697C203.99 46.6697 204.389 46.7382 204.741 46.8746C205.093 47.0113 205.389 47.1984 205.63 47.4377C205.871 47.6769 206.054 47.9594 206.179 48.2841C206.304 48.6088 206.368 48.9638 206.369 49.3489C206.369 49.597 206.34 49.8539 206.28 50.1193C206.22 50.3846 206.135 50.6504 206.023 50.9158C204.127 50.9195 203.179 50.919 201.283 50.9155C201.317 51.3261 201.459 51.6539 201.708 51.8983ZM204.46 49.6988C204.503 49.5532 204.524 49.4026 204.524 49.2487C204.524 48.9662 204.435 48.7269 204.259 48.5303C204.083 48.3338 203.793 48.2358 203.39 48.2358C202.943 48.2358 202.549 48.3703 202.21 48.6394C201.87 48.9087 201.618 49.2608 201.454 49.6969C202.656 49.6993 203.257 49.6996 204.46 49.6988Z" fill="black"/>
<path d="M213.109 53.5714C212.711 53.4248 212.368 53.2174 212.082 52.9497C211.795 52.682 211.571 52.3592 211.409 51.9792C211.247 51.5995 211.166 51.1733 211.163 50.7026C211.16 50.1376 211.266 49.6091 211.482 49.1155C211.698 48.6222 211.99 48.1926 212.357 47.8263C212.723 47.4603 213.152 47.1681 213.644 46.95C214.136 46.7322 214.657 46.6205 215.206 46.6157C215.584 46.6122 215.923 46.6493 216.224 46.7269C216.525 46.8045 216.79 46.9092 217.019 47.0427C217.248 47.1762 217.448 47.3338 217.617 47.5145C217.787 47.695 217.932 47.8872 218.055 48.0897C217.462 48.5172 217.165 48.7305 216.571 49.1572C216.396 48.894 216.199 48.6794 215.978 48.5145C215.757 48.3499 215.453 48.2696 215.067 48.2731C214.809 48.2755 214.56 48.3416 214.321 48.4724C214.081 48.6032 213.872 48.7793 213.693 48.9998C213.515 49.22 213.371 49.4764 213.261 49.7694C213.152 50.0624 213.098 50.3672 213.1 50.6849C213.104 51.1312 213.235 51.4848 213.496 51.7448C213.757 52.0047 214.08 52.1323 214.468 52.129C214.77 52.1264 215.041 52.0673 215.281 51.9494C215.521 51.8318 215.77 51.6602 216.026 51.4349C216.434 51.9392 216.638 52.1911 217.047 52.6951C216.688 53.0244 216.307 53.2864 215.903 53.483C215.5 53.6796 215.005 53.7806 214.418 53.7857C213.944 53.7897 213.507 53.718 213.109 53.5714Z" fill="black"/>
<path d="M220.376 53.4828C219.964 53.33 219.612 53.1141 219.319 52.8353C219.027 52.5566 218.801 52.2234 218.641 51.8359C218.481 51.4484 218.4 51.0243 218.394 50.5622C218.388 50.0488 218.484 49.5509 218.685 49.0692C218.886 48.5877 219.165 48.1602 219.521 47.788C219.877 47.4155 220.296 47.1147 220.778 46.8857C221.259 46.6566 221.779 46.5377 222.337 46.5293C222.852 46.5218 223.314 46.5943 223.724 46.746C224.135 46.8978 224.485 47.1118 224.778 47.3895C225.071 47.6669 225.297 47.9993 225.459 48.386C225.62 48.7727 225.706 49.1972 225.714 49.6591C225.723 50.1723 225.626 50.6701 225.424 51.153C225.221 51.6361 224.941 52.0647 224.585 52.4385C224.229 52.8125 223.809 53.1149 223.325 53.3448C222.841 53.5746 222.323 53.6939 221.77 53.7017C221.252 53.7086 220.788 53.6356 220.376 53.4828ZM222.654 51.8122C222.898 51.6621 223.104 51.476 223.273 51.2537C223.442 51.0313 223.572 50.7864 223.662 50.5176C223.753 50.2491 223.795 49.9894 223.791 49.7397C223.783 49.2313 223.64 48.8441 223.36 48.5772C223.081 48.3103 222.718 48.18 222.271 48.1867C221.97 48.1913 221.699 48.2681 221.456 48.4179C221.213 48.5678 221.007 48.7544 220.839 48.9762C220.67 49.1983 220.54 49.4451 220.449 49.7179C220.357 49.9905 220.313 50.2477 220.317 50.4886C220.323 50.9969 220.466 51.385 220.746 51.6527C221.025 51.9202 221.389 52.051 221.837 52.0445C222.139 52.04 222.411 51.9626 222.654 51.8122Z" fill="black"/>
<path d="M228.002 46.5611C228.785 46.5458 229.177 46.538 229.959 46.5216C229.888 46.8081 229.852 46.951 229.781 47.2375C230.025 47.0114 230.3 46.8108 230.605 46.6344C230.91 46.458 231.256 46.3656 231.642 46.357C232.26 46.3433 232.757 46.509 233.135 46.8551C233.512 47.2013 233.708 47.6871 233.723 48.3114C233.728 48.5082 233.709 48.7206 233.667 48.9484C233.625 49.1764 233.577 49.4022 233.522 49.6259C233.16 51.1136 232.979 51.8574 232.614 53.3449C231.827 53.3629 231.433 53.3717 230.646 53.3884C231.022 51.8668 231.21 51.1058 231.584 49.584C231.608 49.4889 231.627 49.3837 231.642 49.2674C231.657 49.1514 231.664 49.0507 231.662 48.965C231.656 48.6908 231.567 48.4814 231.396 48.3393C231.225 48.1973 230.99 48.1293 230.689 48.1358C230.302 48.1441 229.987 48.2778 229.743 48.5362C229.499 48.7945 229.325 49.1304 229.222 49.5442C228.836 51.1018 228.641 51.8797 228.252 53.4369C227.465 53.4525 227.073 53.4595 226.286 53.4738C226.976 50.7089 227.319 49.3267 228.002 46.5611Z" fill="black"/>
<path d="M235.261 46.3988C236.064 46.3786 236.466 46.3684 237.269 46.347C237.442 48.1762 237.528 49.0903 237.701 50.919C238.752 49.057 239.275 48.1255 240.318 46.261C241.157 46.2363 241.577 46.2245 242.416 46.1987C240.971 48.5562 239.52 50.9099 238.062 53.259C237.348 53.2784 236.991 53.288 236.277 53.3068C235.869 50.5439 235.665 49.162 235.261 46.3988Z" fill="black"/>
<path d="M244.744 51.2288C245.002 51.4646 245.389 51.5742 245.906 51.557C246.164 51.5484 246.413 51.4968 246.651 51.4031C246.889 51.3094 247.147 51.1595 247.424 50.9528C247.802 51.4224 247.992 51.6577 248.371 52.1271C248.07 52.3945 247.705 52.6233 247.275 52.8137C246.846 53.0041 246.333 53.1097 245.738 53.1295C245.238 53.1465 244.787 53.0903 244.385 52.962C243.984 52.8336 243.642 52.6429 243.358 52.3908C243.074 52.1389 242.853 51.8271 242.695 51.4555C242.537 51.0838 242.449 50.6582 242.435 50.1791C242.419 49.6831 242.501 49.1861 242.679 48.6879C242.858 48.1901 243.121 47.7411 243.469 47.3401C243.818 46.9398 244.239 46.6119 244.733 46.356C245.227 46.1001 245.782 45.9612 246.4 45.9403C246.846 45.925 247.247 45.9795 247.604 46.1038C247.96 46.2284 248.262 46.4065 248.511 46.6371C248.76 46.8681 248.953 47.1439 249.089 47.464C249.225 47.784 249.301 48.1372 249.315 48.522C249.323 48.7701 249.303 49.0274 249.252 49.2946C249.202 49.562 249.125 49.8305 249.023 50.0996C247.128 50.1678 246.181 50.2003 244.286 50.2616C244.334 50.6711 244.486 50.9931 244.744 51.2288ZM247.419 48.9366C247.457 48.7897 247.474 48.6385 247.468 48.4844C247.459 48.2021 247.361 47.9658 247.179 47.7754C246.996 47.585 246.703 47.4964 246.299 47.5101C245.853 47.5254 245.465 47.6737 245.134 47.9543C244.803 48.2349 244.563 48.5956 244.414 49.037C245.616 48.9986 246.217 48.9788 247.419 48.9366Z" fill="black"/>
<path d="M251.396 45.8891C252.179 45.8595 252.57 45.8442 253.352 45.8134C253.224 46.3732 253.16 46.6525 253.033 47.2124C253.365 46.6855 253.733 46.2787 254.138 45.9927C254.544 45.7067 255.03 45.5741 255.597 45.5937C255.41 46.4184 255.317 46.83 255.129 47.6549C255.087 47.6566 255.066 47.6585 255.025 47.6601C254.372 47.6869 253.813 47.9061 253.347 48.3183C252.881 48.7307 252.546 49.39 252.34 50.2974C252.114 51.2824 252.001 51.7746 251.774 52.7596C250.988 52.7894 250.595 52.8033 249.809 52.8323C250.448 50.0543 250.765 48.6668 251.396 45.8891Z" fill="black"/>
<path d="M257.261 52.6152C256.974 52.576 256.693 52.511 256.417 52.4197C256.141 52.3284 255.875 52.211 255.618 52.0671C255.362 51.9237 255.127 51.7489 254.912 51.5437C255.347 51.0582 255.565 50.8157 256 50.3299C256.376 50.6739 256.753 50.9016 257.128 51.0141C257.504 51.1267 257.847 51.1766 258.157 51.1635C258.415 51.1522 258.615 51.092 258.757 50.9833C258.899 50.8745 258.966 50.7209 258.957 50.5243C258.952 50.396 258.873 50.2869 258.722 50.1948C258.572 50.103 258.372 50.0071 258.129 49.9183C257.852 49.8176 257.586 49.7126 257.34 49.5992C257.094 49.4856 256.875 49.3562 256.683 49.2101C256.492 49.064 256.338 48.8916 256.223 48.6953C256.107 48.499 256.043 48.2646 256.032 47.9909C256.018 47.6491 256.069 47.3276 256.185 47.0274C256.302 46.7269 256.474 46.4643 256.701 46.2406C256.928 46.0169 257.209 45.8359 257.547 45.6973C257.885 45.5588 258.267 45.4798 258.696 45.461C258.979 45.4487 259.253 45.4651 259.517 45.5088C259.781 45.5529 260.033 45.616 260.273 45.6995C260.513 45.783 260.732 45.8783 260.93 45.9849C261.128 46.0915 261.303 46.2054 261.455 46.3268C261.055 46.8386 260.856 47.094 260.456 47.6056C260.109 47.3558 259.787 47.1818 259.49 47.0838C259.193 46.9858 258.903 46.9426 258.619 46.9549C258.379 46.9654 258.195 47.0255 258.066 47.1338C257.937 47.242 257.877 47.3856 257.884 47.5653C257.89 47.7022 257.975 47.8204 258.139 47.9203C258.302 48.0205 258.537 48.1271 258.831 48.2439C259.058 48.3339 259.289 48.4332 259.522 48.5342C259.754 48.6352 259.964 48.7587 260.151 48.9045C260.339 49.0503 260.494 49.2211 260.615 49.4166C260.736 49.6121 260.802 49.8436 260.814 50.1084C260.831 50.4843 260.775 50.8254 260.647 51.1307C260.518 51.4363 260.334 51.6997 260.093 51.9202C259.853 52.1409 259.56 52.3147 259.216 52.4409C258.872 52.5671 258.492 52.6393 258.079 52.6573C257.821 52.6684 257.548 52.6544 257.261 52.6152Z" fill="black"/>
<path d="M263.018 52.2734C262.768 52.1952 262.551 52.0776 262.367 51.9192C262.182 51.7608 262.037 51.5723 261.927 51.3547C261.818 51.1372 261.757 50.8912 261.744 50.6176C261.726 50.2245 261.787 49.8708 261.928 49.5558C262.068 49.2408 262.267 48.9706 262.523 48.7445C262.779 48.5184 263.086 48.3428 263.442 48.2187C263.797 48.0947 264.185 48.023 264.607 48.0023C264.984 47.9841 265.332 47.9945 265.649 48.0345C265.965 48.0745 266.271 48.135 266.568 48.2142C266.576 48.1777 266.581 48.1594 266.589 48.1229C266.603 48.045 266.615 47.9658 266.629 47.8836C266.642 47.8014 266.646 47.7085 266.641 47.6059C266.629 47.3667 266.524 47.1768 266.328 47.0369C266.132 46.897 265.789 46.8387 265.3 46.8629C264.966 46.8795 264.64 46.9322 264.321 47.0203C264.003 47.1084 263.721 47.2096 263.477 47.3242C263.324 46.7144 263.248 46.4104 263.096 45.8006C263.449 45.6384 263.837 45.5017 264.262 45.3913C264.686 45.2809 265.143 45.2135 265.631 45.1894C266.565 45.1432 267.273 45.2914 267.755 45.6351C268.236 45.9791 268.495 46.4886 268.53 47.1634C268.539 47.3428 268.533 47.5189 268.512 47.6913C268.491 47.864 268.463 48.0367 268.429 48.2096C268.1 49.7483 267.935 50.5174 267.603 52.0559C266.843 52.0946 266.463 52.1139 265.703 52.1512C265.77 51.8292 265.803 51.6684 265.87 51.3464C265.609 51.6593 265.31 51.9026 264.973 52.0777C264.636 52.2525 264.26 52.3502 263.846 52.3698C263.544 52.384 263.269 52.3515 263.018 52.2734ZM265.205 50.8585C265.386 50.7768 265.552 50.6678 265.7 50.5319C265.849 50.396 265.975 50.2427 266.078 50.0703C266.182 49.8979 266.255 49.7169 266.297 49.5262C266.314 49.4535 266.323 49.4167 266.34 49.3437C266.164 49.2838 265.964 49.2365 265.738 49.2005C265.512 49.1645 265.279 49.1519 265.038 49.1637C264.626 49.1839 264.293 49.2967 264.039 49.5016C263.786 49.7067 263.667 49.9758 263.683 50.309C263.693 50.5228 263.784 50.6939 263.954 50.8225C264.124 50.9514 264.347 51.0091 264.623 50.996C264.829 50.9858 265.023 50.9401 265.205 50.8585Z" fill="black"/>
<path d="M270.47 51.6375C270.164 51.3961 270.002 51.0816 269.981 50.696C269.974 50.5505 269.977 50.409 269.991 50.2709C270.005 50.1326 270.03 49.9855 270.065 49.8289C270.334 48.5623 270.469 47.9285 270.737 46.6618C270.407 46.6793 270.243 46.6884 269.914 46.7056C270.059 46.0348 270.131 45.6997 270.276 45.0289C270.605 45.0114 270.77 45.0025 271.099 44.9848C271.251 44.2721 271.328 43.9158 271.48 43.2028C272.26 43.1607 272.65 43.1392 273.431 43.0957C273.28 43.8084 273.204 44.1658 273.052 44.8787C273.701 44.8428 274.025 44.824 274.673 44.7872C274.53 45.4585 274.458 45.7947 274.315 46.4661C273.667 46.5026 273.342 46.5206 272.693 46.5563C272.448 47.7311 272.325 48.3182 272.078 49.493C272.063 49.5454 272.054 49.5999 272.049 49.6562C272.043 49.7124 272.041 49.762 272.043 49.8047C272.058 50.0789 272.243 50.2062 272.596 50.1869C272.751 50.1786 272.915 50.1501 273.089 50.1023C273.264 50.054 273.431 49.9911 273.59 49.9135C273.446 50.5848 273.374 50.9208 273.23 51.5921C272.835 51.8024 272.366 51.9224 271.823 51.952C271.228 51.9837 270.777 51.8789 270.47 51.6375Z" fill="black"/>
<path d="M276.202 44.6994C276.984 44.6543 277.374 44.6318 278.156 44.5853C277.579 47.3765 277.289 48.7715 276.703 51.5619C275.917 51.6076 275.524 51.6293 274.739 51.6736C275.328 48.8841 275.621 47.4898 276.202 44.6994ZM276.688 42.1765C277.509 42.1285 277.919 42.1041 278.739 42.0549C278.591 42.7582 278.516 43.11 278.368 43.8133C277.546 43.8624 277.134 43.8861 276.312 43.9339C276.463 43.2308 276.538 42.8798 276.688 42.1765Z" fill="black"/>
<path d="M281.085 51.2168C280.666 51.0838 280.303 50.8849 279.998 50.6204C279.692 50.3561 279.451 50.0344 279.273 49.655C279.095 49.2758 278.991 48.855 278.964 48.3939C278.933 47.8813 279.006 47.3797 279.184 46.8888C279.361 46.3982 279.619 45.9586 279.957 45.5695C280.295 45.1804 280.699 44.8592 281.169 44.6074C281.64 44.3555 282.153 44.2126 282.71 44.1774C283.224 44.1449 283.689 44.1941 284.106 44.3259C284.524 44.4578 284.884 44.6549 285.19 44.9178C285.496 45.181 285.739 45.5021 285.919 45.8802C286.098 46.2586 286.203 46.6785 286.233 47.1396C286.267 47.6517 286.194 48.1541 286.015 48.6461C285.836 49.1383 285.578 49.5801 285.24 49.9705C284.902 50.3612 284.496 50.683 284.024 50.9359C283.551 51.1889 283.04 51.3328 282.488 51.3669C281.972 51.3994 281.503 51.35 281.085 51.2168ZM283.281 49.4383C283.517 49.2766 283.714 49.0806 283.872 48.8504C284.03 48.6206 284.147 48.369 284.225 48.0961C284.302 47.8236 284.333 47.5631 284.317 47.3136C284.285 46.8064 284.122 46.4264 283.831 46.1732C283.539 45.9199 283.17 45.8071 282.724 45.8351C282.424 45.8539 282.156 45.9444 281.92 46.1058C281.685 46.2672 281.488 46.4635 281.33 46.6933C281.172 46.9232 281.054 47.1761 280.976 47.4527C280.898 47.7293 280.867 47.9879 280.881 48.2288C280.912 48.7361 281.074 49.1166 281.367 49.3703C281.658 49.6241 282.029 49.7371 282.476 49.7092C282.777 49.6902 283.045 49.6002 283.281 49.4383Z" fill="black"/>
<path d="M288.372 43.9364C289.153 43.8838 289.543 43.8566 290.325 43.8027C290.267 44.0921 290.238 44.2363 290.18 44.5261C290.414 44.2887 290.678 44.0744 290.975 43.8835C291.272 43.6926 291.613 43.5844 291.998 43.557C292.614 43.5135 293.12 43.6552 293.514 43.9829C293.907 44.3105 294.126 44.7863 294.171 45.4093C294.185 45.6056 294.177 45.8191 294.146 46.0487C294.115 46.2783 294.077 46.5058 294.033 46.7319C293.742 48.2354 293.597 48.987 293.304 50.4906C292.518 50.5464 292.126 50.5738 291.341 50.6283C291.644 49.0901 291.794 48.3219 292.095 46.784C292.114 46.6881 292.128 46.5815 292.138 46.4647C292.146 46.3481 292.149 46.2472 292.143 46.1618C292.124 45.8879 292.025 45.6835 291.847 45.5498C291.669 45.416 291.431 45.3594 291.131 45.3803C290.745 45.4074 290.437 45.556 290.205 45.8258C289.974 46.0954 289.816 46.4392 289.733 46.8575C289.421 48.4317 289.265 49.2183 288.951 50.7922C288.165 50.8453 287.772 50.8719 286.987 50.9237C287.545 48.1285 287.822 46.7319 288.372 43.9364Z" fill="black"/>
<path d="M297.016 50.2983C296.728 50.2682 296.444 50.2124 296.166 50.1299C295.887 50.0475 295.618 49.9387 295.357 49.8031C295.096 49.6678 294.854 49.5005 294.633 49.302C295.053 48.8034 295.264 48.5534 295.683 48.0544C296.07 48.3863 296.454 48.6025 296.833 48.7032C297.212 48.8039 297.556 48.8426 297.866 48.8195C298.124 48.8001 298.322 48.7333 298.46 48.6199C298.599 48.5066 298.662 48.3525 298.647 48.1559C298.637 48.0278 298.555 47.9204 298.401 47.8334C298.248 47.7464 298.046 47.657 297.799 47.5759C297.52 47.4838 297.249 47.3873 297 47.2815C296.75 47.1755 296.528 47.0522 296.332 46.9126C296.136 46.7727 295.977 46.6059 295.855 46.4134C295.733 46.2208 295.662 45.9883 295.643 45.7149C295.618 45.3736 295.659 45.051 295.766 44.7473C295.873 44.4433 296.036 44.1751 296.256 43.9444C296.476 43.7137 296.752 43.5247 297.085 43.3751C297.419 43.2261 297.799 43.1347 298.227 43.1025C298.51 43.0813 298.783 43.0891 299.049 43.1246C299.314 43.1603 299.568 43.2153 299.811 43.291C300.053 43.3668 300.276 43.4551 300.477 43.5553C300.678 43.6555 300.857 43.764 301.012 43.8808C300.629 44.405 300.438 44.6668 300.053 45.1904C299.699 44.9517 299.371 44.7879 299.071 44.6993C298.772 44.6107 298.481 44.5768 298.198 44.598C297.958 44.616 297.775 44.6816 297.65 44.7938C297.525 44.9061 297.468 45.0516 297.482 45.231C297.492 45.3677 297.581 45.4834 297.747 45.5782C297.914 45.6733 298.151 45.7721 298.449 45.8798C298.678 45.9627 298.913 46.0549 299.149 46.1483C299.384 46.242 299.598 46.358 299.79 46.4979C299.982 46.6379 300.142 46.8041 300.269 46.9958C300.396 47.1876 300.47 47.4161 300.49 47.6806C300.519 48.056 300.474 48.3987 300.355 48.7078C300.236 49.0171 300.06 49.2865 299.826 49.5145C299.593 49.7427 299.306 49.9256 298.965 50.0628C298.625 50.2 298.249 50.2838 297.836 50.3147C297.577 50.3338 297.304 50.3284 297.016 50.2983Z" fill="black"/>
<path d="M305.939 42.6253C306.73 42.5609 307.125 42.5281 307.916 42.4623C308.049 44.1256 308.116 44.9573 308.249 46.6203C309.078 44.8668 309.491 43.989 310.314 42.2341C310.986 42.1769 311.322 42.1484 311.994 42.0902C312.211 43.7618 312.321 44.5972 312.538 46.2688C313.3 44.5228 313.678 43.6498 314.434 41.9024C315.209 41.8337 315.597 41.7991 316.372 41.7292C315.243 44.152 314.109 46.572 312.968 48.9888C312.261 49.0503 311.908 49.0809 311.2 49.1411C310.98 47.4646 310.869 46.6262 310.649 44.9498C309.799 46.7175 309.372 47.601 308.516 49.3674C307.814 49.426 307.463 49.4553 306.76 49.5127C306.432 46.7581 306.267 45.3802 305.939 42.6253Z" fill="black"/>
<path d="M317.681 41.6107C318.46 41.5395 318.851 41.5041 319.631 41.4316C319.146 44.2402 318.901 45.6443 318.407 48.4527C317.623 48.5244 317.23 48.5598 316.446 48.6302C316.944 45.8226 317.191 44.4185 317.681 41.6107ZM318.083 39.0738C318.902 38.9989 319.311 38.9605 320.131 38.8843C320.005 39.5921 319.943 39.9463 319.817 40.6542C318.997 40.7304 318.587 40.7672 317.767 40.8421C317.894 40.1345 317.956 39.7814 318.083 39.0738Z" fill="black"/>
<path d="M321.425 47.9029C321.109 47.6741 320.933 47.3669 320.898 46.9824C320.884 46.8371 320.881 46.6956 320.89 46.557C320.899 46.4182 320.918 46.2708 320.946 46.1129C321.165 44.8362 321.274 44.1977 321.491 42.9211C321.163 42.9519 320.998 42.9675 320.669 42.9981C320.787 42.3217 320.846 41.9839 320.964 41.3074C321.293 41.2768 321.457 41.2607 321.785 41.2298C321.909 40.5115 321.971 40.1527 322.094 39.4344C322.873 39.3605 323.262 39.3232 324.04 39.2483C323.918 39.9669 323.857 40.3262 323.734 41.0445C324.381 40.9825 324.704 40.9516 325.35 40.8888C325.235 41.5655 325.177 41.903 325.061 42.5797C324.414 42.6423 324.09 42.6737 323.443 42.7355C323.245 43.9192 323.145 44.5113 322.946 45.695C322.933 45.7479 322.927 45.8032 322.923 45.8596C322.92 45.916 322.919 45.9649 322.924 46.0076C322.95 46.281 323.139 46.401 323.491 46.3674C323.645 46.3527 323.808 46.3172 323.981 46.2622C324.153 46.2069 324.318 46.137 324.474 46.0532C324.357 46.73 324.299 47.0683 324.181 47.745C323.795 47.9711 323.331 48.1102 322.79 48.1618C322.196 48.2182 321.741 48.1317 321.425 47.9029Z" fill="black"/>
<path d="M327.195 38.2046C327.973 38.1276 328.362 38.0889 329.139 38.0107C328.93 39.3193 328.825 39.9737 328.613 41.2823C328.839 41.0379 329.097 40.8153 329.388 40.6155C329.678 40.4155 330.016 40.2965 330.401 40.2573C331.016 40.195 331.525 40.3215 331.929 40.637C332.332 40.9523 332.566 41.4214 332.63 42.0426C332.65 42.2383 332.648 42.4513 332.624 42.6817C332.6 42.9121 332.571 43.1409 332.534 43.3683C332.289 44.8799 332.165 45.6358 331.918 47.1474C331.135 47.2275 330.743 47.2672 329.959 47.3459C330.216 45.7994 330.343 45.0262 330.597 43.4797C330.613 43.3833 330.624 43.2762 330.63 43.1594C330.635 43.0426 330.634 42.9416 330.625 42.8565C330.597 42.5834 330.492 42.3822 330.31 42.2542C330.129 42.1258 329.889 42.0764 329.589 42.1064C329.204 42.1454 328.9 42.303 328.677 42.5799C328.454 42.8568 328.307 43.205 328.236 43.6261C327.973 45.2091 327.84 46.0005 327.574 47.5832C326.791 47.6606 326.399 47.6987 325.615 47.7747C326.148 44.5856 326.676 41.3959 327.195 38.2046Z" fill="black"/>
<path d="M339.647 46.264C339.31 46.1671 339.009 46.0054 338.742 45.7804C338.475 45.5554 338.255 45.2667 338.083 44.9152C337.911 44.5636 337.8 44.1582 337.751 43.6987C337.687 43.0948 337.735 42.526 337.894 41.9924C338.053 41.4591 338.29 40.9878 338.605 40.5794C338.92 40.1712 339.292 39.8404 339.722 39.5869C340.152 39.3337 340.611 39.1803 341.098 39.1269C341.636 39.0676 342.085 39.1215 342.445 39.2899C342.805 39.458 343.115 39.701 343.376 40.0192C343.59 38.5866 343.696 37.8699 343.908 36.4373C344.685 36.3497 345.073 36.3057 345.85 36.217C345.374 39.4158 344.889 42.6136 344.4 45.8107C343.618 45.8986 343.226 45.9423 342.443 46.0291C342.492 45.7213 342.517 45.5666 342.566 45.2589C342.296 45.5666 342.017 45.8153 341.729 46.003C341.442 46.1907 341.105 46.3051 340.718 46.3473C340.341 46.3886 339.983 46.361 339.647 46.264ZM342.107 44.3435C342.346 44.1931 342.551 43.9995 342.72 43.7626C342.889 43.526 343.015 43.2573 343.098 42.9573C343.182 42.6571 343.206 42.3466 343.171 42.0252C343.123 41.5945 342.947 41.2618 342.644 41.026C342.34 40.7902 341.971 40.6959 341.535 40.744C341.27 40.7733 341.022 40.8603 340.791 41.0053C340.561 41.1506 340.363 41.3413 340.199 41.577C340.034 41.8131 339.91 42.0838 339.826 42.388C339.742 42.692 339.718 43.0129 339.754 43.351C339.803 43.7989 339.972 44.1329 340.26 44.3537C340.548 44.5744 340.912 44.6609 341.349 44.6128C341.615 44.5835 341.867 44.4939 342.107 44.3435Z" fill="black"/>
<path d="M348.805 43.5198C349.081 43.7333 349.477 43.8111 349.991 43.751C350.249 43.7212 350.492 43.649 350.722 43.5356C350.951 43.4226 351.197 43.2518 351.456 43.023C351.873 43.4599 352.08 43.6777 352.497 44.1141C352.219 44.4057 351.874 44.6645 351.461 44.8896C351.048 45.1146 350.545 45.2628 349.953 45.3316C349.456 45.3896 349.001 45.3708 348.59 45.2763C348.179 45.1818 347.822 45.0206 347.518 44.7924C347.214 44.5647 346.967 44.272 346.779 43.9143C346.591 43.5571 346.47 43.1398 346.415 42.6637C346.359 42.1707 346.4 41.6688 346.536 41.1578C346.673 40.647 346.899 40.1776 347.213 39.7496C347.528 39.3215 347.921 38.9604 348.392 38.6642C348.864 38.3682 349.407 38.1843 350.021 38.112C350.465 38.0602 350.87 38.0815 351.236 38.1757C351.602 38.2705 351.918 38.4225 352.185 38.6317C352.453 38.8411 352.668 39.1005 352.83 39.4085C352.992 39.7165 353.096 40.0613 353.142 40.4435C353.171 40.69 353.171 40.9489 353.143 41.2193C353.115 41.4899 353.06 41.7638 352.98 42.0404C351.096 42.2652 350.153 42.3756 348.268 42.5933C348.349 42.9978 348.528 43.3063 348.805 43.5198ZM351.284 41.0141C351.31 40.8645 351.314 40.7134 351.296 40.5603C351.263 40.2799 351.147 40.0519 350.949 39.8774C350.751 39.7028 350.451 39.6389 350.05 39.6859C349.605 39.7377 349.23 39.9171 348.923 40.2241C348.617 40.5313 348.407 40.911 348.295 41.3632C349.491 41.2252 350.089 41.1553 351.284 41.0141Z" fill="black"/>
<path d="M356.477 44.3277C356.064 44.2273 355.7 44.0605 355.385 43.8272C355.07 43.5938 354.81 43.2973 354.606 42.9383C354.402 42.5795 354.272 42.1663 354.216 41.699C354.148 41.1383 354.195 40.6004 354.355 40.0854C354.514 39.5706 354.755 39.1106 355.078 38.7048C355.401 38.2993 355.795 37.9607 356.26 37.6882C356.724 37.4159 357.23 37.2462 357.776 37.1788C358.151 37.1323 358.493 37.1307 358.801 37.1734C359.11 37.2163 359.385 37.291 359.627 37.3973C359.87 37.5039 360.086 37.6377 360.275 37.7977C360.464 37.9581 360.631 38.1315 360.776 38.3187C360.234 38.8106 359.963 39.0569 359.421 39.5483C359.217 39.3066 358.996 39.1154 358.757 38.9769C358.519 38.8383 358.208 38.7932 357.824 38.8407C357.567 38.8724 357.328 38.9667 357.105 39.1238C356.881 39.2809 356.693 39.4788 356.54 39.7183C356.388 39.9578 356.273 40.229 356.197 40.5325C356.122 40.8359 356.102 41.1447 356.141 41.4603C356.195 41.9034 356.367 42.2396 356.655 42.4684C356.944 42.6972 357.28 42.7874 357.666 42.7401C357.965 42.7033 358.228 42.6128 358.454 42.4686C358.679 42.3244 358.907 42.1254 359.136 41.8725C359.6 42.3271 359.831 42.5548 360.295 43.0089C359.976 43.3768 359.627 43.6805 359.247 43.9214C358.868 44.1626 358.386 44.3194 357.803 44.3911C357.331 44.4496 356.889 44.4281 356.477 44.3277Z" fill="black"/>
<path d="M362.255 36.746C363.032 36.6471 363.421 36.5975 364.198 36.4973C363.812 39.3217 363.618 40.7334 363.225 43.5579C362.443 43.6575 362.051 43.7072 361.27 43.8055C361.668 40.9816 361.865 39.5696 362.255 36.746ZM362.567 34.1962C363.383 34.0918 363.792 34.0396 364.608 33.9338C364.508 34.6457 364.458 35.0013 364.357 35.7129C363.539 35.8184 363.131 35.8708 362.313 35.975C362.415 35.2631 362.465 34.9078 362.567 34.1962Z" fill="black"/>
<path d="M367.103 43.1363C366.814 43.1223 366.528 43.0815 366.245 43.0146C365.962 42.9478 365.686 42.854 365.418 42.7335C365.15 42.6129 364.899 42.4596 364.666 42.2737C365.059 41.7523 365.255 41.4912 365.647 40.9695C366.053 41.2794 366.447 41.4743 366.832 41.5538C367.216 41.6333 367.563 41.6521 367.871 41.6118C368.128 41.5783 368.323 41.5001 368.455 41.3792C368.587 41.2584 368.639 41.1013 368.614 40.9058C368.597 40.7786 368.51 40.6763 368.352 40.5978C368.193 40.5194 367.986 40.4416 367.735 40.3744C367.45 40.2982 367.175 40.2162 366.92 40.1247C366.665 40.0328 366.435 39.9227 366.231 39.7941C366.028 39.6655 365.859 39.5073 365.727 39.3215C365.594 39.1362 365.511 38.908 365.476 38.6362C365.432 38.2968 365.455 37.9721 365.546 37.663C365.636 37.3537 365.783 37.0776 365.99 36.8349C366.197 36.5924 366.463 36.3875 366.788 36.2197C367.113 36.0521 367.488 35.9401 367.914 35.884C368.196 35.847 368.47 35.8392 368.737 35.8599C369.004 35.8805 369.261 35.9214 369.508 35.9837C369.754 36.046 369.981 36.1214 370.188 36.2103C370.395 36.2992 370.579 36.3977 370.741 36.5057C370.387 37.0503 370.211 37.3223 369.856 37.8666C369.488 37.6483 369.151 37.5027 368.846 37.4308C368.542 37.3588 368.249 37.3419 367.968 37.3789C367.729 37.4104 367.55 37.4858 367.431 37.6051C367.312 37.7243 367.264 37.8725 367.287 38.0508C367.305 38.1867 367.4 38.2971 367.572 38.3822C367.744 38.4676 367.987 38.5535 368.291 38.6443C368.525 38.7144 368.764 38.793 369.005 38.873C369.246 38.9536 369.466 39.0583 369.666 39.1872C369.866 39.3159 370.035 39.4727 370.172 39.6569C370.31 39.8414 370.396 40.0656 370.431 40.3285C370.48 40.7018 370.455 41.0463 370.353 41.3618C370.251 41.6776 370.09 41.9558 369.869 42.1964C369.648 42.4373 369.372 42.636 369.039 42.792C368.706 42.948 368.335 43.0528 367.923 43.1067C367.666 43.1398 367.393 43.1502 367.103 43.1363Z" fill="black"/>
<path d="M372.506 35.3991C373.283 35.2936 373.671 35.2409 374.448 35.1346C374.085 37.962 373.902 39.3758 373.531 42.2032C372.75 42.3093 372.359 42.3614 371.578 42.4661C371.953 39.639 372.139 38.226 372.506 35.3991ZM372.797 32.8469C373.613 32.7358 374.021 32.6799 374.837 32.5674C374.742 33.2801 374.695 33.6362 374.6 34.3491C373.783 34.4614 373.375 34.5164 372.558 34.6273C372.654 33.9149 372.701 33.5596 372.797 32.8469Z" fill="black"/>
<path d="M377.88 41.5212C377.451 41.421 377.075 41.2508 376.75 41.0107C376.424 40.7706 376.159 40.4691 375.952 40.1044C375.745 39.74 375.609 39.3281 375.546 38.8705C375.476 38.3616 375.511 37.8562 375.651 37.353C375.79 36.85 376.014 36.3913 376.322 35.9773C376.629 35.5632 377.008 35.2133 377.458 34.9257C377.909 34.6383 378.411 34.4555 378.964 34.3776C379.475 34.3056 379.943 34.3188 380.37 34.4181C380.796 34.5175 381.171 34.6859 381.496 34.9246C381.822 35.1636 382.089 35.4654 382.297 35.8285C382.506 36.1921 382.643 36.6021 382.708 37.0597C382.781 37.5681 382.747 38.0745 382.606 38.5788C382.464 39.0834 382.24 39.5432 381.933 39.9586C381.625 40.3743 381.245 40.7261 380.793 41.015C380.341 41.3037 379.84 41.4863 379.292 41.5631C378.779 41.635 378.308 41.6214 377.88 41.5212ZM379.937 39.5794C380.161 39.4 380.342 39.1887 380.482 38.947C380.622 38.7056 380.721 38.4467 380.777 38.1688C380.834 37.8911 380.844 37.6285 380.809 37.3809C380.738 36.8777 380.547 36.5108 380.236 36.2807C379.925 36.0506 379.548 35.9668 379.105 36.0291C378.806 36.071 378.546 36.1822 378.323 36.3613C378.101 36.5404 377.919 36.7501 377.779 36.9915C377.639 37.2329 377.54 37.4948 377.484 37.7767C377.427 38.0584 377.416 38.3189 377.449 38.5576C377.519 39.0611 377.708 39.4282 378.019 39.6589C378.33 39.8893 378.709 39.9733 379.154 39.9108C379.453 39.8689 379.714 39.7588 379.937 39.5794Z" fill="black"/>
<path d="M384.599 33.6996C385.375 33.5868 385.763 33.5299 386.538 33.4158C386.503 33.709 386.486 33.8559 386.451 34.1489C386.666 33.8943 386.913 33.6607 387.195 33.4475C387.476 33.2342 387.808 33.0992 388.191 33.0423C388.803 32.9512 389.319 33.0527 389.737 33.3492C390.155 33.6456 390.41 34.1038 390.503 34.7211C390.532 34.9161 390.54 35.1293 390.527 35.3602C390.513 35.5914 390.493 35.8224 390.467 36.0512C390.292 37.5727 390.203 38.3324 390.025 39.8539C389.246 39.9702 388.856 40.0279 388.076 40.1431C388.261 38.5862 388.353 37.8082 388.535 36.2512C388.547 36.1543 388.552 36.0469 388.553 35.9298C388.553 35.8127 388.547 35.7118 388.535 35.6269C388.495 35.3554 388.381 35.1599 388.193 35.0401C388.006 34.9206 387.763 34.8828 387.465 34.9268C387.081 34.9835 386.785 35.1551 386.575 35.4419C386.364 35.7284 386.233 36.0834 386.182 36.5069C385.991 38.1006 385.895 38.8968 385.702 40.4906C384.922 40.6042 384.532 40.6608 383.752 40.7733C384.095 37.9438 384.264 36.5292 384.599 33.6996Z" fill="black"/>
<path d="M75.495 52.0625C76.2826 52.1425 76.6765 52.182 77.4641 52.2607C77.3578 52.5364 77.305 52.6742 77.199 52.95C77.4716 52.7553 77.7626 52.5877 78.073 52.4481C78.3834 52.3085 78.7329 52.2577 79.1216 52.2961C79.5964 52.3431 79.9771 52.4916 80.2622 52.7411C80.5474 52.9906 80.8416 53.7065 80.8416 53.7065C80.9025 53.7234 81.5668 53.1106 82.0032 52.9224C82.4397 52.7338 82.9214 52.6648 83.4486 52.715C84.0707 52.7744 84.5444 52.997 84.8698 53.384C85.195 53.7707 85.3288 54.2766 85.2706 54.8985C85.2523 55.0945 85.2094 55.3035 85.141 55.5245C85.0721 55.7457 84.997 55.9643 84.9157 56.18C84.3778 57.6148 84.108 58.3328 83.568 59.7668C82.7758 59.6921 82.3796 59.6537 81.5877 59.5777C82.1438 58.111 82.4209 57.3774 82.9746 55.9101C83.0095 55.8188 83.0411 55.7167 83.0696 55.6029C83.0977 55.4893 83.1165 55.3886 83.1245 55.3035C83.1779 54.7398 82.897 54.4291 82.283 54.37C81.894 54.3327 81.5667 54.4283 81.3004 54.6568C81.0337 54.8854 80.8237 55.199 80.6713 55.5978C80.1013 57.0989 79.8153 57.8494 79.2426 59.35C78.4507 59.2724 78.055 59.2335 77.2631 59.1545C77.8243 57.6897 78.1041 56.9571 78.6626 55.4917C78.6978 55.4004 78.7297 55.2976 78.7584 55.184C78.7868 55.0706 78.8061 54.9705 78.8145 54.8853C78.87 54.322 78.5902 54.0105 77.9764 53.9495C77.5872 53.9108 77.2594 54.0051 76.9922 54.2328C76.7247 54.4605 76.5139 54.7736 76.3604 55.1719C75.785 56.6711 75.4967 57.4203 74.9188 58.919C74.1272 58.8387 73.7312 58.7985 72.9396 58.7168C73.9657 56.0562 74.4767 54.7253 75.495 52.0625Z" fill="black"/>
<path d="M86.6363 60.0457C86.3968 59.9335 86.1953 59.7863 86.033 59.6037C85.8704 59.4211 85.7497 59.2135 85.6706 58.9829C85.5914 58.7522 85.5641 58.5014 85.5893 58.2283C85.6258 57.8365 85.7361 57.4944 85.9206 57.2022C86.1052 56.9098 86.3415 56.6694 86.6302 56.4809C86.918 56.293 87.2493 56.1616 87.6222 56.0883C87.9956 56.0153 88.394 55.9978 88.8184 56.0365C89.1993 56.0711 89.5459 56.1313 89.8574 56.2148C90.168 56.2989 90.4666 56.3998 90.7525 56.5199C90.7662 56.485 90.7732 56.4678 90.7869 56.4329C90.811 56.3577 90.8351 56.2809 90.8595 56.2014C90.884 56.1219 90.9003 56.0309 90.9097 55.9285C90.9309 55.6901 90.8532 55.4876 90.6761 55.3214C90.499 55.1554 90.1645 55.0496 89.6712 55.0053C89.334 54.975 88.9992 54.9809 88.6681 55.0239C88.3371 55.0668 88.0415 55.1275 87.7813 55.207C87.7126 54.5821 87.6785 54.2704 87.6101 53.6455C87.9865 53.534 88.394 53.4527 88.8342 53.4027C89.2744 53.3528 89.7409 53.3495 90.2334 53.3939C91.175 53.4782 91.8634 53.7239 92.298 54.1312C92.7326 54.5392 92.9209 55.0794 92.8624 55.7529C92.8468 55.9318 92.8166 56.1055 92.7715 56.2734C92.7262 56.4412 92.6746 56.6077 92.6164 56.7742C92.0737 58.2522 91.8009 58.992 91.2555 60.4695C90.4894 60.4018 90.1057 60.3674 89.3393 60.2984C89.4512 59.9891 89.5072 59.8341 89.6191 59.5248C89.3144 59.7984 88.9812 59.9982 88.6199 60.1241C88.258 60.2504 87.8682 60.2944 87.4513 60.2562C87.1477 60.2286 86.8759 60.158 86.6363 60.0457ZM89.0209 58.9487C89.2138 58.8932 89.3954 58.8083 89.563 58.6945C89.7307 58.5806 89.8775 58.4455 90.0052 58.2895C90.1329 58.1332 90.2313 57.964 90.3002 57.7809C90.3276 57.7111 90.3407 57.6764 90.3681 57.6069C90.2004 57.5231 90.0057 57.4479 89.7849 57.3811C89.5639 57.3139 89.3324 57.2688 89.0898 57.2468C88.6738 57.2092 88.3242 57.2747 88.0425 57.4423C87.7603 57.6098 87.6045 57.8601 87.5742 58.1923C87.5549 58.4055 87.6209 58.587 87.7735 58.7382C87.9256 58.8894 88.1413 58.9786 88.4192 59.0036C88.6276 59.0226 88.8275 59.0043 89.0209 58.9487Z" fill="black"/>
<path d="M96.31 51.502C97.0968 51.5688 97.4898 51.6021 98.2768 51.6677C97.588 53.5576 97.243 54.502 96.5498 56.3912C97.7567 55.5453 98.3587 55.1218 99.5618 54.273C100.589 54.3573 101.103 54.3992 102.13 54.4814C100.701 55.4433 99.9843 55.9229 98.5496 56.881C99.0193 58.6047 99.2546 59.4667 99.7286 61.1899C98.842 61.1174 98.3989 61.0814 97.5123 61.0073C97.2126 59.8129 97.0638 59.2143 96.766 58.0196C96.3387 58.3032 96.1259 58.4452 95.6983 58.7283C95.3976 59.5529 95.2458 59.9654 94.9445 60.7901C94.1518 60.7224 93.7548 60.6883 92.9624 60.6193C94.0843 57.5827 95.2007 54.5437 96.31 51.502Z" fill="black"/>
<path d="M103.676 59.7232C103.908 59.9861 104.285 60.1375 104.806 60.1778C105.067 60.1979 105.322 60.1748 105.572 60.1082C105.822 60.0419 106.097 59.9216 106.399 59.7471C106.727 60.2562 106.891 60.5105 107.219 61.0194C106.887 61.2517 106.495 61.4394 106.043 61.5806C105.59 61.7216 105.063 61.7689 104.463 61.7221C103.959 61.6829 103.512 61.5766 103.123 61.4042C102.734 61.2318 102.411 61.0046 102.154 60.7218C101.897 60.4396 101.71 60.105 101.592 59.718C101.475 59.3311 101.435 58.899 101.474 58.4213C101.513 57.9266 101.65 57.4414 101.884 56.9664C102.119 56.4916 102.433 56.0748 102.827 55.7155C103.222 55.3565 103.681 55.0777 104.206 54.8785C104.731 54.6795 105.304 54.6038 105.927 54.6516C106.376 54.6862 106.773 54.7856 107.117 54.9488C107.461 55.1124 107.745 55.3232 107.969 55.5802C108.194 55.8374 108.357 56.1331 108.458 56.4663C108.559 56.7996 108.596 57.1592 108.567 57.5432C108.548 57.7908 108.499 58.0442 108.419 58.3042C108.338 58.5644 108.231 58.8222 108.099 59.0781C106.188 58.9345 105.234 58.8612 103.323 58.7102C103.326 59.1227 103.443 59.4603 103.676 59.7232ZM106.618 57.743C106.672 57.6014 106.704 57.454 106.716 57.3004C106.737 57.019 106.667 56.7727 106.505 56.5633C106.343 56.3536 106.057 56.233 105.65 56.2013C105.2 56.1664 104.794 56.27 104.431 56.5117C104.068 56.7537 103.787 57.0851 103.588 57.5072C104.8 57.6028 105.406 57.6506 106.618 57.743Z" fill="black"/>
<path d="M110.95 55.1582C111.739 55.2159 112.134 55.2447 112.923 55.3011C112.732 55.8435 112.637 56.1142 112.447 56.6567C112.839 56.1698 113.254 55.8075 113.693 55.5683C114.131 55.329 114.635 55.2503 115.202 55.333C114.922 56.1319 114.782 56.5312 114.502 57.3299C114.46 57.3269 114.44 57.3256 114.398 57.3229C113.739 57.2764 113.153 57.4322 112.639 57.7899C112.126 58.1478 111.717 58.7657 111.408 59.6441C111.072 60.5979 110.903 61.0748 110.566 62.0284C109.773 61.9704 109.377 61.9412 108.584 61.8818C109.534 59.1932 110.007 57.8487 110.95 55.1582Z" fill="black"/>
<path d="M116.092 62.4975C115.809 62.4266 115.534 62.3307 115.267 62.2094C115 62.088 114.746 61.9416 114.504 61.77C114.263 61.5987 114.045 61.3989 113.851 61.1709C114.343 60.7372 114.589 60.5202 115.08 60.086C115.42 60.47 115.772 60.7386 116.137 60.8922C116.501 61.0458 116.84 61.1336 117.153 61.1551C117.414 61.1728 117.621 61.1355 117.776 61.0428C117.931 60.9502 118.014 60.806 118.027 60.6097C118.036 60.4816 117.97 60.3634 117.829 60.2552C117.688 60.1472 117.498 60.0299 117.263 59.9144C116.996 59.7834 116.741 59.6499 116.507 59.5094C116.273 59.369 116.066 59.2151 115.891 59.0486C115.715 58.8821 115.58 58.6952 115.485 58.4868C115.39 58.279 115.353 58.037 115.372 57.7639C115.396 57.4226 115.483 57.1095 115.633 56.8241C115.783 56.5386 115.985 56.2975 116.238 56.1006C116.49 55.9038 116.794 55.7547 117.148 55.6546C117.503 55.5547 117.896 55.519 118.329 55.5482C118.614 55.5673 118.887 55.6135 119.148 55.6868C119.408 55.7598 119.654 55.8514 119.885 55.961C120.117 56.0705 120.327 56.1898 120.514 56.3176C120.702 56.4454 120.864 56.5789 121.003 56.7164C120.545 57.1807 120.316 57.4119 119.857 57.8754C119.537 57.5886 119.233 57.3797 118.946 57.2491C118.659 57.1186 118.372 57.0435 118.086 57.0244C117.844 57.008 117.652 57.0464 117.511 57.1399C117.37 57.2333 117.293 57.3689 117.28 57.5483C117.271 57.685 117.343 57.8125 117.496 57.9304C117.649 58.048 117.873 58.1794 118.155 58.3282C118.373 58.4431 118.594 58.5682 118.817 58.6942C119.039 58.8206 119.236 58.9665 119.408 59.1322C119.58 59.2979 119.716 59.4856 119.816 59.6934C119.916 59.9013 119.957 60.1381 119.94 60.4029C119.915 60.7786 119.82 61.1113 119.657 61.4002C119.494 61.6894 119.28 61.9314 119.014 62.1234C118.748 62.3159 118.435 62.4553 118.075 62.5426C117.716 62.6299 117.327 62.6591 116.91 62.6307C116.648 62.6124 116.376 62.5687 116.092 62.4975Z" fill="black"/>
<path d="M119.732 63.9388C120.275 63.9315 120.684 63.8276 120.96 63.6267C121.235 63.4259 121.419 63.1442 121.513 62.7816C121.189 62.761 121.027 62.7499 120.704 62.729C120.981 61.9239 121.12 61.5217 121.397 60.7163C122.241 60.7708 122.663 60.7977 123.507 60.8508C123.276 61.5308 123.161 61.8716 122.929 62.5512C122.65 63.3824 122.254 63.9662 121.743 64.3018C121.232 64.6375 120.587 64.7887 119.811 64.7551C119.78 64.4289 119.763 64.265 119.732 63.9388Z" fill="black"/>
<path d="M130.248 56.4233C131.048 56.4698 131.448 56.4923 132.248 56.5374C132.149 58.2032 132.1 59.0351 132.001 60.7008C133.075 59.0797 133.61 58.2692 134.677 56.646C135.357 56.683 135.698 56.7015 136.378 56.7378C136.361 58.4231 136.353 59.2655 136.338 60.9511C137.343 59.3281 137.845 58.5166 138.844 56.8917C139.629 56.9317 140.02 56.9518 140.805 56.9905C139.338 59.2322 137.867 61.4704 136.39 63.7052C135.674 63.6673 135.317 63.6485 134.601 63.6099C134.614 61.9189 134.62 61.073 134.633 59.382C133.538 61.0142 132.988 61.83 131.885 63.46C131.175 63.4203 130.82 63.3993 130.11 63.3585C130.165 60.5843 130.192 59.1973 130.248 56.4233Z" fill="black"/>
<path d="M142.796 62.1952C143.036 62.4508 143.417 62.5913 143.939 62.6154C144.2 62.6278 144.454 62.5972 144.702 62.5228C144.949 62.4487 145.221 62.3195 145.516 62.1361C145.86 62.6348 146.031 62.8843 146.375 63.3829C146.05 63.6251 145.664 63.8249 145.216 63.9799C144.769 64.1348 144.244 64.1982 143.644 64.17C143.139 64.1461 142.69 64.0542 142.296 63.8942C141.903 63.7341 141.573 63.5166 141.307 63.2419C141.042 62.9678 140.844 62.6388 140.715 62.2553C140.586 61.8721 140.533 61.4414 140.556 60.9626C140.581 60.4669 140.703 59.9782 140.922 59.4961C141.142 59.0144 141.443 58.5877 141.826 58.2163C142.209 57.8452 142.659 57.552 143.177 57.3369C143.695 57.1218 144.266 57.0291 144.889 57.0578C145.339 57.0788 145.738 57.1652 146.087 57.318C146.436 57.4708 146.726 57.6728 146.958 57.9228C147.19 58.1731 147.362 58.4642 147.473 58.7942C147.585 59.1242 147.632 59.4816 147.615 59.8662C147.604 60.1143 147.562 60.3694 147.49 60.6318C147.417 60.8944 147.319 61.1552 147.194 61.4151C145.281 61.3305 144.325 61.2862 142.412 61.1941C142.427 61.6055 142.555 61.9396 142.796 62.1952ZM145.673 60.1259C145.723 59.9827 145.752 59.8337 145.759 59.6798C145.772 59.3979 145.693 59.1548 145.525 58.9502C145.356 58.7456 145.067 58.6339 144.66 58.6151C144.209 58.5941 143.807 58.7099 143.451 58.9626C143.096 59.2155 142.826 59.5558 142.64 59.9841C143.854 60.0424 144.46 60.0705 145.673 60.1259Z" fill="black"/>
<path d="M150.873 64.1527C150.538 63.9317 150.264 63.6444 150.053 63.2902C149.926 63.6892 149.862 63.8885 149.735 64.2876C148.947 64.2543 148.553 64.2371 147.764 64.2027C148.744 61.1202 149.72 58.0358 150.688 54.949C151.476 54.982 151.87 54.9981 152.658 55.0298C152.259 56.3112 152.059 56.9522 151.658 58.2337C151.973 57.9705 152.286 57.7667 152.6 57.6238C152.913 57.481 153.265 57.4174 153.655 57.4329C154.036 57.448 154.387 57.528 154.706 57.6732C155.025 57.8185 155.302 58.0218 155.535 58.2831C155.768 58.5446 155.945 58.8612 156.066 59.234C156.186 59.6067 156.238 60.024 156.221 60.4859C156.198 61.0933 156.069 61.6492 155.833 62.1543C155.596 62.6591 155.29 63.0912 154.915 63.4494C154.54 63.8077 154.117 64.0797 153.648 64.2666C153.178 64.4538 152.695 64.5381 152.199 64.5182C151.651 64.4959 151.209 64.374 150.873 64.1527ZM152.788 62.7051C153.041 62.5963 153.267 62.4382 153.467 62.229C153.667 62.0201 153.831 61.7727 153.959 61.4883C154.088 61.204 154.158 60.8879 154.172 60.5396C154.189 60.0893 154.071 59.734 153.816 59.473C153.561 59.212 153.213 59.0729 152.771 59.0549C152.493 59.0439 152.227 59.0952 151.97 59.2079C151.714 59.321 151.483 59.481 151.279 59.6894C151.075 59.8981 150.908 60.1449 150.779 60.429C150.65 60.7128 150.579 61.0165 150.565 61.339C150.547 61.7722 150.672 62.1282 150.939 62.4075C151.206 62.6865 151.562 62.8345 152.006 62.8522C152.275 62.8632 152.536 62.8141 152.788 62.7051Z" fill="black"/>
<path d="M158.614 64.709C158.329 64.6475 158.051 64.5597 157.78 64.4472C157.51 64.3347 157.251 64.1975 157.004 64.0345C156.758 63.8714 156.533 63.6792 156.332 63.4576C156.809 63.0078 157.047 62.7825 157.523 62.3325C157.875 62.7049 158.236 62.9616 158.606 63.1032C158.975 63.2447 159.316 63.3215 159.63 63.3322C159.891 63.3411 160.097 63.296 160.248 63.1985C160.4 63.101 160.478 62.9541 160.485 62.757C160.49 62.6286 160.419 62.5132 160.275 62.4098C160.131 62.3064 159.937 62.1955 159.698 62.0881C159.428 61.9659 159.168 61.8405 158.929 61.7081C158.691 61.5757 158.479 61.4296 158.298 61.269C158.117 61.1085 157.976 60.9253 157.875 60.7204C157.773 60.5155 157.727 60.2763 157.737 60.0024C157.75 59.6605 157.827 59.3439 157.967 59.0536C158.107 58.7633 158.301 58.5152 158.547 58.3098C158.792 58.1043 159.091 57.9459 159.441 57.8339C159.792 57.7222 160.184 57.6733 160.617 57.6881C160.903 57.6978 161.176 57.7357 161.439 57.7998C161.701 57.8643 161.951 57.947 162.186 58.0488C162.421 58.1505 162.634 58.2628 162.825 58.3844C163.016 58.5061 163.183 58.6339 163.327 58.7668C162.885 59.2459 162.663 59.4849 162.221 59.9634C161.891 59.6874 161.581 59.4889 161.289 59.3681C160.998 59.2472 160.71 59.1817 160.424 59.1721C160.181 59.164 159.991 59.2088 159.853 59.3068C159.715 59.4049 159.642 59.5434 159.636 59.7231C159.631 59.86 159.708 59.9846 159.864 60.0971C160.021 60.2097 160.248 60.3337 160.536 60.4731C160.757 60.5805 160.982 60.6981 161.209 60.8166C161.435 60.9355 161.637 61.0752 161.814 61.2352C161.992 61.3953 162.134 61.5776 162.24 61.782C162.346 61.9863 162.395 62.2213 162.386 62.4863C162.374 62.8626 162.291 63.1985 162.138 63.4931C161.985 63.7879 161.779 64.0358 161.52 64.2369C161.26 64.4383 160.953 64.5884 160.596 64.6875C160.24 64.7866 159.852 64.8293 159.434 64.8151C159.174 64.8054 158.9 64.7702 158.614 64.709Z" fill="black"/>
<path d="M165.264 57.9654C166.054 57.9893 166.449 58.0011 167.239 58.0236C166.411 60.7531 165.995 62.1175 165.16 64.8456C164.366 64.8217 163.97 64.8091 163.176 64.7841C164.015 62.0574 164.433 60.6937 165.264 57.9654ZM165.974 55.4954C166.804 55.5201 167.219 55.5324 168.049 55.5558C167.837 56.2432 167.732 56.5867 167.52 57.2739C166.689 57.2503 166.274 57.2379 165.443 57.2129C165.656 56.526 165.762 56.1825 165.974 55.4954Z" fill="black"/>
<path d="M168.252 64.665C167.963 64.3997 167.824 64.0734 167.834 63.6875C167.838 63.5417 167.854 63.4007 167.879 63.264C167.905 63.1274 167.941 62.9821 167.989 62.829C168.363 61.5884 168.549 60.9683 168.922 59.7274C168.589 59.7183 168.422 59.7129 168.089 59.7038C168.29 59.047 168.39 58.7191 168.59 58.0623C168.922 58.0714 169.089 58.0754 169.421 58.0843C169.633 57.3861 169.738 57.0375 169.948 56.3394C170.737 56.3603 171.132 56.3708 171.921 56.3904C171.712 57.0888 171.607 57.4379 171.397 58.1364C172.051 58.153 172.379 58.1608 173.034 58.1764C172.836 58.834 172.737 59.1633 172.538 59.8209C171.883 59.8048 171.555 59.7965 170.899 59.7798C170.557 60.931 170.386 61.5062 170.042 62.6572C170.023 62.7082 170.009 62.7619 169.999 62.8175C169.989 62.8731 169.983 62.9219 169.982 62.9649C169.975 63.2391 170.15 63.3809 170.507 63.39C170.663 63.394 170.831 63.3798 171.011 63.3459C171.19 63.3118 171.363 63.2632 171.53 63.1988C171.331 63.8562 171.23 64.1843 171.031 64.8417C170.617 65.0192 170.136 65.1022 169.587 65.0874C168.985 65.0713 168.54 64.9303 168.252 64.665Z" fill="black"/>
<path d="M175.377 63.3343C175.624 63.5838 176.008 63.7149 176.53 63.7259C176.792 63.7315 177.044 63.6936 177.29 63.6131C177.535 63.5325 177.803 63.3972 178.094 63.206C178.45 63.6958 178.627 63.9407 178.984 64.4305C178.665 64.6813 178.284 64.89 177.841 65.0562C177.398 65.2224 176.876 65.2992 176.275 65.2863C175.77 65.2756 175.318 65.195 174.92 65.0449C174.523 64.8948 174.188 64.6856 173.916 64.4181C173.643 64.151 173.438 63.8276 173.299 63.4477C173.16 63.0679 173.096 62.6388 173.108 62.1595C173.119 61.6632 173.229 61.171 173.436 60.6836C173.643 60.1965 173.933 59.7628 174.306 59.3818C174.68 59.001 175.121 58.6965 175.633 58.4682C176.145 58.24 176.713 58.1312 177.337 58.1441C177.787 58.1535 178.189 58.2308 178.542 58.3745C178.894 58.5184 179.189 58.7126 179.427 58.9564C179.665 59.2005 179.844 59.4868 179.964 59.8138C180.083 60.1412 180.14 60.4975 180.133 60.8823C180.128 61.1305 180.094 61.3866 180.028 61.6506C179.962 61.9146 179.87 62.1786 179.753 62.4415C177.839 62.4055 176.882 62.3856 174.968 62.3426C174.994 62.754 175.13 63.0849 175.377 63.3343ZM178.199 61.1922C178.245 61.0477 178.271 60.8982 178.274 60.7443C178.279 60.4621 178.195 60.2204 178.021 60.0203C177.848 59.8203 177.557 59.7161 177.149 59.7078C176.698 59.6984 176.298 59.824 175.95 60.0859C175.601 60.3477 175.339 60.6952 175.165 61.1278C176.379 61.1549 176.985 61.1681 178.199 61.1922Z" fill="black"/>
<path d="M185.56 58.417C186.37 58.4285 186.776 58.4339 187.587 58.4441C187.688 60.2785 187.74 61.195 187.842 63.0293C188.976 61.2105 189.54 60.3005 190.666 58.479C191.513 58.4876 191.937 58.4917 192.784 58.4986C191.234 60.7978 189.677 63.0919 188.114 65.3822C187.393 65.3736 187.031 65.3685 186.31 65.3588C186.008 62.5819 185.858 61.1941 185.56 58.417Z" fill="black"/>
<path d="M194.058 58.5093C194.848 58.5152 195.243 58.5179 196.033 58.5227C195.268 61.2701 194.884 62.6428 194.111 65.3889C193.317 65.3829 192.919 65.3803 192.125 65.373C192.902 62.6281 193.289 61.2553 194.058 58.5093ZM194.712 56.0232C195.542 56.0288 195.957 56.0312 196.786 56.0358C196.591 56.7278 196.494 57.0745 196.298 57.7665C195.466 57.7617 195.051 57.759 194.219 57.7528C194.417 57.0611 194.515 56.7149 194.712 56.0232Z" fill="black"/>
<path d="M198.043 65.4895C197.756 65.4372 197.475 65.3585 197.201 65.2543C196.927 65.1501 196.665 65.0201 196.413 64.8647C196.162 64.7094 195.933 64.5247 195.725 64.3096C196.188 63.8453 196.419 63.612 196.88 63.1474C197.243 63.5088 197.612 63.7548 197.986 63.8848C198.359 64.0148 198.702 64.0808 199.015 64.0819C199.277 64.083 199.481 64.0314 199.629 63.9291C199.778 63.8268 199.851 63.678 199.852 63.4812C199.852 63.3528 199.779 63.2392 199.632 63.1401C199.484 63.041 199.288 62.9366 199.046 62.8364C198.772 62.7228 198.508 62.6055 198.266 62.4804C198.023 62.3552 197.808 62.2153 197.622 62.0606C197.436 61.9057 197.289 61.7274 197.181 61.5257C197.074 61.324 197.021 61.0861 197.023 60.8125C197.025 60.4703 197.091 60.1519 197.222 59.8573C197.354 59.5624 197.539 59.3087 197.778 59.0957C198.017 58.883 198.311 58.7155 198.657 58.5927C199.004 58.4703 199.394 58.4091 199.828 58.4104C200.113 58.4112 200.389 58.44 200.653 58.4961C200.917 58.5525 201.168 58.6277 201.407 58.7225C201.644 58.817 201.861 58.922 202.056 59.0377C202.251 59.1534 202.421 59.2759 202.569 59.4043C202.142 59.8967 201.929 60.1425 201.501 60.6347C201.163 60.3691 200.847 60.1798 200.552 60.0681C200.258 59.9564 199.967 59.9 199.681 59.8992C199.438 59.8984 199.249 59.9486 199.115 60.0506C198.98 60.1527 198.912 60.2939 198.911 60.4738C198.91 60.6108 198.99 60.733 199.151 60.8404C199.311 60.9481 199.542 61.0649 199.833 61.1954C200.057 61.2961 200.286 61.4062 200.516 61.5179C200.746 61.6299 200.952 61.7636 201.134 61.918C201.316 62.0724 201.463 62.2502 201.576 62.4511C201.688 62.6519 201.745 62.8858 201.745 63.1509C201.744 63.5274 201.672 63.8655 201.528 64.1643C201.383 64.4635 201.186 64.7175 200.933 64.9264C200.68 65.1356 200.376 65.2959 200.023 65.406C199.67 65.5161 199.284 65.5709 198.866 65.5693C198.605 65.569 198.331 65.5422 198.043 65.4895Z" fill="black"/>
<path d="M204.48 58.5448C205.27 58.5443 205.665 58.5438 206.455 58.5419C205.713 61.2954 205.339 62.6716 204.589 65.4241C203.794 65.4246 203.397 65.4243 202.603 65.4238C203.357 62.6724 203.733 61.2973 204.48 58.5448ZM205.113 56.0534C205.943 56.0523 206.358 56.0512 207.188 56.0488C206.998 56.7424 206.903 57.0899 206.713 57.7835C205.882 57.7857 205.466 57.786 204.635 57.7868C204.826 57.0934 204.922 56.7467 205.113 56.0534Z" fill="black"/>
<path d="M207.671 65.1477C207.375 64.8915 207.227 64.5698 207.226 64.1836C207.225 64.0378 207.235 63.8969 207.256 63.7596C207.277 63.6221 207.309 63.4761 207.352 63.3214C207.688 62.0697 207.855 61.4432 208.189 60.1916C207.856 60.1929 207.689 60.1932 207.356 60.1943C207.536 59.5312 207.627 59.2012 207.807 58.5382C208.139 58.5371 208.305 58.5358 208.638 58.5344C208.828 57.8303 208.922 57.4786 209.111 56.7742C209.9 56.7707 210.295 56.7683 211.083 56.7634C210.896 57.4681 210.802 57.8204 210.613 58.5248C211.268 58.521 211.596 58.5194 212.251 58.5151C212.073 59.1786 211.984 59.5103 211.806 60.1738C211.151 60.1781 210.823 60.1795 210.167 60.183C209.861 61.3441 209.707 61.925 209.4 63.0862C209.382 63.1377 209.37 63.1919 209.361 63.2478C209.352 63.3037 209.349 63.3528 209.349 63.3958C209.35 63.6699 209.529 63.8061 209.886 63.8042C210.042 63.8034 210.21 63.7841 210.388 63.7446C210.566 63.7051 210.738 63.6506 210.902 63.5813C210.723 64.2449 210.633 64.5765 210.454 65.2398C210.046 65.4302 209.568 65.5266 209.019 65.529C208.418 65.5314 207.968 65.4044 207.671 65.1477Z" fill="black"/>
<path d="M214.445 65.2952C214.03 65.1405 213.676 64.9222 213.382 64.6421C213.088 64.3621 212.862 64.0277 212.702 63.6397C212.543 63.2516 212.462 62.8263 212.459 62.3641C212.455 61.8507 212.556 61.3539 212.761 60.873C212.966 60.3923 213.249 59.9672 213.61 59.5964C213.971 59.2255 214.396 58.9269 214.883 58.6997C215.37 58.4728 215.895 58.3565 216.458 58.3506C216.978 58.3452 217.445 58.4196 217.858 58.5732C218.271 58.7268 218.624 58.943 218.918 59.2218C219.212 59.5008 219.44 59.834 219.601 60.2215C219.762 60.609 219.846 61.033 219.852 61.4952C219.858 62.0083 219.758 62.5059 219.551 62.9877C219.344 63.4697 219.06 63.8975 218.699 64.2694C218.337 64.6419 217.912 64.9424 217.423 65.1701C216.933 65.3981 216.409 65.5141 215.852 65.5194C215.329 65.5245 214.86 65.4499 214.445 65.2952ZM216.753 63.6351C216.999 63.4861 217.209 63.3008 217.38 63.0793C217.552 62.8577 217.683 62.6134 217.776 62.3451C217.869 62.0771 217.914 61.8182 217.911 61.5682C217.905 61.0599 217.762 60.671 217.481 60.4028C217.2 60.1345 216.835 60.0029 216.384 60.0072C216.08 60.0104 215.806 60.0867 215.56 60.2354C215.315 60.3842 215.106 60.5692 214.934 60.7903C214.762 61.0115 214.63 61.2586 214.537 61.5309C214.444 61.8032 214.398 62.0591 214.4 62.3002C214.405 62.8086 214.547 63.1974 214.828 63.4665C215.108 63.7353 215.475 63.8677 215.928 63.8634C216.232 63.8602 216.506 63.7839 216.753 63.6351Z" fill="black"/>
<path d="M222.177 58.4081C222.966 58.3965 223.362 58.3911 224.152 58.3785C224.01 58.9352 223.939 59.2131 223.797 59.7701C224.145 59.251 224.525 58.8533 224.941 58.5767C225.357 58.3001 225.851 58.1785 226.423 58.2109C226.215 59.0313 226.109 59.4411 225.9 60.2612C225.858 60.262 225.838 60.2628 225.796 60.2636C225.137 60.2752 224.567 60.4814 224.087 60.8826C223.608 61.2841 223.253 61.9361 223.024 62.8381C222.772 63.8174 222.648 64.3075 222.395 65.2866C221.601 65.2984 221.203 65.3035 220.409 65.3142C221.12 62.5518 221.474 61.1707 222.177 58.4081Z" fill="black"/>
<path d="M227.935 65.2696C227.646 65.2237 227.364 65.1515 227.088 65.0537C226.812 64.956 226.546 64.833 226.29 64.6834C226.035 64.5338 225.801 64.3542 225.589 64.1439C226.04 63.6686 226.265 63.4307 226.716 62.9551C227.088 63.3077 227.462 63.5445 227.838 63.6657C228.215 63.7868 228.56 63.845 228.873 63.8389C229.134 63.8335 229.337 63.7776 229.483 63.6721C229.629 63.5666 229.7 63.4157 229.696 63.2188C229.693 63.0905 229.616 62.9782 229.466 62.8829C229.317 62.7875 229.117 62.6876 228.874 62.5934C228.597 62.4862 228.331 62.3751 228.085 62.2559C227.84 62.1366 227.622 62.0013 227.432 61.8509C227.243 61.7003 227.091 61.5262 226.979 61.3273C226.868 61.1283 226.809 60.8914 226.804 60.6175C226.798 60.2754 226.857 59.9548 226.982 59.6575C227.107 59.36 227.285 59.1022 227.52 58.8836C227.754 58.6653 228.044 58.4905 228.388 58.3597C228.731 58.2292 229.12 58.1594 229.554 58.1505C229.839 58.1449 230.114 58.1666 230.379 58.2166C230.644 58.2668 230.898 58.3358 231.138 58.4247C231.378 58.5136 231.597 58.6145 231.794 58.7257C231.992 58.8369 232.165 58.9542 232.316 59.0791C231.9 59.5815 231.692 59.8332 231.276 60.335C230.932 60.0773 230.611 59.896 230.315 59.7913C230.018 59.6863 229.726 59.6363 229.44 59.6419C229.197 59.6471 229.01 59.7021 228.877 59.8074C228.745 59.9126 228.68 60.055 228.684 60.2346C228.687 60.3716 228.769 60.4919 228.932 60.5958C229.094 60.6997 229.328 60.8117 229.622 60.9355C229.849 61.0305 230.08 61.1355 230.313 61.2419C230.545 61.3482 230.754 61.4768 230.939 61.6269C231.125 61.777 231.278 61.9505 231.395 62.1487C231.512 62.3469 231.573 62.5803 231.579 62.8456C231.587 63.222 231.523 63.5615 231.386 63.8638C231.249 64.1665 231.056 64.4253 230.808 64.6402C230.56 64.8553 230.261 65.0223 229.911 65.1405C229.56 65.2589 229.176 65.3222 228.758 65.3303C228.498 65.3354 228.223 65.3153 227.935 65.2696Z" fill="black"/>
<path d="M231.683 66.3863C232.223 66.3316 232.621 66.1922 232.877 65.968C233.134 65.7437 233.292 65.4467 233.353 65.0775C233.03 65.085 232.867 65.0885 232.543 65.0957C232.749 64.2695 232.852 63.8565 233.057 63.0299C233.902 63.0106 234.326 63.0012 235.171 62.98C235 63.6776 234.914 64.0262 234.743 64.7239C234.537 65.5765 234.195 66.1919 233.715 66.5711C233.236 66.9503 232.607 67.1578 231.832 67.1922C231.772 66.87 231.742 66.7086 231.683 66.3863Z" fill="black"/>
<path d="M242.869 55.8302C243.668 55.8055 244.067 55.7926 244.866 55.7668C244.182 58.6659 243.837 60.1155 243.143 63.0135C244.963 62.9569 245.874 62.9273 247.694 62.8642C247.52 63.5893 247.434 63.9518 247.26 64.6768C244.633 64.7668 243.319 64.8087 240.692 64.8849C241.421 61.868 242.147 58.8494 242.869 55.8302Z" fill="black"/>
<path d="M250.375 57.682C251.165 57.653 251.56 57.6382 252.349 57.6079C251.706 60.3867 251.383 61.7759 250.733 64.5537C249.939 64.5829 249.542 64.5974 248.748 64.6256C249.403 61.8484 249.729 60.4598 250.375 57.682ZM250.919 55.1698C251.748 55.1389 252.163 55.1226 252.992 55.0903C252.827 55.7904 252.745 56.1406 252.58 56.8407C251.749 56.8726 251.334 56.8885 250.504 56.9191C250.67 56.2193 250.753 55.8699 250.919 55.1698Z" fill="black"/>
<path d="M254.206 57.5348C254.995 57.5034 255.39 57.4875 256.179 57.4547C256.113 57.7426 256.08 57.8863 256.013 58.1744C256.255 57.9435 256.529 57.7362 256.833 57.5533C257.138 57.3704 257.485 57.2713 257.874 57.2547C258.497 57.2278 259.003 57.3833 259.391 57.7214C259.778 58.0595 259.986 58.5421 260.014 59.1659C260.022 59.3624 260.008 59.5751 259.97 59.8037C259.932 60.0324 259.888 60.2591 259.838 60.4838C259.502 61.9788 259.333 62.7267 258.995 64.2213C258.201 64.256 257.805 64.2724 257.011 64.3057C257.361 62.7766 257.535 62.0121 257.881 60.4828C257.903 60.3877 257.921 60.2808 257.933 60.1643C257.946 60.048 257.95 59.947 257.946 59.8614C257.935 59.5872 257.841 59.3807 257.665 59.2421C257.491 59.1036 257.252 59.0402 256.948 59.0531C256.558 59.0697 256.243 59.2096 256.002 59.4728C255.761 59.736 255.592 60.0757 255.496 60.4916C255.138 62.0567 254.957 62.8392 254.596 64.404C253.803 64.4357 253.406 64.4518 252.612 64.4821C253.253 61.7038 253.572 60.3141 254.206 57.5348Z" fill="black"/>
<path d="M262.813 54.6692C263.601 54.6321 263.994 54.6136 264.782 54.5754C264.347 56.5395 264.129 57.5213 263.69 59.4848C264.774 58.4877 265.316 57.9891 266.395 56.9896C267.423 56.9388 267.937 56.913 268.965 56.8601C267.675 58.0011 267.029 58.5696 265.734 59.7077C266.424 61.3549 266.771 62.1782 267.465 63.8244C266.578 63.8689 266.134 63.891 265.246 63.9339C264.794 62.7889 264.568 62.2172 264.117 61.0719C263.731 61.4089 263.538 61.5767 263.152 61.9135C262.962 62.7704 262.866 63.1987 262.676 64.0559C261.882 64.0926 261.485 64.1112 260.692 64.1469C261.404 60.9886 262.115 57.8301 262.813 54.6692Z" fill="black"/>
<path d="M271.181 61.8527C271.446 62.0829 271.838 62.1838 272.36 62.1559C272.621 62.1416 272.87 62.0858 273.109 61.987C273.348 61.8884 273.605 61.7324 273.88 61.52C274.272 61.9819 274.468 62.2128 274.86 62.6742C274.561 62.9481 274.196 63.1849 273.767 63.3844C273.337 63.5837 272.822 63.6997 272.222 63.7319C271.717 63.7593 271.262 63.7126 270.854 63.5926C270.447 63.4725 270.097 63.2896 269.805 63.0434C269.513 62.7971 269.284 62.4897 269.117 62.1213C268.951 61.7531 268.855 61.3296 268.83 60.8511C268.805 60.3556 268.877 59.857 269.047 59.3553C269.217 58.854 269.474 58.3993 269.817 57.9917C270.16 57.5838 270.579 57.2473 271.072 56.9807C271.566 56.7146 272.124 56.5647 272.747 56.5306C273.196 56.5059 273.602 56.5524 273.965 56.6695C274.327 56.7868 274.636 56.9579 274.892 57.1834C275.147 57.4093 275.348 57.6805 275.492 57.9976C275.635 58.3148 275.718 58.6666 275.739 59.0511C275.754 59.299 275.738 59.5565 275.693 59.8245C275.647 60.093 275.575 60.3632 275.478 60.6344C273.567 60.7423 272.611 60.795 270.699 60.8959C270.755 61.3038 270.916 61.6223 271.181 61.8527ZM273.835 59.5049C273.87 59.3572 273.884 59.2058 273.875 59.0516C273.859 58.7697 273.757 58.5352 273.569 58.3489C273.381 58.1622 273.083 58.0803 272.676 58.1026C272.225 58.127 271.836 58.2831 271.508 58.5704C271.181 58.8577 270.946 59.2238 270.805 59.6682C272.017 59.604 272.623 59.572 273.835 59.5049Z" fill="black"/>
<path d="M278.505 63.1526C278.171 63.0393 277.875 62.8637 277.617 62.6261C277.359 62.3884 277.151 62.0892 276.996 61.7299C276.84 61.3706 276.749 60.9595 276.722 60.4981C276.687 59.8915 276.764 59.3265 276.951 58.8015C277.138 58.2765 277.401 57.8168 277.739 57.4242C278.076 57.0316 278.468 56.7193 278.914 56.487C279.36 56.2547 279.83 56.1242 280.323 56.0944C280.867 56.0614 281.317 56.1374 281.672 56.3232C282.026 56.5085 282.326 56.766 282.572 57.0966C282.859 55.6757 283.002 54.9649 283.287 53.5441C284.074 53.4944 284.467 53.4697 285.254 53.4187C284.614 56.5909 283.968 59.7618 283.315 62.9316C282.522 62.9813 282.125 63.0055 281.332 63.0541C281.397 62.749 281.43 62.5962 281.495 62.2912C281.207 62.5855 280.914 62.8197 280.615 62.9931C280.316 63.1666 279.97 63.2649 279.579 63.2883C279.196 63.3111 278.838 63.266 278.505 63.1526ZM281.078 61.3537C281.327 61.2151 281.542 61.0315 281.724 60.8029C281.907 60.5747 282.047 60.3134 282.146 60.0175C282.246 59.7216 282.285 59.4122 282.265 59.0897C282.238 58.6573 282.078 58.3163 281.785 58.066C281.491 57.8157 281.123 57.7038 280.682 57.7306C280.413 57.747 280.16 57.8216 279.92 57.9551C279.681 58.0888 279.472 58.2698 279.294 58.4975C279.116 58.7255 278.977 58.9895 278.877 59.2892C278.778 59.5889 278.738 59.9087 278.758 60.2479C278.785 60.6977 278.938 61.0398 279.217 61.2742C279.497 61.5087 279.858 61.6126 280.301 61.5857C280.57 61.5699 280.829 61.4925 281.078 61.3537Z" fill="black"/>
<path d="M287.26 53.6735C288.058 53.6209 288.457 53.5938 289.254 53.5398C288.643 56.5834 288.028 59.6261 287.409 62.6684C286.606 62.7213 286.204 62.7473 285.4 62.7989C286.025 59.758 286.645 56.7163 287.26 53.6735Z" fill="black"/>
<path d="M290.887 55.5387C291.675 55.4845 292.069 55.4566 292.857 55.401C292.799 55.6908 292.771 55.8358 292.713 56.1255C292.948 55.8876 293.216 55.6725 293.515 55.4813C293.814 55.2896 294.158 55.1803 294.547 55.1521C295.169 55.1075 295.679 55.2485 296.076 55.5753C296.473 55.9021 296.696 56.3774 296.741 57.0004C296.756 57.1967 296.748 57.4099 296.717 57.6395C296.686 57.8691 296.647 58.0965 296.603 58.3229C296.311 59.8272 296.164 60.5791 295.869 62.0832C295.077 62.1406 294.681 62.1694 293.888 62.2255C294.194 60.6871 294.345 59.9175 294.648 58.3788C294.667 58.2829 294.681 58.1763 294.69 58.0595C294.699 57.9427 294.701 57.8411 294.694 57.7558C294.675 57.4819 294.576 57.2791 294.396 57.1459C294.217 57.0127 293.977 56.9563 293.674 56.9778C293.284 57.0057 292.973 57.1542 292.74 57.4244C292.506 57.6945 292.347 58.0391 292.263 58.4577C291.95 60.0327 291.793 60.8195 291.477 62.3942C290.685 62.4489 290.288 62.4758 289.495 62.5292C290.056 59.733 290.334 58.3355 290.887 55.5387Z" fill="black"/>
<path d="M304.936 61.2718C304.396 61.1303 303.925 60.9048 303.519 60.5973C303.112 60.2901 302.785 59.9047 302.536 59.4391C302.287 58.9737 302.14 58.4415 302.095 57.8443C302.039 57.1276 302.13 56.4361 302.368 55.7693C302.606 55.1025 302.952 54.5026 303.407 53.9688C303.862 53.4352 304.412 52.9972 305.057 52.6535C305.703 52.31 306.408 52.1059 307.176 52.0431C308.047 51.9717 308.792 52.0812 309.411 52.3729C310.03 52.6642 310.546 53.089 310.958 53.6465C310.339 54.1575 310.03 54.4135 309.409 54.924C309.11 54.5714 308.782 54.2983 308.427 54.1044C308.072 53.9105 307.623 53.8353 307.079 53.8799C306.665 53.9137 306.273 54.0378 305.903 54.2524C305.533 54.4669 305.213 54.7419 304.939 55.077C304.666 55.4124 304.457 55.7986 304.314 56.2349C304.17 56.6713 304.116 57.1276 304.154 57.6055C304.18 57.9299 304.257 58.2207 304.386 58.4761C304.515 58.7318 304.687 58.9477 304.902 59.1236C305.117 59.2995 305.363 59.4278 305.64 59.5087C305.917 59.5895 306.22 59.6169 306.55 59.5903C306.992 59.5543 307.367 59.4442 307.675 59.2603C307.983 59.0763 308.295 58.8336 308.61 58.5325C309.174 59.0215 309.456 59.2659 310.022 59.7546C309.613 60.1926 309.145 60.5621 308.619 60.8631C308.093 61.1642 307.448 61.3465 306.683 61.4083C306.058 61.4582 305.475 61.4134 304.936 61.2718Z" fill="black"/>
<path d="M313.469 60.6006C313.043 60.4787 312.673 60.2897 312.358 60.0332C312.043 59.7767 311.792 59.4604 311.603 59.0861C311.414 58.7117 311.3 58.2941 311.261 57.8336C311.217 57.3221 311.279 56.8188 311.446 56.3234C311.613 55.8282 311.863 55.3824 312.195 54.9847C312.526 54.587 312.926 54.2559 313.395 53.9919C313.864 53.7282 314.378 53.5714 314.939 53.522C315.457 53.4763 315.929 53.5137 316.353 53.6348C316.777 53.7559 317.145 53.9439 317.46 54.1993C317.775 54.4544 318.028 54.7696 318.219 55.1431C318.41 55.5169 318.526 55.9335 318.568 56.3937C318.614 56.905 318.552 57.4085 318.383 57.905C318.214 58.4018 317.964 58.8498 317.633 59.2488C317.301 59.6481 316.9 59.9803 316.43 60.2453C315.959 60.5104 315.445 60.6677 314.889 60.7166C314.368 60.7614 313.895 60.7225 313.469 60.6006ZM315.642 58.7665C315.876 58.5989 316.071 58.3981 316.225 58.1639C316.379 57.9297 316.492 57.6752 316.564 57.4005C316.635 57.1263 316.659 56.8647 316.637 56.6158C316.592 56.1096 316.419 55.7334 316.118 55.4877C315.818 55.242 315.442 55.1383 314.993 55.178C314.69 55.2049 314.423 55.3029 314.19 55.4702C313.956 55.6375 313.762 55.8376 313.608 56.0715C313.454 56.3054 313.341 56.5621 313.269 56.8406C313.197 57.119 313.171 57.379 313.192 57.6191C313.236 58.1255 313.407 58.5015 313.708 58.7477C314.009 58.994 314.386 59.0976 314.837 59.0579C315.14 59.0315 315.408 58.9343 315.642 58.7665Z" fill="black"/>
<path d="M320.647 53.1338C321.435 53.061 321.828 53.025 322.615 52.9507C322.564 53.2418 322.539 53.387 322.487 53.6781C322.717 53.4348 322.979 53.2138 323.274 53.0151C323.569 52.8164 323.91 52.6988 324.299 52.6617C324.92 52.6024 325.433 52.7318 325.838 53.0489C326.244 53.3661 326.476 53.836 326.536 54.4574C326.555 54.6534 326.552 54.8669 326.527 55.0973C326.501 55.3277 326.468 55.5557 326.429 55.7829C326.172 57.2934 326.043 58.0491 325.784 59.5596C324.993 59.6356 324.597 59.6732 323.806 59.7481C324.075 58.2027 324.209 57.4304 324.475 55.885C324.492 55.7888 324.503 55.6817 324.51 55.5649C324.516 55.448 324.516 55.3465 324.507 55.2609C324.481 54.9875 324.377 54.7866 324.194 54.6577C324.012 54.5288 323.77 54.4778 323.468 54.5065C323.079 54.5436 322.771 54.7002 322.544 54.9757C322.317 55.2512 322.167 55.599 322.092 56.0195C321.816 57.6014 321.676 58.3923 321.397 59.9739C320.606 60.0472 320.211 60.0835 319.419 60.1557C319.915 57.3471 320.16 55.9427 320.647 53.1338Z" fill="black"/>
<path d="M328.659 52.3668C329.446 52.2889 329.839 52.2494 330.626 52.1705C330.577 52.4619 330.552 52.6074 330.503 52.8988C330.731 52.6539 330.992 52.4318 331.286 52.2315C331.579 52.0309 331.919 51.9114 332.308 51.8716C332.928 51.8085 333.443 51.9331 333.85 52.2481C334.257 52.5628 334.494 53.0317 334.558 53.6528C334.578 53.8486 334.575 54.062 334.551 54.2924C334.527 54.5229 334.496 54.7516 334.459 54.9791C334.211 56.4915 334.087 57.2469 333.838 58.759C333.047 58.8401 332.651 58.8812 331.86 58.9612C332.119 57.4142 332.248 56.64 332.505 55.0929C332.521 54.9965 332.532 54.8897 332.538 54.7729C332.544 54.6561 332.542 54.5545 332.533 54.4691C332.505 54.196 332.4 53.996 332.217 53.8682C332.034 53.7401 331.79 53.6912 331.488 53.7218C331.099 53.761 330.793 53.9195 330.567 54.1966C330.342 54.4735 330.194 54.822 330.122 55.2428C329.856 56.8264 329.722 57.6188 329.453 59.202C328.662 59.2805 328.267 59.3189 327.476 59.3959C327.953 56.5841 328.19 55.1786 328.659 52.3668Z" fill="black"/>
<path d="M338.201 56.5158C338.477 56.7317 338.875 56.8123 339.395 56.7564C339.655 56.7285 339.901 56.659 340.134 56.5478C340.367 56.4366 340.616 56.268 340.88 56.041C341.296 56.4815 341.504 56.7014 341.92 57.1415C341.636 57.4307 341.284 57.6875 340.865 57.909C340.446 58.1306 339.938 58.2731 339.34 58.3373C338.838 58.391 338.379 58.3687 337.965 58.2704C337.552 58.1724 337.192 58.0084 336.888 57.7777C336.583 57.5476 336.338 57.2522 336.152 56.8931C335.966 56.5341 335.848 56.1162 335.799 55.6396C335.748 55.146 335.793 54.6444 335.937 54.1347C336.08 53.6253 336.313 53.1575 336.634 52.7322C336.956 52.3068 337.356 51.9486 337.836 51.6567C338.315 51.3648 338.865 51.1851 339.485 51.1182C339.933 51.0699 340.341 51.0946 340.709 51.1921C341.077 51.2898 341.395 51.4451 341.662 51.6567C341.93 51.8685 342.144 52.1293 342.305 52.4384C342.465 52.7475 342.566 53.0936 342.608 53.4765C342.635 53.7233 342.633 53.9816 342.602 54.2518C342.57 54.5222 342.514 54.7956 342.43 55.0716C340.526 55.2803 339.574 55.3837 337.669 55.5854C337.747 55.9903 337.924 56.2999 338.201 56.5158ZM340.729 54.0308C340.757 53.8815 340.761 53.73 340.745 53.577C340.715 53.2964 340.6 53.0678 340.402 52.8914C340.204 52.7149 339.902 52.6484 339.497 52.6919C339.048 52.7402 338.669 52.9169 338.356 53.2211C338.044 53.5257 337.827 53.9035 337.709 54.3549C338.917 54.2266 339.521 54.1616 340.729 54.0308Z" fill="black"/>
<path d="M345.932 57.3887C345.517 57.2848 345.151 57.1145 344.836 56.8788C344.52 56.643 344.261 56.3439 344.059 55.9829C343.857 55.6223 343.73 55.2082 343.679 54.7404C343.617 54.1792 343.669 53.6416 343.835 53.1279C344.001 52.6145 344.249 52.1566 344.58 51.7535C344.91 51.3507 345.311 51.0156 345.782 50.7471C346.254 50.4788 346.766 50.3134 347.317 50.2503C347.696 50.207 348.04 50.2078 348.351 50.2532C348.662 50.2986 348.939 50.3757 349.183 50.4842C349.427 50.5929 349.644 50.7283 349.833 50.8902C350.022 51.0521 350.188 51.2275 350.333 51.416C349.781 51.9034 349.505 52.1469 348.952 52.6338C348.749 52.3902 348.528 52.1977 348.289 52.0572C348.05 51.9168 347.736 51.869 347.348 51.913C347.09 51.9423 346.847 52.0347 346.62 52.1899C346.393 52.3451 346.201 52.542 346.044 52.7799C345.887 53.0181 345.769 53.2885 345.689 53.5911C345.61 53.8938 345.588 54.2031 345.623 54.5189C345.673 54.9622 345.841 55.299 346.13 55.5302C346.419 55.7614 346.759 55.8554 347.148 55.8113C347.451 55.777 347.717 55.6878 347.946 55.5455C348.175 55.4032 348.407 55.2071 348.641 54.9563C349.103 55.415 349.334 55.644 349.798 56.1022C349.471 56.4671 349.116 56.7689 348.73 57.0069C348.345 57.245 347.858 57.397 347.269 57.4639C346.793 57.5176 346.347 57.4926 345.932 57.3887Z" fill="black"/>
<path d="M351.859 56.5082C351.535 56.2872 351.35 55.9851 351.306 55.6016C351.289 55.4569 351.283 55.3143 351.289 55.1755C351.294 55.0363 351.31 54.8884 351.335 54.7299C351.528 53.4485 351.624 52.8072 351.814 51.5255C351.483 51.5644 351.317 51.584 350.986 51.6227C351.091 50.9438 351.143 50.6033 351.247 49.9245C351.577 49.8855 351.743 49.8667 352.074 49.8281C352.183 49.1068 352.237 48.7462 352.346 48.0249C353.13 47.932 353.522 47.8852 354.307 47.7915C354.2 48.5131 354.145 48.874 354.038 49.5955C354.689 49.5177 355.014 49.4782 355.665 49.3998C355.563 50.0792 355.512 50.4191 355.41 51.0985C354.758 51.177 354.432 51.2161 353.781 51.2937C353.607 52.4823 353.52 53.076 353.345 54.2646C353.333 54.3177 353.327 54.373 353.325 54.4297C353.323 54.4861 353.324 54.535 353.329 54.5774C353.361 54.85 353.555 54.9657 353.91 54.9236C354.065 54.905 354.229 54.8656 354.402 54.8062C354.575 54.7469 354.739 54.6738 354.895 54.586C354.792 55.2654 354.741 55.6056 354.637 56.2848C354.252 56.5203 353.788 56.6698 353.242 56.7343C352.644 56.8044 352.183 56.7295 351.859 56.5082Z" fill="black"/>
<path d="M357.201 49.213C357.986 49.1174 358.379 49.0693 359.164 48.9723C358.757 51.7955 358.552 53.2075 358.137 56.0306C357.347 56.1267 356.952 56.1743 356.163 56.2696C356.582 53.447 356.79 52.0353 357.201 49.213ZM357.532 46.6632C358.357 46.5622 358.769 46.5115 359.594 46.4092C359.488 47.1205 359.436 47.4774 359.33 48.1888C358.504 48.2911 358.091 48.3416 357.265 48.4423C357.372 47.7309 357.426 47.3748 357.532 46.6632Z" fill="black"/>
<path d="M362.533 55.4018C362.102 55.2962 361.725 55.1214 361.4 54.8773C361.075 54.6332 360.811 54.3279 360.608 53.9608C360.405 53.594 360.275 53.181 360.218 52.7223C360.155 52.2129 360.197 51.7067 360.345 51.2054C360.494 50.7043 360.726 50.2488 361.042 49.8388C361.359 49.4285 361.746 49.082 362.205 48.7998C362.663 48.5179 363.172 48.342 363.731 48.2708C364.248 48.205 364.719 48.2243 365.148 48.3288C365.577 48.4335 365.953 48.6073 366.277 48.85C366.602 49.0928 366.867 49.3973 367.072 49.7631C367.277 50.1291 367.409 50.541 367.469 50.9994C367.535 51.5085 367.493 52.0145 367.343 52.5169C367.193 53.0199 366.96 53.4772 366.645 53.8889C366.328 54.3008 365.939 54.6477 365.479 54.9308C365.018 55.2141 364.512 55.3916 363.958 55.4616C363.438 55.5277 362.963 55.5073 362.533 55.4018ZM364.636 53.4847C364.864 53.3083 365.05 53.0994 365.195 52.8596C365.34 52.6197 365.443 52.3617 365.504 52.0843C365.565 51.8074 365.58 51.544 365.548 51.2961C365.483 50.7921 365.296 50.4234 364.985 50.1895C364.675 49.9556 364.296 49.8678 363.849 49.9247C363.547 49.9631 363.283 50.0711 363.056 50.2472C362.828 50.4234 362.642 50.6315 362.497 50.871C362.352 51.1108 362.249 51.3708 362.188 51.6519C362.126 51.9331 362.111 52.1936 362.141 52.4326C362.204 52.9369 362.391 53.3064 362.701 53.5408C363.011 53.7753 363.391 53.8639 363.841 53.8069C364.143 53.7688 364.408 53.6611 364.636 53.4847Z" fill="black"/>
<path d="M369.424 47.6624C370.208 47.559 370.601 47.5066 371.386 47.4019C371.346 47.6949 371.325 47.8415 371.286 48.1344C371.506 47.8825 371.76 47.6513 372.047 47.4416C372.334 47.2319 372.671 47.1006 373.059 47.0485C373.677 46.965 374.195 47.0734 374.613 47.375C375.03 47.6763 375.281 48.1374 375.365 48.7564C375.392 48.9516 375.397 49.1645 375.381 49.3955C375.364 49.6267 375.34 49.8571 375.309 50.0854C375.111 51.6047 375.01 52.3644 374.809 53.8841C374.021 53.9907 373.627 54.0441 372.838 54.1494C373.047 52.5948 373.152 51.8169 373.359 50.2623C373.372 50.1654 373.379 50.0585 373.381 49.9414C373.383 49.8243 373.378 49.7228 373.367 49.6377C373.331 49.3657 373.218 49.1691 373.031 49.0472C372.844 48.9253 372.6 48.8847 372.298 48.925C371.911 48.9769 371.609 49.1447 371.392 49.4291C371.176 49.7134 371.039 50.0671 370.981 50.4901C370.765 52.0817 370.657 52.8771 370.439 54.4682C369.651 54.5724 369.257 54.6237 368.468 54.7265C368.854 51.9007 369.045 50.4884 369.424 47.6624Z" fill="black"/>
<path d="M378.54 53.4516C378.248 53.4403 377.958 53.4016 377.672 53.3374C377.386 53.2732 377.107 53.182 376.835 53.0635C376.564 52.9454 376.31 52.7947 376.074 52.6108C376.467 52.0855 376.663 51.8227 377.055 51.2971C377.466 51.6035 377.866 51.7944 378.255 51.8702C378.644 51.9459 378.993 51.9623 379.304 51.919C379.563 51.8828 379.759 51.8036 379.892 51.6814C380.024 51.5592 380.077 51.4008 380.049 51.2058C380.032 51.0785 379.943 50.9765 379.782 50.8994C379.622 50.8226 379.413 50.7475 379.159 50.6822C378.871 50.6086 378.592 50.5299 378.334 50.4405C378.076 50.3511 377.844 50.2434 377.637 50.1164C377.431 49.9894 377.261 49.8334 377.126 49.6491C376.99 49.4649 376.904 49.2367 376.867 48.9652C376.82 48.626 376.841 48.3017 376.93 47.9915C377.019 47.6814 377.167 47.4032 377.374 47.1583C377.581 46.9139 377.849 46.7063 378.175 46.5358C378.502 46.3653 378.88 46.2504 379.31 46.1902C379.594 46.1507 379.87 46.1397 380.14 46.158C380.41 46.1762 380.669 46.2149 380.919 46.2748C381.168 46.3347 381.397 46.4085 381.606 46.4955C381.816 46.5825 382.003 46.6789 382.167 46.785C381.814 47.3331 381.637 47.6075 381.282 48.1553C380.91 47.9402 380.569 47.7979 380.261 47.7289C379.953 47.6599 379.657 47.6449 379.373 47.6846C379.132 47.7182 378.953 47.795 378.834 47.9153C378.714 48.0356 378.666 48.1846 378.691 48.3626C378.71 48.4982 378.806 48.6081 378.98 48.6921C379.154 48.7762 379.401 48.8589 379.708 48.9469C379.945 49.0146 380.186 49.092 380.43 49.1698C380.673 49.248 380.897 49.3506 381.099 49.4776C381.302 49.6046 381.473 49.76 381.613 49.9429C381.753 50.1258 381.841 50.3498 381.878 50.6121C381.93 50.9851 381.907 51.3296 381.806 51.6462C381.706 51.9631 381.544 52.2429 381.323 52.4856C381.102 52.7287 380.824 52.9293 380.49 53.0882C380.155 53.2475 379.78 53.356 379.366 53.4137C379.107 53.4502 378.832 53.4631 378.54 53.4516Z" fill="black"/>
<path d="M28.0778 22.7712C28.8206 16.1327 35.0815 11.8713 41.4938 12.4575C45.008 12.779 48.3092 15.0435 48.8229 18.741C46.4461 19.5286 45.2562 19.9199 42.8727 20.6983C42.6061 19.1062 41.5427 18.2235 40.1053 18.1008C37.3139 17.8623 35.134 20.2091 34.8596 22.8745C34.6447 24.9613 35.8597 26.2734 37.565 26.4377C39.0503 26.5806 40.3288 25.9871 41.4928 24.804C43.1426 26.3666 43.9696 27.1472 45.628 28.7052C43.2767 31.2915 39.7869 32.3761 36.3852 32.0447C31.5585 31.574 27.5035 27.9018 28.0778 22.7712Z" fill="black"/>
<path d="M47.8782 24.3733C48.4472 18.2733 54.0551 13.6647 60.1225 14.1357C65.051 14.5183 69.3701 18.3423 68.9597 23.5438C68.4736 29.7059 62.8207 34.3413 56.7167 33.8507C51.7642 33.4525 47.3886 29.6226 47.8782 24.3733ZM62.4644 23.6109C62.6267 21.5915 61.5209 19.9105 59.2209 19.7199C56.537 19.4975 54.5884 21.967 54.3832 24.3674C54.2104 26.386 55.3137 28.0751 57.6266 28.2679C60.3248 28.4926 62.2713 26.0122 62.4644 23.6109Z" fill="black"/>
<path d="M73.6888 15.5813C76.0812 15.758 77.2778 15.8439 79.6707 16.0115C80.9065 19.155 82.1507 22.295 83.4016 25.4325C84.4309 22.4478 85.4535 19.4611 86.4732 16.4728C89.0087 16.6393 90.2762 16.7196 92.8123 16.8756C90.7038 23.1473 88.5782 29.4133 86.4367 35.6742C84.1356 35.5249 82.9855 35.4478 80.6849 35.2902C79.3729 32.0186 78.0689 28.7444 76.7729 25.4666C75.6838 28.5728 74.5937 31.6784 73.4965 34.7816C70.9311 34.5941 69.6486 34.4983 67.084 34.3003C69.3012 28.0666 71.5031 21.8269 73.6888 15.5813Z" fill="black"/>
<path d="M93.2773 16.9043C96.0867 17.0764 97.4919 17.1591 100.302 17.3186C100.373 20.9148 100.444 24.5108 100.52 28.107C102.939 24.6547 105.344 21.1931 107.738 17.7233C110.614 17.8729 112.052 17.9443 114.929 18.0807C110.3 24.3113 105.632 30.5117 100.926 36.6843C98.4469 36.5462 97.207 36.4745 94.728 36.3268C94.2368 29.853 93.7534 23.3789 93.2773 16.9043Z" fill="black"/>
<path d="M115.505 18.1077C120.947 18.3582 126.39 18.5859 131.835 18.7903C131.189 20.8703 130.865 21.9101 130.215 23.9896C126.857 23.8629 123.5 23.7275 120.142 23.5798C119.9 24.3473 119.778 24.7316 119.535 25.4991C122.668 25.6365 125.8 25.7668 128.933 25.8858C128.368 27.7161 128.084 28.6318 127.516 30.4616C124.374 30.3378 121.232 30.2065 118.091 30.0652C117.822 30.8864 117.688 31.2967 117.418 32.1177C120.84 32.2723 124.262 32.4165 127.684 32.5503C127.039 34.6292 126.716 35.6685 126.068 37.7469C120.511 37.5203 114.956 37.2713 109.402 36.9958C111.454 30.7057 113.488 24.4094 115.505 18.1077Z" fill="black"/>
<path d="M133.914 18.8655C136.902 18.971 138.396 19.0199 141.384 19.1109C143.802 19.1343 146.649 19.5846 148.39 21.3623C149.431 22.4252 149.825 23.9029 149.798 25.3971C149.741 28.6767 147.385 31.2154 144.25 31.9856C145.249 34.5662 145.749 35.8557 146.756 38.435C143.964 38.3606 142.568 38.3203 139.776 38.2336C138.98 36.0176 138.583 34.9094 137.793 32.6923C137.153 32.6717 136.833 32.6609 136.193 32.6394C135.524 34.8081 135.188 35.8928 134.514 38.0609C131.922 37.9718 130.626 37.9237 128.034 37.8238C130.012 31.51 131.972 25.1906 133.914 18.8655ZM139.895 28.1855C142.042 28.2527 143.199 27.2991 143.235 26.0952C143.246 25.712 143.119 25.3522 142.852 25.0708C142.506 24.7048 141.88 24.4945 140.974 24.4666C140.062 24.4387 139.606 24.425 138.695 24.3954C138.24 25.8818 138.012 26.6245 137.556 28.1106C138.492 28.1412 138.959 28.1563 139.895 28.1855Z" fill="black"/>
<path d="M147.697 35.3655C149.224 33.6528 149.986 32.7961 151.506 31.0797C153.668 32.9659 155.916 33.8907 157.959 33.931C158.788 33.9474 159.374 33.6568 159.385 33.1095C159.396 32.5075 158.987 32.1995 156.248 31.2129C153.842 30.346 150.978 28.6878 151.112 25.7028C151.31 21.276 155.976 19.0909 159.893 19.1827C162.926 19.2539 166.047 20.1809 168.393 22.1925C166.901 23.9248 166.152 24.7906 164.651 26.5194C163.212 25.3198 161.17 24.3268 159.139 24.2878C158.316 24.272 157.735 24.4796 157.724 25.0269C157.713 25.6018 158.16 25.8094 160.769 26.7554C163.224 27.6453 166.109 29.3148 166.052 32.345C165.964 36.9952 161.248 39.1747 157.166 39.0619C153.727 38.9668 150.253 37.7498 147.697 35.3655Z" fill="black"/>
<path d="M178.036 19.6631C180.577 19.6811 181.847 19.6872 184.387 19.695C185.336 26.1321 186.295 32.5675 187.265 39.0014C184.505 38.9979 183.126 38.9936 180.365 38.978C180.238 37.9482 180.174 37.4323 180.047 36.4022C177.336 36.3864 175.98 36.3762 173.269 36.3491C172.584 37.3716 172.241 37.8827 171.553 38.9044C168.727 38.873 167.314 38.8545 164.488 38.8105C169.043 32.4545 173.558 26.0728 178.036 19.6631ZM179.715 31.8565C179.517 29.9936 179.417 29.0621 179.22 27.199C178.009 29.053 177.402 29.9794 176.184 31.8309C177.596 31.8425 178.303 31.8481 179.715 31.8565Z" fill="black"/>
<path d="M193.904 25.2528C191.641 25.2596 190.509 25.2612 188.245 25.2598C188.829 23.0922 189.118 22.0079 189.698 19.8395C195.594 19.8311 201.49 19.7965 207.385 19.7336C206.83 21.9082 206.551 22.9955 205.992 25.1699C203.728 25.194 202.596 25.204 200.332 25.2201C199.126 29.8104 197.91 34.3983 196.689 38.9847C194.095 38.997 192.797 39.0008 190.203 39.0021C191.444 34.4212 192.678 29.8381 193.904 25.2528Z" fill="black"/>
<path d="M208.836 19.7165C211.399 19.6846 212.68 19.6653 215.243 19.6226C213.63 26.0397 211.998 32.4521 210.352 38.8609C207.758 38.8955 206.461 38.9106 203.867 38.9342C205.54 32.5326 207.198 26.1273 208.836 19.7165Z" fill="black"/>
<path d="M214.403 30.5065C214.328 24.3828 219.417 19.2086 225.501 19.036C230.444 18.8958 235.137 22.246 235.278 27.4605C235.445 33.6379 230.307 38.844 224.188 38.9995C219.221 39.126 214.468 35.7757 214.403 30.5065ZM228.825 28.2111C228.774 26.1858 227.498 24.6307 225.191 24.6833C222.499 24.7448 220.822 27.4063 220.87 29.8148C220.91 31.8401 222.185 33.404 224.505 33.3522C227.212 33.292 228.885 30.6193 228.825 28.2111Z" fill="black"/>
<path d="M239.143 19.0432C241.541 18.9666 242.739 18.9261 245.137 18.8407C246.696 21.8365 248.264 24.8285 249.839 27.816C250.549 24.7391 251.251 21.6609 251.952 18.5821C254.492 18.4803 255.761 18.4272 258.3 18.3152C256.863 24.7743 255.408 31.2296 253.936 37.6809C251.631 37.7751 250.479 37.8203 248.174 37.9059C246.524 34.7909 244.883 31.6719 243.249 28.5483C242.496 31.7527 241.734 34.955 240.971 38.1573C238.4 38.2413 237.114 38.28 234.543 38.3533C236.093 31.9208 237.627 25.484 239.143 19.0432Z" fill="black"/>
<path d="M255.884 34.5041C257.293 32.6912 257.995 31.7844 259.395 29.9683C261.681 31.7025 263.988 32.4713 266.031 32.3719C266.859 32.3316 267.425 32.0021 267.398 31.4554C267.369 30.8539 266.94 30.5765 264.138 29.7776C261.677 29.0765 258.706 27.6191 258.635 24.6306C258.531 20.1995 263.044 17.7029 266.957 17.526C269.991 17.3887 273.168 18.1033 275.648 19.949C274.275 21.7793 273.587 22.6939 272.207 24.521C270.689 23.4225 268.582 22.5709 266.552 22.6708C265.728 22.7114 265.162 22.9584 265.188 23.5052C265.216 24.0796 265.678 24.2555 268.347 25.0213C270.856 25.7413 273.852 27.211 274.001 30.2371C274.229 34.8838 269.67 37.3795 265.588 37.5458C262.149 37.6862 258.597 36.7106 255.884 34.5041Z" fill="black"/>
</svg>
