<svg width="254" height="65" viewBox="0 0 254 65" fill="none" xmlns="http://www.w3.org/2000/svg">
<path d="M220.617 55.8376C220.617 55.8376 180.515 64.2572 123.984 64.2572C70.9026 64.2572 33.769 55.8591 33.769 55.8591L0.720703 0.745964C5.46844 5.82783 60.26 9.83745 127.151 9.83745C196.266 9.83745 252.466 5.55908 253.891 0.235352C253.966 0.232396 220.617 55.8376 220.617 55.8376Z" fill="#00AF52"/>
<path d="M252.906 1.22021C249.851 6.46585 220.234 56.3304 220.234 56.3304C220.234 56.3304 207.746 58.9786 186.904 61.3023L213.237 7.72293C235.862 6.07664 250.685 3.78488 252.906 1.22021Z" fill="#38C178"/>
<path d="M38.6735 30.9517C37.2646 31.475 35.749 31.728 34.1807 31.6469C29.0495 31.3819 24.6141 27.4527 24.9744 22.0813C25.3923 15.8486 30.8592 10.7739 37.137 11.0902C42.2416 11.3477 46.6354 15.2772 46.3398 20.5829C46.178 23.4803 44.8952 26.2124 42.8404 28.2631C43.3718 29.0749 43.6379 29.4807 44.1709 30.2924C42.4299 31.3223 41.5576 31.8354 39.8104 32.8604C39.3547 32.0964 39.1277 31.7157 38.6735 30.9517ZM35.2307 26.0698C34.5692 25.0545 34.2392 24.545 33.5801 23.5289C35.3219 22.5114 36.1905 22.0023 37.9261 20.98C38.438 21.8498 38.695 22.284 39.2084 23.1535C39.5266 22.4588 39.7066 21.6999 39.7466 20.962C39.8657 18.7488 38.6682 17.002 36.3647 16.9109C33.5919 16.8014 31.6768 19.3906 31.5119 21.9889C31.3721 24.1919 32.5422 25.921 34.8943 26.0512C35.0064 26.0574 35.1186 26.0636 35.2307 26.0698Z" fill="black"/>
<path d="M47.0942 25.1416C47.1551 24.1319 47.3378 23.0196 47.6696 21.9541C48.7054 18.6946 49.7336 15.4329 50.7572 12.1694C53.3977 12.2892 54.7183 12.3461 57.3588 12.4546C56.3059 15.8626 55.2489 19.2695 54.1848 22.6743C54.0201 23.2363 53.9125 23.7715 53.8923 24.2256C53.8196 25.8723 54.7342 26.7654 56.4706 26.8371C57.2831 26.8707 58.0514 26.6174 58.6051 26.0989C59.2175 25.5258 59.6408 24.7753 60.1212 23.2586C61.2036 19.7373 62.281 16.2141 63.3508 12.6888C65.992 12.7865 67.3124 12.8327 69.9536 12.9189C68.7929 16.7858 67.627 20.6514 66.4561 24.5153C65.6628 27.132 64.5805 29.0786 63.1544 30.3689C60.8812 32.4256 58.1289 32.6348 55.2653 32.6753C50.9903 32.7352 46.8061 29.9387 47.0942 25.1416Z" fill="black"/>
<path d="M78.1696 13.0229C80.7446 13.0933 82.032 13.1247 84.6072 13.1841C85.4321 19.8832 86.2675 26.5815 87.1157 33.2777C84.3143 33.2186 82.9137 33.1864 80.1126 33.1147C80.0058 32.0433 79.9522 31.5075 79.8457 30.4358C77.0942 30.3646 75.7188 30.3255 72.9676 30.2419C72.2492 31.289 71.8889 31.8131 71.1684 32.8593C68.2999 32.7691 66.8664 32.7197 63.9982 32.6163C68.7651 26.1162 73.4883 19.5854 78.1696 13.0229ZM79.607 25.7104C79.446 23.7732 79.3663 22.8049 79.2067 20.8677C77.9381 22.767 77.3018 23.7163 76.0254 25.6132C77.4582 25.6537 78.1739 25.6731 79.607 25.7104Z" fill="black"/>
<path d="M93.2338 13.5C95.8316 13.5448 97.1303 13.5647 99.7283 13.5986C98.4225 18.3189 97.1072 23.0365 95.7837 27.752C98.7635 27.7953 101.743 27.8326 104.723 27.8643C104.095 30.1316 103.78 31.2648 103.148 33.5315C97.9621 33.4708 92.777 33.3897 87.5919 33.2876C89.493 26.6975 91.3719 20.1012 93.2338 13.5Z" fill="black"/>
<path d="M110.192 13.6982C112.79 13.7141 114.088 13.7192 116.687 13.724C114.931 20.3536 113.156 26.9776 111.361 33.5967C108.728 33.5827 107.411 33.573 104.778 33.5478C106.602 26.9365 108.406 20.32 110.192 13.6982Z" fill="black"/>
<path d="M118.852 13.7264C124.274 13.7226 129.696 13.6952 135.118 13.645C134.543 15.9241 134.253 17.0637 133.673 19.3428C130.404 19.3726 127.135 19.3941 123.865 19.4027C123.601 20.4153 123.468 20.9215 123.203 21.9339C126.245 21.9234 129.288 21.906 132.33 21.8839C131.801 23.9573 131.535 24.9936 131.002 27.0664C127.949 27.0865 124.896 27.1002 121.843 27.1083C121.164 29.7122 120.823 31.0141 120.138 33.6173C117.505 33.6186 116.188 33.6162 113.555 33.6063C115.34 26.9847 117.105 20.3584 118.852 13.7264Z" fill="black"/>
<path d="M136.698 13.6278C139.296 13.5983 140.595 13.5808 143.193 13.5403C141.558 20.1994 139.901 26.8532 138.226 33.5027C135.593 33.535 134.276 33.5484 131.643 33.5693C133.347 26.9268 135.033 20.2803 136.698 13.6278Z" fill="black"/>
<path d="M145.358 13.5047C150.881 13.4056 156.404 13.2789 161.926 13.1301C161.412 15.3278 161.154 16.4258 160.635 18.6233C157.228 18.7162 153.82 18.7962 150.412 18.866C150.217 19.6773 150.12 20.0825 149.925 20.8937C153.105 20.8306 156.285 20.7562 159.465 20.6733C159.014 22.6067 158.788 23.5729 158.334 25.5061C155.145 25.588 151.955 25.6586 148.765 25.7204C148.547 26.5885 148.438 27.023 148.219 27.8909C151.694 27.8254 155.169 27.7486 158.644 27.6587C158.13 29.855 157.871 30.9535 157.353 33.1494C151.709 33.2825 146.065 33.3911 140.42 33.4743C142.085 26.8227 143.731 20.1663 145.358 13.5047Z" fill="black"/>
<path d="M164.033 13.07C166.786 12.9889 168.162 12.9448 170.914 12.8514C173.615 12.7045 176.592 13.237 178.619 15.1283C180.122 16.5314 180.871 18.4533 180.973 20.8642C181.098 23.7987 180.058 26.6669 178.074 28.8283C175.486 31.6463 171.633 32.7739 167.898 32.8518C165.048 32.9423 162.198 33.0242 159.348 33.0986C160.93 26.4268 162.49 19.7506 164.033 13.07ZM168.438 27.0356C170.427 26.972 172.115 26.3159 173.086 25.2582C173.867 24.4061 174.404 23.0498 174.359 21.8287C174.319 20.7495 173.985 20.0505 173.465 19.5572C172.829 18.9541 171.841 18.6198 170.281 18.6718C169.846 18.6863 169.629 18.6941 169.194 18.7084C168.563 21.4968 167.929 24.2848 167.29 27.0713C167.749 27.0568 167.979 27.0504 168.438 27.0356Z" fill="black"/>
<path d="M120.507 38.6575C123.149 38.6556 124.47 38.6518 127.112 38.6387C125.873 43.3818 124.625 48.1228 123.367 52.8613C126.397 52.8503 129.427 52.8339 132.457 52.8119C131.861 55.0901 131.562 56.2282 130.961 58.5059C125.689 58.5462 120.416 58.5591 115.144 58.5432C116.951 51.9196 118.739 45.2914 120.507 38.6575Z" fill="black"/>
<path d="M137.696 38.5495C143.314 38.4759 148.93 38.3787 154.547 38.2573C154.011 40.4526 153.741 41.5501 153.201 43.7449C149.736 43.8211 146.27 43.8848 142.805 43.9369C142.602 44.747 142.501 45.1523 142.298 45.9625C145.532 45.9144 148.765 45.8561 151.999 45.7884C151.53 47.7197 151.295 48.6857 150.823 50.6164C147.578 50.6814 144.334 50.7381 141.09 50.7821C140.863 51.6492 140.75 52.0832 140.523 52.95C144.057 52.9028 147.59 52.8434 151.123 52.7706C150.588 54.9646 150.319 56.061 149.78 58.2544C144.04 58.3602 138.301 58.4405 132.561 58.4937C134.293 51.8506 136.003 45.2022 137.696 38.5495Z" fill="black"/>
<path d="M163.487 37.8845C166.105 37.8096 167.414 37.7693 170.032 37.6833C171.258 44.3248 172.492 50.9651 173.74 57.6025C170.893 57.7016 169.469 57.7486 166.621 57.8348C166.451 56.7708 166.365 56.2397 166.195 55.1757C163.398 55.2598 161.999 55.2987 159.202 55.3704C158.534 56.4564 158.199 56.9986 157.528 58.0837C154.612 58.1551 153.152 58.1877 150.235 58.2451C154.698 51.4874 159.115 44.701 163.487 37.8845ZM165.681 50.4713C165.405 48.5461 165.267 47.5843 164.993 45.6591C163.815 47.627 163.224 48.6098 162.038 50.5757C163.495 50.5357 164.224 50.5148 165.681 50.4713Z" fill="black"/>
<path d="M178.811 37.5116C181.61 37.4037 183.008 37.3462 185.807 37.2254C188.545 37.0519 191.574 37.549 193.662 39.4271C195.203 40.813 195.982 42.7284 196.105 45.1396C196.256 48.0849 195.219 50.9609 193.227 53.1326C190.604 55.9909 186.696 57.1416 182.916 57.2562C180.019 57.3717 177.122 57.4815 174.225 57.5857C175.772 50.8984 177.301 44.207 178.811 37.5116ZM183.414 51.4338C185.436 51.3503 187.146 50.6785 188.123 49.6113C188.911 48.7517 189.446 47.3902 189.389 46.1697C189.339 45.091 188.993 44.3961 188.46 43.9079C187.807 43.3109 186.8 42.9849 185.214 43.0526C184.773 43.0714 184.551 43.081 184.11 43.0998C183.493 45.8945 182.872 48.6886 182.247 51.4816C182.714 51.4628 182.947 51.4532 183.414 51.4338Z" fill="black"/>
<path d="M194.645 53.5197C196.083 51.6292 196.799 50.6831 198.228 48.7894C200.602 50.5749 202.989 51.3583 205.096 51.242C205.951 51.1947 206.531 50.8488 206.498 50.2817C206.462 49.6573 206.018 49.3719 203.12 48.5614C200.565 47.8469 197.496 46.3449 197.399 43.2538C197.256 38.6785 201.864 36.0372 205.918 35.8272C209.049 35.665 212.333 36.3898 214.901 38.2846C213.504 40.1933 212.802 41.1477 211.395 43.0535C209.819 41.9232 207.64 41.0534 205.546 41.1703C204.698 41.2178 204.117 41.4772 204.148 42.0443C204.182 42.6402 204.659 42.8196 207.42 43.5978C210.026 44.3328 213.118 45.8436 213.299 48.9742C213.576 53.7748 208.917 56.4183 204.684 56.6154C201.128 56.7811 197.461 55.7891 194.645 53.5197Z" fill="black"/>
</svg>
