<svg width="1920" height="1346" viewBox="0 0 1920 1346" fill="none" xmlns="http://www.w3.org/2000/svg">
<path d="M1556.23 1345.2V76.0267C1556.23 76.0267 1556.42 74.1827 1554.6 71.4167C1552.73 68.5669 1548.21 68.9349 1548.21 68.9349H-0.774902V0.0219727H1602.99C1602.99 0.0219727 1613.37 0.503143 1618.26 6.16618C1622.77 11.3987 1622.48 20.3013 1622.48 20.3013V1345.2H1556.23Z" fill="#F9A431"/>
<path d="M1622.49 21.6909H1920.27V90.7377H1652.28C1645.5 90.7377 1643.38 93.2737 1643.38 98.6141V1345.2H1622.49V21.6909Z" fill="#005698"/>
<path d="M1622.49 1345.2H1631.35C1631.35 759.343 1631.35 57.361 1631.35 43.3779C1631.35 29.413 1622.49 26.6155 1622.49 26.6155V1345.2Z" fill="#00457A"/>
<path d="M1809.67 287.628C1809.57 287.959 1809.24 288.287 1808.68 288.613L1809.67 287.628Z" fill="#1561BD"/>
<path d="M1769.28 368.394C1769.17 368.722 1768.84 369.055 1768.29 369.379L1769.28 368.394Z" fill="#CC6212"/>
<path d="M1348.64 199.967L1349.63 200.952C1349.2 200.626 1348.87 200.297 1348.64 199.967Z" fill="#D7B023"/>
<path d="M1516.11 528.941L1517.09 529.926C1516.48 529.6 1516.15 529.273 1516.11 528.941Z" fill="#A82224"/>
<path d="M1688.5 528.941C1688.5 529.276 1688.17 529.606 1687.52 529.926L1688.5 528.941Z" fill="#A82224"/>
<path d="M1621.85 169.065C1622.65 168.259 1621.51 167.655 1621.51 167.655L1614 168.326V158.928L1604.28 153.221C1604.28 153.221 1602.47 150.066 1599.05 148.052C1596.44 146.513 1591.67 145.971 1591.67 145.971L1590.73 145.367L1589.73 145.971C1589.73 145.971 1586.64 146.038 1583.35 147.985C1580.07 149.932 1578.86 152.281 1578.86 152.281L1567.39 158.928L1567.48 161.055L1559.41 160.013C1559.41 160.013 1559.12 160.09 1559.12 160.628C1559.12 161.245 1559.37 161.345 1559.37 161.345L1567.5 161.747V169.328L1561.33 170.375C1561.33 170.375 1560.63 170.63 1560.63 171.256C1560.63 171.952 1561.56 171.885 1561.56 171.885L1567.48 170.306V181.396C1566.16 182.717 1567.55 182.895 1567.55 182.895V186.675L1590.64 200.126L1614.03 186.78V183.708L1614.34 183.969C1614.34 183.969 1615.17 184.342 1615.41 183.885C1615.75 183.254 1615.14 182.784 1615.14 182.784L1614 181.955V169.065H1621.85ZM1613.35 168.439V169.049H1608.88L1613.35 168.439ZM1577.83 155.055C1579.18 151.452 1583.85 147.193 1590.55 146.728C1590.75 146.715 1590.95 146.704 1591.16 146.699C1591.36 146.704 1591.56 146.715 1591.76 146.728C1598.47 147.193 1603.14 151.452 1604.48 155.055C1607.93 164.333 1603.27 167.937 1600.79 173.058C1599.14 176.477 1598.85 178.821 1598.85 178.821H1585.68C1585.68 178.909 1585.68 178.955 1585.68 178.955C1585.68 178.955 1585.68 178.909 1585.67 178.821H1583.47C1583.47 178.821 1583.17 176.477 1581.52 173.058C1579.05 167.937 1574.38 164.333 1577.83 155.055ZM1584.11 183.81C1584.11 183.81 1584.15 183.128 1583.85 182.132L1598.78 184.841C1598.78 184.841 1598.24 186.026 1598.24 186.718C1598.24 187.097 1598.67 187.623 1598.81 188.029C1598.94 188.37 1598.78 188.622 1598.78 188.622L1583.71 185.937C1583.71 185.937 1583.51 185.752 1583.52 185.556C1583.52 185.456 1583.85 185.145 1583.98 184.769C1584.14 184.32 1584.11 183.81 1584.11 183.81ZM1583.47 181.463C1582.3 180.768 1583.33 179.358 1583.33 179.358H1598.8C1598.8 179.358 1599.61 180.322 1599.67 181.764C1599.74 183.209 1599 184.17 1599 184.17L1583.47 181.463ZM1583.15 194.071L1568.06 185.311V182.76L1577.75 175.075L1568.06 180.983V169.973L1573.53 168.461L1568.06 169.266V161.702L1572.2 161.86L1568.06 161.009V159.263C1568.06 159.263 1570.16 157.832 1570.61 157.888L1575.74 161.814C1575.74 161.814 1575.84 163.487 1577.15 166.578C1577.84 168.206 1580.22 171.871 1581.55 174.723C1582.75 177.282 1582.95 178.866 1582.95 178.866C1582.95 178.866 1582.01 179.916 1582.24 180.789C1582.36 181.273 1583.01 181.847 1583.33 182.269C1583.59 182.61 1583.53 182.849 1583.53 182.849C1583.53 182.849 1583.57 183.939 1583.26 184.831C1582.96 185.66 1582.32 186.249 1581.98 187.492C1581.98 187.492 1581.61 189.138 1582.68 190.516C1583.76 191.89 1583.15 194.071 1583.15 194.071ZM1598.15 194.262C1597.62 194.621 1595.74 195.717 1595.74 195.717H1585.64L1583.62 194.353V193.993C1583.62 193.993 1583.87 193.3 1583.89 192.763C1583.91 192.226 1583.62 191.466 1583.62 191.466C1583.62 191.466 1583.53 191.13 1583.62 190.951L1598.67 193.725C1598.67 193.725 1598.69 193.904 1598.15 194.262ZM1598.94 193.209L1583.33 190.346C1583.33 190.346 1581.84 188.107 1583.18 186.474L1598.94 189.382C1598.94 189.382 1599.47 190.078 1599.47 190.682C1599.47 192.806 1598.94 193.209 1598.94 193.209ZM1609.15 187.975L1599.74 193.322C1599.74 193.322 1601.33 192.025 1598.96 187.035C1598.96 187.035 1598.83 186.743 1598.96 186.385C1599.09 186.028 1600.48 183.297 1600.12 181.262L1600.21 180.746L1609.15 187.548V187.975ZM1613.41 183.364L1601.51 175.075L1613.41 181.552V183.364Z" fill="#FDE4C2"/>
<path d="M1585.68 178.821H1585.67C1585.63 177.962 1585.35 173.168 1584.85 170.257C1584.12 165.953 1582.95 159.398 1582.95 159.398C1582.95 159.398 1584.76 162.666 1585.58 170.856C1585.81 173.131 1585.7 177.959 1585.68 178.821Z" fill="#FDE4C2"/>
<path d="M1595.02 168.856C1594.76 172.344 1594.95 178.265 1594.95 178.265C1594.95 178.265 1594.31 172.269 1594.35 169.559C1594.46 160.697 1595.98 157.043 1595.98 157.043C1595.98 157.043 1595.39 164.175 1595.02 168.856Z" fill="#FDE4C2"/>
<path d="M1598.6 157.067C1598.6 157.067 1597.12 156.505 1594.75 156.277C1594.5 154.926 1593.87 153.543 1592.83 153.543C1592.78 153.543 1592.71 153.549 1592.66 153.56C1592.5 153.584 1592.3 153.651 1592.1 153.823C1591.77 153.428 1591.38 153.181 1590.94 153.181C1590.85 153.181 1590.77 153.189 1590.69 153.208C1590.48 153.253 1590.16 153.39 1589.91 153.774C1589.55 153.208 1589.1 152.792 1588.54 152.792C1588.46 152.792 1588.38 152.8 1588.31 152.816C1587.84 152.918 1587.52 153.264 1587.35 153.852C1587.14 153.721 1586.91 153.645 1586.66 153.645C1586.58 153.645 1586.5 153.654 1586.42 153.672C1586.09 153.742 1585.52 154.027 1585.33 155.09C1585.09 154.902 1584.82 154.787 1584.52 154.787C1584.42 154.787 1584.31 154.803 1584.22 154.83C1583.89 154.924 1583.33 155.254 1583.27 156.398C1583.24 156.938 1583.33 157.598 1583.52 158.264C1581.17 159.384 1579.97 160.539 1579.84 160.681C1579.99 160.571 1581.32 159.634 1583.65 158.699C1583.93 159.521 1584.59 161.022 1585.68 161.022C1585.78 161.022 1585.89 161.009 1585.99 160.979C1586.2 160.917 1586.52 160.751 1586.73 160.316C1587.01 160.587 1587.34 160.751 1587.7 160.751C1587.78 160.751 1587.86 160.743 1587.94 160.727C1588.12 160.686 1588.37 160.587 1588.59 160.34C1588.93 160.85 1589.36 161.213 1589.88 161.213C1589.96 161.213 1590.04 161.205 1590.11 161.189C1590.63 161.076 1590.97 160.665 1591.13 159.961C1591.38 160.168 1591.66 160.286 1591.97 160.286C1592.05 160.286 1592.13 160.278 1592.22 160.262C1592.42 160.216 1592.72 160.09 1592.96 159.738H1592.97C1593.14 159.832 1593.33 159.886 1593.53 159.886C1593.59 159.886 1593.65 159.881 1593.71 159.87C1594.04 159.816 1594.64 159.553 1594.83 158.423C1594.9 157.945 1594.91 157.362 1594.83 156.755C1596.02 156.782 1597.28 156.881 1598.6 157.067ZM1592.31 156.183H1592.3C1592.29 156.154 1592.29 156.124 1592.29 156.097C1592.3 156.127 1592.31 156.154 1592.31 156.183ZM1590.4 154.747C1590.48 154.322 1590.64 154.043 1590.86 153.995C1590.89 153.989 1590.91 153.987 1590.94 153.987C1591.16 153.987 1591.41 154.199 1591.65 154.559C1591.6 154.69 1591.56 154.838 1591.54 155.007C1591.48 155.364 1591.46 155.778 1591.49 156.216C1591.29 156.226 1591.09 156.242 1590.88 156.261C1590.78 155.853 1590.62 155.297 1590.4 154.749V154.747ZM1584.44 155.603C1584.47 155.598 1584.49 155.593 1584.52 155.593C1584.75 155.593 1585.02 155.84 1585.27 156.248C1585.29 156.635 1585.35 157.051 1585.43 157.47C1585.02 157.617 1584.62 157.77 1584.26 157.929C1583.96 156.745 1584.03 155.721 1584.44 155.603ZM1585.76 160.206C1585.74 160.214 1585.71 160.216 1585.68 160.216C1585.29 160.216 1584.75 159.462 1584.4 158.412C1584.77 158.278 1585.15 158.146 1585.56 158.02C1585.7 158.533 1585.88 159.038 1586.12 159.473C1586.08 159.875 1585.96 160.147 1585.76 160.206ZM1586.07 156.012C1586.06 155.155 1586.24 154.535 1586.59 154.459C1586.62 154.454 1586.64 154.451 1586.67 154.451C1586.84 154.451 1587.02 154.575 1587.2 154.792C1587.18 155.397 1587.23 156.119 1587.36 156.876C1587.08 156.949 1586.81 157.024 1586.55 157.102C1586.44 156.793 1586.29 156.393 1586.07 156.012ZM1587.77 159.94C1587.75 159.943 1587.72 159.946 1587.7 159.946C1587.46 159.946 1587.19 159.698 1586.93 159.282C1586.94 158.81 1586.87 158.254 1586.72 157.687C1586.97 157.62 1587.23 157.558 1587.49 157.497C1587.59 157.958 1587.8 158.78 1588.14 159.535C1588.05 159.763 1587.93 159.905 1587.77 159.94ZM1588.03 154.553C1588.09 154.008 1588.24 153.654 1588.48 153.603C1588.5 153.6 1588.52 153.597 1588.54 153.597C1588.85 153.597 1589.23 154.083 1589.57 154.851V154.854C1589.51 155.311 1589.53 155.85 1589.6 156.414C1589.36 156.449 1589.11 156.492 1588.85 156.543C1588.67 155.821 1588.39 155.096 1588.03 154.553ZM1589.94 160.402C1589.92 160.405 1589.9 160.407 1589.88 160.407C1589.62 160.407 1589.3 160.053 1589 159.468C1589 159.468 1589 159.468 1589 159.465C1589.03 159.349 1589.05 159.226 1589.07 159.089C1589.14 158.544 1589.1 157.878 1588.99 157.188C1589.22 157.147 1589.47 157.107 1589.72 157.07C1589.72 157.083 1589.72 157.094 1589.72 157.107C1589.87 157.795 1590.1 158.498 1590.42 159.07V159.073C1590.4 159.827 1590.24 160.34 1589.94 160.402ZM1592.04 159.473C1592.02 159.478 1592 159.481 1591.97 159.481C1591.74 159.481 1591.47 159.25 1591.23 158.855V158.852C1591.22 158.267 1591.15 157.596 1591.02 156.903C1591.2 156.884 1591.38 156.868 1591.56 156.852C1591.57 156.895 1591.57 156.94 1591.58 156.983C1591.71 157.778 1591.97 158.603 1592.37 159.169C1592.29 159.338 1592.18 159.443 1592.04 159.473ZM1592.37 156.849C1592.37 156.83 1592.37 156.811 1592.37 156.795C1592.39 156.793 1592.42 156.793 1592.45 156.793C1592.51 157.091 1592.54 157.378 1592.56 157.649C1592.48 157.402 1592.42 157.134 1592.37 156.849ZM1592.55 154.518C1592.62 154.424 1592.7 154.368 1592.79 154.352C1592.8 154.349 1592.82 154.349 1592.83 154.349C1593.23 154.349 1593.68 155.136 1593.92 156.21C1593.67 156.197 1593.41 156.186 1593.14 156.183C1593.01 155.6 1592.81 155.015 1592.55 154.518ZM1593.58 159.078C1593.56 159.081 1593.54 159.081 1593.53 159.081C1593.45 159.081 1593.36 159.046 1593.28 158.984C1593.3 158.874 1593.32 158.753 1593.34 158.624C1593.4 158.085 1593.37 157.432 1593.26 156.755C1593.51 156.75 1593.76 156.745 1594.01 156.745C1594.19 157.977 1594 159.006 1593.58 159.078Z" fill="#FDE4C2"/>
<path d="M1590.86 129.826C1590.86 129.856 1590.85 129.883 1590.85 129.912L1590.15 142.512L1589.45 129.912C1589.45 129.883 1589.45 129.856 1589.45 129.826C1589.45 129.437 1589.76 129.12 1590.15 129.12C1590.54 129.12 1590.86 129.437 1590.86 129.826Z" fill="#FDE4C2"/>
<path d="M1609.64 136.094C1609.62 136.118 1609.6 136.137 1609.59 136.159L1601.52 145.858L1608.46 135.326C1608.48 135.299 1608.49 135.278 1608.51 135.254C1608.74 134.942 1609.19 134.875 1609.49 135.106C1609.81 135.337 1609.87 135.783 1609.64 136.094Z" fill="#FDE4C2"/>
<path d="M1619.97 151.049C1619.95 151.06 1619.92 151.065 1619.89 151.073L1607.78 154.58L1619.43 149.752C1619.45 149.738 1619.48 149.728 1619.5 149.72C1619.87 149.591 1620.27 149.784 1620.4 150.149C1620.53 150.517 1620.34 150.92 1619.97 151.049Z" fill="#FDE4C2"/>
<path d="M1578.81 147.432L1570.81 137.673C1570.79 137.649 1570.78 137.63 1570.76 137.606C1570.53 137.292 1570.6 136.849 1570.91 136.621C1571.22 136.392 1571.67 136.459 1571.9 136.774C1571.91 136.798 1571.93 136.822 1571.94 136.846L1578.81 147.432Z" fill="#FDE4C2"/>
<path d="M1572.57 152.789L1560.6 148.817C1560.57 148.809 1560.55 148.801 1560.52 148.793C1560.16 148.648 1559.98 148.237 1560.12 147.877C1560.26 147.515 1560.67 147.338 1561.03 147.48C1561.06 147.491 1561.09 147.502 1561.11 147.518L1572.57 152.789Z" fill="#FDE4C2"/>
<path d="M1577.54 34.4623L1575.65 32.7115C1575.66 32.9155 1575.66 33.1169 1575.66 33.321C1575.66 45.6468 1565.64 55.6766 1553.33 55.6766C1541.02 55.6766 1531 45.6468 1531 33.321C1531 20.9953 1541.02 10.9655 1553.33 10.9655C1560.69 10.9655 1567.23 14.5504 1571.3 20.0688V17.1418L1573.94 15.6111C1568.96 9.80808 1561.57 6.13184 1553.33 6.13184C1538.33 6.13184 1526.17 18.3045 1526.17 33.321C1526.17 48.3375 1538.33 60.5102 1553.33 60.5102C1568.14 60.5102 1580.19 48.6356 1580.48 33.8715L1577.54 34.4623Z" fill="#FDE4C2"/>
<path d="M1569.54 32.3195L1564.75 33.7427C1564.57 39.8949 1559.52 44.8467 1553.33 44.8467C1547.03 44.8467 1541.91 39.7149 1541.91 33.4097C1541.91 27.1045 1547.03 21.9755 1553.33 21.9755C1556.74 21.9755 1559.81 23.4847 1561.91 25.8692L1566.56 23.96C1563.61 19.8326 1558.78 17.1418 1553.33 17.1418C1544.35 17.1418 1537.08 24.4245 1537.08 33.4097C1537.08 42.3949 1544.35 49.6803 1553.33 49.6803C1562.3 49.6803 1569.58 42.3949 1569.58 33.4097C1569.58 33.0445 1569.57 32.6793 1569.54 32.3195Z" fill="#FDE4C2"/>
<path d="M1558.38 35.6359C1557.53 37.5828 1555.59 38.9389 1553.33 38.9389C1550.28 38.9389 1547.81 36.463 1547.81 33.4098C1547.81 30.3592 1550.28 27.8833 1553.33 27.8833C1554.21 27.8833 1555.05 28.0901 1555.78 28.4607L1552.57 29.8302C1552.57 29.8302 1549.95 30.9661 1550.86 33.9253C1551.8 36.9625 1554.87 36.6778 1554.87 36.6778L1558.38 35.6359Z" fill="#FDE4C2"/>
<path d="M1584.47 12.6216L1582.95 21.8412L1573.5 25.8523C1573.5 25.8523 1573.27 26.0089 1573.36 26.1936C1573.46 26.416 1573.7 26.3558 1573.7 26.3558L1583.37 23.5193L1590.62 29.8634L1578.04 32.4481L1575.19 28.7353L1554.84 34.7978C1554.84 34.7978 1553.23 35.0886 1552.71 33.6006C1552.1 31.8216 1553.63 31.139 1553.63 31.139L1573.28 23.4186L1573.21 18.3164L1584.47 12.6216Z" fill="#FDE4C2"/>
<path d="M1583.74 22.0425L1590.62 21.2705L1584.31 23.251L1583.74 22.0425Z" fill="#FDE4C2"/>
<path d="M1332.39 43.1255C1331.52 40.8542 1326.4 26.9589 1326.4 26.9589C1327.19 26.1572 1328.13 24.9547 1327.73 23.9527C1327.33 22.9506 1324.27 14.8004 1324.27 14.8004C1323.4 13.0635 1321.4 12.5959 1319.08 13.3307C1316.75 14.0656 1307.96 17.5394 1307.96 17.5394C1307.96 17.5394 1307.32 15.2734 1306.37 13.6621C1305.9 12.8791 1305.16 12.1897 1304.77 11.861C1303.57 10.859 1300.64 10.5918 1298.64 11.1262C1296.65 11.6606 1294.85 12.1951 1292.32 13.5312C1289.79 14.8672 1287.66 18.0739 1288.66 20.6792C1289.66 23.2846 1289.99 23.819 1289.99 23.819C1289.99 23.819 1280.08 27.6269 1278.28 28.2949C1276.48 28.963 1275.15 31.2343 1276.02 33.6393C1276.88 36.0443 1278.75 40.7874 1279.08 41.7226C1279.41 42.6579 1279.74 42.8583 1280.48 42.9919C1281.21 43.1255 1281.81 43.1923 1281.81 43.1923C1281.81 43.1923 1287.26 58.2901 1287.93 59.8935C1288.59 61.4968 1289.46 62.4988 1291.32 61.8976C1293.19 61.2964 1329.46 47.9355 1331.25 47.1338C1333.05 46.3321 1333.25 45.3969 1332.39 43.1255ZM1292.59 16.8714C1293.46 16.206 1299.24 13.9988 1300.71 13.6648C1302.17 13.3307 1303.64 14.0656 1304.03 15.0677C1304.43 16.0697 1305.23 18.2743 1305.23 18.2743L1292.59 23.0174C1292.59 23.0174 1291.92 21.2805 1291.52 19.6772C1291.12 18.0739 1291.34 17.8227 1292.59 16.8714ZM1281.47 39.8521C1281.47 39.8521 1279.41 34.2405 1278.94 33.1049C1278.48 31.9692 1278.48 31.5016 1279.88 30.8335C1281.27 30.1655 1318.61 16.6042 1319.87 16.1365C1321.14 15.6689 1321.47 15.4017 1322.14 17.1386C1322.8 18.8755 1324.6 23.9527 1324.6 23.9527C1324.6 23.9527 1322.87 26.3576 1318.82 29.7753C1314.96 33.0274 1310.36 35.777 1310.36 35.777C1310.36 35.777 1309.91 34.326 1309.76 33.8397C1309.61 33.3534 1308.49 32.1696 1307.1 32.6372C1305.7 33.1049 1300.51 35.1758 1300.51 35.1758C1299.24 35.7102 1298.78 36.5119 1299.18 37.848C1299.58 39.1841 1299.71 39.5849 1299.71 39.5849C1299.71 39.5849 1295.18 40.5202 1290.59 40.5202C1288.06 40.5202 1281.47 39.8521 1281.47 39.8521ZM1309.06 40.1861L1304.03 42.3239L1302.01 37.1799L1307.1 35.1758L1309.06 40.1861ZM1290.79 59.0918L1284.93 43.2591C1284.93 43.2591 1296.65 43.8604 1300.71 42.3907C1300.71 42.3907 1301.17 43.3928 1301.51 43.9272C1301.84 44.4616 1302.37 45.2633 1304.03 44.662C1304.03 44.662 1309.56 42.7247 1310.62 42.3239C1311.69 41.9231 1312.29 40.921 1312.02 40.0525C1311.75 39.1841 1311.49 38.5828 1311.49 38.5828C1311.49 38.5828 1317.74 35.109 1323.93 28.7626L1329.66 44.3948L1290.79 59.0918Z" fill="#FDE4C2"/>
<path d="M1198.22 32.0456C1203.26 32.0456 1207.34 27.9578 1207.34 22.9154C1207.34 17.8729 1203.26 13.7852 1198.22 13.7852C1193.19 13.7852 1189.1 17.8729 1189.1 22.9154C1189.1 27.9578 1193.19 32.0456 1198.22 32.0456Z" fill="#FDE4C2"/>
<path d="M1202.72 55.1397L1172.2 42.1828C1172.2 42.1828 1172.6 41.1087 1173.61 39.3632C1174.62 37.6177 1182.4 28.6889 1194 33.724C1205.6 38.759 1204.26 50.5074 1203.79 52.1858C1203.32 53.8641 1202.72 55.1397 1202.72 55.1397Z" fill="#FDE4C2"/>
<path d="M1089.2 46.6806C1096.54 46.6806 1102.5 40.7193 1102.5 33.3658C1102.5 26.0122 1096.54 20.051 1089.2 20.051C1081.85 20.051 1075.9 26.0122 1075.9 33.3658C1075.9 40.7193 1081.85 46.6806 1089.2 46.6806Z" fill="#FDE4C2"/>
<path d="M1089.2 7.6981C1103.34 7.6981 1114.84 19.2123 1114.84 33.3655C1114.84 47.5186 1103.34 59.0329 1089.2 59.0329C1075.06 59.0329 1063.56 47.5186 1063.56 33.3655C1063.56 19.2123 1075.06 7.6981 1089.2 7.6981ZM1089.2 2.32739C1072.07 2.32739 1058.19 16.2233 1058.19 33.3655C1058.19 50.5077 1072.07 64.4039 1089.2 64.4039C1106.32 64.4039 1120.2 50.508 1120.2 33.3658C1120.2 16.2235 1106.32 2.32739 1089.2 2.32739Z" fill="#FDE4C2"/>
<path d="M962.855 40.2964C966.514 40.2964 969.48 37.3274 969.48 33.6649C969.48 30.0025 966.514 27.0334 962.855 27.0334C959.196 27.0334 956.231 30.0025 956.231 33.6649C956.231 37.3274 959.196 40.2964 962.855 40.2964Z" fill="#FDE4C2"/>
<path d="M979.379 50.5433L955.968 56.1654C955.968 56.1654 955.74 55.364 955.575 53.9099C955.409 52.4555 956.102 43.8782 965.05 41.8041C973.997 39.7299 978.282 47.1713 978.732 48.3545C979.181 49.5376 979.379 50.5433 979.379 50.5433Z" fill="#FDE4C2"/>
<path d="M1010.94 16.1265L975.86 24.3584L976.309 26.2756L1011.39 18.0437L1010.94 16.1265Z" fill="#FDE4C2"/>
<path d="M1012.25 21.2L977.171 29.4319L977.619 31.3491L1012.7 23.1172L1012.25 21.2Z" fill="#FDE4C2"/>
<path d="M1013.69 26.8108L978.601 35.0427L979.05 36.9599L1014.13 28.728L1013.69 26.8108Z" fill="#FDE4C2"/>
<path d="M1015 32.4781L979.912 40.71L980.361 42.6271L1015.45 34.3952L1015 32.4781Z" fill="#FDE4C2"/>
<path d="M1016.37 38.0889L981.284 46.3208L981.733 48.238L1016.82 40.0061L1016.37 38.0889Z" fill="#FDE4C2"/>
<path d="M1012.74 12.7439C1015.4 24.0669 1019.18 40.1653 1019.95 43.5698C1013.34 45.2211 960.057 57.8546 953.501 59.3253C953.04 57.2461 950.866 47.9437 948.298 36.9647C947.336 32.8547 946.551 29.4972 946.31 28.454C968.467 23.1834 1008.76 13.6169 1012.74 12.7439ZM1013.36 10.7798C1013.16 10.7798 1012.94 10.8056 1012.71 10.8313C1011.89 10.9208 945.032 26.8256 945.032 26.8256C944.037 27.0216 944.365 28.3702 944.406 28.5547C944.652 29.6667 951.56 59.0783 951.739 60.0627C951.9 60.9508 952.207 61.3292 952.922 61.3292C952.999 61.3292 953.082 61.3246 953.169 61.316C954.063 61.2266 1020.41 45.4724 1021.13 45.2039C1021.84 44.9353 1022.02 44.4877 1021.93 43.8612C1021.84 43.2347 1014.41 11.637 1014.41 11.637C1014.21 10.9366 1013.85 10.7798 1013.36 10.7798Z" fill="#FDE4C2"/>
<path d="M852.126 13.3378C852.126 13.3378 892.99 22.6472 894.064 23.0051C895.137 23.3631 895.315 23.8779 895.137 24.7283C894.958 25.5788 893.538 31.1173 893.538 31.1173L849.51 20.8794C849.51 20.8794 850.899 14.8623 851.064 14.1212C851.064 14.1212 851.282 13.1456 852.126 13.3378Z" fill="#FDE4C2"/>
<path d="M848.817 23.6755C848.817 23.6755 843.425 46.6997 843.184 47.5886C842.94 48.4909 842.819 49.13 843.484 49.2992C844.536 49.5623 884.796 58.7489 885.593 59.1007C886.389 59.4525 887.06 59.2108 887.229 58.4965C887.395 57.7822 892.723 33.8369 892.723 33.8369L848.817 23.6755ZM874.594 34.1242L881.513 35.5555L880.617 40.4697L873.626 38.9686L874.594 34.1242ZM866.324 32.266L873.242 33.7L872.343 38.6115L865.355 37.113L866.324 32.266ZM858.23 30.3648L865.149 31.796L864.253 36.7102L857.262 35.2091L858.23 30.3648ZM856.913 36.8687L863.832 38.3L862.936 43.2115L855.945 41.713L856.913 36.8687ZM848.664 35.0131L855.583 36.4471L854.687 41.3586L847.696 39.8602L848.664 35.0131ZM853.077 47.7041L846.086 46.2056L847.055 41.3586L853.973 42.7926L853.077 47.7041ZM861.326 49.557L854.335 48.0585L855.304 43.2115L862.222 44.6455L861.326 49.557ZM869.508 51.4609L862.517 49.9598L863.486 45.1154L870.404 46.5467L869.508 51.4609ZM870.903 44.9569L863.912 43.4585L864.881 38.6115L871.799 40.0454L870.903 44.9569ZM879.074 46.8125L872.086 45.3141L873.054 40.4697L879.973 41.901L879.074 46.8125ZM887.524 48.8937L880.533 47.3953L881.502 42.5509L888.42 43.9822L887.524 48.8937ZM881.875 41.0498L882.843 36.2054L889.761 37.6367L888.865 42.5509L881.875 41.0498Z" fill="#FDE4C2"/>
<path d="M761.032 58.1341C773.817 58.1341 784.182 47.7711 784.182 34.9877C784.182 22.2043 773.817 11.8413 761.032 11.8413C748.247 11.8413 737.882 22.2043 737.882 34.9877C737.882 47.7711 748.247 58.1341 761.032 58.1341Z" fill="#FDE4C2"/>
<path d="M1423.25 12.085C1423.25 12.085 1424.78 16.2709 1428.61 21.7522C1432.14 26.8093 1435.59 29.2712 1435.59 29.2712L1427.11 42.2501C1427.11 42.2501 1417.97 37.5056 1406.43 37.8638L1423.25 12.085Z" fill="#FDE4C2"/>
<path d="M1438 30.9712L1429.24 43.5923L1436.57 48.426C1436.57 48.426 1442.69 52.0066 1446.68 45.844C1450.88 39.3318 1444.88 35.3575 1444.88 35.3575L1438 30.9712Z" fill="#FDE4C2"/>
<path d="M1428.02 45.8079L1434.66 50.2387L1427.05 56.5157C1427.05 56.5157 1425.91 57.5898 1424.06 56.5157C1422.22 55.4416 1419.43 53.394 1419.43 53.394C1419.43 53.394 1417.96 51.3128 1420.64 50.8765C1423.32 50.4401 1423.89 49.5338 1428.02 45.8079Z" fill="#FDE4C2"/>
<path d="M1413.4 9.25366L1414.04 12.6251C1414.04 12.6251 1408.49 13.4162 1405.42 18.2576C1401.23 24.8623 1403.36 28.9392 1403.36 28.9392L1400.11 29.5952C1400.11 29.5952 1396.62 14.4933 1413.4 9.25366Z" fill="#FDE4C2"/>
<path d="M1414.44 15.3071L1415.11 18.5296C1415.11 18.5296 1408.4 19.5589 1408.98 27.794L1405.72 28.3759C1405.72 28.3757 1403.89 18.0371 1414.44 15.3071Z" fill="#FDE4C2"/>
<path d="M1871.13 51.348C1876.17 51.348 1880.25 47.2603 1880.25 42.2178C1880.25 37.1754 1876.17 33.0876 1871.13 33.0876C1866.09 33.0876 1862.01 37.1754 1862.01 42.2178C1862.01 47.2603 1866.09 51.348 1871.13 51.348Z" fill="#B3CDE0"/>
<path d="M1874.38 74.5909L1844.39 60.4715C1844.39 60.4715 1844.83 59.4138 1845.9 57.708C1846.98 56.0023 1855.09 47.3791 1866.49 52.8561C1877.89 58.3332 1876.1 70.0215 1875.57 71.6805C1875.03 73.3395 1874.38 74.5909 1874.38 74.5909Z" fill="#B3CDE0"/>
<path d="M1645.88 43.2907L1653.12 77.7303L1694.5 68.9358C1694.5 68.9358 1695.3 68.902 1695.51 69.6796C1695.73 70.5392 1694.97 70.9498 1694.97 70.9498L1691.88 71.6435C1691.88 71.6435 1654.15 79.5875 1653.16 79.8338C1652.18 80.08 1651.62 79.6995 1651.33 78.8045C1651.04 77.9095 1643.95 44.6221 1643.95 43.8836C1643.95 43.8836 1643.85 43.0275 1644.75 42.871C1645.68 42.7117 1645.88 43.2907 1645.88 43.2907Z" fill="#B3CDE0"/>
<path d="M1685.66 36.5271L1684.96 30.9717L1679.83 32.5662L1681.92 33.8587L1674.11 44.1299C1674.11 44.1299 1664.29 41.9481 1663.65 41.8361C1663.01 41.7241 1662.92 41.6347 1662.49 42.2947C1662.05 42.9548 1654.35 56.7398 1654.35 56.7398C1654.35 56.7398 1653.84 57.5902 1654.61 58.1031C1655.5 58.6953 1656.09 57.993 1656.09 57.993L1663.85 43.9621C1663.85 43.9621 1673.64 46.2111 1674.18 46.3453C1674.71 46.4796 1674.88 46.5803 1675.35 45.9425C1675.82 45.3048 1683.7 35.0333 1683.7 35.0333L1685.66 36.5271Z" fill="#B3CDE0"/>
<path d="M1654.04 66.7876L1659.6 65.5569L1661.44 73.9038L1656 75.1793L1654.04 66.7876Z" fill="#B3CDE0"/>
<path d="M1666.56 72.8297L1672.08 71.5764L1667.56 51.1677L1662.13 52.5104L1666.56 72.8297Z" fill="#B3CDE0"/>
<path d="M1677.04 70.5471L1682.49 69.2938L1678.85 53.2266L1673.55 54.4573L1677.04 70.5471Z" fill="#B3CDE0"/>
<path d="M1687.48 68.3091C1687.59 68.2868 1692.93 67.0558 1692.93 67.0558L1687.52 42.1492L1682.25 43.3576L1687.48 68.3091Z" fill="#B3CDE0"/>
<path d="M1800.8 62.3644L1789.14 41.7633L1789.1 41.6784C1789.59 36.2417 1788.1 34.0219 1788.1 34.0219C1787.3 32.6269 1786.17 31.6006 1785.77 31.1365C1785.37 30.6724 1783.64 30.9721 1783.28 32.2291C1782.91 33.4915 1781.18 39.4586 1780.81 40.0209C1780.45 40.5831 1779.55 40.652 1779.12 40.5194C1778.68 40.3868 1777.29 40.0527 1776.63 39.7557C1775.96 39.4586 1775.76 39.2915 1775.39 38.5622C1775.03 37.8329 1775.33 37.1354 1775.33 37.1354C1775.33 37.1354 1776.82 31.7677 1777.12 30.7387C1777.42 29.7097 1777.16 29.4126 1776.96 28.9485C1776.76 28.4844 1776.36 28.3837 1775.76 27.8877C1775.16 27.3918 1774.3 27.6888 1774.3 27.6888C1774.3 27.6888 1770.27 29.0467 1767.85 33.2581C1765.42 37.4696 1767.01 41.4795 1767.01 41.4795H1764.75L1761.03 47.7118L1766.31 49.1386L1765.55 51.7907L1747.33 46.5847C1747.33 46.5847 1747.06 46.4176 1746.49 46.4866C1745.93 46.5502 1745.8 47.6455 1745.86 47.8444C1745.93 48.0433 1746.53 48.274 1746.53 48.274L1765.15 53.4455L1764.25 56.1984L1746.09 51.0932C1746.09 51.0932 1745.96 50.8943 1745.46 50.995C1744.97 51.0932 1744.5 51.7907 1744.7 52.2521C1744.9 52.7189 1745.03 52.5518 1745.03 52.5518L1763.75 58.0548L1763.02 60.4417L1754.98 58.2537L1752.58 62.2981C1752.58 62.2981 1764.22 82.8515 1764.42 83.1167C1764.62 83.3819 1764.62 83.6471 1765.42 83.7134C1766.22 83.7797 1788.7 83.7134 1788.7 83.7134C1788.7 83.7134 1799.67 65.4142 1800.27 64.1545C1800.87 62.8948 1800.8 62.3644 1800.8 62.3644ZM1789.51 48.889C1789.36 49.0057 1789.28 49.088 1789.21 49.1861C1789.15 49.2869 1789.21 49.3028 1788.98 49.4354C1788.75 49.568 1789.1 49.2524 1788.51 49.7324C1787.93 50.2151 1788.13 50.1647 1787.93 50.2151C1787.73 50.2628 1787.6 50.2628 1787.53 50.2151C1787.46 50.1647 1787.15 50.1302 1787.31 49.934C1787.46 49.7324 1787.42 49.7669 1787.55 49.6343C1787.68 49.5017 1787.71 49.3532 1787.71 49.3532C1787.71 49.3532 1787.83 49.1383 1787.6 49.2709C1787.37 49.4035 1787.42 49.4858 1787.31 49.5998C1787.2 49.7165 1787.27 49.7006 1787.08 49.8014C1786.9 49.8995 1786.68 49.8995 1786.68 49.8995C1786.68 49.8995 1786.58 49.8995 1786.55 49.7669C1786.52 49.6343 1786.42 49.5176 1786.49 49.4513C1786.55 49.385 1786.63 49.3346 1786.74 49.2524C1786.83 49.1702 1786.9 49.0057 1786.9 48.9554C1786.9 48.905 1786.9 48.7724 1786.7 48.8546C1786.5 48.9368 1786.5 48.7564 1786.27 49.0694C1786.04 49.385 1785.97 49.3691 1785.82 49.385C1785.67 49.4035 1785.5 49.4513 1785.39 49.4035C1785.27 49.3532 1785.15 49.2869 1785.15 49.2869L1785.04 49.1039C1785.04 49.1039 1786.47 48.0775 1787.43 46.9477L1787.73 47.1811L1787.65 47.6956C1787.65 47.6956 1787.98 47.9104 1788.06 47.6956C1788.15 47.4782 1788.31 47.2315 1788.46 47.2129C1788.61 47.197 1788.79 47.2978 1788.81 47.4782C1788.83 47.6611 1788.93 47.7619 1788.81 47.876C1788.7 47.9927 1788.7 47.9927 1788.7 47.9927C1788.7 47.9927 1788.55 48.1756 1788.7 48.1597C1788.84 48.1412 1788.69 48.059 1788.87 48.0271C1789.04 47.9927 1789.04 47.9927 1789.04 47.9927C1789.04 47.9927 1789.04 48.0775 1789.13 48.0271C1789.21 47.9767 1789.33 48.0271 1789.21 48.1093C1789.09 48.1916 1789.09 48.1916 1789.09 48.1916C1789.09 48.1916 1788.98 48.3242 1789.11 48.3242C1789.24 48.3242 1789.31 48.2923 1789.36 48.2738C1789.41 48.2579 1789.31 48.1756 1789.41 48.2579C1789.51 48.3427 1789.51 48.4912 1789.51 48.5894C1789.51 48.6901 1789.66 48.7726 1789.51 48.889ZM1789.46 43.9989C1789.1 45.9217 1788.07 46.8844 1788.07 46.8844L1787.7 46.6828C1788.93 45.6565 1789.46 43.9989 1789.46 43.9989ZM1788.3 42.8055C1788.1 42.9699 1787.73 42.8055 1787.73 42.8055C1789.51 36.849 1787.43 33.4968 1787.25 33.213C1789.75 36.1064 1788.5 42.6408 1788.3 42.8055ZM1783.74 32.4943C1783.74 32.4943 1784.57 30.3886 1786.27 32.4943C1789.85 36.9498 1787.2 42.6411 1787.2 42.6411L1782.44 41.3787C1782.44 41.3787 1782.24 41.2806 1781.91 40.9491C1781.58 40.6176 1781.51 39.8883 1781.51 39.8883L1783.74 32.4943ZM1774.66 28.1871C1775.39 27.9856 1775.66 28.3516 1775.89 28.8502C1776.13 29.3461 1775.96 30.1417 1775.96 30.1417L1773.9 37.3367C1773.7 38.9279 1775.66 40.1214 1775.66 40.1214L1789.03 43.7016C1788.07 46.4863 1784.47 48.7724 1784.47 48.7724L1785.14 44.4973C1785.14 44.4973 1776.06 41.214 1775.53 41.0151C1774.99 40.8162 1774.8 40.848 1774.69 41.0151C1774.6 41.1822 1773.9 42.5719 1773.9 42.5719L1767.08 40.3866C1766.42 31.468 1773.93 28.3837 1774.66 28.1871ZM1774.74 80.1543C1774.66 80.4752 1774.53 80.1543 1774.53 80.1543L1782.86 50.0536C1782.86 50.0536 1784 49.3693 1784.11 49.3242C1784.22 49.2818 1784.29 49.4807 1784.29 49.4807C1784.13 49.7008 1783.22 50.4965 1783.22 50.4965C1783.22 50.4965 1774.83 79.8334 1774.74 80.1543ZM1782.47 60.927L1791.34 63.1494C1791.34 63.1494 1791.66 63.6639 1791.87 63.8681C1792.23 64.2314 1793.13 64.7857 1793.13 64.7857L1782.13 61.8685L1782.47 60.927ZM1779.87 47.9107V44.044H1780.29V47.9107H1779.87ZM1780.74 48.1759V44.3092H1781.16V48.1759H1780.74ZM1779.34 43.7786V47.6452H1778.92V43.7786H1779.34ZM1778.45 43.4685V47.3352H1778.03V43.4685H1778.45ZM1777.57 43.137V47.0037H1777.14V43.137H1777.57ZM1776.68 42.8718V46.7385H1776.26V42.8718H1776.68ZM1775.71 42.4952V46.3646H1775.28V42.4952H1775.71ZM1753.21 62.1655L1754.58 59.9112L1765.25 61.4706L1761.09 76.1206L1753.21 62.1655ZM1770.32 82.7189L1764.83 82.6022L1763.69 80.5469C1763.79 80.3639 1764.75 79.6372 1764.75 79.6372C1767.64 77.7622 1770.34 81.0614 1770.32 81.7085C1770.3 82.3529 1770.32 82.7189 1770.32 82.7189ZM1762.76 77.4148L1769.87 52.0214C1769.87 52.0214 1770.44 50.82 1771.27 50.5628C1775.39 49.2818 1777.64 50.82 1778.85 52.398C1779.87 53.724 1779.87 54.6947 1779.61 55.4478C1779.25 56.4477 1772.73 80.5309 1772.73 80.5309C1772.73 80.5309 1769.5 75.569 1762.76 77.4148ZM1788.14 82.7189L1774.22 82.5412L1780.03 63.7567L1793.6 65.6132C1794.04 66.4963 1794.84 66.7615 1795.55 67.1169C1796.26 67.4696 1797.23 67.5571 1797.23 67.5571L1788.14 82.7189ZM1799.49 61.5473C1799.49 61.5473 1797.9 60.8843 1797.23 60.7517C1796.57 60.6191 1796.21 60.6615 1795.41 60.7517C1794.62 60.8392 1793.2 61.6799 1792.44 61.9451C1791.69 62.2103 1791.11 62.2103 1791.11 62.2103L1782.73 59.7784L1783.44 57.967C1783.44 57.967 1791.24 60.0887 1792.4 60.4414C1793.55 60.7941 1793.6 60.7066 1794.13 60.7066C1794.66 60.7066 1795.41 60.2213 1796.34 60.0887C1797.28 59.9561 1798.87 60.574 1799.27 60.8392C1799.67 61.1044 1799.49 61.5473 1799.49 61.5473Z" fill="#B3CDE0"/>
</svg>
