<svg width="334" height="67" viewBox="0 0 334 67" fill="none" xmlns="http://www.w3.org/2000/svg">
<path d="M166.693 10.3123C255.206 10.3123 327.632 5.95248 333.295 0.439209L300.081 55.2667C300.081 55.2667 240.175 66.431 165.087 66.431C94.5831 66.431 33.8431 55.4018 33.8431 55.4018L0.331787 0.641803C7.53096 6.05783 79.2654 10.3123 166.693 10.3123Z" fill="#FB7713"/>
<path d="M333.295 0.439209L300.185 54.6414C300.185 54.6414 287.424 56.9994 266.308 59.5363L292.527 6.62663C315.885 4.95227 330.847 2.80255 333.295 0.439209Z" fill="#FC9547"/>
<path d="M67.6361 45.1052C68.4353 45.1796 68.8353 45.2161 69.6341 45.2892C69.5223 45.5851 69.4665 45.7328 69.3546 46.0287C69.6867 45.7774 70.0151 45.5875 70.3405 45.4586C70.6656 45.33 71.0256 45.2832 71.4197 45.3184C71.8051 45.3531 72.156 45.4524 72.4728 45.6165C72.7894 45.7806 73.0589 46.0024 73.2821 46.2814C73.5048 46.5601 73.668 46.8931 73.7715 47.2803C73.875 47.6676 73.9061 48.097 73.8653 48.5682C73.8117 49.188 73.6521 49.7501 73.3865 50.2544C73.121 50.7587 72.7886 51.1838 72.3894 51.531C71.9905 51.8787 71.5481 52.1365 71.0623 52.3041C70.576 52.4719 70.081 52.5332 69.5783 52.4875C69.0228 52.437 68.5806 52.289 68.252 52.0463C67.9229 51.8035 67.6603 51.4955 67.4639 51.1231C67.0154 52.3411 66.7908 52.9505 66.3404 54.1683C65.5346 54.0928 65.1317 54.0544 64.3258 53.9776C65.4369 51.0229 66.5382 48.0647 67.6361 45.1052ZM70.2699 50.6639C70.5317 50.5648 70.7694 50.4125 70.9829 50.2084C71.1962 50.0041 71.3751 49.7595 71.5203 49.4746C71.6654 49.1896 71.7542 48.8687 71.7858 48.5121C71.8266 48.0513 71.7236 47.6799 71.4784 47.3996C71.2335 47.1195 70.8883 46.9592 70.4408 46.9189C70.1599 46.8934 69.8865 46.9331 69.6207 47.036C69.3549 47.1388 69.1129 47.2919 68.8954 47.4955C68.6778 47.6987 68.4965 47.9428 68.3505 48.2275C68.2046 48.5121 68.1161 48.819 68.0857 49.1496C68.045 49.593 68.152 49.9646 68.4084 50.2643C68.6646 50.564 69.0179 50.7345 69.467 50.7753C69.7398 50.7998 70.0081 50.763 70.2699 50.6639Z" fill="black"/>
<path d="M76.6039 52.8826C76.1983 52.6861 75.86 52.431 75.5891 52.1179C75.3182 51.8048 75.1199 51.4427 74.9955 51.0319C74.871 50.6216 74.8292 50.1804 74.8694 49.7091C74.9142 49.1854 75.0636 48.6887 75.3163 48.2179C75.5684 47.7474 75.8947 47.3395 76.2947 46.9953C76.6949 46.6513 77.1523 46.3868 77.6668 46.2012C78.1808 46.0157 78.7221 45.9467 79.2921 45.9934C79.8179 46.0364 80.2828 46.1553 80.686 46.3503C81.0892 46.5452 81.4267 46.7984 81.6976 47.1102C81.9686 47.4217 82.1676 47.7826 82.2945 48.1921C82.4217 48.6019 82.467 49.0434 82.4297 49.515C82.3886 50.0389 82.2405 50.5356 81.9865 51.0077C81.7322 51.4795 81.4049 51.8885 81.0047 52.2344C80.6045 52.5803 80.146 52.8466 79.6291 53.0333C79.1119 53.2196 78.5716 53.29 78.0069 53.2433C77.4774 53.1998 77.0092 53.0795 76.6039 52.8826ZM79.0955 51.4068C79.3587 51.2781 79.5873 51.1084 79.782 50.8982C79.9762 50.6887 80.1326 50.4521 80.2515 50.1873C80.37 49.9228 80.4397 49.6626 80.4601 49.4075C80.5017 48.889 80.3941 48.4798 80.1355 48.1806C79.8769 47.8815 79.5186 47.7128 79.062 47.6752C78.7546 47.65 78.4697 47.7021 78.207 47.8307C77.9444 47.9593 77.7164 48.128 77.5219 48.3374C77.3272 48.5469 77.1702 48.7864 77.0506 49.055C76.9307 49.3238 76.8607 49.5805 76.84 49.8264C76.7966 50.3447 76.903 50.7542 77.1622 51.0547C77.4208 51.3549 77.7794 51.5241 78.2376 51.562C78.5461 51.5872 78.8324 51.5357 79.0955 51.4068Z" fill="black"/>
<path d="M84.7113 53.6973C84.424 53.6229 84.1455 53.523 83.8756 53.3966C83.6058 53.2701 83.3482 53.1181 83.1049 52.9411C82.8613 52.7639 82.6427 52.5582 82.4485 52.3235C82.9512 51.8831 83.2028 51.6623 83.7047 51.2214C84.0459 51.6169 84.4012 51.8946 84.77 52.0547C85.1389 52.2147 85.4827 52.3068 85.8001 52.3307C86.0646 52.3506 86.2755 52.3135 86.4332 52.2198C86.5909 52.1264 86.6767 51.9795 86.6918 51.7781C86.7014 51.6473 86.6354 51.5262 86.4933 51.4145C86.3513 51.303 86.1593 51.1816 85.9216 51.0619C85.6523 50.9257 85.3929 50.7869 85.156 50.6416C84.9191 50.4963 84.7129 50.3373 84.5355 50.166C84.3585 49.9939 84.2225 49.8019 84.1283 49.5881C84.0342 49.3746 83.9987 49.1281 84.0202 48.8485C84.0473 48.4992 84.1377 48.1788 84.2925 47.8877C84.4473 47.5963 84.6541 47.3506 84.9121 47.1508C85.1702 46.9513 85.4792 46.8009 85.8392 46.7008C86.1992 46.6009 86.599 46.5678 87.0376 46.6006C87.3267 46.6221 87.6033 46.6704 87.8668 46.747C88.1297 46.8235 88.3791 46.9191 88.6131 47.0324C88.847 47.1457 89.0578 47.2693 89.247 47.4011C89.4361 47.5335 89.6 47.6707 89.74 47.8125C89.2721 48.2846 89.0387 48.5207 88.5698 48.9922C88.2468 48.6963 87.9389 48.4806 87.6489 48.345C87.3587 48.2094 87.0698 48.1307 86.7798 48.109C86.5341 48.0907 86.3388 48.1288 86.195 48.2236C86.0515 48.3182 85.9715 48.4573 85.9576 48.6404C85.9471 48.7803 86.019 48.9106 86.1733 49.0317C86.3275 49.1528 86.5542 49.2903 86.8393 49.4444C87.059 49.5631 87.2825 49.6928 87.5068 49.8233C87.7313 49.9539 87.9309 50.1048 88.1042 50.2756C88.2775 50.4464 88.4132 50.6394 88.5127 50.8532C88.6122 51.0667 88.6525 51.3084 88.6326 51.5791C88.6047 51.9636 88.5063 52.3036 88.3386 52.5987C88.171 52.8941 87.9518 53.1393 87.68 53.3342C87.4083 53.5297 87.0894 53.6705 86.7235 53.7572C86.3576 53.8439 85.9629 53.8716 85.5394 53.8397C85.2743 53.8195 84.9986 53.772 84.7113 53.6973Z" fill="black"/>
<path d="M91.737 47.0719C92.5369 47.128 92.9368 47.1554 93.7368 47.2099C92.7874 49.9686 92.3105 51.3483 91.351 54.1048C90.5457 54.0484 90.1435 54.0194 89.3382 53.9614C90.3028 51.2062 90.7823 49.8287 91.737 47.0719ZM92.5581 44.5737C93.398 44.6323 93.8175 44.6613 94.6577 44.7179C94.416 45.4129 94.2953 45.7604 94.0528 46.4551C93.2113 46.3979 92.7902 46.3689 91.9486 46.3098C92.1925 45.6156 92.3145 45.2682 92.5581 44.5737Z" fill="black"/>
<path d="M94.4949 54.0428C94.2121 53.7598 94.085 53.4217 94.1113 53.0275C94.1212 52.8782 94.1419 52.7342 94.1735 52.5957C94.2049 52.4571 94.2481 52.3102 94.303 52.1553C94.7328 50.9012 94.9461 50.2747 95.3737 49.0201C95.0362 48.9975 94.868 48.9865 94.5306 48.9637C94.7605 48.2999 94.8747 47.9674 95.1041 47.3033C95.441 47.3259 95.6097 47.3372 95.9466 47.3595C96.1889 46.6537 96.3096 46.3014 96.5511 45.5957C97.3499 45.6481 97.7491 45.6733 98.5477 45.7243C98.3073 46.4306 98.1882 46.7837 97.9473 47.4897C98.6107 47.5322 98.9423 47.5528 99.6057 47.5947C99.379 48.2599 99.265 48.5926 99.0381 49.2572C98.3736 49.2153 98.0417 49.1949 97.3775 49.1517C96.9845 50.3158 96.7877 50.8972 96.393 52.0608C96.3716 52.1123 96.3542 52.1671 96.3421 52.2232C96.33 52.2793 96.3233 52.3295 96.3203 52.3733C96.3021 52.6537 96.4727 52.8049 96.8346 52.8285C96.9937 52.8387 97.1641 52.8304 97.3473 52.8027C97.5305 52.775 97.7083 52.7318 97.88 52.6727C97.6514 53.3374 97.5372 53.6695 97.3081 54.3342C96.8802 54.4996 96.3898 54.564 95.8335 54.5275C95.2243 54.4872 94.7774 54.3256 94.4949 54.0428Z" fill="black"/>
<path d="M101.172 47.6917C101.972 47.7408 102.372 47.7645 103.172 47.812C102.248 50.5792 101.783 51.9622 100.848 54.727C100.043 54.6776 99.6401 54.6537 98.8345 54.6027C99.7745 51.8397 100.242 50.4571 101.172 47.6917ZM101.97 45.1865C102.811 45.2373 103.231 45.2625 104.072 45.3119C103.836 46.009 103.718 46.3573 103.482 47.0539C102.64 47.004 102.218 46.979 101.376 46.9274C101.614 46.2314 101.733 45.8831 101.97 45.1865Z" fill="black"/>
<path d="M104.331 47.8801C105.152 47.9279 105.563 47.9518 106.385 47.9977C106.405 49.8783 106.416 50.8187 106.438 52.6989C107.669 50.889 108.282 49.9827 109.504 48.1688C110.362 48.2147 110.792 48.2367 111.65 48.2808C109.979 50.566 108.297 52.8428 106.609 55.116C105.877 55.0754 105.511 55.0545 104.78 55.0123C104.598 52.1597 104.508 50.7333 104.331 47.8801Z" fill="black"/>
<path d="M113.606 53.6079C113.85 53.87 114.237 54.0139 114.766 54.0392C115.03 54.052 115.289 54.0204 115.54 53.9444C115.792 53.8684 116.067 53.7373 116.368 53.5496C116.715 54.0604 116.889 54.3155 117.237 54.826C116.907 55.0741 116.515 55.2779 116.061 55.4361C115.606 55.5942 115.074 55.6584 114.464 55.6291C113.951 55.6044 113.495 55.5097 113.096 55.345C112.697 55.1807 112.363 54.9581 112.093 54.6769C111.824 54.396 111.624 54.059 111.494 53.6665C111.364 53.2741 111.311 52.8329 111.336 52.3426C111.362 51.8353 111.487 51.3353 111.711 50.8426C111.935 50.3498 112.241 49.9134 112.63 49.534C113.019 49.1546 113.476 48.8552 114.002 48.6352C114.527 48.4153 115.106 48.3205 115.738 48.3503C116.195 48.3718 116.599 48.4612 116.953 48.6178C117.306 48.7743 117.601 48.9811 117.836 49.237C118.07 49.4929 118.244 49.7904 118.357 50.1283C118.469 50.4661 118.517 50.8326 118.499 51.2266C118.488 51.4803 118.445 51.7416 118.371 52.0099C118.297 52.2784 118.197 52.5459 118.071 52.8117C116.13 52.7244 115.16 52.6785 113.219 52.5824C113.234 53.0051 113.362 53.3461 113.606 53.6079ZM116.529 51.493C116.58 51.3463 116.609 51.1938 116.616 51.0364C116.63 50.7475 116.551 50.4986 116.38 50.2889C116.209 50.0794 115.917 49.9645 115.504 49.9449C115.047 49.9231 114.638 50.0421 114.278 50.3007C113.917 50.5592 113.642 50.9078 113.452 51.3455C114.683 51.4059 115.299 51.4358 116.529 51.493Z" fill="black"/>
<path d="M125.61 54.131C125.856 54.3901 126.244 54.5295 126.774 54.5491C127.039 54.5587 127.296 54.5241 127.547 54.4454C127.797 54.3667 128.072 54.2325 128.37 54.0413C128.723 54.5483 128.9 54.8012 129.254 55.3079C128.926 55.5598 128.537 55.7677 128.085 55.9309C127.632 56.0942 127.1 56.1654 126.491 56.1428C125.978 56.124 125.521 56.0335 125.12 55.8735C124.72 55.7134 124.382 55.4951 124.11 55.2169C123.837 54.9392 123.634 54.6041 123.499 54.2131C123.365 53.8224 123.307 53.382 123.327 52.8919C123.347 52.3844 123.466 51.8825 123.684 51.3871C123.902 50.8919 124.203 50.4526 124.588 50.0686C124.972 49.6846 125.427 49.3798 125.95 49.1543C126.473 48.9287 127.051 48.8277 127.683 48.8506C128.139 48.8672 128.544 48.951 128.9 49.1035C129.255 49.256 129.552 49.4598 129.789 49.7131C130.027 49.9666 130.204 50.2614 130.32 50.5982C130.436 50.9349 130.488 51.3006 130.475 51.6948C130.467 51.9486 130.427 52.2104 130.356 52.4797C130.286 52.7491 130.189 53.0176 130.065 53.2851C128.124 53.2196 127.153 53.1849 125.212 53.1108C125.231 53.5321 125.363 53.8718 125.61 54.131ZM128.509 51.9827C128.558 51.8355 128.584 51.683 128.59 51.5254C128.6 51.2365 128.519 50.9883 128.346 50.7805C128.172 50.5729 127.879 50.4615 127.466 50.4467C127.008 50.4301 126.602 50.5531 126.244 50.8157C125.886 51.0786 125.615 51.4301 125.431 51.8702C126.661 51.9169 127.277 51.9395 128.509 51.9827Z" fill="black"/>
<path d="M132.788 49.1537C133.589 49.179 133.99 49.1908 134.791 49.2144C134.704 49.5036 134.659 49.6484 134.572 49.9376C134.834 49.7193 135.117 49.5283 135.42 49.3629C135.724 49.1975 136.072 49.1201 136.467 49.1312C136.95 49.1446 137.345 49.2676 137.651 49.502C137.957 49.7364 138.306 50.4462 138.306 50.4462C138.368 50.4588 138.996 49.7861 139.423 49.5619C139.851 49.3377 140.332 49.2319 140.868 49.2445C141.501 49.2595 141.995 49.4523 142.351 49.824C142.708 50.1957 142.879 50.7005 142.865 51.3396C142.861 51.5413 142.832 51.758 142.779 51.9887C142.725 52.2199 142.665 52.4484 142.599 52.6748C142.159 54.1791 141.937 54.931 141.494 56.4351C140.688 56.4166 140.285 56.4066 139.479 56.3865C139.936 54.8483 140.164 54.0795 140.618 52.541C140.646 52.4452 140.671 52.3378 140.691 52.2199C140.712 52.102 140.723 51.9991 140.725 51.9113C140.739 51.3324 140.434 51.0345 139.809 51.0192C139.413 51.0096 139.089 51.1307 138.836 51.3834C138.583 51.6361 138.394 51.9723 138.268 52.3904C137.799 53.9646 137.563 54.7517 137.091 56.325C136.284 56.3033 135.881 56.2923 135.075 56.2689C135.539 54.7329 135.771 53.9638 136.231 52.4272C136.26 52.3316 136.284 52.2247 136.305 52.1068C136.326 51.9889 136.338 51.8861 136.341 51.7983C136.357 51.2193 136.052 50.921 135.428 50.903C135.032 50.8917 134.707 51.0112 134.453 51.2631C134.199 51.515 134.008 51.8498 133.881 52.2671C133.405 53.8391 133.167 54.6249 132.688 56.1966C131.882 56.1714 131.479 56.1585 130.673 56.1319C131.524 53.341 131.947 51.9457 132.788 49.1537Z" fill="black"/>
<path d="M144.618 56.4947C144.368 56.3978 144.154 56.2619 143.976 56.0874C143.798 55.9128 143.66 55.7106 143.564 55.4807C143.467 55.2509 143.422 54.996 143.427 54.7154C143.436 54.3126 143.523 53.9546 143.688 53.6429C143.854 53.3311 144.075 53.0692 144.353 52.8558C144.63 52.6423 144.955 52.4847 145.328 52.3823C145.7 52.28 146.102 52.2325 146.533 52.2405C146.92 52.2475 147.275 52.2824 147.595 52.345C147.915 52.4073 148.225 52.4892 148.523 52.5905C148.534 52.5537 148.539 52.5359 148.55 52.4991C148.569 52.4207 148.589 52.3404 148.608 52.2574C148.627 52.1745 148.637 52.0802 148.639 51.9749C148.643 51.73 148.549 51.5289 148.358 51.3724C148.167 51.2161 147.821 51.1334 147.319 51.1245C146.977 51.1186 146.639 51.15 146.307 51.2185C145.976 51.287 145.682 51.371 145.425 51.4712C145.31 50.8382 145.253 50.5206 145.139 49.8876C145.511 49.7464 145.917 49.6336 146.358 49.5495C146.799 49.4655 147.271 49.4282 147.771 49.4368C148.729 49.4534 149.441 49.6537 149.91 50.0372C150.379 50.4209 150.608 50.9585 150.598 51.6503C150.595 51.8342 150.578 52.0139 150.544 52.1887C150.511 52.3635 150.471 52.5384 150.424 52.7126C149.984 54.2621 149.764 55.0363 149.321 56.5852C148.541 56.5731 148.151 56.567 147.371 56.5533C147.461 56.2291 147.506 56.0664 147.597 55.742C147.309 56.0436 146.987 56.2726 146.63 56.4281C146.273 56.5836 145.883 56.6574 145.458 56.6491C145.148 56.6435 144.868 56.5919 144.618 56.4947ZM146.95 55.1985C147.141 55.1276 147.316 55.0277 147.478 54.8993C147.639 54.771 147.779 54.6225 147.897 54.4533C148.014 54.2846 148.101 54.1036 148.157 53.9119C148.179 53.8389 148.19 53.8021 148.213 53.7288C148.037 53.656 147.836 53.5932 147.608 53.5411C147.379 53.489 147.142 53.4608 146.895 53.4565C146.472 53.449 146.124 53.5414 145.851 53.7334C145.578 53.9251 145.439 54.1915 145.432 54.533C145.428 54.7522 145.508 54.9332 145.673 55.0763C145.838 55.2194 146.062 55.2938 146.345 55.2989C146.557 55.3029 146.758 55.2696 146.95 55.1985Z" fill="black"/>
<path d="M153.132 49.5949C153.933 49.6046 154.334 49.6094 155.135 49.6175C154.347 52.4269 153.951 53.8311 153.153 56.6386C152.347 56.629 151.944 56.6242 151.137 56.6129C151.94 53.8069 152.339 52.4025 153.132 49.5949ZM153.807 47.0535C154.648 47.0631 155.068 47.0682 155.91 47.0763C155.709 47.7839 155.609 48.1376 155.407 48.8451C154.564 48.8368 154.142 48.8309 153.299 48.821C153.502 48.1142 153.604 47.7608 153.807 47.0535Z" fill="black"/>
<path d="M157.815 47.0923C158.615 47.0985 159.014 47.1014 159.813 47.1062C158.936 50.2989 158.052 53.4896 157.159 56.6781C156.352 56.6717 155.949 56.6685 155.142 56.6604C156.041 53.4729 156.933 50.2841 157.815 47.0923Z" fill="black"/>
<path d="M164.407 56.7068C164.156 56.6145 163.939 56.4834 163.758 56.3124C163.577 56.141 163.436 55.9413 163.335 55.7135C163.234 55.4858 163.184 55.2315 163.185 54.9509C163.186 54.5481 163.266 54.1893 163.426 53.8743C163.585 53.5593 163.802 53.2921 164.075 53.0738C164.348 52.8555 164.67 52.6925 165.04 52.5832C165.411 52.4742 165.811 52.4189 166.243 52.4189C166.63 52.4189 166.985 52.4473 167.307 52.5037C167.628 52.5601 167.939 52.6358 168.239 52.7314C168.249 52.6946 168.254 52.6769 168.264 52.6399C168.282 52.5612 168.3 52.4804 168.317 52.3971C168.334 52.3139 168.343 52.2193 168.343 52.1141C168.342 51.8692 168.245 51.6697 168.051 51.5166C167.857 51.3638 167.509 51.2878 167.008 51.2884C166.665 51.2886 166.329 51.3265 165.998 51.4009C165.669 51.4752 165.377 51.5644 165.121 51.6694C164.995 51.0383 164.931 50.7231 164.805 50.092C165.175 49.9435 165.579 49.8235 166.019 49.7314C166.457 49.6393 166.927 49.5933 167.428 49.5925C168.385 49.5912 169.102 49.7775 169.578 50.1524C170.054 50.5273 170.293 51.0612 170.296 51.7529C170.297 51.9369 170.283 52.1165 170.252 52.2918C170.222 52.4672 170.185 52.6423 170.142 52.8176C169.73 54.3749 169.524 55.1536 169.109 56.7103C168.329 56.7127 167.94 56.7141 167.159 56.7149C167.244 56.3889 167.286 56.2253 167.37 55.8993C167.088 56.2063 166.77 56.4415 166.417 56.6037C166.063 56.7659 165.674 56.8465 165.249 56.8462C164.94 56.8459 164.659 56.799 164.407 56.7068ZM166.714 55.3679C166.904 55.2935 167.078 55.1907 167.237 55.0591C167.396 54.9275 167.532 54.7763 167.647 54.6053C167.761 54.4345 167.845 54.2519 167.897 54.0594C167.918 53.9858 167.928 53.949 167.949 53.8751C167.773 53.8053 167.57 53.7468 167.341 53.699C167.111 53.6509 166.873 53.6267 166.626 53.627C166.203 53.6273 165.857 53.7261 165.588 53.9235C165.319 54.1203 165.185 54.3891 165.184 54.7307C165.184 54.9498 165.268 55.1295 165.436 55.2696C165.603 55.4095 165.829 55.4802 166.111 55.4802C166.324 55.4799 166.524 55.4426 166.714 55.3679Z" fill="black"/>
<path d="M172.699 49.6514C173.5 49.6463 173.9 49.6425 174.701 49.6358C174.625 49.9282 174.586 50.0746 174.51 50.3668C174.763 50.1388 175.047 49.9371 175.362 49.7604C175.677 49.5837 176.031 49.4932 176.427 49.4892C177.059 49.483 177.566 49.6594 177.948 50.0187C178.33 50.378 178.524 50.877 178.532 51.5164C178.534 51.718 178.513 51.9353 178.467 52.1675C178.421 52.4004 178.37 52.6313 178.31 52.8596C177.921 54.3779 177.726 55.1365 177.333 56.6542C176.527 56.6628 176.123 56.6666 175.317 56.6736C175.723 55.1212 175.924 54.3448 176.327 52.7922C176.352 52.6955 176.374 52.5878 176.39 52.4694C176.406 52.351 176.414 52.2473 176.413 52.1595C176.41 51.8786 176.322 51.6643 176.149 51.5164C175.976 51.3687 175.736 51.2961 175.428 51.2988C175.032 51.3023 174.708 51.4345 174.455 51.6957C174.202 51.957 174.019 52.2991 173.908 52.721C173.492 54.3099 173.283 55.1043 172.863 56.6926C172.057 56.698 171.653 56.6996 170.847 56.7034C171.593 53.8835 171.963 52.4731 172.699 49.6514Z" fill="black"/>
<path d="M181.277 56.5327C180.944 56.4017 180.652 56.2088 180.401 55.9537C180.149 55.6989 179.953 55.3837 179.812 55.009C179.67 54.6344 179.596 54.2099 179.59 53.7372C179.582 53.1153 179.685 52.5404 179.899 52.0122C180.112 51.484 180.398 51.0264 180.757 50.6402C181.117 50.2543 181.528 49.9525 181.991 49.7352C182.453 49.518 182.934 49.4055 183.435 49.3971C183.988 49.388 184.44 49.486 184.791 49.6917C185.142 49.8977 185.435 50.1743 185.67 50.5234C186.023 49.0835 186.199 48.3636 186.549 46.9234C187.348 46.9078 187.748 46.8995 188.547 46.8826C187.761 50.0986 186.967 53.3122 186.165 56.5241C185.359 56.5394 184.956 56.5467 184.149 56.5604C184.229 56.2516 184.269 56.0974 184.348 55.7886C184.044 56.0759 183.736 56.3012 183.425 56.4656C183.114 56.6299 182.759 56.7156 182.361 56.7215C181.972 56.7271 181.61 56.6635 181.277 56.5327ZM183.968 54.8106C184.226 54.6804 184.453 54.502 184.647 54.2767C184.842 54.0514 184.996 53.7896 185.11 53.4915C185.224 53.1935 185.277 52.8793 185.271 52.5482C185.263 52.1048 185.116 51.7487 184.83 51.4799C184.543 51.2106 184.176 51.0801 183.727 51.0876C183.454 51.0922 183.194 51.1577 182.945 51.2834C182.696 51.4093 182.476 51.5838 182.286 51.8086C182.096 52.0334 181.944 52.2973 181.83 52.5989C181.715 52.9007 181.66 53.226 181.666 53.574C181.672 54.0351 181.812 54.3922 182.085 54.6444C182.358 54.8965 182.72 55.0192 183.17 55.012C183.443 55.0077 183.71 54.9411 183.968 54.8106Z" fill="black"/>
<path d="M194.419 47.1344C195.229 47.1127 195.633 47.102 196.443 47.0786C195.857 49.5499 195.264 52.0197 194.669 54.4888C196.517 54.4389 197.441 54.4117 199.289 54.354C199.111 55.0957 199.021 55.4671 198.842 56.2085C196.175 56.291 194.841 56.3272 192.173 56.393C192.928 53.3083 193.677 50.2221 194.419 47.1344Z" fill="black"/>
<path d="M202.024 49.0588C202.825 49.0314 203.224 49.018 204.025 48.989C203.368 51.8317 203.036 53.2525 202.368 56.0936C201.562 56.1212 201.159 56.1347 200.353 56.1607C201.026 53.3207 201.361 51.9001 202.024 49.0588ZM202.58 46.4895C203.421 46.4605 203.842 46.4454 204.683 46.4146C204.514 47.1307 204.429 47.4884 204.26 48.2046C203.418 48.2349 202.997 48.2494 202.155 48.2782C202.326 47.5625 202.411 47.2054 202.58 46.4895Z" fill="black"/>
<path d="M205.908 48.9196C206.709 48.8895 207.109 48.8739 207.91 48.8423C207.842 49.1368 207.808 49.2842 207.74 49.5786C207.986 49.3428 208.265 49.132 208.574 48.9456C208.882 48.7593 209.235 48.6583 209.63 48.6419C210.261 48.6158 210.773 48.7756 211.166 49.1226C211.559 49.4695 211.77 49.9629 211.798 50.6017C211.807 50.8031 211.792 51.0212 211.753 51.2548C211.715 51.489 211.669 51.7202 211.618 51.9503C211.276 53.4799 211.104 54.245 210.759 55.7743C209.953 55.8081 209.551 55.825 208.745 55.8575C209.102 54.293 209.279 53.5108 209.633 51.946C209.656 51.8485 209.673 51.7398 209.686 51.6208C209.699 51.5021 209.703 51.3987 209.699 51.3109C209.688 51.0303 209.593 50.8184 209.416 50.6761C209.239 50.534 208.996 50.4693 208.688 50.4817C208.292 50.4978 207.972 50.6401 207.728 50.9089C207.483 51.178 207.311 51.5257 207.213 51.9511C206.846 53.5524 206.662 54.3526 206.292 55.9534C205.486 55.9837 205.083 55.9982 204.277 56.027C204.935 53.1842 205.261 51.7629 205.908 48.9196Z" fill="black"/>
<path d="M214.639 46.0027C215.437 45.9659 215.836 45.9471 216.635 45.9087C216.194 47.9187 215.972 48.9238 215.527 50.9333C216.627 49.9139 217.176 49.4039 218.27 48.3816C219.313 48.3303 219.834 48.3035 220.877 48.2495C219.57 49.4171 218.915 50.0001 217.6 51.1634C218.301 52.8498 218.653 53.6924 219.359 55.3775C218.458 55.4226 218.007 55.4441 217.106 55.4873C216.647 54.3152 216.417 53.7298 215.959 52.5571C215.568 52.9016 215.372 53.0737 214.98 53.418C214.787 54.295 214.69 54.733 214.496 55.6101C213.69 55.6469 213.288 55.6651 212.482 55.7003C213.208 52.4695 213.929 49.2374 214.639 46.0027Z" fill="black"/>
<path d="M223.13 53.3605C223.4 53.596 223.798 53.6999 224.327 53.6707C224.592 53.6562 224.846 53.5982 225.088 53.4972C225.33 53.3962 225.59 53.2359 225.87 53.0184C226.268 53.491 226.467 53.7273 226.866 54.1991C226.563 54.4798 226.194 54.722 225.759 54.926C225.323 55.1301 224.8 55.2497 224.19 55.283C223.678 55.3109 223.214 55.2636 222.801 55.1412C222.387 55.0187 222.031 54.8315 221.735 54.5794C221.439 54.3275 221.205 54.012 221.036 53.6347C220.866 53.2579 220.769 52.8245 220.744 52.3344C220.718 51.8271 220.791 51.3169 220.962 50.804C221.134 50.2911 221.395 49.8257 221.742 49.4084C222.09 48.9911 222.515 48.6458 223.015 48.3735C223.515 48.1012 224.081 47.947 224.712 47.9118C225.168 47.8866 225.579 47.9342 225.947 48.0534C226.315 48.1726 226.629 48.3471 226.888 48.5775C227.148 48.8085 227.352 49.087 227.498 49.4116C227.644 49.7363 227.729 50.0956 227.752 50.4893C227.767 50.7428 227.751 51.007 227.705 51.2815C227.659 51.5562 227.587 51.8328 227.488 52.1102C225.549 52.2224 224.58 52.2761 222.64 52.3798C222.698 52.7979 222.861 53.125 223.13 53.3605ZM225.821 50.9557C225.856 50.8048 225.87 50.6504 225.861 50.493C225.844 50.2044 225.741 49.9643 225.55 49.7731C225.358 49.5822 225.055 49.4981 224.642 49.5209C224.185 49.5462 223.791 49.7062 223.459 50.0006C223.127 50.2949 222.889 50.6695 222.746 51.1244C223.976 51.0583 224.591 51.025 225.821 50.9557Z" fill="black"/>
<path d="M230.567 54.6846C230.228 54.5694 229.927 54.3903 229.665 54.147C229.402 53.904 229.192 53.5981 229.033 53.2308C228.875 52.8631 228.781 52.4426 228.753 51.9708C228.717 51.3497 228.794 50.7707 228.982 50.2331C229.171 49.6958 229.436 49.225 229.778 48.8228C230.119 48.4208 230.515 48.1001 230.967 47.8616C231.419 47.6234 231.896 47.4881 232.395 47.4567C232.948 47.4221 233.404 47.4997 233.764 47.689C234.124 47.8783 234.429 48.1406 234.68 48.4782C234.966 47.0235 235.109 46.2969 235.393 44.8419C236.191 44.7896 236.589 44.7627 237.387 44.7087C236.75 47.9572 236.105 51.2041 235.451 54.4494C234.646 54.5018 234.244 54.5273 233.439 54.5783C233.505 54.266 233.537 54.1102 233.602 53.7979C233.311 54.0992 233.014 54.3393 232.71 54.5176C232.407 54.6959 232.056 54.798 231.659 54.8224C231.27 54.8466 230.907 54.7998 230.567 54.6846ZM233.176 52.8398C233.428 52.6977 233.646 52.5095 233.83 52.2753C234.014 52.0414 234.157 51.7724 234.257 51.4694C234.357 51.1665 234.396 50.8499 234.375 50.5199C234.347 50.0776 234.182 49.7283 233.884 49.4731C233.585 49.2175 233.212 49.1039 232.764 49.1321C232.491 49.1493 232.234 49.2266 231.992 49.3636C231.749 49.5011 231.538 49.6858 231.358 49.9192C231.179 50.1525 231.038 50.4232 230.938 50.7299C230.837 51.0368 230.797 51.3636 230.819 51.7111C230.846 52.1714 231.003 52.5221 231.287 52.7614C231.572 53.0007 231.939 53.1062 232.388 53.0782C232.661 53.0613 232.924 52.9821 233.176 52.8398Z" fill="black"/>
<path d="M239.421 44.9639C240.23 44.9075 240.634 44.879 241.442 44.821C240.838 47.9387 240.227 51.0553 239.608 54.1701C238.793 54.2265 238.385 54.2542 237.57 54.3092C238.195 51.1955 238.813 48.0805 239.421 44.9639Z" fill="black"/>
<path d="M243.107 46.8617C243.906 46.8035 244.307 46.7739 245.106 46.7141C245.049 47.0105 245.021 47.1587 244.964 47.4555C245.201 47.2114 245.471 46.9912 245.774 46.7941C246.076 46.597 246.424 46.4828 246.818 46.4528C247.449 46.4044 247.967 46.5473 248.372 46.8803C248.777 47.2133 249.005 47.698 249.055 48.3355C249.071 48.5366 249.064 48.7544 249.034 48.9894C249.004 49.2249 248.966 49.4582 248.922 49.69C248.634 51.2305 248.489 52.0007 248.198 53.5413C247.394 53.6033 246.991 53.635 246.187 53.6954C246.489 52.1194 246.639 51.3304 246.938 49.7544C246.957 49.6561 246.971 49.5471 246.98 49.4276C246.988 49.3081 246.989 49.2052 246.982 49.1177C246.961 48.8376 246.859 48.6298 246.676 48.4936C246.494 48.3577 246.249 48.3011 245.942 48.3244C245.547 48.3543 245.232 48.5084 244.996 48.7858C244.761 49.0632 244.601 49.4163 244.518 49.8446C244.208 51.4577 244.053 52.2638 243.739 53.8767C242.935 53.9355 242.532 53.9647 241.727 54.0219C242.284 51.1583 242.56 49.7262 243.107 46.8617Z" fill="black"/>
<path d="M255.185 45.9111C255.984 45.8437 256.383 45.8093 257.182 45.7403C257.078 46.3188 257.027 46.6082 256.923 47.1869C257.237 46.6324 257.595 46.199 257.996 45.8872C258.397 45.5754 258.888 45.4165 259.47 45.4087C259.318 46.261 259.241 46.6869 259.088 47.5393C259.046 47.543 259.025 47.5449 258.982 47.5484C258.316 47.6069 257.754 47.858 257.297 48.3019C256.84 48.7458 256.527 49.4365 256.359 50.3734C256.174 51.3914 256.081 51.9009 255.895 52.9186C255.091 52.9866 254.689 53.0204 253.885 53.087C254.411 50.2171 254.671 48.7818 255.185 45.9111Z" fill="black"/>
<path d="M262.171 50.542C262.449 50.7676 262.851 50.8556 263.379 50.807C263.643 50.7829 263.895 50.7166 264.133 50.6065C264.372 50.4964 264.626 50.3275 264.898 50.0995C265.313 50.5568 265.521 50.7853 265.937 51.2424C265.644 51.5337 265.285 51.7904 264.857 52.0104C264.428 52.2303 263.91 52.3683 263.302 52.4239C262.79 52.4709 262.325 52.4406 261.907 52.3332C261.489 52.2257 261.127 52.0517 260.821 51.8108C260.516 51.5702 260.271 51.2644 260.087 50.8935C259.904 50.5232 259.791 50.093 259.748 49.604C259.703 49.0978 259.757 48.5855 259.91 48.0661C260.063 47.5471 260.307 47.0736 260.639 46.6434C260.972 46.2133 261.383 45.8526 261.873 45.5618C262.364 45.2709 262.923 45.0972 263.554 45.0389C264.008 44.997 264.422 45.0284 264.794 45.1343C265.166 45.2403 265.486 45.4041 265.754 45.6249C266.022 45.8459 266.236 46.1158 266.395 46.4351C266.553 46.7544 266.651 47.1107 266.688 47.5033C266.712 47.7562 266.706 48.0199 266.671 48.296C266.635 48.5723 266.573 48.8508 266.484 49.1319C264.549 49.3156 263.582 49.4053 261.646 49.5799C261.718 49.9958 261.894 50.3164 262.171 50.542ZM264.773 48.0395C264.803 47.8876 264.811 47.7323 264.796 47.5755C264.769 47.2876 264.656 47.0519 264.458 46.8677C264.259 46.6837 263.955 46.6115 263.543 46.6493C263.087 46.6912 262.698 46.865 262.377 47.1711C262.055 47.4775 261.831 47.8607 261.704 48.3204C262.932 48.2101 263.546 48.1542 264.773 48.0395Z" fill="black"/>
<path d="M268.659 44.6867C269.457 44.6091 269.857 44.5699 270.654 44.4909C270.601 44.8024 270.573 44.9579 270.52 45.2694C270.798 44.9601 271.085 44.7119 271.38 44.524C271.675 44.3363 272.02 44.2227 272.413 44.1829C272.798 44.144 273.161 44.1754 273.503 44.2769C273.845 44.3784 274.151 44.5449 274.423 44.7769C274.694 45.0087 274.917 45.3054 275.091 45.6661C275.266 46.0267 275.378 46.4419 275.426 46.9123C275.49 47.531 275.439 48.1129 275.273 48.6583C275.108 49.2037 274.861 49.6847 274.535 50.1009C274.208 50.5174 273.822 50.8539 273.377 51.1101C272.931 51.3665 272.457 51.5204 271.956 51.5706C271.401 51.6259 270.939 51.5647 270.571 51.3883C270.202 51.2119 269.885 50.9581 269.622 50.6294C269.411 51.9103 269.306 52.5513 269.093 53.8322C268.288 53.9101 267.886 53.9485 267.08 54.025C267.612 50.913 268.14 47.8006 268.659 44.6867ZM272.29 49.6487C272.529 49.5018 272.734 49.3082 272.905 49.0673C273.076 48.8265 273.206 48.552 273.294 48.2448C273.383 47.9376 273.409 47.6051 273.373 47.2491C273.326 46.7888 273.155 46.4453 272.862 46.216C272.569 45.987 272.201 45.894 271.754 45.9389C271.473 45.9668 271.212 46.0565 270.97 46.2074C270.729 46.3586 270.52 46.5554 270.344 46.7963C270.169 47.0369 270.037 47.3108 269.947 47.618C269.857 47.9252 269.83 48.2435 269.862 48.5738C269.905 49.0169 270.08 49.3622 270.389 49.6081C270.697 49.8541 271.076 49.9546 271.524 49.91C271.796 49.8826 272.052 49.7956 272.29 49.6487Z" fill="black"/>
<path d="M278.007 41.1715C278.802 41.0869 279.2 41.044 279.996 40.9578C279.486 44.2304 278.966 47.5009 278.44 50.7709C277.637 50.856 277.236 50.8976 276.433 50.9811C276.964 47.7123 277.491 44.4428 278.007 41.1715Z" fill="black"/>
<path d="M281.556 43.3522C282.353 43.2649 282.752 43.2203 283.549 43.1314C283.106 46.0152 282.881 47.4567 282.427 50.3403C281.624 50.4283 281.223 50.4724 280.42 50.5588C280.879 47.6764 281.107 46.2352 281.556 43.3522ZM281.918 40.7474C282.756 40.655 283.174 40.6094 284.011 40.5154C283.897 41.242 283.839 41.6051 283.725 42.3318C282.886 42.4257 282.467 42.4725 281.628 42.5646C281.745 41.8379 281.803 41.4738 281.918 40.7474Z" fill="black"/>
<path d="M287.024 47.9943C287.307 48.2132 287.712 48.2916 288.239 48.2309C288.502 48.2005 288.752 48.1283 288.988 48.0126C289.224 47.8968 289.475 47.7223 289.742 47.4881C290.168 47.9358 290.38 48.1584 290.807 48.6055C290.521 48.9036 290.167 49.1694 289.744 49.3993C289.321 49.6292 288.805 49.7801 288.198 49.8501C287.688 49.909 287.222 49.8888 286.801 49.7913C286.381 49.6939 286.015 49.5284 285.704 49.2948C285.393 49.0615 285.14 48.7607 284.948 48.3942C284.756 48.0284 284.632 47.6012 284.578 47.1135C284.521 46.6087 284.564 46.0953 284.705 45.5727C284.846 45.0504 285.077 44.5703 285.4 44.1325C285.723 43.6948 286.127 43.3259 286.61 43.0238C287.094 42.7217 287.65 42.5334 288.279 42.4601C288.733 42.4075 289.146 42.4298 289.521 42.5267C289.896 42.6237 290.22 42.7799 290.494 42.9942C290.767 43.2088 290.987 43.4736 291.153 43.7888C291.319 44.1041 291.425 44.458 291.471 44.8495C291.501 45.1017 291.501 45.3664 291.472 45.6433C291.442 45.9202 291.387 46.2 291.305 46.483C289.374 46.7121 288.408 46.8243 286.476 47.0445C286.558 47.4591 286.741 47.7755 287.024 47.9943ZM289.568 45.4314C289.595 45.2787 289.599 45.1237 289.581 44.9672C289.547 44.6801 289.43 44.4475 289.227 44.2682C289.024 44.089 288.717 44.023 288.305 44.0708C287.851 44.1234 287.466 44.3066 287.151 44.6205C286.837 44.9344 286.622 45.323 286.507 45.7856C287.731 45.6457 288.343 45.5748 289.568 45.4314Z" fill="black"/>
<path d="M294.415 49.0352C294.119 49.0182 293.825 48.9739 293.536 48.9031C293.246 48.8322 292.966 48.7336 292.692 48.6077C292.418 48.4815 292.163 48.3222 291.926 48.1305C292.334 47.6001 292.537 47.3351 292.944 46.8045C293.356 47.1254 293.759 47.3281 294.152 47.413C294.545 47.4978 294.9 47.5206 295.216 47.4822C295.479 47.45 295.679 47.3722 295.816 47.2494C295.952 47.127 296.008 46.9661 295.984 46.7658C295.967 46.6358 295.879 46.5289 295.718 46.4473C295.557 46.3657 295.344 46.2851 295.088 46.2139C294.797 46.1331 294.516 46.0474 294.256 45.951C293.995 45.8546 293.76 45.7395 293.553 45.606C293.346 45.4723 293.176 45.3093 293.042 45.1181C292.908 44.9271 292.824 44.693 292.79 44.4148C292.749 44.067 292.776 43.7348 292.871 43.419C292.966 43.103 293.121 42.8221 293.335 42.5756C293.549 42.3293 293.823 42.1215 294.157 41.9529C294.49 41.7845 294.876 41.6738 295.313 41.6201C295.601 41.5847 295.881 41.5783 296.155 41.6019C296.428 41.6258 296.691 41.6704 296.943 41.7359C297.195 41.8014 297.426 41.8803 297.637 41.973C297.848 42.0659 298.037 42.1687 298.202 42.2807C297.835 42.8352 297.651 43.1119 297.282 43.6661C296.908 43.4392 296.564 43.2875 296.253 43.2112C295.942 43.1352 295.642 43.1156 295.353 43.1508C295.108 43.1808 294.925 43.2558 294.803 43.3766C294.68 43.4972 294.629 43.6495 294.652 43.8315C294.669 43.9712 294.764 44.0853 294.939 44.1739C295.114 44.2625 295.363 44.3517 295.673 44.4473C295.911 44.5206 296.157 44.6052 296.402 44.6892C296.648 44.7733 296.872 44.882 297.076 45.0155C297.279 45.1489 297.451 45.3111 297.59 45.5013C297.73 45.6911 297.816 45.9213 297.849 46.1906C297.897 46.5733 297.867 46.9253 297.761 47.2478C297.654 47.5703 297.486 47.8539 297.257 48.0983C297.028 48.3429 296.744 48.543 296.402 48.6998C296.059 48.8566 295.677 48.9619 295.255 49.0132C294.991 49.0451 294.711 49.0523 294.415 49.0352Z" fill="black"/>
<path d="M29.6339 10.0562C32.1936 10.289 33.4735 10.4015 36.0349 10.6203C33.7836 16.9774 31.5056 23.3245 29.201 29.6621C26.5999 29.4285 25.3 29.3077 22.7008 29.0595C25.0373 22.7342 27.3481 16.3997 29.6339 10.0562Z" fill="black"/>
<path d="M38.1699 10.7998C40.5676 10.9999 41.7673 11.097 44.1666 11.285C45.3853 14.5039 46.6166 17.7183 47.8546 20.93C48.9051 17.8886 49.9502 14.8453 50.9878 11.7993C53.5306 11.9832 54.8025 12.0716 57.3466 12.2415C55.2051 18.6383 53.0395 25.0265 50.8467 31.4058C48.5298 31.2406 47.3722 31.1555 45.0563 30.9788C43.7582 27.6294 42.4693 24.2765 41.1916 20.9192C40.0751 24.0831 38.9524 27.2454 37.8214 30.4042C35.2403 30.1912 33.95 30.0816 31.3704 29.8547C33.6613 23.512 35.9305 17.1617 38.1699 10.7998Z" fill="black"/>
<path d="M69.1312 32.0363C67.733 32.5462 66.2305 32.7903 64.6735 32.703C59.6139 32.42 55.1879 28.5638 55.5554 23.2428C55.9804 17.0879 61.4246 12.1541 67.6 12.489C72.6247 12.7616 77.014 16.6121 76.728 21.855C76.5727 24.7069 75.3006 27.3962 73.2656 29.4036C73.7936 30.2038 74.0581 30.6039 74.5879 31.4036C72.8608 32.4125 71.9951 32.9157 70.2608 33.9182C69.8083 33.166 69.5821 32.7895 69.1312 32.0363ZM65.717 27.2204C65.0614 26.2184 64.7352 25.7171 64.082 24.7144C65.8088 23.7211 66.6699 23.2224 68.3897 22.2229C68.8976 23.0803 69.1513 23.5095 69.6607 24.3664C69.9756 23.684 70.1543 22.9383 70.1932 22.2124C70.3102 20.0354 69.1226 18.3128 66.8392 18.2129C64.1054 18.0936 62.1972 20.6219 62.0317 23.1885C61.8919 25.3551 63.0516 27.0625 65.3841 27.2002C65.4955 27.2072 65.606 27.2136 65.717 27.2204Z" fill="black"/>
<path d="M77.4859 26.3428C77.5442 25.3495 77.7247 24.2555 78.0517 23.2077C79.0724 20.0027 80.0838 16.795 81.0884 13.585C83.7037 13.7061 85.012 13.7619 87.6286 13.8685C86.5996 17.2228 85.5611 20.5744 84.5149 23.9233C84.3526 24.476 84.2466 25.0034 84.2279 25.4505C84.1595 27.0703 85.0691 27.9497 86.7932 28.0201C87.5996 28.0531 88.362 27.8042 88.9103 27.2942C89.5166 26.7303 89.9337 25.9908 90.4056 24.498C91.4684 21.0331 92.5241 17.566 93.5673 14.0952C96.185 14.1884 97.4943 14.2313 100.113 14.3097C98.9824 18.1178 97.8442 21.9235 96.6974 25.7268C95.9205 28.3028 94.8523 30.2218 93.4407 31.4909C91.3649 33.3572 88.3247 33.8798 85.6096 33.7638C81.3644 33.5823 77.2078 31.0948 77.4859 26.3428Z" fill="black"/>
<path d="M102.095 14.3677C104.67 14.4404 105.958 14.4726 108.534 14.5309C106.662 21.0163 104.764 27.4939 102.84 33.9645C100.223 33.8934 98.915 33.8547 96.299 33.769C98.258 27.31 100.189 20.8429 102.095 14.3677Z" fill="black"/>
<path d="M110.682 14.5784C113.188 14.6297 115.693 14.6759 118.199 14.7108C120.636 14.6952 123.513 15.1111 125.289 16.8875C126.356 17.9555 126.778 19.4552 126.779 20.9808C126.781 24.3066 124.474 26.9597 121.299 27.8069C122.348 30.4249 122.876 31.7337 123.935 34.3492C121.113 34.3229 119.702 34.306 116.881 34.2631C116.044 32.0135 115.627 30.8881 114.797 28.637C114.151 28.626 113.828 28.6203 113.182 28.6088C112.539 30.8336 112.216 31.9459 111.566 34.1699C108.948 34.1183 107.639 34.0885 105.022 34.0222C106.935 27.5486 108.822 21.0675 110.682 14.5784ZM116.847 24.0015C119.012 24.0348 120.163 23.041 120.178 21.8116C120.183 21.4204 120.049 21.0549 119.776 20.7718C119.421 20.404 118.787 20.1994 117.874 20.1859C116.955 20.1725 116.496 20.1655 115.577 20.1502C115.143 21.6752 114.926 22.4379 114.489 23.9623C115.432 23.979 115.904 23.987 116.847 24.0015Z" fill="black"/>
<path d="M130.376 14.8223C132.955 14.8322 134.245 14.8335 136.825 14.8292C135.104 21.359 133.354 27.8809 131.579 34.3961C128.957 34.3888 127.647 34.381 125.027 34.359C126.836 27.8537 128.62 21.342 130.376 14.8223Z" fill="black"/>
<path d="M138.975 14.8237C144.464 14.7971 149.951 14.7396 155.439 14.6494C154.901 16.8063 154.631 17.8852 154.088 20.0413C150.7 20.095 147.311 20.1383 143.922 20.1635C143.717 20.9592 143.615 21.3569 143.409 22.1523C146.572 22.1289 149.735 22.0935 152.898 22.0449C152.425 23.9421 152.188 24.8919 151.71 26.7888C148.535 26.8328 145.361 26.8653 142.185 26.8855C141.956 27.7367 141.841 28.1629 141.61 29.0141C145.07 28.994 148.529 28.9594 151.989 28.9097C151.447 31.0647 151.175 32.1426 150.628 34.2973C145.006 34.3628 139.385 34.3988 133.763 34.4007C135.526 27.8815 137.264 21.3563 138.975 14.8237Z" fill="black"/>
<path d="M152.55 31.1098C154.024 29.2982 154.758 28.3909 156.222 26.5748C158.482 28.4075 160.791 29.2531 162.857 29.204C163.695 29.1841 164.274 28.8621 164.261 28.3033C164.247 27.6886 163.821 27.3951 161.014 26.5068C158.53 25.7208 155.59 24.1378 155.603 21.1061C155.623 16.6237 160.182 14.1537 164.176 14.0715C167.243 14.0084 170.427 14.8202 172.875 16.7577C171.448 18.5942 170.732 19.5112 169.294 21.3434C167.79 20.1852 165.687 19.2645 163.636 19.3147C162.806 19.3351 162.229 19.5719 162.241 20.131C162.254 20.718 162.714 20.9097 165.387 21.7591C167.919 22.5631 170.891 24.1496 170.963 27.2222C171.075 31.9403 166.439 34.4109 162.269 34.4761C158.783 34.5304 155.222 33.4334 152.55 31.1098Z" fill="black"/>
</svg>
