<svg width="171" height="67" viewBox="0 0 171 67" fill="none" xmlns="http://www.w3.org/2000/svg">
<path d="M170.517 1.02955L134.497 61.5807C134.497 61.5807 111.474 66.9781 85.334 66.9781C57.238 66.9781 36.0432 61.5807 36.0432 61.5807L0.0949707 0.986328C3.80067 4.35703 40.5477 7.00448 85.3313 7.00448C129.917 7.00421 166.533 4.38109 170.517 1.02955Z" fill="#D2292C"/>
<path d="M170.517 0.986328L134.633 61.3126C134.633 61.3126 120.862 64.5418 102.545 65.9932L132.014 5.88511C153.337 4.82012 168.076 3.04049 170.517 0.986328Z" fill="#DC585A"/>
<path d="M30.4846 10.6902C33.2978 10.8532 36.1118 11.0022 38.9263 11.1408C41.8675 11.1915 46.2089 12.2254 46.0137 15.9643C45.8943 18.2533 41.2947 20.7791 41.2947 20.7791C41.2921 20.8382 44.3448 22.7257 44.2705 24.6785C44.0827 29.6161 38.4252 29.9727 34.7461 30.0399C31.2193 29.8562 27.6936 29.6515 24.1687 29.4305C26.3016 23.193 28.4059 16.946 30.4846 10.6902ZM35.1911 25.2309C36.7661 25.3131 37.7388 24.6769 37.786 23.7234C37.8262 22.9067 37.1564 22.4916 35.7783 22.4204C34.6653 22.3629 34.1087 22.3339 32.9959 22.2732C32.6258 23.389 32.4404 23.9473 32.0683 25.0631C33.317 25.1321 33.9421 25.1659 35.1911 25.2309ZM37.2425 18.5645C38.8893 18.6474 39.6654 17.9466 39.7045 17.1291C39.7423 16.3397 39.1562 15.9847 37.7878 15.9165C36.7258 15.8636 36.1949 15.8362 35.1329 15.7803C34.7922 16.8324 34.621 17.3585 34.2787 18.4106C35.4644 18.474 36.0568 18.5046 37.2425 18.5645Z" fill="black"/>
<path d="M46.302 22.3064C46.5743 16.219 51.9243 11.3566 57.9801 11.5035C62.9004 11.623 67.4054 15.1859 67.2936 20.3767C67.1602 26.5619 61.7263 31.4528 55.6211 31.2906C50.6678 31.1587 46.0667 27.5673 46.302 22.3064ZM60.818 20.8021C60.8705 18.7851 59.679 17.1737 57.3774 17.1052C54.6927 17.0254 52.8774 19.5803 52.7953 21.978C52.7264 23.9945 53.9158 25.6194 56.2376 25.6903C58.9461 25.7732 60.7557 23.2001 60.818 20.8021Z" fill="black"/>
<path d="M68.2072 22.957C68.3429 16.8644 73.5855 11.8836 79.6401 11.8965C84.5599 11.9073 89.1426 15.3657 89.1474 20.5589C89.153 26.7494 83.83 31.7563 77.722 31.731C72.7652 31.7109 68.0897 28.2246 68.2072 22.957ZM82.684 21.1285C82.6915 19.1107 81.4645 17.5274 79.1623 17.5103C76.4765 17.4904 74.7189 20.0841 74.6902 22.4835C74.666 24.501 75.8912 26.0986 78.2137 26.1179C80.9229 26.1407 82.6749 23.5276 82.684 21.1285Z" fill="black"/>
<path d="M93.2112 12.2772C95.7628 12.2595 97.0384 12.2463 99.5898 12.2117C98.8856 14.9588 98.5312 16.3324 97.8163 19.0782C99.9141 16.772 102.005 14.4599 104.087 12.1397C106.677 12.0919 109.266 12.0358 111.855 11.9668C109.022 14.9524 106.174 17.9232 103.311 20.88C104.711 24.3122 106.123 27.7388 107.547 31.161C104.78 31.2203 103.396 31.2442 100.627 31.284C99.6587 28.8438 99.1767 27.6233 98.2193 25.1807C97.1492 26.2624 96.6124 26.8023 95.5364 27.8813C95.1727 29.2697 94.9906 29.9646 94.6241 31.3527C92.0223 31.3745 90.721 31.3812 88.1191 31.3857C89.8438 25.0233 91.5407 18.6542 93.2112 12.2772Z" fill="black"/>
<path d="M112.78 11.9425C118.204 11.7868 123.626 11.5945 129.047 11.3633C128.572 13.4801 128.334 14.5392 127.853 16.6556C124.502 16.7968 121.152 16.9219 117.8 17.031C117.616 17.8116 117.524 18.2013 117.34 18.9822C120.47 18.8844 123.599 18.77 126.728 18.64C126.309 20.502 126.099 21.4328 125.676 23.2943C122.533 23.4208 119.389 23.5303 116.244 23.6262C116.037 24.4616 115.934 24.8792 115.726 25.7146C119.154 25.6115 122.581 25.4917 126.007 25.3545C125.528 27.4695 125.286 28.5272 124.801 30.6417C119.226 30.8482 113.651 31.0179 108.074 31.1498C109.668 24.7535 111.239 18.3522 112.78 11.9425Z" fill="black"/>
<path d="M131.116 11.2703C133.818 11.1455 135.169 11.0786 137.87 10.9352C140.508 10.7421 143.438 11.1785 145.48 12.9594C146.983 14.271 147.759 16.097 147.905 18.4091C148.084 21.2416 147.103 24.0162 145.196 26.1145C142.665 28.8992 138.881 30.037 135.215 30.1818C132.402 30.3217 129.587 30.4468 126.772 30.5628C128.247 24.1381 129.696 17.7074 131.116 11.2703ZM135.66 24.5906C137.62 24.4923 139.274 23.8298 140.213 22.7954C140.969 21.9618 141.475 20.6495 141.41 19.4789C141.351 18.444 141.012 17.7813 140.492 17.3186C139.856 16.753 138.878 16.4523 137.344 16.5326C136.917 16.5549 136.702 16.5656 136.275 16.5876C135.699 19.2751 135.115 21.9613 134.527 24.6464C134.98 24.6247 135.207 24.6131 135.66 24.5906Z" fill="black"/>
<path d="M35.2831 33.627C36.5504 33.7062 37.184 33.744 38.4515 33.8184C38.7681 37.4492 39.0854 41.0799 39.4122 44.7099C38.0376 44.6318 37.3503 44.591 35.976 44.5069C35.9377 43.9264 35.9189 43.6363 35.8808 43.056C34.5307 42.9733 33.8547 42.9309 32.5046 42.8428C32.1384 43.3971 31.9552 43.6742 31.5882 44.2279C30.1809 44.1345 29.4778 44.0861 28.071 43.9868C30.4961 40.5482 32.9005 37.0948 35.2831 33.627ZM35.8248 40.5009C35.7711 39.4522 35.7445 38.9276 35.6914 37.8787C35.0425 38.8841 34.7174 39.387 34.0655 40.3911C34.7694 40.4362 35.1209 40.4576 35.8248 40.5009Z" fill="black"/>
<path d="M42.6965 34.1333C43.9806 34.202 44.6225 34.2351 45.9067 34.2987C47.6689 34.386 48.7341 34.8184 49.4168 35.6479C49.9026 36.2384 50.1226 37.0002 50.0931 37.844C49.9987 40.5277 48.1187 42.2455 45.0628 42.0919C44.5177 42.0642 44.2454 42.0514 43.7003 42.0229C43.3714 43.1736 43.2061 43.749 42.8762 44.8997C41.5845 44.8315 40.9391 44.7956 39.6475 44.7225C40.6722 41.1956 41.6881 37.6656 42.6965 34.1333ZM45.0002 39.5234C46.2224 39.5849 46.8091 38.9981 46.8402 38.1855C46.8491 37.9554 46.7756 37.7212 46.6312 37.5451C46.4215 37.2892 46.0408 37.1791 45.6845 37.1611C45.4436 37.149 45.3235 37.1428 45.0823 37.1307C44.8197 38.0762 44.6874 38.5486 44.4237 39.4941C44.6542 39.5059 44.7698 39.5121 45.0002 39.5234Z" fill="black"/>
<path d="M51.7826 34.5698C53.067 34.6243 53.7092 34.6498 54.9936 34.699C56.7563 34.7669 57.8253 35.1877 58.515 36.0097C59.0057 36.5949 59.2329 37.3548 59.2106 38.1985C59.1398 40.883 57.2746 42.621 54.2181 42.5012C53.673 42.48 53.4002 42.4693 52.8551 42.447C52.5364 43.6014 52.3776 44.1785 52.0573 45.3329C50.7651 45.2792 50.118 45.2513 48.8261 45.1928C49.8203 41.6543 50.8045 38.1131 51.7826 34.5698ZM54.1325 39.9336C55.3552 39.9816 55.9366 39.3884 55.9604 38.5753C55.9671 38.3451 55.8917 38.1115 55.7461 37.9372C55.5339 37.6838 55.1524 37.5774 54.7962 37.5637C54.555 37.5543 54.4351 37.5495 54.1939 37.5401C53.9393 38.4883 53.8119 38.9625 53.5563 39.9107C53.7872 39.9201 53.902 39.9247 54.1325 39.9336Z" fill="black"/>
<path d="M59.4134 40.9534C59.5159 37.7691 61.8967 34.7786 65.2084 34.8138C67.9031 34.8422 69.9478 37.1109 69.8904 39.7995C69.822 43.0053 67.4202 46.0012 64.0938 45.962C61.3884 45.9303 59.3262 43.6611 59.4134 40.9534ZM66.653 40.0385C66.6747 38.9028 66.0749 37.9992 64.9238 37.9691C63.5803 37.9337 62.6827 39.3806 62.6519 40.7308C62.6256 41.8665 63.2246 42.7747 64.3813 42.8061C65.7307 42.8424 66.627 41.389 66.653 40.0385Z" fill="black"/>
<path d="M72.0503 35.2119C73.3355 35.2517 73.9788 35.2737 75.2672 35.318C74.3645 38.8723 73.4565 42.4256 72.5377 45.9759C71.2385 45.9348 70.5896 45.9144 69.2939 45.8789C70.2207 42.3251 71.1371 38.7689 72.0503 35.2119Z" fill="black"/>
<path d="M76.3418 35.3547C77.5484 35.3966 78.1525 35.4181 79.3608 35.4611C80.2238 37.5428 80.6573 38.5833 81.5294 40.6645C82.0385 38.6314 82.2923 37.6147 82.7968 35.5811C84.078 35.6252 84.7197 35.6469 86.0015 35.6875C85.1334 39.2426 84.2565 42.7958 83.3707 46.3467C82.2099 46.3075 81.63 46.2876 80.47 46.2471C79.5569 44.0776 79.1032 42.9927 78.2002 40.8237C77.6621 42.9419 77.3909 44.001 76.8477 46.12C75.556 46.0752 74.9104 46.0524 73.6214 46.0102C74.537 42.4607 75.4418 38.9083 76.3418 35.3547Z" fill="black"/>
<path d="M88.798 38.8109C87.6566 38.7789 87.0857 38.761 85.9443 38.725C86.2391 37.5187 86.3858 36.9158 86.6785 35.7092C89.6508 35.7944 92.622 35.8661 95.5949 35.9184C95.313 37.1301 95.1724 37.7359 94.8886 38.9468C93.7491 38.929 93.1787 38.9175 92.0381 38.8922C91.4281 41.4471 90.8137 44.0006 90.1949 46.5533C88.889 46.52 88.2355 46.5012 86.9293 46.4615C87.5557 43.912 88.1802 41.3622 88.798 38.8109Z" fill="black"/>
<path d="M96.2988 35.9281C97.572 35.9434 98.208 35.9472 99.4787 35.9501C99.9592 37.4614 100.2 38.216 100.684 39.7257C101.855 38.2133 102.438 37.4552 103.598 35.9297C105.007 35.9117 105.709 35.895 107.114 35.8601C106.327 39.4617 105.532 43.0611 104.727 46.6587C103.438 46.6804 102.792 46.6866 101.499 46.6925C101.985 44.5601 102.227 43.4927 102.707 41.3578C101.473 42.8979 100.853 43.6643 99.6059 45.1903C99.5837 45.1903 99.5726 45.1898 99.5504 45.1898C99.0101 43.66 98.7405 42.8952 98.2035 41.3629C97.7123 43.4903 97.4657 44.5528 96.9687 46.678C95.6939 46.6651 95.0558 46.6554 93.7791 46.6321C94.629 43.0665 95.4683 39.4982 96.2988 35.9281Z" fill="black"/>
<path d="M108.152 35.8336C110.873 35.7627 113.593 35.6781 116.313 35.5801C116.062 36.7686 115.936 37.3631 115.684 38.5511C113.672 38.622 112.667 38.6543 110.654 38.7128C110.56 39.1519 110.512 39.3705 110.417 39.8095C112.294 39.7555 113.233 39.7255 115.11 39.661C114.891 40.7067 114.781 41.2301 114.561 42.2755C112.68 42.3389 111.74 42.3673 109.858 42.4199C109.753 42.8896 109.7 43.1246 109.594 43.5942C111.643 43.5376 112.669 43.5062 114.718 43.4369C114.468 44.6246 114.343 45.2192 114.092 46.4069C111.321 46.4982 108.55 46.5758 105.779 46.6387C106.578 43.0387 107.371 39.4376 108.152 35.8336Z" fill="black"/>
<path d="M117.352 35.5419C118.549 35.4973 119.148 35.4737 120.345 35.4245C121.28 37.438 121.75 38.4452 122.694 40.456C123.118 38.3856 123.328 37.3493 123.747 35.2784C125.015 35.2212 125.649 35.1919 126.916 35.1296C126.199 38.7503 125.471 42.3691 124.738 45.9868C123.589 46.0395 123.015 46.0647 121.866 46.1135C120.878 44.0171 120.386 42.9679 119.407 40.8688C118.957 43.0243 118.731 44.103 118.276 46.258C116.995 46.3069 116.355 46.3295 115.073 46.3732C115.84 42.7644 116.601 39.1542 117.352 35.5419Z" fill="black"/>
<path d="M129.803 38.0257C128.673 38.0847 128.109 38.1132 126.98 38.1685C127.223 36.94 127.344 36.3253 127.586 35.0964C130.528 34.945 133.469 34.7823 136.411 34.6099C136.179 35.8411 136.063 36.4574 135.83 37.6884C134.701 37.7558 134.137 37.788 133.008 37.8513C132.505 40.4518 132 43.0512 131.488 45.6498C130.196 45.7196 129.55 45.7535 128.258 45.8182C128.777 43.2217 129.291 40.624 129.803 38.0257Z" fill="black"/>
<path d="M134.941 43.7201C135.635 42.6962 135.98 42.1825 136.669 41.1572C137.818 42.1173 138.972 42.5375 139.99 42.472C140.403 42.4454 140.684 42.2582 140.668 41.9518C140.651 41.6146 140.463 41.5171 139.034 41.0267C137.215 40.4024 136.341 39.7474 136.266 38.169C136.167 36.0999 137.78 34.3152 140.387 34.1447C142.093 34.033 143.641 34.54 144.736 35.4621C144.058 36.4944 143.718 37.0108 143.037 38.0411C142.275 37.4318 141.22 36.9654 140.206 37.0312C139.796 37.058 139.515 37.1987 139.531 37.5051C139.547 37.8268 139.755 37.8771 141.113 38.3392C142.778 38.9064 143.865 39.5984 143.955 41.2378C144.073 43.3976 142.565 45.1979 139.791 45.3754C137.874 45.4984 136.167 44.8324 134.941 43.7201Z" fill="black"/>
</svg>
