<svg width="507" height="80" viewBox="0 0 507 80" fill="none" xmlns="http://www.w3.org/2000/svg">
<path d="M505.998 0.997314L466.986 63.4541C466.986 63.4541 364.231 79.7935 249.951 79.7935C142.647 79.7935 39.8405 63.4541 39.8405 63.4541L0.643066 1.2732C10.6785 13.3001 119.928 22.7689 253.216 22.7689C387.529 22.7689 497.425 13.1528 505.998 0.997314Z" fill="#FED233"/>
<path d="M506.984 1.99731L468.011 64.2535C468.011 64.2535 455.003 66.3174 433.101 68.9741L460.446 13.9642C487.062 10.5493 503.84 6.44552 506.984 1.99731Z" fill="#FEDB60"/>
<path d="M32.5516 26.4133C33.6326 19.7179 40.3302 15.9668 46.7046 16.8376C50.2166 17.3175 53.5304 19.6747 53.9239 23.4294C51.4662 24.1053 50.2353 24.4401 47.7676 25.101C47.5608 23.5046 46.5141 22.5778 45.0492 22.3829C42.2566 22.0112 39.8914 24.1874 39.4828 26.8696C39.169 28.93 40.3584 30.3023 42.0975 30.5507C43.6121 30.7671 44.9464 30.2386 46.1868 29.1183C47.8106 30.7523 48.6253 31.5679 50.2619 33.1955C47.7135 35.6853 44.096 36.5734 40.6489 36.0691C35.8254 35.3633 31.71 31.6243 32.5516 26.4133Z" fill="black"/>
<path d="M52.7361 28.9897C53.5704 22.8378 59.5804 18.6251 65.6218 19.3332C70.5291 19.9084 74.9215 23.7839 74.3265 29.038C73.6178 35.2968 67.5337 39.533 61.4362 38.8068C56.4981 38.219 52.0151 34.3056 52.7361 28.9897ZM67.682 28.8538C67.9173 26.8511 66.8459 25.136 64.5038 24.8521C61.7708 24.5208 59.6888 26.8933 59.39 29.2722C59.1386 31.2728 60.2068 33.0016 62.5685 33.2903C65.3249 33.6271 67.4022 31.2352 67.682 28.8538Z" fill="black"/>
<path d="M79.4033 21.2861C81.8372 21.5461 83.0538 21.6726 85.4893 21.918C86.6613 25.0873 87.8443 28.2522 89.0396 31.4126C90.1714 28.4748 91.2968 25.5344 92.4138 22.5909C94.9953 22.8329 96.2864 22.9494 98.8689 23.1747C96.5664 29.3591 94.2382 35.533 91.8837 41.6978C89.5255 41.4797 88.3465 41.3672 85.9896 41.1354C84.7309 37.8392 83.4872 34.5367 82.2573 31.2295C81.0533 34.2838 79.8443 37.3357 78.6264 40.3843C75.9991 40.107 74.6855 39.9641 72.0598 39.6695C74.5336 33.5523 76.9815 27.4246 79.4033 21.2861Z" fill="black"/>
<path d="M104.055 29.027C101.748 28.8388 100.594 28.7416 98.2883 28.5402C99.069 26.4421 99.4585 25.3924 100.233 23.293C106.228 23.7981 112.225 24.2584 118.226 24.6757C117.489 26.7888 117.121 27.8449 116.378 29.9567C114.069 29.7966 112.914 29.7131 110.606 29.5399C109.002 33.9933 107.384 38.4419 105.752 42.8859C103.096 42.6764 101.769 42.5671 99.1141 42.3405C100.773 37.9072 102.42 33.4694 104.055 29.027Z" fill="black"/>
<path d="M124.146 24.9231C126.733 25.0834 128.028 25.1591 130.616 25.3028C131.249 31.7525 131.9 38.2 132.566 44.6464C129.735 44.4977 128.319 44.4184 125.489 44.25C125.413 43.2191 125.376 42.7038 125.301 41.6729C122.524 41.507 121.136 41.4192 118.359 41.2341C117.599 42.2103 117.219 42.6982 116.456 43.673C113.559 43.4751 112.111 43.3712 109.216 43.1528C114.251 37.1237 119.228 31.0481 124.146 24.9231ZM125.204 37.1358C125.1 35.2732 125.049 34.3422 124.947 32.4797C123.611 34.2549 122.94 35.1414 121.592 36.9121C123.037 37.0042 123.759 37.049 125.204 37.1358Z" fill="black"/>
<path d="M133.886 36.7478C134.295 29.9817 140.578 25.5756 147.006 25.8057C150.547 25.9325 154.08 27.947 154.845 31.6429C152.467 32.561 151.276 33.017 148.887 33.9211C148.523 32.3534 147.389 31.5365 145.913 31.489C143.099 31.3985 140.962 33.7976 140.824 36.5098C140.719 38.5929 142.037 39.8375 143.791 39.9108C145.319 39.9745 146.593 39.3155 147.715 38.0765C149.493 39.54 150.385 40.2701 152.176 41.7259C149.889 44.458 146.381 45.7032 142.901 45.5461C138.032 45.3261 133.568 42.0137 133.886 36.7478Z" fill="black"/>
<path d="M161.156 32.0654C158.842 32.0077 157.685 31.9755 155.371 31.9046C156.032 29.7657 156.36 28.6961 157.016 26.5562C163.032 26.7216 169.048 26.843 175.066 26.9208C174.449 29.0721 174.14 30.1473 173.517 32.2977C171.201 32.2684 170.044 32.2502 167.729 32.2078C166.376 36.7444 165.012 41.2773 163.634 45.8064C160.969 45.7473 159.637 45.7135 156.973 45.6372C158.381 41.1172 159.775 36.5932 161.156 32.0654Z" fill="black"/>
<path d="M170.969 42.8634C172.517 41.1427 173.288 40.2807 174.823 38.554C177.063 40.4053 179.384 41.2952 181.482 41.3054C182.333 41.3094 182.929 41.0111 182.931 40.4659C182.933 39.8666 182.507 39.5661 179.685 38.6246C177.256 37.8139 174.251 36.2311 174.348 33.2074C174.493 28.718 179.317 26.5682 183.229 26.598C186.315 26.6213 189.511 27.4817 191.964 29.4482C190.471 31.2004 189.722 32.075 188.216 33.8216C186.722 32.6526 184.617 31.6991 182.539 31.691C181.696 31.6878 181.105 31.9026 181.102 32.4475C181.099 33.0197 181.561 33.2211 184.247 34.1204C186.726 34.9508 189.756 36.5308 189.755 39.5943C189.754 44.3323 184.828 46.4769 180.745 46.4242C177.231 46.3791 173.648 45.2292 170.969 42.8634Z" fill="black"/>
<path d="M99.059 64.1959C98.6741 63.7745 98.5139 63.2829 98.5764 62.7216C98.6003 62.5097 98.6387 62.3056 98.6923 62.1099C98.746 61.9141 98.8168 61.7071 98.9048 61.4898C99.5969 59.7266 99.9424 58.8448 100.631 57.0808C100.152 57.0276 99.9115 57.0012 99.4319 56.9475C99.8015 56.0141 99.9855 55.5471 100.354 54.6134C100.833 54.6666 101.073 54.6932 101.552 54.7461C101.941 53.7541 102.136 53.2579 102.525 52.2656C103.66 52.3902 104.227 52.452 105.363 52.5744C104.976 53.5675 104.783 54.0645 104.396 55.0573C105.339 55.1594 105.81 55.2098 106.753 55.3106C106.388 56.2459 106.205 56.7134 105.84 57.6484C104.895 57.5475 104.424 57.4967 103.479 57.3939C102.846 59.0311 102.529 59.8493 101.893 61.4858C101.859 61.558 101.831 61.634 101.81 61.7135C101.788 61.7933 101.774 61.8647 101.768 61.9268C101.725 62.3247 101.959 62.5532 102.473 62.6094C102.699 62.6341 102.943 62.6322 103.206 62.604C103.469 62.5761 103.726 62.5253 103.975 62.4515C103.607 63.386 103.423 63.8535 103.055 64.7877C102.434 64.9972 101.729 65.0589 100.938 64.9719C100.071 64.8766 99.4437 64.6175 99.059 64.1959Z" fill="black"/>
<path d="M107.034 65.4498C106.69 65.2815 106.402 65.0618 106.17 64.7919C105.938 64.522 105.768 64.217 105.658 63.8781C105.549 63.5395 105.514 63.171 105.557 62.7725C105.618 62.2005 105.786 61.7021 106.059 61.2781C106.333 60.8541 106.679 60.5074 107.101 60.2375C107.521 59.9677 108.003 59.7827 108.546 59.682C109.088 59.5815 109.665 59.563 110.278 59.6264C110.829 59.6836 111.327 59.7765 111.776 59.904C112.225 60.0316 112.655 60.1854 113.067 60.3656C113.088 60.3149 113.097 60.2894 113.118 60.2386C113.154 60.1291 113.191 60.0163 113.228 59.9005C113.265 59.7851 113.291 59.6521 113.306 59.5028C113.342 59.1546 113.232 58.857 112.979 58.6113C112.726 58.3653 112.244 58.2061 111.531 58.1328C111.044 58.0825 110.56 58.0863 110.081 58.1432C109.601 58.2001 109.172 58.2842 108.794 58.3957C108.708 57.4805 108.665 57.0229 108.58 56.1077C109.126 55.9514 109.718 55.8403 110.355 55.7745C110.993 55.7084 111.667 55.7122 112.378 55.7852C113.738 55.9246 114.728 56.2946 115.349 56.8978C115.969 57.5012 116.233 58.2944 116.135 59.2781C116.109 59.5399 116.06 59.7929 115.992 60.0375C115.923 60.2827 115.845 60.5257 115.758 60.7684C114.944 62.9213 114.535 63.997 113.716 66.1488C112.608 66.0371 112.054 65.981 110.946 65.8671C111.114 65.4165 111.197 65.1907 111.365 64.7398C110.918 65.1346 110.432 65.4216 109.906 65.5994C109.379 65.7777 108.814 65.8352 108.211 65.7721C107.771 65.7256 107.378 65.6185 107.034 65.4498ZM110.512 63.8875C110.792 63.8096 111.056 63.6885 111.3 63.5249C111.545 63.3617 111.762 63.1667 111.95 62.9406C112.137 62.7151 112.282 62.4683 112.386 62.2022C112.427 62.1007 112.447 62.0496 112.488 61.9481C112.248 61.823 111.968 61.7096 111.649 61.6076C111.33 61.5058 110.996 61.4368 110.645 61.4006C110.044 61.3385 109.537 61.4272 109.126 61.6672C108.714 61.9076 108.483 62.2701 108.432 62.7556C108.399 63.0668 108.492 63.3346 108.709 63.5585C108.927 63.7825 109.236 63.916 109.638 63.9576C109.939 63.989 110.231 63.9656 110.512 63.8875Z" fill="black"/>
<path d="M119.857 56.6443C120.995 56.7547 121.565 56.8094 122.704 56.9174C122.41 57.7042 122.263 58.0976 121.969 58.8841C122.552 58.1854 123.166 57.6685 123.809 57.3328C124.451 56.9974 125.181 56.8991 126 57.0374C125.568 58.1964 125.351 58.7762 124.918 59.9349C124.857 59.9293 124.828 59.9266 124.767 59.9209C123.816 59.8323 122.963 60.0415 122.208 60.5477C121.452 61.0541 120.835 61.9444 120.358 63.2183C119.838 64.6015 119.578 65.2932 119.056 66.6759C117.909 66.5648 117.335 66.5086 116.188 66.395C117.418 63.1476 118.64 59.8971 119.857 56.6443Z" fill="black"/>
<path d="M125.697 69.9892C124.786 69.6605 124.012 69.2405 123.374 68.7282C124.052 68.0072 124.39 67.6462 125.066 66.9244C125.562 67.3218 126.116 67.6465 126.728 67.8973C127.339 68.1478 127.966 68.302 128.609 68.3597C129.087 68.4027 129.508 68.3739 129.873 68.2746C130.237 68.175 130.57 68.0004 130.872 67.7507C131.104 67.5576 131.306 67.321 131.476 67.0407C131.647 66.7609 131.805 66.426 131.953 66.0369C132.003 65.9056 132.028 65.8398 132.078 65.7085C131.509 66.1362 130.976 66.4314 130.479 66.5949C129.983 66.7582 129.42 66.8116 128.791 66.7552C128.301 66.7112 127.839 66.5941 127.407 66.4043C126.974 66.2141 126.594 65.9558 126.269 65.6309C125.944 65.3059 125.699 64.9157 125.532 64.4608C125.366 64.0057 125.308 63.4906 125.361 62.9173C125.438 62.0827 125.667 61.3217 126.046 60.6337C126.425 59.946 126.896 59.3611 127.457 58.8778C128.018 58.3952 128.64 58.0335 129.323 57.7934C130.006 57.5531 130.697 57.4642 131.396 57.5262C131.821 57.5638 132.192 57.6438 132.508 57.7657C132.825 57.8876 133.099 58.0407 133.329 58.2239C133.559 58.4075 133.748 58.6122 133.898 58.8386C134.049 59.0655 134.183 59.2964 134.301 59.5327C134.52 58.9261 134.63 58.6226 134.848 58.016C135.988 58.114 136.558 58.1626 137.698 58.2582C136.753 60.8859 135.805 63.5124 134.853 66.1373C134.67 66.6371 134.501 67.0619 134.344 67.4129C134.187 67.7638 134.027 68.0708 133.866 68.3326C133.704 68.5944 133.534 68.8256 133.358 69.0238C133.183 69.222 132.984 69.4121 132.766 69.5942C132.259 70.015 131.671 70.3128 131.002 70.4863C130.332 70.6597 129.53 70.7048 128.597 70.6211C127.575 70.5287 126.608 70.3179 125.697 69.9892ZM131.276 64.4601C131.654 64.3365 131.988 64.1553 132.281 63.9171C132.574 63.6786 132.818 63.3891 133.012 63.0478C133.206 62.7065 133.32 62.3367 133.355 61.9374C133.405 61.3641 133.262 60.899 132.927 60.5437C132.592 60.1882 132.125 59.9836 131.524 59.9307C131.123 59.8952 130.74 59.943 130.376 60.0738C130.011 60.2046 129.684 60.3952 129.397 60.6458C129.11 60.8961 128.874 61.196 128.691 61.544C128.508 61.8921 128.399 62.2589 128.364 62.645C128.31 63.2433 128.449 63.7057 128.78 64.0304C129.111 64.3553 129.56 64.5433 130.125 64.5935C130.514 64.6281 130.898 64.5841 131.276 64.4601Z" fill="black"/>
<path d="M141.127 66.0279C141.463 66.4128 142.008 66.6361 142.763 66.696C143.14 66.7261 143.511 66.6928 143.873 66.5959C144.234 66.4992 144.634 66.3236 145.072 66.0688C145.545 66.8137 145.781 67.1861 146.255 67.9305C145.774 68.2699 145.204 68.5428 144.548 68.7485C143.892 68.9542 143.129 69.0226 142.26 68.9531C141.529 68.8948 140.882 68.7388 140.32 68.4856C139.757 68.2326 139.292 67.8993 138.92 67.4858C138.548 67.0723 138.278 66.5822 138.11 66.0153C137.942 65.449 137.887 64.8163 137.946 64.1178C138.006 63.395 138.207 62.6858 138.549 61.9919C138.89 61.2982 139.348 60.6895 139.92 60.165C140.493 59.6409 141.159 59.2335 141.919 58.9432C142.679 58.6532 143.507 58.5436 144.407 58.6148C145.057 58.6661 145.632 58.8116 146.129 59.0511C146.627 59.2907 147.038 59.5984 147.361 59.9744C147.685 60.3503 147.919 60.7832 148.065 61.2711C148.21 61.7593 148.262 62.284 148.219 62.8455C148.191 63.2078 148.119 63.5789 148.002 63.9589C147.885 64.3391 147.729 64.7159 147.536 65.0902C144.77 64.8789 143.387 64.7701 140.622 64.5451C140.623 65.149 140.792 65.6429 141.127 66.0279ZM145.395 63.1374C145.474 62.9304 145.523 62.7145 145.54 62.4897C145.572 62.0781 145.471 61.718 145.237 61.4113C145.002 61.1044 144.591 60.9277 144.002 60.881C143.35 60.8294 142.762 60.9798 142.236 61.3332C141.709 61.6863 141.301 62.1715 141.011 62.7883C142.765 62.9312 143.641 63.0005 145.395 63.1374Z" fill="black"/>
<path d="M149.998 68.9278C149.598 68.5207 149.418 68.036 149.46 67.4729C149.476 67.2602 149.509 67.0543 149.555 66.8566C149.601 66.659 149.665 66.4495 149.745 66.2291C150.372 64.4417 150.684 63.548 151.308 61.7598C150.826 61.7244 150.586 61.707 150.105 61.6707C150.44 60.7244 150.607 60.251 150.941 59.3044C151.422 59.3401 151.662 59.3581 152.143 59.3932C152.496 58.3876 152.672 57.8843 153.024 56.8784C154.163 56.9614 154.732 57.0025 155.871 57.083C155.521 58.0898 155.346 58.5927 154.995 59.5992C155.941 59.6666 156.414 59.6999 157.36 59.766C157.031 60.7142 156.865 61.1879 156.534 62.1358C155.587 62.0695 155.113 62.0359 154.165 61.968C153.592 63.6272 153.305 64.4573 152.729 66.1157C152.699 66.1891 152.674 66.2661 152.656 66.3464C152.637 66.427 152.626 66.4984 152.621 66.561C152.593 66.9605 152.836 67.1802 153.352 67.2176C153.579 67.2339 153.822 67.2229 154.084 67.185C154.346 67.1472 154.6 67.0876 154.846 67.0046C154.514 67.952 154.347 68.4259 154.014 69.3733C153.401 69.6053 152.698 69.6926 151.904 69.6349C151.034 69.571 150.398 69.3347 149.998 68.9278Z" fill="black"/>
<path d="M166.399 57.2803C167.928 57.3767 168.692 57.4237 170.222 57.5161C171.496 57.5929 172.538 57.8114 173.345 58.1713C174.152 58.5314 174.792 58.9756 175.264 59.5035C176.161 60.5059 176.567 61.8139 176.477 63.426C176.422 64.4131 176.187 65.3345 175.774 66.1887C175.36 67.0429 174.774 67.8058 174.015 68.4769C173.176 69.2188 172.171 69.7623 171 70.1066C169.828 70.4509 168.471 70.5763 166.932 70.4807C164.964 70.3582 163.981 70.2954 162.014 70.1662C163.487 65.8748 164.947 61.579 166.399 57.2803ZM167.454 67.8987C168.335 67.9532 169.168 67.87 169.952 67.6471C170.736 67.4248 171.408 67.0657 171.967 66.5721C172.419 66.1728 172.776 65.6978 173.034 65.1489C173.293 64.6 173.44 64.0066 173.476 63.3693C173.527 62.4952 173.31 61.786 172.826 61.2441C172.555 60.9401 172.18 60.6861 171.702 60.4823C171.225 60.2785 170.61 60.1542 169.859 60.1088C169.295 60.0747 169.014 60.0572 168.45 60.0226C167.574 62.615 166.695 65.2064 165.811 67.7959C166.468 67.8372 166.797 67.8581 167.454 67.8987Z" fill="black"/>
<path d="M180.752 68.667C181.099 69.0422 181.651 69.2497 182.407 69.2884C182.785 69.3077 183.154 69.2634 183.513 69.1563C183.872 69.0491 184.266 68.8622 184.696 68.595C185.19 69.3263 185.438 69.6915 185.933 70.4224C185.461 70.7753 184.899 71.0645 184.25 71.289C183.6 71.5132 182.838 71.6037 181.967 71.5592C181.235 71.5216 180.584 71.3843 180.014 71.1475C179.444 70.9106 178.969 70.5908 178.586 70.1877C178.203 69.7849 177.919 69.3029 177.735 68.7414C177.55 68.1799 177.478 67.5491 177.516 66.8493C177.556 66.1248 177.737 65.4113 178.059 64.7075C178.381 64.0044 178.821 63.3828 179.378 62.8422C179.935 62.3016 180.59 61.8755 181.341 61.5637C182.092 61.2522 182.919 61.1193 183.821 61.1647C184.472 61.1977 185.051 61.3263 185.555 61.5513C186.059 61.7766 186.478 62.0728 186.812 62.4399C187.146 62.8067 187.394 63.2321 187.553 63.7158C187.712 64.1997 187.779 64.7228 187.752 65.2853C187.735 65.6481 187.672 66.0206 187.566 66.4041C187.46 66.7875 187.316 67.1694 187.133 67.5491C184.361 67.4167 182.976 67.3472 180.205 67.2011C180.223 67.8029 180.406 68.2919 180.752 68.667ZM184.937 65.6559C185.01 65.4467 185.053 65.2295 185.064 65.0044C185.084 64.592 184.972 64.2354 184.73 63.9354C184.487 63.6355 184.069 63.4703 183.48 63.4405C182.827 63.4075 182.243 63.5748 181.727 63.9429C181.211 64.3111 180.816 64.8076 180.544 65.4325C182.301 65.5246 183.18 65.5692 184.937 65.6559Z" fill="black"/>
<path d="M191.622 71.6921C191.052 71.448 190.567 71.1188 190.168 70.706C189.77 70.2933 189.467 69.8035 189.26 69.2363C189.052 68.6697 188.964 68.0422 188.997 67.3542C189.035 66.5289 189.231 65.765 189.585 65.0603C189.938 64.3562 190.397 63.7507 190.961 63.2434C191.525 62.7364 192.174 62.3427 192.909 62.0616C193.644 61.781 194.412 61.6569 195.214 61.6907C195.766 61.7138 196.258 61.7936 196.693 61.9294C197.127 62.0653 197.506 62.2391 197.83 62.4507C198.154 62.6623 198.434 62.9072 198.668 63.1838C198.903 63.4601 199.101 63.7504 199.266 64.0555C198.367 64.6358 197.918 64.9258 197.017 65.5045C196.782 65.1071 196.51 64.7792 196.199 64.5222C195.89 64.2652 195.451 64.125 194.886 64.1011C194.509 64.085 194.142 64.1637 193.782 64.3366C193.422 64.5098 193.103 64.7507 192.825 65.059C192.547 65.3673 192.316 65.7314 192.134 66.1506C191.952 66.5701 191.85 67.0113 191.83 67.4753C191.801 68.1278 191.967 68.6539 192.328 69.0532C192.689 69.4525 193.154 69.6641 193.721 69.6885C194.162 69.7073 194.563 69.6397 194.923 69.4858C195.283 69.3322 195.659 69.1002 196.051 68.7906C196.61 69.5575 196.889 69.9412 197.45 70.7077C196.901 71.1617 196.323 71.5173 195.718 71.7737C195.113 72.0307 194.38 72.1406 193.521 72.1038C192.827 72.074 192.193 71.9365 191.622 71.6921Z" fill="black"/>
<path d="M201.77 62.1391C202.914 62.1818 203.486 62.2022 204.63 62.2428C203.607 65.5635 202.579 68.8828 201.545 72.2C200.393 72.157 199.817 72.135 198.665 72.0899C199.708 68.7751 200.742 65.4579 201.77 62.1391ZM202.825 58.5332C204.026 58.5772 204.627 58.5987 205.828 58.6401C205.515 59.6439 205.359 60.1455 205.045 61.149C203.842 61.1069 203.24 61.0851 202.037 61.0403C202.353 60.0375 202.511 59.5359 202.825 58.5332Z" fill="black"/>
<path d="M207.245 72.5132C206.831 72.4243 206.427 72.2984 206.034 72.1346C205.642 71.971 205.266 71.7701 204.908 71.5322C204.549 71.2943 204.224 71.0134 203.933 70.6901C204.624 70.0308 204.969 69.7008 205.658 69.0408C206.169 69.5843 206.693 69.9592 207.229 70.1649C207.765 70.3706 208.261 70.4804 208.715 70.4949C209.093 70.507 209.392 70.4412 209.612 70.2978C209.831 70.1544 209.945 69.9393 209.954 69.6514C209.96 69.4637 209.858 69.294 209.648 69.1436C209.438 68.9933 209.158 68.8321 208.811 68.6756C208.419 68.4981 208.041 68.316 207.695 68.1229C207.348 67.9301 207.042 67.7163 206.779 67.4819C206.516 67.2475 206.312 66.9808 206.165 66.6817C206.017 66.3825 205.95 66.0324 205.964 65.6323C205.981 65.1323 206.092 64.6696 206.295 64.2442C206.498 63.8191 206.777 63.4561 207.133 63.1548C207.488 62.8538 207.92 62.6207 208.428 62.4555C208.935 62.2906 209.503 62.2178 210.13 62.2372C210.544 62.2501 210.941 62.3032 211.321 62.3962C211.701 62.4891 212.062 62.6094 212.402 62.7573C212.743 62.905 213.053 63.0675 213.33 63.2445C213.608 63.4214 213.85 63.6073 214.059 63.8009C213.421 64.5039 213.102 64.8554 212.461 65.5576C211.982 65.1554 211.531 64.8656 211.109 64.6902C210.687 64.5146 210.269 64.4204 209.855 64.4075C209.502 64.3962 209.227 64.4628 209.027 64.6067C208.828 64.7507 208.723 64.9537 208.714 65.2163C208.708 65.4166 208.819 65.5984 209.047 65.7622C209.274 65.926 209.604 66.107 210.021 66.3098C210.341 66.4661 210.668 66.6366 210.997 66.8092C211.325 66.9822 211.619 67.1847 211.876 67.418C212.134 67.6514 212.34 67.9175 212.495 68.2161C212.65 68.5147 212.722 68.8584 212.711 69.2459C212.694 69.7964 212.576 70.2881 212.355 70.7196C212.134 71.1514 211.835 71.515 211.46 71.8107C211.084 72.1063 210.638 72.3268 210.121 72.4734C209.604 72.6198 209.042 72.684 208.436 72.6644C208.057 72.6526 207.659 72.6023 207.245 72.5132Z" fill="black"/>
<path d="M216.862 62.6196C218.006 62.6496 218.577 62.6647 219.722 62.6923C218.736 66.0243 217.745 69.3547 216.745 72.6824C215.593 72.652 215.017 72.6364 213.864 72.6037C214.87 69.2779 215.87 65.9499 216.862 62.6196ZM217.877 59.0029C219.079 59.0338 219.679 59.0486 220.881 59.0768C220.579 60.0838 220.428 60.587 220.125 61.5937C218.922 61.5647 218.321 61.5497 217.117 61.5183C217.422 60.5121 217.573 60.0094 217.877 59.0029Z" fill="black"/>
<path d="M223.185 72.7149C222.589 72.4702 222.085 72.1367 221.671 71.714C221.257 71.2914 220.944 70.7933 220.73 70.2186C220.517 69.6442 220.419 69.0188 220.435 68.3431C220.453 67.5926 220.621 66.8708 220.94 66.1769C221.258 65.4835 221.687 64.8734 222.227 64.3474C222.767 63.8216 223.394 63.4035 224.111 63.0933C224.827 62.7832 225.593 62.6352 226.409 62.6513C227.162 62.6661 227.834 62.7944 228.426 63.0369C229.018 63.2794 229.52 63.6102 229.934 64.0302C230.348 64.4499 230.664 64.9476 230.881 65.5201C231.098 66.0929 231.201 66.7175 231.19 67.3933C231.178 68.1442 231.011 68.8676 230.691 69.5634C230.37 70.2594 229.94 70.8717 229.4 71.4004C228.86 71.9294 228.231 72.3502 227.51 72.662C226.79 72.974 226.024 73.122 225.215 73.1056C224.458 73.0895 223.78 72.9592 223.185 72.7149ZM226.607 70.3888C226.971 70.1818 227.281 69.92 227.54 69.6034C227.798 69.287 228 68.9348 228.146 68.5465C228.292 68.1587 228.368 67.7814 228.375 67.4162C228.389 66.6731 228.197 66.1001 227.802 65.6957C227.407 65.2913 226.883 65.0832 226.229 65.0703C225.789 65.0617 225.388 65.1605 225.026 65.3673C224.663 65.5738 224.352 65.8356 224.093 66.1514C223.835 66.4674 223.632 66.8222 223.485 67.2158C223.338 67.6098 223.26 67.9831 223.253 68.3354C223.236 69.0784 223.426 69.653 223.821 70.0583C224.217 70.4635 224.742 70.6732 225.399 70.6864C225.84 70.6953 226.243 70.5962 226.607 70.3888Z" fill="black"/>
<path d="M234.69 62.9753C235.835 62.9908 236.407 62.9978 237.552 63.011C237.435 63.4264 237.375 63.6343 237.257 64.0497C237.625 63.7309 238.037 63.4503 238.492 63.2068C238.947 62.9632 239.456 62.8434 240.021 62.8488C240.925 62.8577 241.645 63.124 242.181 63.6477C242.717 64.1716 242.982 64.8902 242.975 65.8035C242.973 66.0916 242.936 66.4013 242.864 66.7318C242.792 67.0629 242.71 67.3908 242.619 67.7155C242.02 69.8737 241.718 70.9524 241.114 73.1098C239.96 73.0996 239.384 73.094 238.231 73.0816C238.856 70.8751 239.166 69.7717 239.785 67.5646C239.825 67.4271 239.859 67.2737 239.886 67.1046C239.913 66.9357 239.926 66.7874 239.927 66.662C239.931 66.2613 239.811 65.9525 239.568 65.7369C239.326 65.5213 238.984 65.4112 238.544 65.4063C237.978 65.4001 237.51 65.5804 237.141 65.9464C236.771 66.3124 236.501 66.7946 236.33 67.3951C235.69 69.6532 235.369 70.7819 234.723 73.0392C233.57 73.0236 232.993 73.0153 231.84 72.9973C232.796 69.6586 233.747 66.3177 234.69 62.9753Z" fill="black"/>
<path d="M253.13 60.0231C254.332 60.0233 254.935 60.0225 256.138 60.0201C256.902 62.2412 257.284 63.3519 258.054 65.5718C260.017 63.3425 260.995 62.2264 262.943 59.9903C264.281 59.9809 264.95 59.975 266.289 59.9624C265.151 64.3554 264.002 68.7454 262.84 73.1319C261.656 73.14 261.064 73.1432 259.88 73.1488C260.638 70.2857 261.393 67.4218 262.144 64.5568C260.432 66.4411 258.713 68.319 256.99 70.1931C256.96 70.1931 256.944 70.1931 256.914 70.1931C256.061 67.9725 255.635 66.8622 254.789 64.6403C254.022 67.4822 253.252 70.3233 252.48 73.1633C251.311 73.1625 250.726 73.1617 249.557 73.1585C250.76 68.7838 251.95 64.4048 253.13 60.0231Z" fill="black"/>
<path d="M267.689 73.0818C267.327 72.954 267.015 72.769 266.753 72.5279C266.491 72.2862 266.288 72.0031 266.139 71.6793C265.992 71.3557 265.915 70.9932 265.912 70.5925C265.907 70.017 266.017 69.5028 266.239 69.0506C266.462 68.5978 266.768 68.2133 267.156 67.8964C267.543 67.5798 268.001 67.3408 268.529 67.1783C269.056 67.0161 269.628 66.931 270.246 66.9235C270.8 66.9168 271.308 66.9512 271.769 67.0264C272.23 67.1018 272.675 67.2049 273.106 67.3365C273.12 67.2839 273.127 67.2573 273.141 67.2047C273.164 67.0916 273.189 66.9756 273.212 66.8564C273.236 66.7374 273.246 66.6021 273.244 66.452C273.239 66.102 273.097 65.819 272.817 65.6039C272.537 65.3888 272.039 65.2862 271.321 65.2956C270.83 65.3021 270.35 65.3612 269.88 65.4729C269.409 65.5848 268.992 65.7183 268.628 65.8725C268.438 64.9734 268.342 64.5236 268.152 63.6243C268.677 63.4059 269.253 63.2271 269.88 63.0883C270.507 62.9494 271.178 62.8756 271.894 62.8659C273.263 62.8476 274.29 63.1014 274.977 63.6288C275.664 64.1565 276.016 64.914 276.032 65.9025C276.037 66.1654 276.019 66.4224 275.979 66.6732C275.939 66.9243 275.889 67.1754 275.83 67.4265C275.268 69.6588 274.985 70.7751 274.417 73.0064C273.301 73.0233 272.744 73.0308 271.628 73.0456C271.744 72.5783 271.801 72.3447 271.916 71.8775C271.517 72.3211 271.066 72.6619 270.563 72.8995C270.059 73.1372 269.504 73.2596 268.896 73.2663C268.453 73.2709 268.051 73.2094 267.689 73.0818ZM270.969 71.1293C271.239 71.0198 271.486 70.8689 271.711 70.6782C271.936 70.4878 272.129 70.2692 272.29 70.0232C272.45 69.7775 272.567 69.5157 272.64 69.2394C272.668 69.1338 272.683 69.0812 272.712 68.9756C272.458 68.879 272.166 68.7984 271.837 68.7343C271.508 68.6701 271.168 68.6394 270.815 68.644C270.21 68.6515 269.716 68.7982 269.334 69.0841C268.952 69.3701 268.764 69.7574 268.77 70.2453C268.773 70.5581 268.896 70.8132 269.138 71.0106C269.38 71.208 269.703 71.3049 270.108 71.3001C270.411 71.2958 270.698 71.2391 270.969 71.1293Z" fill="black"/>
<path d="M280.361 59.1963C281.504 59.174 282.074 59.1622 283.217 59.1375C282.511 61.992 282.157 63.4187 281.442 66.2721C283.055 64.8575 283.859 64.1494 285.463 62.7302C286.955 62.6955 287.702 62.677 289.194 62.6383C287.282 64.2579 286.323 65.0662 284.4 66.679C285.339 69.1141 285.81 70.3316 286.756 72.7651C285.465 72.7959 284.819 72.8104 283.528 72.8384C282.915 71.1466 282.61 70.3005 282 68.6082C281.427 69.0856 281.14 69.3243 280.565 69.8013C280.256 71.0467 280.101 71.6692 279.789 72.9144C278.635 72.9361 278.058 72.9466 276.904 72.9659C278.066 68.3785 279.218 63.7885 280.361 59.1963Z" fill="black"/>
<path d="M292.227 70.0223C292.603 70.3685 293.171 70.5309 293.929 70.5089C294.308 70.4979 294.674 70.4249 295.023 70.2893C295.373 70.1537 295.753 69.9353 296.161 69.6346C296.712 70.3236 296.988 70.6684 297.541 71.3569C297.098 71.7466 296.559 72.0801 295.929 72.3559C295.297 72.6317 294.546 72.7823 293.672 72.8078C292.938 72.829 292.276 72.7445 291.689 72.5541C291.101 72.3634 290.6 72.0828 290.185 71.7117C289.771 71.3408 289.449 70.883 289.221 70.3379C288.992 69.793 288.869 69.17 288.851 68.4694C288.833 67.7441 288.957 67.018 289.222 66.2911C289.487 65.5644 289.876 64.9092 290.389 64.3257C290.903 63.7424 291.522 63.2658 292.248 62.8947C292.973 62.5241 293.788 62.3251 294.692 62.298C295.345 62.2784 295.932 62.3606 296.453 62.5448C296.975 62.729 297.417 62.9905 297.78 63.3294C298.143 63.668 298.424 64.0725 298.622 64.5418C298.82 65.0115 298.928 65.5276 298.946 66.0905C298.958 66.4535 298.926 66.83 298.851 67.2205C298.775 67.6114 298.661 68.003 298.51 68.3958C295.731 68.4861 294.342 68.5277 291.563 68.604C291.63 69.2028 291.85 69.6762 292.227 70.0223ZM296.165 66.6856C296.221 66.471 296.247 66.2513 296.24 66.026C296.227 65.6133 296.086 65.2664 295.82 64.9871C295.554 64.7073 295.124 64.5762 294.533 64.5937C293.879 64.613 293.309 64.8273 292.823 65.2355C292.337 65.6439 291.982 66.1697 291.76 66.8144C293.522 66.7656 294.403 66.7401 296.165 66.6856Z" fill="black"/>
<path d="M302.01 62.2475C303.156 62.2072 303.728 62.1865 304.874 62.1441C304.685 62.9626 304.591 63.3721 304.402 64.1906C304.89 63.4212 305.431 62.8278 306.026 62.4107C306.62 61.9934 307.334 61.7998 308.165 61.8293C307.888 63.0353 307.749 63.6382 307.47 64.8442C307.41 64.8466 307.379 64.848 307.319 64.8501C306.362 64.8874 305.542 65.2067 304.858 65.8077C304.174 66.4093 303.678 67.3727 303.372 68.6985C303.036 70.1381 302.868 70.8581 302.531 72.2977C301.376 72.3383 300.799 72.3584 299.645 72.3965C300.439 69.0151 301.227 65.6318 302.01 62.2475Z" fill="black"/>
<path d="M310.583 72.1036C310.162 72.0456 309.75 71.9499 309.345 71.8159C308.941 71.6817 308.55 71.5093 308.175 71.2987C307.799 71.0879 307.453 70.8323 307.138 70.5313C307.78 69.8226 308.1 69.4681 308.74 68.7586C309.291 69.2627 309.842 69.5976 310.393 69.763C310.944 69.9281 311.447 70.0012 311.901 69.9821C312.281 69.966 312.575 69.8787 312.783 69.7192C312.992 69.56 313.09 69.3368 313.078 69.049C313.07 68.8612 312.955 68.7001 312.735 68.5656C312.514 68.431 312.221 68.2911 311.864 68.1609C311.459 68.0129 311.068 67.8591 310.707 67.6926C310.347 67.5261 310.026 67.3351 309.746 67.1211C309.466 66.9068 309.241 66.6563 309.072 66.3687C308.903 66.0813 308.81 65.7371 308.794 65.337C308.775 64.8372 308.851 64.3673 309.022 63.9282C309.194 63.4892 309.446 63.1068 309.779 62.78C310.112 62.4534 310.526 62.1892 311.021 61.9867C311.515 61.7847 312.077 61.6698 312.706 61.643C313.12 61.6252 313.521 61.6483 313.907 61.7128C314.294 61.7775 314.663 61.871 315.015 61.9929C315.367 62.1153 315.688 62.2539 315.979 62.4099C316.269 62.5659 316.524 62.733 316.747 62.9107C316.161 63.6591 315.868 64.0337 315.28 64.7813C314.772 64.4156 314.3 64.1605 313.866 64.0166C313.431 63.8729 313.006 63.8095 312.59 63.827C312.238 63.8423 311.968 63.9287 311.779 64.0872C311.591 64.2453 311.501 64.4556 311.512 64.7182C311.521 64.9186 311.644 65.0918 311.884 65.2381C312.124 65.3845 312.467 65.5405 312.898 65.7121C313.23 65.8442 313.57 65.9906 313.91 66.1383C314.251 66.2862 314.559 66.4667 314.834 66.6799C315.109 66.8934 315.335 67.1437 315.512 67.4297C315.689 67.7157 315.786 68.0535 315.803 68.4407C315.827 68.9909 315.745 69.4899 315.555 69.9367C315.366 70.3836 315.095 70.7684 314.742 71.0909C314.388 71.4134 313.958 71.6672 313.453 71.8517C312.947 72.0362 312.391 72.1417 311.783 72.1672C311.404 72.1825 311.004 72.1616 310.583 72.1036Z" fill="black"/>
</svg>
