<svg width="28" height="28" viewBox="0 0 28 28" fill="none" xmlns="http://www.w3.org/2000/svg">
<path d="M27.7202 7.51875L26.3175 6.11614C26.1306 5.92884 25.9153 5.83548 25.6719 5.83548C25.4291 5.83548 25.2138 5.92884 25.0269 6.11614L14.0001 17.1423L2.97385 6.11643C2.78684 5.92913 2.57163 5.83577 2.32851 5.83577C2.08529 5.83577 1.87008 5.92913 1.68317 6.11643L0.280659 7.51914C0.0933566 7.70605 0 7.92126 0 8.16448C0 8.4075 0.0936514 8.62271 0.280659 8.80962L13.3548 21.8841C13.5417 22.0711 13.757 22.1645 14.0001 22.1645C14.2433 22.1645 14.4582 22.0711 14.645 21.8841L27.7202 8.80962C27.9071 8.62262 28 8.4074 28 8.16448C28 7.92126 27.9071 7.70605 27.7202 7.51875Z" fill="#005698"/>
</svg>
