<svg width="32" height="32" viewBox="0 0 32 32" fill="none" xmlns="http://www.w3.org/2000/svg">
<path fill-rule="evenodd" clip-rule="evenodd" d="M32 16C32 24.8366 24.8366 32 16 32C7.16344 32 0 24.8366 0 16C0 7.16344 7.16344 0 16 0C24.8366 0 32 7.16344 32 16ZM23.9126 8.6875H8.08756C7.8278 8.6875 7.58461 8.75136 7.3646 8.85663L15.9626 17.4546L17.8896 15.6026L17.8898 15.6023L17.89 15.6022L24.6358 8.85678C24.4157 8.75144 24.1724 8.6875 23.9126 8.6875ZM19.0831 16.0001L25.4312 9.6523C25.5364 9.87224 25.6001 10.1154 25.6001 10.375V21.625C25.6001 21.8848 25.5363 22.1279 25.431 22.348L19.0831 16.0001ZM6.56913 9.65204C6.46386 9.87205 6.4 10.1152 6.4 10.375V21.625C6.4 21.8846 6.46379 22.1278 6.56897 22.3478L12.9171 16L6.56913 9.65204ZM16.3604 18.6477L18.2877 16.7955L24.6356 23.1434C24.4156 23.2486 24.1724 23.3125 23.9126 23.3125H8.08765C7.82781 23.3125 7.58447 23.2486 7.36442 23.1432L13.7126 16.7954L15.565 18.6477C15.6748 18.7576 15.8188 18.8125 15.9627 18.8125C16.1066 18.8125 16.2505 18.7576 16.3604 18.6477Z" fill="#005698"/>
</svg>
