<svg width="64" height="64" viewBox="0 0 64 64" fill="none" xmlns="http://www.w3.org/2000/svg">
<path fill-rule="evenodd" clip-rule="evenodd" d="M36.4854 47.024V48.032H34.0481C34.0481 48.032 34.0481 47.6747 34.0481 47.024H10.9121V48.032C11.9468 49.5259 12.9868 50.384 14.1708 50.8747C15.4881 51.424 16.9814 51.52 18.8268 51.52H41.9628C46.0166 51.52 49.0188 50.5232 50.8481 49.6693C52.214 49.0293 52.9233 48.4693 52.9233 48.4693V47.024H36.4854Z" fill="#F9A431"/>
<path fill-rule="evenodd" clip-rule="evenodd" d="M34.0161 4.13333C33.8769 2.816 33.3228 2.25066 32.7196 2.04266C32.6614 2.02133 32.6076 2.00533 32.5494 1.98933C32.4908 1.97333 32.4321 1.96266 32.3734 1.95733C32.2561 1.936 32.1436 1.93066 32.0316 1.93066C31.9628 1.93066 31.8929 1.936 31.8236 1.94133C31.7596 1.94666 31.6956 1.952 31.6316 1.96266C31.5729 1.968 31.5142 1.97866 31.4609 1.98933C31.1836 2.048 31.0022 2.12266 31.0022 2.12266L24.7254 4.98133L16.0054 8.94933L10.9121 11.2693V47.024H34.0481V4.78933C34.0481 4.55466 34.0374 4.336 34.0161 4.13333ZM20.0481 44.2027H17.0028V41.152H20.0481V44.2027ZM20.0481 38.1013H17.0028V35.0507H20.0481V38.1013ZM20.0481 32.0053H17.0028V28.9547H20.0481V32.0053ZM20.0481 25.296H17.0028V22.2453H20.0481V25.296ZM20.0481 19.1947H17.0028V16.1493H20.0481V19.1947ZM27.9628 44.2027H24.9174V41.152H27.9628V44.2027ZM27.9628 38.1013H24.9174V35.0507H27.9628V38.1013ZM27.9628 32.0053H24.9174V28.9547H27.9628V32.0053ZM27.9628 25.296H24.9174V22.2453H27.9628V25.296ZM27.9628 19.1947H24.9174V16.1493H27.9628V19.1947ZM27.9628 13.0987H24.9174V10.048H27.9628V13.0987Z" fill="#F9A431"/>
<path d="M34.0481 47.024C34.0481 47.6747 34.0481 48.032 34.0481 48.032H36.4854V47.024H34.0481ZM52.9601 47.024H52.9227V48.4693C52.9227 48.4693 52.2134 49.0293 50.8475 49.6693C49.0182 50.5232 46.0155 51.52 41.9622 51.52H18.8267C16.9814 51.52 15.4881 51.424 14.1707 50.8747C12.9867 50.384 11.9467 49.5259 10.9121 48.032V47.024H10.8747C10.3894 46.3307 9.94139 45.616 9.52539 44.8747V48.464L9.77606 48.8213C11.7814 51.712 13.9521 52.5707 16.4374 52.816C17.2001 52.8907 17.9947 52.9067 18.8267 52.9067H41.9627C44.4694 52.9067 46.6027 52.5493 48.3361 52.064C51.7814 51.0981 53.6641 49.648 53.7814 49.5573L54.3094 49.1413V44.8693C53.8987 45.6107 53.4454 46.3307 52.9601 47.024Z" fill="black"/>
<path fill-rule="evenodd" clip-rule="evenodd" d="M56.1548 47.024C56.1281 47.072 56.0961 47.12 56.0695 47.1627C55.9415 47.3712 55.814 47.5787 55.6807 47.7813C55.5148 48.0373 55.3388 48.2933 55.1628 48.5493C55.0081 48.7733 54.8481 48.992 54.6881 49.2101C54.3788 49.6261 54.0588 50.0373 53.7228 50.4373C53.5948 50.5973 53.4615 50.752 53.3281 50.9013C53.1836 51.0768 53.0289 51.2427 52.8801 51.4133C52.5761 51.7493 52.2615 52.0741 51.9409 52.3947C51.7809 52.5547 51.6209 52.7147 51.4561 52.8693C50.7521 53.5472 50.0103 54.1813 49.2375 54.7787C49.1148 54.8747 48.9863 54.9707 48.8588 55.0667C48.2983 55.488 47.7169 55.888 47.1196 56.2667C46.9708 56.3627 46.8209 56.4587 46.6716 56.5493C46.2023 56.8373 45.7276 57.1093 45.2375 57.3648C44.9761 57.5093 44.7095 57.6427 44.4428 57.776C44.1761 57.9093 43.9041 58.0373 43.6268 58.1648C43.6055 58.176 43.59 58.1808 43.5735 58.192C43.3175 58.304 43.0561 58.416 42.7948 58.528C42.5281 58.64 42.2561 58.7467 41.9788 58.8528C41.9575 58.864 41.9361 58.8688 41.9148 58.8741C41.6428 58.9808 41.3708 59.0768 41.0935 59.1733C40.7687 59.2853 40.438 59.392 40.1068 59.488C39.8561 59.568 39.6001 59.6373 39.3436 59.7067C39.0828 59.7813 38.8161 59.8453 38.5548 59.9093C37.9788 60.048 37.3975 60.1707 36.8103 60.272C36.6828 60.2933 36.5548 60.3147 36.4263 60.336C36.2716 60.3627 36.1228 60.384 35.9681 60.4053C35.8289 60.4267 35.6903 60.4427 35.5521 60.4592C35.5409 60.4645 35.5361 60.4645 35.5255 60.4645C34.9708 60.5392 34.4049 60.5925 33.8348 60.6299H33.8081C33.574 60.6459 33.3388 60.6624 33.1047 60.6672C32.982 60.6725 32.8535 60.6779 32.726 60.6779C32.4593 60.6891 32.1927 60.6939 31.9207 60.6939C31.6487 60.6939 31.382 60.6885 31.1153 60.6779C30.9873 60.6779 30.8593 60.6725 30.7367 60.6672C30.4913 60.6619 30.2513 60.6459 30.0113 60.6299C29.4407 60.5931 28.87 60.5392 28.31 60.4645C28.1873 60.4485 28.0593 60.432 27.9313 60.4107C27.7447 60.3899 27.5633 60.3573 27.3767 60.3312C27.2647 60.3152 27.1527 60.2939 27.0407 60.2725C26.47 60.1765 25.9047 60.0597 25.3447 59.9264C25.062 59.8571 24.7793 59.7872 24.4967 59.7077C24.23 59.6384 23.9633 59.5584 23.702 59.4837C23.382 59.3872 23.062 59.2811 22.7473 59.1744C22.4593 59.0731 22.1713 58.9717 21.8887 58.8651C21.606 58.7584 21.3233 58.6464 21.046 58.5291C20.7633 58.4112 20.486 58.2891 20.214 58.1659C19.9367 58.0384 19.6647 57.9104 19.398 57.7771C19.126 57.6437 18.8593 57.5051 18.598 57.3659C18.3367 57.2272 18.0807 57.0837 17.8247 56.9392C17.8193 56.9392 17.814 56.9339 17.8087 56.9285C17.5633 56.7899 17.318 56.6405 17.078 56.496C16.8113 56.3307 16.5447 56.16 16.2833 55.984C16.0327 55.8187 15.7873 55.648 15.542 55.4773C15.286 55.296 15.03 55.1099 14.7793 54.9173C14.5553 54.7472 14.3367 54.5712 14.118 54.3952C13.8887 54.208 13.6593 54.0219 13.4353 53.8245C13.206 53.6325 12.9873 53.4299 12.7687 53.2325C11.862 52.4059 11.014 51.5152 10.2247 50.5717C10.054 50.3691 9.88866 50.1717 9.72866 49.9632C9.542 49.7291 9.36066 49.4939 9.18466 49.2539C9.00866 49.0197 8.838 48.7845 8.66733 48.5445C8.65666 48.5291 8.646 48.5077 8.63533 48.4912C8.32066 48.0379 8.022 47.5792 7.734 47.1099C7.718 47.0832 7.69666 47.0565 7.68066 47.0245H56.1548V47.024Z" fill="#005698"/>
<path d="M35.4183 4.27734C35.4289 4.44268 35.4343 4.61334 35.4343 4.78934V6.96534C35.9036 7.02934 36.3676 7.10934 36.8311 7.20001C37.3009 6.89601 37.8871 6.70401 38.5916 6.70401C39.4711 6.70401 40.4369 7.01868 41.4663 7.64268C45.0503 9.82401 53.5463 14.9067 53.6316 14.96L54.3095 15.36V19.8773C56.3841 23.5733 57.5681 27.84 57.5681 32.3733C57.5681 36.9067 56.3836 41.168 54.3095 44.8693C53.8983 45.6107 53.4455 46.3307 52.9601 47.024C52.9495 47.04 52.9388 47.0613 52.9233 47.0773C52.2887 47.984 51.5953 48.8533 50.8481 49.6693C50.0641 50.5232 49.2268 51.3232 48.3361 52.064C43.8881 55.7813 38.1548 58.0267 31.9201 58.0267C26.1068 58.0267 20.7415 56.0805 16.4375 52.816C15.6428 52.2133 14.8855 51.568 14.1708 50.8741C12.9655 49.7168 11.8721 48.4475 10.9121 47.0768C10.8961 47.0613 10.8855 47.04 10.8748 47.0235C10.3895 46.3301 9.94148 45.6155 9.52548 44.8741C7.45028 41.1733 6.26628 36.9067 6.26628 32.3733C6.26628 27.8347 7.45028 23.5733 9.52494 19.872V15.04C5.80761 19.8293 3.59961 25.8453 3.59961 32.3733C3.59961 37.7333 5.08761 42.752 7.67961 47.024C7.69561 47.0565 7.71694 47.0827 7.73294 47.1093C8.01561 47.5787 8.31428 48.0373 8.63428 48.4907C8.64494 48.5067 8.65561 48.528 8.66628 48.544C8.83694 48.784 9.00761 49.0192 9.18361 49.2533C9.35961 49.4933 9.54094 49.7285 9.72761 49.9627C9.88761 50.1712 10.0529 50.3685 10.2236 50.5712C11.0129 51.5152 11.8609 52.4053 12.7676 53.232C12.9863 53.4293 13.2049 53.632 13.4343 53.824C13.6583 54.0213 13.8876 54.208 14.1169 54.3947C14.3356 54.5707 14.5543 54.7467 14.7783 54.9168C15.0289 55.1088 15.2849 55.2955 15.5409 55.4768C15.7863 55.6475 16.0316 55.8187 16.2823 55.9835C16.5436 56.1595 16.8103 56.3301 17.0769 56.4955C17.3169 56.64 17.5623 56.7893 17.8076 56.928C17.8129 56.9333 17.8183 56.9387 17.8236 56.9387C18.0796 57.0832 18.3356 57.2267 18.5969 57.3653C18.8583 57.5045 19.1249 57.6432 19.3969 57.7765C19.6636 57.9099 19.9356 58.0379 20.2129 58.1653C20.4849 58.288 20.7623 58.4107 21.0449 58.5285C21.3223 58.6459 21.6049 58.7579 21.8876 58.8645C22.1703 58.9712 22.4583 59.0725 22.7463 59.1739C23.0609 59.2805 23.3809 59.3867 23.7009 59.4832C23.9623 59.5579 24.2289 59.6379 24.4956 59.7072C24.7783 59.7867 25.0609 59.8565 25.3436 59.9259C25.9036 60.0592 26.4689 60.1765 27.0396 60.272C27.1516 60.2933 27.2636 60.3147 27.3756 60.3307C27.5623 60.3573 27.7436 60.3893 27.9303 60.4101C28.0583 60.4315 28.1863 60.4475 28.3089 60.464C28.8689 60.5387 29.4396 60.592 30.0103 60.6293C30.2503 60.6453 30.4903 60.6619 30.7356 60.6667C30.8583 60.672 30.9863 60.6773 31.1143 60.6773C31.3809 60.6885 31.6476 60.6933 31.9196 60.6933C32.1916 60.6933 32.4583 60.688 32.7249 60.6773C32.8524 60.6773 32.9804 60.672 33.1036 60.6667C33.3377 60.6613 33.5729 60.6453 33.8071 60.6293H33.8343C34.4044 60.5925 34.9703 60.5387 35.5249 60.464C35.5356 60.464 35.5404 60.464 35.5516 60.4587C35.6903 60.4427 35.8289 60.4261 35.9676 60.4048C36.1223 60.3835 36.2711 60.3621 36.4257 60.3355C36.5537 60.3141 36.6817 60.2928 36.8097 60.2715C37.3969 60.1707 37.9777 60.0475 38.5543 59.9088C38.8156 59.8448 39.0823 59.7808 39.3431 59.7061C39.5991 59.6368 39.8556 59.5675 40.1063 59.4875C40.4369 59.3915 40.7676 59.2848 41.0929 59.1728C41.3708 59.0763 41.6423 58.9808 41.9143 58.8736C41.9356 58.8683 41.9569 58.8629 41.9783 58.8523C42.2561 58.7461 42.5276 58.6395 42.7943 58.5275C43.0556 58.4155 43.3164 58.3035 43.5729 58.1915C43.5889 58.1803 43.6049 58.1755 43.6263 58.1643C43.9041 58.0368 44.1756 57.9088 44.4423 57.7755C44.7089 57.6421 44.9756 57.5088 45.2369 57.3643C45.7276 57.1088 46.2023 56.8368 46.6711 56.5488C46.8204 56.4581 46.9703 56.3616 47.1191 56.2661C47.7164 55.8875 48.2977 55.4875 48.8583 55.0661C48.9857 54.9701 49.1137 54.8741 49.2369 54.7781C50.0097 54.1808 50.7516 53.5461 51.4556 52.8688C51.6209 52.7141 51.7804 52.5541 51.9404 52.3941C52.2609 52.0736 52.5751 51.7488 52.8796 51.4128C53.0284 51.2421 53.1831 51.0763 53.3276 50.9008C53.4609 50.7515 53.5943 50.5968 53.7223 50.4368C54.0583 50.0368 54.3777 49.6256 54.6876 49.2096C54.8476 48.9915 55.0076 48.7728 55.1623 48.5488C55.3383 48.2928 55.5143 48.0368 55.6801 47.7808C55.8135 47.5781 55.9409 47.3701 56.0689 47.1621C56.0956 47.1195 56.1276 47.0715 56.1543 47.0235C58.7463 42.7515 60.2343 37.7328 60.2343 32.3728C60.2343 17.92 49.4076 5.99468 35.4183 4.27734Z" fill="#005698"/>
<path d="M50.4799 14.688C50.4741 14.6827 50.4741 14.6827 50.4741 14.6827C47.6687 13.0027 43.1407 10.288 40.7466 8.83201C40.5226 8.69868 40.3135 8.58241 40.1167 8.49068C38.8495 7.90028 38.0133 8.14401 37.8133 8.24535C37.5247 8.39148 37.3226 8.53868 37.2373 8.62401C37.2101 8.65068 37.1834 8.68268 37.1573 8.70935C37.1039 8.76801 37.0565 8.82668 37.0079 8.88535C36.9653 8.94401 36.9231 9.00801 36.8858 9.06668C36.8485 9.13068 36.8106 9.18935 36.7791 9.24801C36.7311 9.33868 36.6885 9.42935 36.657 9.50935C36.529 9.81868 36.4863 10.048 36.4863 10.048V47.024H52.9237V16.1493C52.9226 16.1493 51.9306 15.5573 50.4799 14.688ZM46.2239 44.2027H43.1786V41.152H46.2239V44.2027ZM46.2239 38.1013H43.1786V35.0507H46.2239V38.1013ZM46.2239 31.392H43.1786V28.3467H46.2239V31.392ZM46.2239 25.296H43.1786V22.2453H46.2239V25.296ZM46.2239 19.1947H43.1786V16.1493H46.2239V19.1947Z" fill="#F9A431"/>
</svg>
