<svg width="64" height="64" viewBox="0 0 64 64" fill="none" xmlns="http://www.w3.org/2000/svg">
<path fill-rule="evenodd" clip-rule="evenodd" d="M45.2908 47.4987L47.3174 49.2053C47.3761 49.2592 47.4566 49.2805 47.5361 49.2805C47.6374 49.2805 47.7441 49.2432 47.8188 49.1627L49.4828 47.4987H45.2908ZM23.3121 47.4987C24.6881 48.1333 26.1441 48.6139 27.6588 48.9285L28.0801 53.8192C28.0961 54.0005 28.2668 54.144 28.4641 54.144H35.6801C35.8769 54.144 36.0476 54 36.0641 53.8192L36.4908 48.8747C37.9201 48.56 39.2961 48.096 40.5974 47.4987H23.3121ZM14.7734 47.4987L16.3574 49.0832C16.4321 49.1627 16.5388 49.2005 16.6401 49.2005C16.7201 49.2005 16.8001 49.1792 16.8588 49.1259L18.7894 47.4987H14.7734Z" fill="#F9A431"/>
<path d="M49.4828 47.4987L47.8188 49.1627C47.7436 49.2427 47.6375 49.2805 47.5362 49.2805C47.4567 49.2805 47.3762 49.2533 47.3175 49.2053L45.2908 47.4987H40.5975C39.2962 48.096 37.9196 48.56 36.4908 48.8747L36.0642 53.8192C36.0482 54.0005 35.877 54.144 35.6802 54.144H28.4642C28.2668 54.144 28.0962 54 28.0802 53.8192L27.6588 48.9285C26.1442 48.6139 24.6882 48.1339 23.3122 47.4987H18.7895L16.8588 49.1259C16.8002 49.1739 16.7202 49.2005 16.6402 49.2005C16.5388 49.2005 16.4322 49.1632 16.3575 49.0832L14.7735 47.4987H12.5068L15.2268 50.2139C15.6002 50.5867 16.1122 50.8005 16.6402 50.8005C17.0988 50.8005 17.5415 50.6405 17.8882 50.3525L20.7202 47.9632C22.4375 48.9552 24.2562 49.7125 26.1655 50.2192L26.4855 53.9525C26.5708 54.9605 27.4402 55.744 28.4642 55.744H35.6802C36.7042 55.744 37.5735 54.96 37.6588 53.9573L37.9836 50.1547C39.845 49.6373 41.621 48.8853 43.2956 47.9093L46.2876 50.4267C46.6343 50.72 47.0764 50.8805 47.5356 50.8805C48.0636 50.8805 48.5756 50.6672 48.949 50.2933L51.7431 47.4987H49.4828Z" fill="#005698"/>
<path d="M37.9461 5.936L38.0154 6.768C39.7754 7.25867 41.4607 7.96267 43.0554 8.86934L44.1007 7.98934C42.1594 7.08267 40.0954 6.384 37.9461 5.936ZM53.4021 14.9813L52.0101 16.64C53.5519 18.432 54.8474 20.432 55.8559 22.592L57.7973 22.7573C57.9786 22.7733 58.1493 22.816 58.3146 22.88C57.1141 19.9733 55.4447 17.3067 53.4021 14.9813ZM59.5834 26.736V31.952C59.5834 32.7947 59.0559 33.5307 58.3039 33.8133C58.2767 38.8373 56.8314 43.5253 54.3519 47.4981H9.86072C7.37539 43.5253 5.93539 38.8315 5.90872 33.7973C5.18339 33.504 4.67139 32.7787 4.67139 31.952V26.56C4.08472 28.832 3.77539 31.2107 3.77539 33.664C3.77539 49.312 16.4581 61.9947 32.1061 61.9947C47.7541 61.9947 60.4367 49.312 60.4367 33.664C60.4367 31.2747 60.1434 28.9547 59.5834 26.736ZM10.7567 15.04C8.73006 17.3547 7.07672 20.0107 5.89272 22.9013C6.07406 22.8213 6.26072 22.7733 6.46339 22.7573L8.35672 22.5973C9.35406 20.4533 10.6341 18.4693 12.1541 16.6933L10.7567 15.04ZM20.0314 8.032L20.9594 8.81067C22.5967 7.888 24.3301 7.184 26.1381 6.704L26.2021 5.952C24.0421 6.40534 21.9781 7.10934 20.0314 8.032Z" fill="#005698"/>
<path d="M57.6582 24.352L56.559 24.256L52.3776 23.8987C51.8336 21.44 50.8523 19.1467 49.5296 17.104L50.927 15.4453L52.303 13.8027L52.9638 13.0187C53.0816 12.88 53.0603 12.656 52.9216 12.5173L47.8176 7.41334C47.7424 7.33867 47.6363 7.29601 47.535 7.29601C47.4555 7.29601 47.375 7.32267 47.3163 7.37601L45.6523 8.77867L43.887 10.2613L43.2091 10.832C41.1883 9.53601 38.9318 8.58134 36.5158 8.04267L36.5003 7.83467L36.3083 5.64267L36.063 2.75734C36.0528 2.57601 35.8768 2.43201 35.6795 2.43201H28.4635C28.2662 2.43201 28.0955 2.57601 28.0795 2.75734L27.8342 5.65334L27.6422 7.84534L27.6315 7.98934C25.1675 8.50667 22.8635 9.46667 20.7995 10.768L20.2448 10.2987L18.4848 8.82134L16.8582 7.45067C16.7995 7.39734 16.7195 7.37601 16.6395 7.37601C16.5382 7.37601 16.4368 7.41334 16.3568 7.49334L11.2528 12.5973C11.1142 12.736 11.0982 12.96 11.2155 13.0987L11.8555 13.856L13.2368 15.4987L14.4795 16.976C13.1035 19.0613 12.0902 21.408 11.5355 23.9253L7.64748 24.2613L6.59682 24.352C6.41548 24.3627 6.27148 24.5387 6.27148 24.736V31.952C6.27148 32.1493 6.41548 32.3195 6.59682 32.336L11.4875 32.7573C12.0155 35.2853 13.0022 37.6427 14.3515 39.7493L11.2102 43.4768C11.0928 43.616 11.1142 43.84 11.2528 43.9781L14.7728 47.4981H18.7888L20.5702 45.9995C21.4395 46.5648 22.3568 47.0715 23.3115 47.4981H40.5968C41.5888 47.056 42.5382 46.528 43.4395 45.9355L45.2901 47.4981H49.4822L52.9222 44.0587C53.0608 43.9195 53.0821 43.6955 52.9643 43.5573L49.6469 39.616C50.9483 37.5573 51.9083 35.2528 52.4256 32.7835L57.6582 32.3355C57.8395 32.3195 57.983 32.1488 57.983 31.9515V24.736C57.9835 24.5387 57.8395 24.368 57.6582 24.352ZM32.0155 37.4987C26.8688 37.4987 22.6928 33.3232 22.6928 28.1765C22.6928 23.0299 26.8688 18.8539 32.0155 18.8539C37.1616 18.8539 41.3376 23.0299 41.3376 28.1765C41.3382 33.3227 37.1622 37.4987 32.0155 37.4987Z" fill="#F9A431"/>
</svg>
