<svg width="64" height="64" viewBox="0 0 64 64" fill="none" xmlns="http://www.w3.org/2000/svg">
<path fill-rule="evenodd" clip-rule="evenodd" d="M6.54883 47.3621C11.7158 55.8928 21.0838 61.5952 31.7851 61.5952C42.4864 61.5952 51.8555 55.8933 57.0214 47.3621H6.54883Z" fill="#005698"/>
<path d="M61.2695 32.112C61.2695 28.7307 60.6988 25.4827 59.6482 22.4587L57.1735 23.4773C58.1015 26.1867 58.6028 29.0933 58.6028 32.112C58.6028 37.7707 56.8375 43.0293 53.8295 47.36C48.9868 54.3467 40.9068 58.928 31.7815 58.928C22.6562 58.928 14.5815 54.3467 9.73883 47.36C6.73083 43.0293 4.96549 37.7712 4.96549 32.112C4.96549 17.3227 16.9975 5.296 31.7815 5.296C35.4242 5.296 38.8962 6.02667 42.0642 7.344L43.1948 4.92267C39.6855 3.44533 35.829 2.62933 31.7815 2.62933C15.4988 2.62933 2.29883 15.8293 2.29883 32.112C2.29883 37.6907 3.85616 42.912 6.55483 47.36H6.54949C6.62949 47.4933 6.71483 47.6213 6.79483 47.7547C6.86416 47.856 6.92816 47.968 6.99216 48.0693C7.17883 48.3573 7.37083 48.6453 7.56816 48.928C7.74416 49.1835 7.92549 49.4347 8.11216 49.6853C8.29349 49.9307 8.4855 50.176 8.6775 50.4213C8.86949 50.6667 9.06683 50.9067 9.26416 51.1413C9.66416 51.6165 10.0802 52.0747 10.5122 52.5232C10.7255 52.7472 10.9442 52.9653 11.1628 53.184C11.3868 53.4027 11.6108 53.6165 11.8402 53.824C12.0695 54.032 12.2988 54.24 12.5335 54.4427C12.7682 54.6453 13.0082 54.8427 13.2482 55.04C13.4882 55.2315 13.7335 55.424 13.9788 55.6101C14.2242 55.7973 14.4642 55.9733 14.7148 56.1547L14.7308 56.1653C14.9815 56.3413 15.2428 56.5173 15.4988 56.6933C15.7602 56.864 16.0215 57.0293 16.2828 57.1947C16.5495 57.36 16.8162 57.5195 17.0882 57.6741C17.3602 57.8288 17.6322 57.9835 17.9095 58.128C18.1815 58.2768 18.4588 58.4213 18.7415 58.56C18.9975 58.688 19.2588 58.8107 19.5202 58.9333C19.5895 58.9653 19.6535 58.992 19.7228 59.024C19.9682 59.1307 20.2082 59.2373 20.4588 59.3387C20.6562 59.424 20.8588 59.5045 21.0615 59.5787C21.2322 59.6533 21.4028 59.7173 21.5788 59.776C22.1548 59.9947 22.7362 60.1867 23.3228 60.3627C23.5362 60.4267 23.7495 60.4853 23.9628 60.544C24.0215 60.56 24.0748 60.5765 24.1282 60.5867C24.3735 60.6565 24.6188 60.72 24.8695 60.7787C25.1148 60.8373 25.3548 60.8907 25.6002 60.944L25.6962 60.9653C25.7922 60.9813 25.8935 61.0027 25.9895 61.024C26.2455 61.0773 26.5015 61.1253 26.7575 61.1685C26.8482 61.184 26.9442 61.2005 27.0348 61.2165C27.3015 61.2592 27.5682 61.296 27.8348 61.3339L27.8722 61.3392C28.1495 61.3765 28.4268 61.4085 28.7042 61.4357C29.0135 61.4677 29.3228 61.4939 29.6375 61.5152C29.7388 61.5264 29.8455 61.5365 29.9468 61.5365L29.9895 61.5419H30.0108C30.1922 61.5531 30.3735 61.5632 30.5602 61.5691H30.5708C30.6935 61.5744 30.8215 61.5797 30.9388 61.5797C31.2215 61.5909 31.4994 61.5957 31.7815 61.5957C32.0642 61.5957 32.3415 61.5904 32.6242 61.5797C32.7415 61.5797 32.8695 61.5744 32.9922 61.5691H33.0028C33.19 61.5632 33.3708 61.5531 33.5522 61.5419H33.5735L33.6162 61.5365C33.717 61.5365 33.8242 61.5259 33.9255 61.5152C34.2402 61.4939 34.5495 61.4672 34.8588 61.4357C35.1362 61.4085 35.4135 61.3771 35.6908 61.3392L35.7282 61.3339C35.9948 61.2965 36.2615 61.2592 36.5282 61.2165C36.6188 61.2005 36.7148 61.184 36.8055 61.1685C37.0615 61.1259 37.3175 61.0773 37.5735 61.024C37.6642 61.008 37.7548 60.992 37.8402 60.9707L37.9148 60.9547C38.0807 60.9227 38.2508 60.8853 38.4162 60.8427C38.5436 60.816 38.6716 60.784 38.8002 60.752C38.9922 60.7093 39.1788 60.6613 39.3708 60.6075L39.4028 60.5968C39.6215 60.5429 39.8402 60.4795 40.0535 60.4155C40.4535 60.3035 40.8482 60.1755 41.238 60.0421C41.4295 59.9781 41.622 59.9141 41.8082 59.8395C41.862 59.8283 41.9095 59.8069 41.9575 59.7856C42.1548 59.7163 42.3468 59.6469 42.5388 59.5675C42.7308 59.4923 42.9234 59.4181 43.1095 59.3376C43.3282 59.2469 43.5468 59.1509 43.765 59.0555L43.7922 59.0443C43.9682 58.9643 44.1436 58.8843 44.3143 58.8043C44.533 58.7035 44.7516 58.5963 44.965 58.4896C45.1996 58.3723 45.429 58.2496 45.6588 58.1269C45.9362 57.9824 46.2076 57.8277 46.4802 57.6731C46.741 57.5243 47.0023 57.3637 47.2642 57.2037C47.8082 56.8731 48.3362 56.5216 48.853 56.1531C49.1042 55.9717 49.3436 55.7957 49.5895 55.6085C49.8348 55.4219 50.0802 55.2299 50.3196 55.0384C50.5596 54.8411 50.7996 54.6437 51.0348 54.4411C51.269 54.2384 51.4983 54.0299 51.7282 53.8224C51.9575 53.6144 52.1815 53.4011 52.4055 53.1824C52.6242 52.9637 52.8428 52.7456 53.0567 52.5216C53.4887 52.0731 53.9047 51.6149 54.3047 51.1397C54.502 50.9056 54.6988 50.6651 54.8914 50.4197C55.0839 50.1744 55.2754 49.9291 55.4572 49.6837C55.6439 49.4331 55.8247 49.1824 56.0012 48.9264C56.1879 48.6597 56.3692 48.3877 56.5452 48.1152C56.6466 47.9605 56.7372 47.8059 56.8391 47.6512C56.8972 47.5504 56.9612 47.4544 57.0204 47.3579H57.0151C59.7122 42.912 61.2695 37.6907 61.2695 32.112Z" fill="#005698"/>
<path d="M53.0127 25.2L50.5327 26.224C51.0607 27.9787 51.3433 29.84 51.3433 31.7653C51.3433 38.1547 48.2287 43.8347 43.4399 47.36C40.2345 49.7232 36.2719 51.12 31.9945 51.12C27.7119 51.12 23.7492 49.7232 20.5439 47.36C15.754 43.8347 12.6393 38.1547 12.6393 31.7653C12.6393 21.0933 21.322 12.416 31.994 12.416C34.4948 12.416 36.8847 12.8907 39.082 13.76L40.2068 11.3333C37.6681 10.3093 34.8948 9.74933 31.994 9.74933C19.834 9.74933 9.97266 19.6053 9.97266 31.7653C9.97266 37.856 12.4473 43.3707 16.4473 47.36C20.4313 51.3333 25.9247 53.7867 31.994 53.7867C38.0633 53.7867 43.5567 51.3333 47.5401 47.36C51.5348 43.3712 54.0095 37.8565 54.0095 31.7653C54.01 29.4773 53.6633 27.2747 53.0127 25.2Z" fill="#005698"/>
<path d="M45.898 28.1387L43.4127 29.168C43.6634 30.128 43.7967 31.1307 43.7967 32.1707C43.7967 38.7621 38.4367 44.128 31.8447 44.128C25.2527 44.128 19.8874 38.7621 19.8874 32.1707C19.8874 25.5787 25.2527 20.2133 31.8447 20.2133C33.2207 20.2133 34.538 20.448 35.77 20.88L36.9007 18.4427C35.3274 17.8667 33.6207 17.5467 31.8447 17.5467C23.77 17.5467 17.2207 24.096 17.2207 32.1707C17.2207 40.2453 23.77 46.7947 31.8447 46.7947C39.9194 46.7947 46.4634 40.2453 46.4634 32.1707C46.4634 30.7733 46.266 29.4187 45.898 28.1387Z" fill="#005698"/>
<path d="M38.5875 32.2293C38.5875 35.92 35.596 38.9173 31.9053 38.9173C28.2147 38.9173 25.2227 35.92 25.2227 32.2293C25.2227 28.5387 28.2141 25.5467 31.9048 25.5467C32.4595 25.5467 32.9981 25.616 33.5101 25.7387L30.6781 31.824C30.4381 32.3413 30.5395 32.9547 30.9341 33.3653C31.2008 33.648 31.5635 33.7979 31.9368 33.7979C32.1128 33.7979 32.2941 33.7605 32.4648 33.6912L38.5075 31.1952C38.5608 31.5307 38.5875 31.8773 38.5875 32.2293Z" fill="#F9A431"/>
<path d="M63.4662 19.3227L59.0235 21.1573L56.5542 22.176L52.4209 23.888L49.9462 24.912L45.3115 26.8267L42.8475 27.8453L38.0107 29.8453L31.7969 32.4107L34.6822 26.2133L36.9115 21.4133L38.0422 18.9867L40.2129 14.3147L41.3441 11.8933L43.1942 7.91466L44.3201 5.48799L46.2395 1.36533L48.5174 7.93066L50.1867 12.7573L50.7201 14.2933L52.1595 14.864L56.7782 16.6827L63.4662 19.3227Z" fill="#F9A431"/>
</svg>
