<svg width="64" height="64" viewBox="0 0 64 64" fill="none" xmlns="http://www.w3.org/2000/svg">
<path d="M7.5791 6.89066V9.23732H9.9791V6.89066H7.5791Z" fill="#F9A431"/>
<path d="M28.2403 7.42399V28.9333C28.2403 29.2267 28.0003 29.4667 27.707 29.4667H1.82435C1.53102 29.4667 1.29102 29.2267 1.29102 28.9333V7.42399C1.29102 7.13066 1.53102 6.89066 1.82435 6.89066H6.51235V9.23732H3.63235V27.12H25.8937V9.23732H23.0884V6.89066H27.707C28.0003 6.89066 28.2403 7.13066 28.2403 7.42399Z" fill="#F9A431"/>
<path d="M18.5552 6.89066H11.0459V9.23732H18.5552V6.89066Z" fill="#F9A431"/>
<path d="M9.97812 5.95732V9.23732C9.95679 9.88799 9.42879 10.4 8.77812 10.4C8.12746 10.4 7.59946 9.88799 7.57812 9.23732V5.95732C7.57812 5.29599 8.11679 4.75732 8.77812 4.75732C9.43946 4.75732 9.97812 5.29599 9.97812 5.95732Z" fill="#F9A431"/>
<path d="M24.7462 11.7003H20.7793V15.6672H24.7462V11.7003Z" fill="#F9A431"/>
<path d="M19.4132 11.7003H15.4463V15.6672H19.4132V11.7003Z" fill="#F9A431"/>
<path d="M24.7462 17.0336H20.7793V21.0005H24.7462V17.0336Z" fill="#F9A431"/>
<path d="M19.4132 17.0336H15.4463V21.0005H19.4132V17.0336Z" fill="#F9A431"/>
<path d="M14.0792 17.0336H10.1123V21.0005H14.0792V17.0336Z" fill="#F9A431"/>
<path d="M8.74623 17.0336H4.7793V21.0005H8.74623V17.0336Z" fill="#F9A431"/>
<path d="M19.4132 22.3669H15.4463V26.3339H19.4132V22.3669Z" fill="#F9A431"/>
<path d="M14.0792 22.3669H10.1123V26.3339H14.0792V22.3669Z" fill="#F9A431"/>
<path d="M8.74623 22.3669H4.7793V26.3339H8.74623V22.3669Z" fill="#F9A431"/>
<path d="M32.2213 3C28.824 3 25.56 3.576 22.5307 4.64267C23.08 5.02133 23.4853 5.59733 23.6453 6.26933H26.5787C28.3973 5.87467 30.2853 5.66667 32.2213 5.66667C46.8613 5.66667 58.776 17.5547 58.776 32.168C58.776 36.4613 57.736 40.6747 55.7573 44.4507C56.616 41.9387 57.0853 39.24 57.0853 36.4347C57.0853 22.728 45.9547 11.6133 32.2213 11.6133C31.4587 11.6133 30.7013 11.6453 29.9493 11.72V15.4693C30.696 15.3893 31.4533 15.3467 32.2213 15.3467C43.8747 15.3467 53.352 24.808 53.352 36.4347C53.352 40.4027 52.248 44.1147 50.3333 47.288H14.104C12.1893 44.1147 11.0853 40.4027 11.0853 36.4347C11.0853 34.9307 11.2453 33.464 11.5493 32.0453H7.74133C7.48533 33.4693 7.352 34.936 7.352 36.4347C7.352 39.2347 7.816 41.928 8.67467 44.4347C6.70133 40.6587 5.66667 36.456 5.66667 32.168V32.0453H3V32.168C3 37.704 4.54667 42.8773 7.224 47.288C12.3493 55.7093 21.6293 61.336 32.2213 61.336C42.8133 61.336 52.0933 55.7093 57.2187 47.288C59.896 42.8773 61.4427 37.704 61.4427 32.168C61.4427 16.0613 48.36 3 32.2213 3Z" fill="#005698"/>
<path d="M22.0221 5.95732V9.23732C22.0114 9.55199 21.8834 9.83999 21.6701 10.048C21.6434 10.0747 21.6167 10.1013 21.5847 10.128C21.4834 10.2133 21.3661 10.2773 21.2381 10.3253C21.2114 10.336 21.1794 10.3413 21.1474 10.352C21.0834 10.3733 21.0141 10.3893 20.9447 10.3947C20.9021 10.4 20.8647 10.4 20.8221 10.4C20.7794 10.4 20.7421 10.4 20.6994 10.3947C20.6301 10.3893 20.5607 10.3733 20.4967 10.352C20.4647 10.3413 20.4327 10.336 20.4061 10.3253C20.2781 10.2773 20.1607 10.2133 20.0594 10.128C20.0274 10.1013 20.0007 10.0747 19.9741 10.048C19.7607 9.83999 19.6327 9.55199 19.6221 9.23732V5.95732C19.6221 5.71199 19.6967 5.48266 19.8194 5.29066C20.0381 4.97066 20.4061 4.75732 20.8221 4.75732C21.2381 4.75732 21.6061 4.97066 21.8247 5.29066C21.9474 5.48266 22.0221 5.71199 22.0221 5.95732Z" fill="#F9A431"/>
<path d="M44.8912 33.9808V36.0981C44.8912 36.5248 44.4592 36.5141 44.4592 36.5141L35.2645 36.8448C34.6085 38.3328 33.1258 39.3675 31.3978 39.3675C29.0618 39.3675 27.1738 37.4795 27.1738 35.1488C27.1738 33.5595 28.0538 32.1675 29.3552 31.4528L30.0432 17.8155C30.0432 17.8155 30.0645 17.4155 30.4005 17.4155C30.4005 17.4155 31.9098 17.4155 32.6138 17.4155C33.0192 17.4155 32.9925 17.8315 32.9925 17.8315L33.6432 31.5755C34.2938 31.9861 34.8272 32.5675 35.1685 33.2608L44.5072 33.5968C44.5072 33.5968 44.8912 33.6288 44.8912 33.9808Z" fill="#F9A431"/>
</svg>
