<svg width="64" height="64" viewBox="0 0 64 64" fill="none" xmlns="http://www.w3.org/2000/svg">
<path fill-rule="evenodd" clip-rule="evenodd" d="M40.7175 11.2522H40.6801C40.7009 11.008 40.7175 10.7632 40.7175 10.5136C40.7175 5.69704 36.8097 1.79251 31.9889 1.79251C27.1681 1.79251 23.2604 5.69704 23.2604 10.5136C23.2604 10.7866 23.2764 11.056 23.3015 11.3226H23.2604C23.2604 11.3226 23.2225 12.184 23.7372 13.577C25.4812 18.2965 29.71 29.1994 31.3367 33.3834C31.3703 33.4704 31.4007 33.5557 31.4348 33.6357C31.6924 34.2389 32.2503 34.2336 32.5409 33.6384C32.5788 33.56 32.6049 33.472 32.6391 33.385C34.2636 29.193 38.4956 18.249 40.2412 13.5125C40.7553 12.1157 40.7175 11.2522 40.7175 11.2522ZM31.9889 14.9306C29.7591 14.9306 27.9516 13.1242 27.9516 10.8965C27.9516 8.66878 29.7591 6.86238 31.9889 6.86238C34.2188 6.86238 36.0268 8.66824 36.0268 10.8965C36.0268 13.1248 34.2188 14.9306 31.9889 14.9306Z" fill="#F9A431"/>
<path fill-rule="evenodd" clip-rule="evenodd" d="M40.7144 11.1253H40.6771C40.6883 11.0133 40.6931 10.9067 40.7043 10.7947C40.7096 10.656 40.7149 10.5227 40.7149 10.384C40.7149 9.38667 40.5496 8.432 40.2403 7.54134C39.0616 4.12267 35.8136 1.664 31.9896 1.664C28.1917 1.664 24.9597 4.08534 23.7597 7.46667C23.4344 8.37867 23.2584 9.36 23.2584 10.384C23.2584 10.4907 23.2584 10.6027 23.2691 10.7093C23.2744 10.8747 23.2851 11.0347 23.3011 11.1947H23.2584C23.2584 11.1947 23.2211 12.0533 23.7384 13.4507C23.8184 13.664 23.9037 13.8933 23.9891 14.1333C24.2877 14.928 24.6344 15.8507 25.0131 16.8587C25.4451 17.9893 25.9144 19.2213 26.4051 20.496C26.7464 21.3813 27.0984 22.2933 27.4504 23.2C28.1064 24.912 28.7624 26.6187 29.3651 28.176C30.1651 30.2293 30.8637 32.0267 31.3384 33.2533C31.3704 33.344 31.4024 33.4293 31.4344 33.5093C31.5624 33.808 31.7651 33.9573 31.9731 33.9573C32.1811 33.9573 32.3944 33.808 32.5384 33.5093C32.5757 33.4293 32.6024 33.3435 32.6397 33.2587C33.1144 32.0373 33.8131 30.2347 34.6024 28.176C35.1997 26.6293 35.8504 24.944 36.5016 23.248C36.8531 22.336 37.2003 21.424 37.5411 20.5333C38.0424 19.2213 38.5229 17.9573 38.9597 16.8C39.3437 15.792 39.6904 14.8693 39.9896 14.0747C40.0744 13.8347 40.1597 13.6053 40.2403 13.3867C40.7571 11.9893 40.7144 11.1253 40.7144 11.1253ZM35.4771 12.7893C34.7837 13.9947 33.4829 14.8 31.9891 14.8C30.5064 14.8 29.2104 14 28.5171 12.8107C28.1544 12.2133 27.9517 11.5147 27.9517 10.768C27.9517 10.2987 28.0317 9.84534 28.1864 9.42934C28.7304 7.86134 30.2291 6.736 31.9891 6.736C33.7651 6.736 35.2691 7.87734 35.8077 9.46667C35.9523 9.872 36.0264 10.3147 36.0264 10.768C36.0264 11.504 35.8291 12.1973 35.4771 12.7893Z" fill="#F9A431"/>
<path d="M43.2798 8.72531L43.2905 8.91198C43.3491 9.39731 43.3811 9.88798 43.3811 10.384C43.3811 10.5386 43.3811 10.6826 43.3705 10.8213L43.3811 11.008C43.3865 11.1573 43.3923 11.4986 43.3278 11.9946C45.4979 13.1413 47.4825 14.608 49.2051 16.3306C53.6425 20.7733 56.3838 26.8906 56.3838 33.664C56.3838 38.9173 54.7358 43.776 51.9198 47.7648H47.1251C50.7038 44.0208 52.9011 38.9434 52.9011 33.3594C52.9011 25.6101 48.6665 18.8474 42.3891 15.2581C42.0851 16.0741 41.7379 17.0021 41.3545 18.0154C42.5865 18.7674 43.7225 19.6581 44.7411 20.6768C47.9897 23.9248 49.995 28.3994 49.995 33.3594C49.995 38.3194 47.9897 42.7941 44.7411 46.0421C44.1171 46.6661 43.4505 47.2421 42.747 47.7642H34.7571C41.3171 46.4533 46.2558 40.6613 46.2558 33.7173C46.2558 28.7573 43.7379 24.384 39.9038 21.8133C39.5518 22.736 39.1945 23.68 38.8313 24.6186C39.2425 24.9333 39.6313 25.2693 39.9993 25.6373C42.0739 27.712 43.3486 30.5546 43.3486 33.7173C43.3486 36.8746 42.0734 39.7232 39.9993 41.7925C37.9299 43.8672 35.0819 45.1413 31.9246 45.1413C28.7673 45.1413 25.9193 43.8666 23.8446 41.7925C21.7753 39.7232 20.5006 36.8746 20.5006 33.7173C20.5006 30.5546 21.7753 27.712 23.8446 25.6373C24.2393 25.248 24.6553 24.8853 25.1033 24.5493C24.7459 23.616 24.3886 22.6826 24.0313 21.76C20.1486 24.32 17.5939 28.72 17.5939 33.7173C17.5939 40.6618 22.5326 46.4533 29.0926 47.7653H21.3651C20.6611 47.2432 19.9945 46.6666 19.3705 46.0432C16.1225 42.7952 14.1171 38.3205 14.1171 33.3605C14.1171 28.4005 16.1225 23.9258 19.3705 20.6778C20.3518 19.6965 21.4451 18.8272 22.6345 18.0965C22.2505 17.0832 21.8985 16.1445 21.5945 15.3285C15.3865 18.9392 11.2105 25.6592 11.2105 33.3605C11.2105 38.9445 13.4131 44.0218 16.9918 47.7658H11.8238C9.00779 43.776 7.35979 38.9173 7.35979 33.664C7.35979 26.8906 10.1011 20.7733 14.5385 16.3306C16.3198 14.5493 18.3731 13.0453 20.6291 11.8773C20.5865 11.4826 20.5918 11.2053 20.5971 11.0773L20.6078 10.8693C20.5971 10.704 20.5918 10.544 20.5918 10.384C20.5918 9.87198 20.6291 9.37065 20.6931 8.87464L20.7038 8.61331C11.1251 12.8853 4.45312 22.496 4.45312 33.664C4.45312 48.8053 16.7251 61.0826 31.8718 61.0826C47.0137 61.0826 59.2905 48.8048 59.2905 33.664C59.2905 22.5866 52.7251 13.0506 43.2798 8.72531Z" fill="#005698"/>
<path d="M38.1649 33.776C38.1649 37.1893 35.3974 39.9573 31.9841 39.9573C28.5707 39.9573 25.8027 37.1899 25.8027 33.776C25.8027 32.3093 26.3147 30.9547 27.1734 29.8987C27.8401 31.6107 28.4267 33.12 28.8534 34.224L28.8747 34.2827C28.9121 34.3787 28.9441 34.4693 28.9814 34.5547C29.5254 35.8293 30.6721 36.624 31.9734 36.624C33.2161 36.624 34.3521 35.8773 34.9387 34.6827C35.0294 34.4907 35.0833 34.336 35.1147 34.2453L35.1259 34.2187C35.5526 33.1147 36.1339 31.6107 36.7953 29.904C37.6529 30.96 38.1649 32.3093 38.1649 33.776Z" fill="#F9A431"/>
</svg>
