<svg width="72" height="80" viewBox="0 0 72 80" fill="none" xmlns="http://www.w3.org/2000/svg">
<g clip-path="url(#clip0)">
<path d="M69.9829 40.634H58.4414V69.0999H69.9829V40.634Z" fill="#F9A431"/>
<path d="M50.9371 47.1921H39.3955V69.1H50.9371V47.1921Z" fill="#F9A431"/>
<path d="M32.9552 51.2333V69.0998H21.4287V64.4711C28.8364 65.7498 29.3188 61.7319 29.3188 61.7319C29.3188 61.7319 27.0139 62.2669 24.8339 61.5574C23.2929 61.0556 21.8416 58.9169 21.4287 58.1583V51.2332H32.9552V51.2333Z" fill="#F9A431"/>
<path d="M67.7509 12.2024C52.4214 24.8929 44.8101 40.6324 44.8101 40.6324L44.2742 29.2183C24.0862 37.9123 17.8418 50.9516 19.2455 57.7181C20.3359 62.9824 27.4077 63.1087 27.4077 63.1087C-4.06291 66.4037 -5.55287 48.5023 16.3502 31.838C27.6013 23.2777 40.3077 17.3073 40.3077 17.3073L32.9108 7.84229C32.9108 7.84229 40.6518 10.864 49.0905 11.6219L67.7509 12.2024Z" fill="#F9A431"/>
</g>
<defs>
<clipPath id="clip0">
<rect width="72" height="80" fill="white"/>
</clipPath>
</defs>
</svg>
