<svg width="20" height="20" viewBox="0 0 20 20" fill="none" xmlns="http://www.w3.org/2000/svg">
<g clip-path="url(#clip0)">
<path d="M13.7501 0H6.25006C2.79881 0 6.10352e-05 2.79875 6.10352e-05 6.25V13.75C6.10352e-05 17.2013 2.79881 20 6.25006 20H13.7501C17.2013 20 20.0001 17.2013 20.0001 13.75V6.25C20.0001 2.79875 17.2013 0 13.7501 0ZM18.1251 13.75C18.1251 16.1625 16.1626 18.125 13.7501 18.125H6.25006C3.83756 18.125 1.87506 16.1625 1.87506 13.75V6.25C1.87506 3.8375 3.83756 1.875 6.25006 1.875H13.7501C16.1626 1.875 18.1251 3.8375 18.1251 6.25V13.75Z" fill="#005698"/>
<path d="M10.0001 5C7.23881 5 5.00006 7.23875 5.00006 10C5.00006 12.7613 7.23881 15 10.0001 15C12.7613 15 15.0001 12.7613 15.0001 10C15.0001 7.23875 12.7613 5 10.0001 5ZM10.0001 13.125C8.27756 13.125 6.87506 11.7225 6.87506 10C6.87506 8.27625 8.27756 6.875 10.0001 6.875C11.7226 6.875 13.1251 8.27625 13.1251 10C13.1251 11.7225 11.7226 13.125 10.0001 13.125Z" fill="#005698"/>
<path d="M15.375 5.29148C15.743 5.29148 16.0413 4.99319 16.0413 4.62523C16.0413 4.25727 15.743 3.95898 15.375 3.95898C15.0071 3.95898 14.7088 4.25727 14.7088 4.62523C14.7088 4.99319 15.0071 5.29148 15.375 5.29148Z" fill="#005698"/>
</g>
<defs>
<clipPath id="clip0">
<rect width="20" height="20" fill="white"/>
</clipPath>
</defs>
</svg>
