<svg width="20" height="20" viewBox="0 0 20 20" fill="none" xmlns="http://www.w3.org/2000/svg">
<path d="M4.54423 6.65381H0.247375V19.5573H4.54423V6.65381Z" fill="#005698"/>
<path d="M18.6458 7.8325C17.7432 6.84722 16.5494 6.35449 15.0652 6.35449C14.5183 6.35449 14.0212 6.42176 13.5741 6.55639C13.1271 6.69093 12.7496 6.8797 12.4413 7.12278C12.1332 7.36586 11.8879 7.59152 11.7057 7.79976C11.5325 7.99755 11.3631 8.22796 11.1979 8.4886V6.65376H6.91382L6.92695 7.27884C6.93575 7.69564 6.94009 8.98028 6.94009 11.1329C6.94009 13.2858 6.93142 16.0939 6.914 19.5575H11.1979V12.3568C11.1979 11.9142 11.2453 11.5627 11.341 11.3021C11.5234 10.8591 11.7988 10.4883 12.1679 10.1889C12.537 9.88922 12.9947 9.73949 13.5418 9.73949C14.2881 9.73949 14.8373 9.99771 15.189 10.5142C15.5405 11.0307 15.7162 11.7447 15.7162 12.6562V19.557H20.0001V12.1617C19.9998 10.2605 19.5487 8.81747 18.6458 7.8325Z" fill="#005698"/>
<path d="M2.42184 0.442871C1.70144 0.442871 1.11772 0.653527 0.670551 1.07443C0.223426 1.49542 0 2.02692 0 2.66942C0 3.30294 0.216995 3.83261 0.651031 4.25785C1.08493 4.68313 1.65793 4.89588 2.36971 4.89588H2.39575C3.125 4.89588 3.71318 4.68331 4.16017 4.25785C4.60716 3.83261 4.8263 3.30312 4.81768 2.66942C4.80901 2.02696 4.5875 1.49542 4.1536 1.07443C3.71975 0.653345 3.14228 0.442871 2.42184 0.442871Z" fill="#005698"/>
</svg>
