<svg width="88" height="88" viewBox="0 0 88 88" fill="none" xmlns="http://www.w3.org/2000/svg">
<g clip-path="url(#clip0)">
<path d="M56.3791 11.832C56.3791 11.832 80.0758 11.0726 76.6666 23.3275C74.7782 30.1157 59.8427 39.2172 45.7021 44.5455C31.8406 49.7686 18.5646 51.1938 18.5646 51.1938C18.5646 51.1938 32.5509 50.609 48.0971 46.0786C60.9028 42.3468 73.8852 35.3483 81.1469 28.7663C81.4251 28.5142 81.6418 28.2181 81.8698 27.951C87.4844 21.3721 85.363 17.5843 83.9973 16.0591C81.2088 12.9446 70.7021 9.60709 56.3791 11.832Z" fill="#F9A431"/>
<path d="M40.2251 13.3932C39.9052 13.3932 39.5882 13.408 39.273 13.408C40.2465 13.0371 41.2198 12.6395 42.1905 12.2732C56.0519 7.05015 69.3274 5.63916 69.3274 5.63916C69.3274 5.63916 55.3408 6.22409 39.7949 10.7547C26.9895 14.4861 14.0067 21.4846 6.74508 28.0666C6.467 28.3187 6.25008 28.6154 6.02207 28.8825C0.407856 35.4608 2.52892 39.248 3.89441 40.7729C6.68304 43.8879 17.1903 47.2243 31.5134 44.9994C31.5134 44.9994 7.81604 45.7569 11.2257 33.502C12.5227 28.8389 19.9781 23.08 29.1023 18.2065C26.5297 20.9404 24.9517 24.6264 24.9517 28.6777C24.9517 37.113 31.7897 43.9529 40.2251 43.9529C48.6605 43.9529 55.4985 37.1084 55.4985 28.673C55.4983 20.2376 48.6604 13.3932 40.2251 13.3932ZM39.3212 34.5449C33.9192 34.5449 29.5407 30.1665 29.5407 24.7644C29.5407 19.3624 33.9192 14.9839 39.3212 14.9839C44.7231 14.9839 49.1016 19.3625 49.1016 24.7644C49.1016 30.1664 44.7231 34.5449 39.3212 34.5449Z" fill="#005698"/>
<path d="M11.282 66.4205C11.3026 66.276 11.4472 65.1298 11.4472 64.7271C11.4472 64.4586 11.5091 63.3434 11.4781 63.0955L11.7156 63.1575C11.7053 63.2917 11.7569 63.8803 11.7879 64.0662C12.0667 64.7271 12.6759 65.1917 13.3884 65.1917C14.2042 65.1917 14.8548 64.6547 14.8548 63.8907C14.8548 63.0543 14.2042 62.6413 13.533 62.2075C12.521 61.5467 11.7156 60.9684 11.7156 59.8016C11.7156 58.9962 12.3146 57.9842 13.8428 57.9842C14.452 57.9842 14.989 58.1081 15.2368 58.1701C15.3091 57.9223 15.3607 57.6124 15.4226 57.3336L15.6602 57.3027C15.5156 58.3249 15.4124 59.2852 15.4124 60.132L15.1748 60.0287C15.1748 59.6776 15.1542 59.4297 15.1335 59.2439C15.0199 58.8722 14.483 58.3145 13.7602 58.3145C12.8721 58.3145 12.5004 58.8825 12.5004 59.3471C12.5004 60.0183 13.2026 60.3796 13.9874 60.8753C14.8444 61.4123 15.7118 61.9905 15.7118 63.2915C15.7118 64.7269 14.5759 65.5426 13.1716 65.5426C12.676 65.5426 12.0357 65.4393 11.7466 65.2845C11.695 65.4806 11.5917 65.9762 11.5194 66.3583L11.282 66.4205Z" fill="#F9A431"/>
<path d="M18.0141 61.3608C18.0141 60.4315 17.9831 58.7896 17.9419 58.4696C17.7457 58.4283 17.1158 58.3561 16.8679 58.325L16.8266 58.1082C17.0744 58.1185 17.4152 58.1288 17.756 58.1391C18.0967 58.1391 18.4376 58.1495 18.6647 58.1495C18.9951 58.1495 21.4218 58.1495 21.7006 58.0773C21.7315 57.9534 21.7625 57.7778 21.7832 57.5919L22.0207 57.5506C21.9691 57.7674 21.8348 59.3679 21.8142 59.688L21.5869 59.6158C21.5869 59.5435 21.5972 59.0788 21.5869 58.8724C21.4011 58.5729 19.8108 58.4386 19.2636 58.4386C19.2327 58.5832 19.1914 60.576 19.1914 61.1854V61.3919C20.0794 61.3919 21.081 61.3196 21.3288 61.2266C21.3805 61.0717 21.4115 60.9272 21.4321 60.7826L21.6489 60.762C21.6179 60.9478 21.4321 62.3625 21.3804 62.6929L21.1843 62.6103C21.1945 62.3935 21.2049 62.125 21.2049 61.9186C20.8848 61.7533 20.0793 61.6914 19.1914 61.6914V61.8979C19.1914 62.5278 19.2327 64.7788 19.2636 65.0783C20.2962 65.0783 21.2669 64.9957 21.7419 64.7273C21.8555 64.3659 21.9071 64.0458 21.9691 63.8186L22.2066 63.7566C22.1344 64.0561 21.9072 65.6256 21.8659 66.1419L21.6491 66.1006C21.6491 65.8218 21.6491 65.6359 21.6388 65.4707C21.3393 65.4191 19.0469 65.3778 18.3964 65.3778C18.0454 65.3778 17.2296 65.3983 16.8269 65.4191L16.8785 65.2022C17.0437 65.1919 17.6633 65.1299 17.9421 65.0576C17.9834 64.8718 18.0144 62.9718 18.0144 61.8359V61.3608H18.0141Z" fill="#F9A431"/>
<path d="M24.5912 61.3608C24.5912 60.4315 24.5602 58.7896 24.519 58.4696C24.3228 58.4283 23.6929 58.3561 23.445 58.325L23.4037 58.1082C23.6516 58.1185 23.9923 58.1288 24.3331 58.1391C24.6739 58.1391 25.0147 58.1495 25.2418 58.1495C25.5722 58.1495 27.9988 58.1495 28.2776 58.0773C28.3086 57.9534 28.3396 57.7778 28.3603 57.5919L28.5978 57.5506C28.5462 57.7674 28.4119 59.3679 28.3912 59.688L28.164 59.6158C28.164 59.5435 28.1743 59.0788 28.164 58.8724C27.9782 58.5729 26.3879 58.4386 25.8407 58.4386C25.8098 58.5832 25.7685 60.576 25.7685 61.1854V61.3919C26.6565 61.3919 27.6581 61.3196 27.9059 61.2266C27.9576 61.0717 27.9886 60.9272 28.0091 60.7826L28.226 60.762C28.195 60.9478 28.0091 62.3625 27.9575 62.6929L27.7613 62.6103C27.7716 62.3935 27.782 62.125 27.782 61.9186C27.4619 61.7533 26.6564 61.6914 25.7685 61.6914V61.8979C25.7685 62.5278 25.8098 64.7788 25.8407 65.0783C26.8733 65.0783 27.844 64.9957 28.319 64.7273C28.4326 64.3659 28.4842 64.0458 28.5462 63.8186L28.7837 63.7566C28.7115 64.0561 28.4843 65.6256 28.443 66.1419L28.2262 66.1006C28.2262 65.8218 28.2262 65.6359 28.2159 65.4707C27.9164 65.4191 25.624 65.3778 24.9735 65.3778C24.6225 65.3778 23.8067 65.3983 23.404 65.4191L23.4557 65.2022C23.6208 65.1919 24.2404 65.1299 24.5192 65.0576C24.5605 64.8718 24.5915 62.9718 24.5915 61.8359V61.3608H24.5912Z" fill="#F9A431"/>
<path d="M30.1358 66.4205C30.1564 66.276 30.301 65.1298 30.301 64.7271C30.301 64.4586 30.363 63.3434 30.332 63.0955L30.5695 63.1575C30.5592 63.2917 30.6108 63.8803 30.6417 64.0662C30.9205 64.7271 31.5298 65.1917 32.2423 65.1917C33.0581 65.1917 33.7086 64.6547 33.7086 63.8907C33.7086 63.0543 33.0581 62.6413 32.3869 62.2075C31.3749 61.5467 30.5695 60.9684 30.5695 59.8016C30.5695 58.9962 31.1684 57.9842 32.6966 57.9842C33.3059 57.9842 33.8428 58.1081 34.0906 58.1701C34.163 57.9223 34.2145 57.6124 34.2765 57.3336L34.514 57.3027C34.3694 58.3249 34.2662 59.2852 34.2662 60.132L34.0287 60.0287C34.0287 59.6776 34.0081 59.4297 33.9874 59.2439C33.8738 58.8722 33.3369 58.3145 32.6141 58.3145C31.7261 58.3145 31.3544 58.8825 31.3544 59.3471C31.3544 60.0183 32.0565 60.3796 32.8413 60.8753C33.6983 61.4123 34.5658 61.9905 34.5658 63.2915C34.5658 64.7269 33.4299 65.5426 32.0255 65.5426C31.5299 65.5426 30.8897 65.4393 30.6006 65.2845C30.5489 65.4806 30.4457 65.9762 30.3733 66.3583L30.1358 66.4205Z" fill="#F9A431"/>
<path d="M45.2832 65.2021C45.4277 65.1918 46.2125 65.0989 46.419 65.0782C46.3984 64.6962 45.5001 60.0494 45.3761 59.2854H45.3347C45.056 59.9152 43.0217 64.8717 42.712 65.4603C42.4228 64.8202 40.4815 59.6675 40.3576 59.2751H40.3164C40.0479 60.855 39.4386 63.7256 39.48 65.0576C39.6659 65.099 40.2441 65.1815 40.399 65.2022L40.4403 65.4191C40.2957 65.3984 39.0979 65.3778 38.9017 65.3778C38.6229 65.3778 38.0963 65.3983 37.7556 65.4191L37.8278 65.2022C38.0034 65.1712 38.3338 65.1299 38.5609 65.068C38.7881 64.4174 39.9137 59.3165 40.0685 58.4698C39.7898 58.4285 39.1599 58.3459 39.0463 58.3252L38.9843 58.1083C39.1185 58.1289 39.924 58.1497 40.4712 58.1497C40.9152 58.1497 41.731 58.129 42.0201 58.1083L41.9788 58.3252C41.6897 58.3562 41.4005 58.4285 41.2044 58.4698C41.5038 59.4095 42.7636 62.7861 43.0837 63.5709C43.3832 62.9823 45.1696 58.7073 45.1902 58.4698C44.9941 58.3975 44.6739 58.3562 44.4881 58.3252L44.4364 58.1083C44.7669 58.1289 45.469 58.1497 45.8304 58.1497C46.1609 58.1497 47.0283 58.129 47.2658 58.1083L47.2348 58.3252C47.0902 58.3458 46.5842 58.4182 46.3675 58.4698C46.5637 59.6263 47.5446 64.4072 47.7202 65.0577C47.9783 65.1197 48.3913 65.1713 48.5772 65.2023L48.6288 65.4192C48.2778 65.3985 47.6582 65.3778 47.1729 65.3778C46.6979 65.3778 45.562 65.3984 45.2626 65.4192L45.2832 65.2021Z" fill="#005698"/>
<path d="M50.3939 61.3608C50.3939 60.4314 50.3629 58.7896 50.3216 58.4696C50.1255 58.4283 49.4956 58.3561 49.2478 58.325L49.2064 58.1082C49.4542 58.1185 49.795 58.1288 50.1359 58.1391C50.4766 58.1391 50.8173 58.1495 51.0445 58.1495C51.3749 58.1495 53.8015 58.1495 54.0803 58.0773C54.1114 57.9534 54.1422 57.7778 54.1629 57.5919L54.4003 57.5506C54.3487 57.7674 54.2145 59.3679 54.1938 59.688L53.9667 59.6158C53.9667 59.5435 53.977 59.0788 53.9667 58.8724C53.7808 58.5729 52.1906 58.4386 51.6433 58.4386C51.6123 58.5832 51.5711 60.576 51.5711 61.1853V61.3919C52.4592 61.3919 53.4608 61.3196 53.7086 61.2266C53.7602 61.0717 53.7911 60.9272 53.8118 60.7826L54.0286 60.762C53.9977 60.9478 53.8118 62.3625 53.7602 62.6929L53.564 62.6103C53.5744 62.3935 53.5847 62.125 53.5847 61.9186C53.2645 61.7533 52.4592 61.6913 51.5711 61.6913V61.8979C51.5711 62.5278 51.6124 64.7788 51.6433 65.0783C52.6759 65.0783 53.6466 64.9957 54.1216 64.7273C54.2352 64.3659 54.2867 64.0458 54.3487 63.8186L54.5862 63.7566C54.514 64.0561 54.2867 65.6256 54.2455 66.1419L54.0286 66.1006C54.0286 65.8218 54.0286 65.6359 54.0183 65.4707C53.7189 65.4191 51.4265 65.3777 50.7759 65.3777C50.4249 65.3777 49.6091 65.3983 49.2063 65.4191L49.258 65.2022C49.4232 65.1919 50.0428 65.1299 50.3216 65.0576C50.3629 64.8717 50.3938 62.9718 50.3938 61.8359V61.3608H50.3939Z" fill="#005698"/>
<path d="M56.971 61.0304C56.971 60.5657 56.9504 58.6761 56.8987 58.4695C56.6302 58.4179 56.0521 58.3457 55.8042 58.3249L55.7835 58.1081C55.9385 58.1287 57.0537 58.1494 57.4873 58.1494C57.8487 58.1494 59.0774 58.1081 59.8725 58.1081C61.0807 58.1081 62.103 58.2526 62.7844 58.583C63.9926 59.1613 64.4779 60.1423 64.4779 61.0819C64.4779 63.2606 62.7637 65.3981 58.7986 65.3981C58.2204 65.3981 56.0313 65.4084 55.7834 65.4188L55.8248 65.2018C56.0209 65.1915 56.6509 65.1296 56.8986 65.0573C56.9503 64.8817 56.9709 63.0437 56.9709 61.846V61.0304H56.971ZM58.1482 61.9391C58.1482 62.4967 58.1792 64.438 58.2204 64.8097C58.6747 64.9853 59.0774 64.9956 59.3459 64.9956C61.3182 64.9956 63.2079 63.8391 63.2079 61.6396C63.2079 60.7619 62.9394 59.8946 62.0824 59.2544C61.3286 58.6968 60.0895 58.4902 59.1291 58.4902C58.8917 58.4902 58.4373 58.5108 58.2204 58.5522C58.1894 58.7071 58.1482 61.082 58.1482 61.5364V61.9391Z" fill="#005698"/>
<path d="M67.8023 61.7843C67.8023 63.1266 67.8126 64.8511 67.8539 65.0575C68.1121 65.1195 68.7316 65.1814 68.9381 65.2021L68.9897 65.419C68.7626 65.3983 67.6887 65.3777 67.0485 65.3777C66.6974 65.3777 65.7474 65.3982 65.4376 65.419L65.4789 65.2021C65.6545 65.1918 66.3566 65.0989 66.5734 65.0575C66.6147 64.6238 66.625 62.7135 66.625 61.7015V61.0923C66.625 60.7516 66.6147 58.8207 66.5734 58.4695C66.3669 58.4282 65.6853 58.3457 65.4892 58.3249L65.4376 58.1081C65.6338 58.1287 66.5837 58.1494 67.3995 58.1494C67.9261 58.1494 68.8142 58.1287 68.9897 58.1081L68.938 58.3249C68.7315 58.3456 68.2256 58.4282 67.8538 58.4695C67.8125 58.6761 67.8022 59.8739 67.8022 61.144V61.7843H67.8023Z" fill="#005698"/>
<path d="M73.8943 65.2021C74.2556 65.1711 74.6171 65.1299 74.9372 65.0575C74.7514 64.5205 74.0183 62.3315 73.853 62.032C73.4917 62.032 71.8498 62.1042 71.4678 62.1662C71.4058 62.3109 70.8482 64.2624 70.7449 65.0574C71.0031 65.1297 71.3439 65.171 71.6329 65.202L71.6743 65.4189C71.3542 65.3983 70.4146 65.3776 70.1151 65.3776C69.8465 65.3776 69.1548 65.3982 68.9173 65.4189L68.9483 65.202C69.2477 65.171 69.5576 65.1195 69.8363 65.0574C70.2081 64.4069 72.2629 58.8516 72.4075 58.4592C72.1804 58.3972 71.8397 58.356 71.5918 58.325L71.5815 58.1082C71.8912 58.1287 72.7483 58.1495 72.9238 58.1495C73.3576 58.1495 74.3901 58.1288 74.6895 58.1082L74.6585 58.325C74.39 58.356 74.1112 58.3972 73.8737 58.4592C73.9976 58.9135 74.5655 60.5348 74.9579 61.6189C75.247 62.414 75.8873 64.1487 76.3622 65.0574C76.6617 65.1194 76.9612 65.1607 77.2709 65.202L77.3019 65.4189C77.178 65.3983 76.1351 65.3776 75.5878 65.3776C75.2884 65.3776 74.1215 65.3982 73.8427 65.4189L73.8943 65.2021ZM72.7274 58.6348H72.7068C72.3867 59.5538 71.7155 61.3402 71.6123 61.681L73.7808 61.7223C73.5535 61.0408 72.903 59.2028 72.7274 58.6348Z" fill="#005698"/>
<path d="M30.606 76.374C30.606 76.7561 30.606 77.3034 30.6267 77.5925C30.0277 77.768 28.6854 77.9333 27.9832 77.9333C27.3121 77.9333 26.1142 77.8714 25.2469 77.4376C23.9458 76.787 23.192 75.6202 23.192 74.3295C23.192 72.8736 23.9148 71.8307 24.8235 71.2111C25.7632 70.5709 26.8061 70.3746 27.8593 70.3746C28.7473 70.3746 29.8316 70.5088 30.1723 70.6328C30.2136 70.4676 30.3272 69.8894 30.3582 69.6725L30.5957 69.6209C30.5337 70.0236 30.4201 71.8513 30.4511 72.8116L30.2136 72.6877C30.1929 72.3367 30.1413 71.9752 30.1 71.7378C29.8315 71.4176 29.0984 70.7361 27.4152 70.7361C25.6185 70.7361 24.4207 72.0682 24.4207 73.7203C24.4207 75.4034 25.856 77.5615 28.0865 77.5615C28.3549 77.5615 28.9642 77.5202 29.3978 77.293C29.4185 77.1381 29.4288 76.787 29.4288 76.2707V75.7235C29.4288 75.4033 29.4185 75.0833 29.3875 74.8974C29.181 74.8767 28.5408 74.8251 28.3446 74.7838L28.2826 74.567C28.8196 74.5875 29.6147 74.5979 29.9761 74.5979C30.4717 74.5979 31.4733 74.5876 31.5972 74.567L31.5456 74.7838C31.4526 74.7941 30.8744 74.8457 30.6473 74.8974C30.6163 75.0729 30.606 75.7544 30.606 76.0435V76.374Z" fill="black"/>
<path d="M33.631 73.4105C33.631 73.0387 33.6206 71.0561 33.5793 70.86C33.4038 70.8187 32.7016 70.7568 32.4745 70.7362L32.4435 70.5192L34.6739 70.5089C35.6548 70.5089 36.8836 70.5192 37.5858 70.7981C38.1331 71.0149 38.4738 71.4073 38.4738 71.9752C38.4738 72.6258 37.8129 73.4828 37.0178 73.9269C37.1314 74.1851 38.7939 76.8904 39.8678 78.0263L39.4135 78.0985C38.6906 77.7681 35.944 74.598 35.7787 74.3812C35.3863 74.4122 34.9629 74.4432 34.7874 74.4432V74.7117C34.7874 75.3828 34.808 76.973 34.839 77.448C35.0145 77.4997 35.696 77.5719 35.9232 77.5926L35.9645 77.8095C35.7063 77.7888 34.6634 77.7682 34.1884 77.7682C33.765 77.7682 32.6808 77.7888 32.4433 77.8095L32.4846 77.5926C32.6292 77.5823 33.29 77.5204 33.5791 77.448C33.6204 77.1486 33.6308 75.1247 33.6308 74.0405V73.4105H33.631ZM34.7875 74.123C35.1592 74.123 35.6032 74.092 36.0472 73.9269C36.4912 73.7616 37.2243 73.2867 37.2243 72.2644C37.2243 71.6035 36.6254 70.7981 34.839 70.7981C34.8081 71.2215 34.7875 73.0697 34.7875 73.803V74.123Z" fill="black"/>
<path d="M41.2406 76.7767C40.4868 76.0022 40.2492 75.2485 40.2492 74.2779C40.2492 72.2334 41.9323 70.3747 44.7824 70.3747C45.8769 70.3747 46.7443 70.5503 47.6427 71.2112C48.4584 71.8101 48.8921 72.8117 48.8921 73.7721C48.8921 76.3019 46.9715 77.9334 44.4313 77.9334C43.3883 77.9332 42.2008 77.7577 41.2406 76.7767ZM47.6323 74.5257C47.6323 72.3366 46.1144 70.767 44.4002 70.767C42.9855 70.767 41.4366 71.717 41.4366 73.8442C41.4366 75.6926 42.9236 77.5099 44.9371 77.5099C46.4138 77.5099 47.6323 76.1778 47.6323 74.5257Z" fill="black"/>
<path d="M50.7088 73.1936C50.7088 72.2643 50.6882 71.1491 50.6572 70.8599C50.4403 70.8083 50.1202 70.7567 49.8413 70.7153L49.8104 70.4985C50.0994 70.5191 50.7603 70.5398 51.5554 70.5398C52.0303 70.5398 52.8255 70.5191 53.0836 70.4985L53.032 70.7153C52.7532 70.7464 52.2885 70.7979 51.9581 70.8599C51.9271 71.0354 51.9065 72.3468 51.9065 73.2348V74.6082C51.9065 76.7972 52.8359 77.5408 53.951 77.5408C54.6325 77.5408 55.0868 77.3755 55.4379 77.0451C55.9954 76.5185 56.1296 75.6097 56.1296 74.3706V73.4206C56.1296 73.0902 56.1193 71.2005 56.0781 70.8597C55.8406 70.8184 55.221 70.7359 54.9526 70.7151L54.8803 70.4983C55.1384 70.5189 55.9128 70.5396 56.5531 70.5396C57.0901 70.5396 57.6373 70.519 57.8128 70.4983L57.7509 70.7151C57.5753 70.7565 57.2965 70.7978 57.028 70.8597C56.9971 71.0147 56.9764 72.3054 56.9764 72.5842V73.0799C56.9764 73.4825 56.9971 73.9782 56.9971 74.35C56.9971 75.5168 56.7801 76.5081 55.9851 77.2103C55.5101 77.6337 54.8492 77.9331 53.827 77.9331C51.6895 77.9331 50.7085 76.6114 50.7085 74.8043V73.1936H50.7088Z" fill="black"/>
<path d="M61.0446 73.8854C61.0446 74.7632 61.0549 77.1484 61.0962 77.4478C61.344 77.4892 62.0875 77.5614 62.4076 77.5924L62.4592 77.8093C62.1184 77.7886 60.9619 77.768 60.487 77.768C59.9707 77.768 58.9897 77.7886 58.7006 77.8093L58.7419 77.5924C58.8967 77.5718 59.568 77.4995 59.8364 77.4478C59.8777 76.9935 59.888 74.7941 59.888 73.8337V73.4208C59.888 73.0903 59.8777 71.2111 59.8364 70.8599C59.6402 70.7876 58.9794 70.7361 58.7315 70.7153L58.7005 70.4985C59.0103 70.4985 60.5178 70.4882 60.9928 70.4882C62.1183 70.4882 62.9754 70.5811 63.4814 70.7875C64.4004 71.1696 64.4933 71.7995 64.4933 72.0577C64.4933 72.7599 64.1939 73.2865 63.7807 73.6995C63.0993 74.381 61.984 74.6598 61.6123 74.7115L61.6433 74.4533C62.0151 74.3602 63.2645 73.9886 63.2645 72.4293C63.2645 71.7995 62.9547 71.2832 62.4281 71.025C62.0874 70.8598 61.5504 70.7979 61.096 70.7979C61.0547 71.0973 61.0444 72.5635 61.0444 73.4516V73.8854H61.0446Z" fill="black"/>
</g>
<defs>
<clipPath id="clip0">
<rect width="88" height="88" fill="white"/>
</clipPath>
</defs>
</svg>
