<svg width="103" height="56" viewBox="0 0 103 56" fill="none" xmlns="http://www.w3.org/2000/svg">
<path d="M65.8872 7.58476C65.8872 7.58476 94.2727 6.67505 90.1889 21.3548C87.9269 29.4861 70.0361 40.3884 53.0977 46.771C36.4935 53.0276 20.5908 54.7347 20.5908 54.7347C20.5908 54.7347 37.3444 54.0343 55.9666 48.6075C71.306 44.1373 86.8572 35.7541 95.5556 27.8697C95.8889 27.5677 96.1485 27.2131 96.4216 26.893C103.147 19.0125 100.606 14.4752 98.97 12.6482C95.6297 8.91748 83.0442 4.91963 65.8872 7.58476Z" fill="#484848"/>
<path d="M46.537 9.45473C46.1539 9.45473 45.7742 9.47244 45.3966 9.47244C46.5626 9.02824 47.7286 8.55188 48.8913 8.11316C65.4953 1.85667 81.3975 0.166504 81.3975 0.166504C81.3975 0.166504 64.6436 0.867174 46.0217 6.29418C30.6826 10.7639 15.1311 19.1471 6.43264 27.0315C6.09954 27.3335 5.8397 27.6888 5.56658 28.0087C-1.15848 35.8887 1.38226 40.4252 3.01793 42.2518C6.35832 45.9832 18.9446 49.9797 36.1017 47.3145C36.1017 47.3145 7.7155 48.222 11.7998 33.5423C13.3534 27.9566 22.2839 21.0582 33.2134 15.2204C30.1318 18.4952 28.2417 22.9106 28.2417 27.7634C28.2417 37.8678 36.4326 46.0611 46.537 46.0611C56.6415 46.0611 64.8325 37.8623 64.8325 27.7579C64.8323 17.6534 56.6414 9.45473 46.537 9.45473ZM45.4542 34.7915C38.9834 34.7915 33.7386 29.5468 33.7386 23.0759C33.7386 16.605 38.9834 11.3603 45.4542 11.3603C51.925 11.3603 57.1699 16.6051 57.1699 23.0759C57.1699 29.5467 51.925 34.7915 45.4542 34.7915Z" fill="#484848"/>
</svg>
