<svg width="72" height="80" viewBox="0 0 72 80" fill="none" xmlns="http://www.w3.org/2000/svg">
<g clip-path="url(#clip0)">
<path d="M25.3858 20.5085C25.0586 20.7585 24.7472 21.0228 24.4829 21.3028C25.6958 20.5557 26.8472 19.8871 27.9358 19.2642C27.0329 19.4985 26.1786 19.9185 25.3858 20.5085ZM66.8829 43.1871C69.2943 41.1958 70.3829 37.883 69.3872 34.7414C68.3458 31.4285 65.3129 29.2814 62.03 29.2357C63.0415 26.1085 62.0158 22.5471 59.2158 20.4771C58.4388 19.9028 57.5988 19.4985 56.7272 19.2485C54.8443 21.2085 53.1645 23.1685 51.6558 25.05C54.13 26.31 56.3215 28.0842 58.08 30.2157C58.7029 30.9771 59.2773 31.8014 59.7902 32.6571C61.3772 35.27 62.373 38.2571 62.6373 41.46C62.6845 42.02 62.7159 42.5957 62.7159 43.1714C62.7159 43.7785 62.6845 44.3685 62.6373 44.9442C62.3573 48.1798 61.3316 51.1984 59.713 53.8257C59.2159 54.6512 58.6559 55.4285 58.0645 56.1741C55.903 58.7555 53.1488 60.8098 49.9916 62.07C49.1515 62.4271 48.2659 62.7227 47.363 62.9571C45.7459 63.3598 44.0659 63.5785 42.323 63.5785C40.5973 63.5785 38.9173 63.36 37.2988 62.9571C36.3816 62.7227 35.4959 62.4271 34.6402 62.07C31.5288 60.8257 28.8073 58.8185 26.6916 56.2985C26.0388 55.5215 25.4473 54.7128 24.9188 53.8414C23.3316 51.2601 22.3045 48.3042 22.0102 45.1157C21.9788 44.8201 21.963 44.5401 21.9473 44.2442C19.8016 47.7914 19.1945 50.9957 19.6459 53.1571C20.3145 56.4228 25.2145 56.5957 25.2616 56.5957C26.2402 56.61 27.0502 57.3871 27.0802 58.3671C27.1273 59.3641 26.3959 60.2041 25.4159 60.3112C24.343 60.4214 23.2859 60.5141 22.2745 60.5757C22.4916 62.7071 23.5502 64.7284 25.4159 66.0985C28.263 68.2143 32.073 68.1213 34.7802 66.0985C35.7602 69.3185 38.7616 71.6828 42.3088 71.6828C45.8859 71.6828 48.903 69.3028 49.8673 66.067C52.5743 68.1057 56.4 68.2141 59.2458 66.0827C62.0772 63.9827 63.0886 60.3441 61.9988 57.1855C65.3445 57.1555 68.4388 54.977 69.4659 51.6171C70.43 48.46 69.31 45.1471 66.8829 43.1871ZM22.3043 58.6943C22.3043 58.6943 22.3043 58.6942 22.3043 58.7114C22.5072 58.6942 22.71 58.6785 22.9115 58.6642C22.6943 58.6785 22.5072 58.6785 22.3043 58.6943Z" fill="#F9A431"/>
<path d="M49.717 27.7778C45.2527 33.8435 42.9825 38.5107 42.9354 38.5878C42.624 39.2407 41.9711 39.645 41.2554 39.645C41.1311 39.645 41.0068 39.6293 40.8827 39.5993C40.0425 39.4278 39.4354 38.7121 39.3884 37.8578L39.0312 30.1893C33.4169 32.9107 29.2484 35.9593 26.2611 38.9921C25.9497 40.2378 25.7939 41.5278 25.7939 42.865C25.7939 52.105 33.2911 59.5864 42.5154 59.5864C51.754 59.5864 59.2354 52.105 59.2354 42.865C59.2355 36.2236 55.347 30.4693 49.717 27.7778ZM41.3027 52.4464C41.3027 52.4464 34.3955 45.4478 32.1712 45.4478C32.1712 45.4478 35.6712 44.1878 37.6155 42.1493C38.0354 41.6836 40.3369 47.0021 40.7268 47.1891C41.1155 47.3921 47.244 34.9478 52.1897 33.2993C52.1897 33.2993 51.3197 39.0393 52.874 40.2521C52.8741 40.2521 46.1712 43.8921 41.3027 52.4464Z" fill="#F9A431"/>
<path d="M61.9805 11.9022C59.2589 14.1737 56.8003 16.5537 54.6076 18.918C52.9433 20.7208 51.4348 22.5108 50.0819 24.2208C49.2733 25.2322 48.526 26.2122 47.8418 27.1608C43.3775 33.2737 41.1689 37.8937 41.1689 37.8937L40.6875 27.4565C35.2432 29.8208 30.9189 32.5422 27.559 35.358C25.3976 37.1622 23.6233 39.0137 22.2248 40.8338C18.5062 45.6867 17.3405 50.3524 17.9933 53.5108C18.3048 55.0808 19.2062 56.1381 20.2633 56.8695C21.0105 57.3824 21.8348 57.7251 22.6133 57.9579C24.1219 58.4094 25.3976 58.4409 25.3976 58.4409C24.8219 58.5037 24.2462 58.5495 23.6862 58.5967C23.4848 58.611 23.2819 58.6281 23.079 58.6438C22.8619 58.6581 22.6748 58.6581 22.4719 58.6738C21.7876 58.7209 21.1348 58.7524 20.4976 58.7824C19.969 58.7824 19.4705 58.7981 18.9733 58.7981C16.0805 58.7981 13.5762 58.5495 11.4448 58.0681C10.9162 57.9579 10.4033 57.8181 9.92047 57.6795C-2.63096 53.9622 0.090466 41.5808 15.3648 29.8522C17.7762 28.0008 20.2633 26.2751 22.659 24.7351C26.1905 22.4637 29.5033 20.5665 32.0548 19.1665C35.119 17.518 37.0935 16.568 37.0935 16.568L30.3905 7.93652C30.8105 8.09224 37.6376 10.6894 45.0576 11.3737L61.9805 11.9022Z" fill="#F9A431"/>
<path d="M22.9115 58.6643C22.7101 58.6786 22.5072 58.6943 22.3044 58.7114C21.6201 58.7557 20.9672 58.7884 20.3301 58.8029C20.9672 58.7729 21.6201 58.7414 22.3044 58.6943C22.5072 58.6786 22.6944 58.6786 22.9115 58.6643Z" fill="#F9A431"/>
<path d="M22.3044 58.6943C21.6201 58.7414 20.9672 58.7729 20.3301 58.8029C20.9672 58.7884 21.6201 58.7557 22.3044 58.7114C22.5072 58.6943 22.7101 58.6786 22.9115 58.6643C22.6944 58.6786 22.5072 58.6786 22.3044 58.6943Z" fill="#F9A431"/>
</g>
<defs>
<clipPath id="clip0">
<rect width="71.4286" height="80" fill="white"/>
</clipPath>
</defs>
</svg>
