<svg width="72" height="72" viewBox="0 0 72 72" fill="none" xmlns="http://www.w3.org/2000/svg">
<path d="M36.1394 32.321C42.2316 32.321 47.1703 27.3823 47.1703 21.2901C47.1703 15.1978 42.2316 10.2591 36.1394 10.2591C30.0471 10.2591 25.1084 15.1978 25.1084 21.2901C25.1084 27.3823 30.0471 32.321 36.1394 32.321Z" fill="#F9A431"/>
<path d="M36.2998 55.5197V55.5279C36.2451 55.5261 36.1919 55.5261 36.1372 55.5248C36.1902 55.5229 36.2451 55.5229 36.2998 55.5197Z" fill="#EF9529"/>
<path d="M36.1376 55.5246C36.0843 55.5261 36.0312 55.5261 35.978 55.5278V55.5196C36.0312 55.5229 36.0843 55.5229 36.1376 55.5246Z" fill="#EF9529"/>
<path d="M70.063 44.8125C69.744 46.7771 68.839 48.096 68.6282 48.2233C68.2271 48.4632 65.9148 49.9384 53.9432 49.1427C54.2025 47.576 54.5343 44.7432 54.2202 41.8222C53.8741 38.6175 52.8466 36.2825 51.1623 34.8831C51.0897 34.8235 51.0173 34.7655 50.9448 34.7076L53.3748 34.189C54.7696 35.4241 56.602 36.1729 58.6099 36.1729C60.6149 36.1729 62.446 35.4258 63.8403 34.1938C64.7906 34.3211 69.5459 35.1407 69.9566 38.7625C70.174 40.6853 70.3513 43.0329 70.063 44.8125Z" fill="#EE9429"/>
<path d="M2.30124 44.8125C2.6202 46.7771 3.52524 48.096 3.73606 48.2233C4.1371 48.4632 6.44945 49.9385 18.421 49.1427C18.1617 47.576 17.8299 44.7432 18.144 41.8222C18.4903 38.6175 19.5177 36.2825 21.2021 34.8831C21.2745 34.8235 21.3471 34.7655 21.4194 34.7076L18.9137 34.1729C18.9137 34.1729 17.3033 35.9443 13.7606 35.9443C10.4996 35.9443 8.68793 34.1729 8.68793 34.1729C8.68793 34.1729 2.86327 34.7365 2.40751 38.7625C2.19022 40.6853 2.01295 43.0329 2.30124 44.8125Z" fill="#EE9429"/>
<path d="M58.288 33.7569C62.6496 33.7569 66.1854 30.2211 66.1854 25.8595C66.1854 21.4979 62.6496 17.9621 58.288 17.9621C53.9264 17.9621 50.3906 21.4979 50.3906 25.8595C50.3906 30.2211 53.9264 33.7569 58.288 33.7569Z" fill="#EE9429"/>
<path d="M13.52 33.7569C17.8816 33.7569 21.4173 30.2211 21.4173 25.8595C21.4173 21.4979 17.8816 17.9621 13.52 17.9621C9.15834 17.9621 5.62256 21.4979 5.62256 25.8595C5.62256 30.2211 9.15834 33.7569 13.52 33.7569Z" fill="#EE9429"/>
<path d="M50.0233 36.6163C48.4623 35.0999 44.318 34.3555 44.318 34.3555C44.318 34.3555 44.1583 35.0812 43.8631 35.5636C43.5678 36.046 42.9933 36.7171 42.4518 37.4716C42.1609 37.8734 37.8093 43.8019 37.8093 43.8019C37.8093 43.8019 37.2535 42.4182 37.0533 38.7748C36.9482 36.8524 37.926 36.5961 38.5596 35.9308C38.7006 35.7811 39.1025 35.4283 39.0735 35.1935C39.0333 34.8623 38.5063 34.8479 38.5063 34.8479C38.5063 34.8479 37.6092 34.8479 36.5738 34.8479H35.9777C34.9423 34.8479 34.0452 34.8479 34.0452 34.8479C34.0452 34.8479 33.5181 34.8623 33.4778 35.1935C33.4476 35.4283 33.8508 35.7811 33.9919 35.9308C34.6255 36.5961 35.6033 36.8524 35.4981 38.7748C35.298 42.4182 34.7407 43.8019 34.7407 43.8019C34.7407 43.8019 30.389 37.8734 30.0996 37.4716C29.5581 36.7172 28.9821 36.046 28.6884 35.5636C28.3932 35.0812 28.2333 34.3555 28.2333 34.3555C28.2333 34.3555 24.0905 35.0999 22.5281 36.6163C18.5853 40.4467 20.7194 52.9457 22.2329 53.4973C25.5794 54.7141 30.8311 55.4024 35.969 55.519H35.9777C35.9993 55.5205 36.0223 55.522 36.0439 55.522C36.0626 55.5235 36.0813 55.5235 36.1015 55.5249H36.1231C36.1765 55.5249 36.2109 55.5566 36.2642 55.5523C36.2772 55.5523 36.2829 55.584 36.2858 55.584H36.2871C36.29 55.584 36.2929 55.5523 36.2986 55.5523C36.3534 55.5565 36.3836 55.5408 36.4369 55.5422C36.4902 55.5408 36.5319 55.5321 36.5852 55.5278C41.7231 55.411 46.9734 54.7185 50.3199 53.5017C51.8334 52.9502 53.966 40.4467 50.0233 36.6163ZM48.3831 46.656H41.7591V44.928H48.3831V46.656Z" fill="#F9A431"/>
<path d="M48.3828 44.928H41.7588V46.656H48.3828V44.928Z" fill="white"/>
</svg>
