<svg width="20" height="20" viewBox="0 0 20 20" fill="none" xmlns="http://www.w3.org/2000/svg">
<g clip-path="url(#clip0)">
<path d="M20.0001 3.79875C19.2563 4.125 18.4638 4.34125 17.6376 4.44625C18.4876 3.93875 19.1363 3.14125 19.4413 2.18C18.6488 2.6525 17.7738 2.98625 16.8413 3.1725C16.0888 2.37125 15.0163 1.875 13.8463 1.875C11.5763 1.875 9.74881 3.7175 9.74881 5.97625C9.74881 6.30125 9.77631 6.61375 9.84381 6.91125C6.43506 6.745 3.41881 5.11125 1.39256 2.6225C1.03881 3.23625 0.831311 3.93875 0.831311 4.695C0.831311 6.115 1.56256 7.37375 2.65256 8.1025C1.99381 8.09 1.34756 7.89875 0.800061 7.5975C0.800061 7.61 0.800061 7.62625 0.800061 7.6425C0.800061 9.635 2.22131 11.29 4.08506 11.6712C3.75131 11.7625 3.38756 11.8062 3.01006 11.8062C2.74756 11.8062 2.48256 11.7913 2.23381 11.7362C2.76506 13.36 4.27256 14.5538 6.06506 14.5925C4.67006 15.6838 2.89881 16.3412 0.981311 16.3412C0.645061 16.3412 0.322561 16.3263 6.10352e-05 16.285C1.81631 17.4563 3.96881 18.125 6.29006 18.125C13.8351 18.125 17.9601 11.875 17.9601 6.4575C17.9601 6.27625 17.9538 6.10125 17.9451 5.9275C18.7588 5.35 19.4426 4.62875 20.0001 3.79875Z" fill="#005698"/>
</g>
<defs>
<clipPath id="clip0">
<rect width="20" height="20" fill="white"/>
</clipPath>
</defs>
</svg>
